<svg width="28" height="28" viewBox="0 0 28 28" fill="none" xmlns="http://www.w3.org/2000/svg">
<path d="M7 25.6666V4.66659C7 4.04775 7.24583 3.45425 7.68342 3.01667C8.121 2.57908 8.71449 2.33325 9.33333 2.33325H18.6667C19.2855 2.33325 19.879 2.57908 20.3166 3.01667C20.7542 3.45425 21 4.04775 21 4.66659V25.6666H7Z" stroke="white" stroke-width="2.33333" stroke-linecap="round" stroke-linejoin="round"/>
<path d="M6.99992 14H4.66659C4.04775 14 3.45425 14.2458 3.01667 14.6834C2.57908 15.121 2.33325 15.7145 2.33325 16.3333V23.3333C2.33325 23.9522 2.57908 24.5457 3.01667 24.9832C3.45425 25.4208 4.04775 25.6667 4.66659 25.6667H6.99992" stroke="white" stroke-width="2.33333" stroke-linecap="round" stroke-linejoin="round"/>
<path d="M21 10.5H23.3333C23.9522 10.5 24.5457 10.7458 24.9832 11.1834C25.4208 11.621 25.6667 12.2145 25.6667 12.8333V23.3333C25.6667 23.9522 25.4208 24.5457 24.9832 24.9832C24.5457 25.4208 23.9522 25.6667 23.3333 25.6667H21" stroke="white" stroke-width="2.33333" stroke-linecap="round" stroke-linejoin="round"/>
<path d="M11.6667 7H16.3334" stroke="white" stroke-width="2.33333" stroke-linecap="round" stroke-linejoin="round"/>
<path d="M11.6667 11.6667H16.3334" stroke="white" stroke-width="2.33333" stroke-linecap="round" stroke-linejoin="round"/>
<path d="M11.6667 16.3333H16.3334" stroke="white" stroke-width="2.33333" stroke-linecap="round" stroke-linejoin="round"/>
<path d="M11.6667 21H16.3334" stroke="white" stroke-width="2.33333" stroke-linecap="round" stroke-linejoin="round"/>
</svg>
