<svg width="32" height="32" viewBox="0 0 32 32" fill="none" xmlns="http://www.w3.org/2000/svg">
<path d="M23.9998 14.6666V7.99998C23.9998 7.29274 23.7189 6.61446 23.2188 6.11436C22.7187 5.61426 22.0404 5.33331 21.3332 5.33331C20.6259 5.33331 19.9477 5.61426 19.4476 6.11436C18.9475 6.61446 18.6665 7.29274 18.6665 7.99998" stroke="#0B1D4F" stroke-width="2" stroke-linecap="round" stroke-linejoin="round"/>
<path d="M18.6668 13.3334V5.33335C18.6668 4.62611 18.3859 3.94783 17.8858 3.44774C17.3857 2.94764 16.7074 2.66669 16.0002 2.66669C15.2929 2.66669 14.6146 2.94764 14.1145 3.44774C13.6144 3.94783 13.3335 4.62611 13.3335 5.33335V8.00002" stroke="#0B1D4F" stroke-width="2" stroke-linecap="round" stroke-linejoin="round"/>
<path d="M13.3333 14V7.99998C13.3333 7.29274 13.0524 6.61446 12.5523 6.11436C12.0522 5.61426 11.3739 5.33331 10.6667 5.33331C9.95942 5.33331 9.28115 5.61426 8.78105 6.11436C8.28095 6.61446 8 7.29274 8 7.99998V18.6666" stroke="#0B1D4F" stroke-width="2" stroke-linecap="round" stroke-linejoin="round"/>
<path d="M24 10.6667C24 9.95942 24.2809 9.28115 24.781 8.78105C25.2811 8.28095 25.9594 8 26.6666 8C27.3739 8 28.0522 8.28095 28.5523 8.78105C29.0524 9.28115 29.3333 9.95942 29.3333 10.6667V18.6667C29.3333 21.4956 28.2095 24.2088 26.2091 26.2091C24.2087 28.2095 21.4956 29.3333 18.6666 29.3333H16C12.2666 29.3333 9.99997 28.1867 8.01331 26.2133L3.21331 21.4133C2.75456 20.9053 2.50876 20.2402 2.52681 19.5559C2.54486 18.8716 2.82537 18.2205 3.31027 17.7373C3.79517 17.2541 4.44731 16.9759 5.13167 16.9603C5.81603 16.9446 6.48019 17.1928 6.98664 17.6533L9.33331 20" stroke="#0B1D4F" stroke-width="2" stroke-linecap="round" stroke-linejoin="round"/>
</svg>
