<svg width="32" height="32" viewBox="0 0 32 32" fill="none" xmlns="http://www.w3.org/2000/svg">
<path d="M18.6665 2.66663V10.6666C18.6663 11.1139 18.7786 11.5541 18.9931 11.9466L26.3398 25.3866C26.562 25.7928 26.6747 26.2498 26.6667 26.7127C26.6587 27.1756 26.5303 27.6284 26.2942 28.0266C26.0581 28.4249 25.7224 28.7548 25.3201 28.9839C24.9178 29.213 24.4628 29.3334 23.9998 29.3333H7.9998C7.53684 29.3334 7.08182 29.213 6.67952 28.9839C6.27722 28.7548 5.9415 28.4249 5.70539 28.0266C5.46928 27.6284 5.34091 27.1756 5.33292 26.7127C5.32492 26.2498 5.43758 25.7928 5.6598 25.3866L13.0065 11.9466C13.221 11.5541 13.3333 11.1139 13.3331 10.6666V2.66663" stroke="#0B1D4F" stroke-width="2" stroke-linecap="round" stroke-linejoin="round"/>
<path d="M8.604 20H23.396" stroke="#0B1D4F" stroke-width="2" stroke-linecap="round" stroke-linejoin="round"/>
<path d="M11.3335 2.66663H20.6668" stroke="#0B1D4F" stroke-width="2" stroke-linecap="round" stroke-linejoin="round"/>
</svg>
