<svg width="28" height="28" viewBox="0 0 28 28" fill="none" xmlns="http://www.w3.org/2000/svg">
<path d="M11.2829 4.82543C11.3472 4.14916 11.6613 3.52115 12.1639 3.06409C12.6665 2.60703 13.3214 2.35376 14.0007 2.35376C14.68 2.35376 15.3349 2.60703 15.8375 3.06409C16.3401 3.52115 16.6542 4.14916 16.7184 4.82543C16.7571 5.26229 16.9004 5.68342 17.1363 6.05316C17.3721 6.4229 17.6936 6.73037 18.0735 6.94955C18.4534 7.16873 18.8804 7.29316 19.3186 7.31232C19.7567 7.33147 20.1931 7.24479 20.5906 7.0596C21.2079 6.77934 21.9074 6.73878 22.5529 6.94583C23.1985 7.15287 23.7439 7.5927 24.083 8.17972C24.4222 8.76673 24.5308 9.45893 24.3877 10.1216C24.2446 10.7843 23.8601 11.37 23.3089 11.7648C22.9501 12.0166 22.6571 12.3511 22.4548 12.7401C22.2526 13.1291 22.147 13.5611 22.147 13.9995C22.147 14.4379 22.2526 14.8699 22.4548 15.2589C22.6571 15.6479 22.9501 15.9824 23.3089 16.2343C23.8601 16.629 24.2446 17.2148 24.3877 17.8774C24.5308 18.5401 24.4222 19.2323 24.083 19.8193C23.7439 20.4063 23.1985 20.8462 22.5529 21.0532C21.9074 21.2602 21.2079 21.2197 20.5906 20.9394C20.1931 20.7542 19.7567 20.6676 19.3186 20.6867C18.8804 20.7059 18.4534 20.8303 18.0735 21.0495C17.6936 21.2687 17.3721 21.5761 17.1363 21.9459C16.9004 22.3156 16.7571 22.7367 16.7184 23.1736C16.6542 23.8499 16.3401 24.4779 15.8375 24.9349C15.3349 25.392 14.68 25.6453 14.0007 25.6453C13.3214 25.6453 12.6665 25.392 12.1639 24.9349C11.6613 24.4779 11.3472 23.8499 11.2829 23.1736C11.2444 22.7366 11.1011 22.3153 10.8651 21.9454C10.6292 21.5755 10.3076 21.268 9.92755 21.0488C9.54752 20.8296 9.12026 20.7052 8.68195 20.6861C8.24365 20.6671 7.80721 20.754 7.40961 20.9394C6.79232 21.2197 6.09283 21.2602 5.44728 21.0532C4.80173 20.8462 4.25631 20.4063 3.91718 19.8193C3.57804 19.2323 3.46944 18.5401 3.61253 17.8774C3.75562 17.2148 4.14015 16.629 4.69128 16.2343C5.05017 15.9824 5.34313 15.6479 5.54538 15.2589C5.74763 14.8699 5.85322 14.4379 5.85322 13.9995C5.85322 13.5611 5.74763 13.1291 5.54538 12.7401C5.34313 12.3511 5.05017 12.0166 4.69128 11.7648C4.14092 11.3698 3.75707 10.7843 3.61433 10.1221C3.47159 9.45986 3.58015 8.76823 3.91893 8.18159C4.2577 7.59496 4.80248 7.15524 5.44738 6.94788C6.09229 6.74052 6.79126 6.78034 7.40844 7.0596C7.80599 7.24479 8.24231 7.33147 8.68046 7.31232C9.11861 7.29316 9.5457 7.16873 9.92557 6.94955C10.3054 6.73037 10.6269 6.4229 10.8628 6.05316C11.0987 5.68342 11.242 5.26229 11.2806 4.82543" stroke="white" stroke-width="2.33333" stroke-linecap="round" stroke-linejoin="round"/>
<path d="M14 17.5C15.933 17.5 17.5 15.933 17.5 14C17.5 12.067 15.933 10.5 14 10.5C12.067 10.5 10.5 12.067 10.5 14C10.5 15.933 12.067 17.5 14 17.5Z" stroke="white" stroke-width="2.33333" stroke-linecap="round" stroke-linejoin="round"/>
</svg>
