<svg width="18" height="18" viewBox="0 0 18 18" fill="none" xmlns="http://www.w3.org/2000/svg">
<path d="M7.76367 0C8.10867 0 8.38784 0.28 8.38867 0.625C8.38841 0.969776 8.11032 1.25 7.76465 1.25C4.58921 1.25583 3.10577 1.3502 2.22656 2.22656C1.24823 3.2024 1.24805 4.98699 1.24805 8.54199C1.24805 12.097 1.24823 13.8808 2.22656 14.8574C3.20497 15.8338 4.9937 15.834 8.55664 15.834C12.1196 15.834 13.9074 15.834 14.8857 14.8574C15.5007 14.2441 15.7561 13.3153 15.8311 11.4336C15.8444 11.0971 16.1211 10.8342 16.4551 10.834H16.4805C16.8253 10.8482 17.0932 11.1376 17.0801 11.4824C17.0042 13.3783 16.7584 14.7529 15.7676 15.7412C14.4226 17.0826 12.462 17.083 8.55566 17.083L8.55762 17.084C4.65051 17.084 2.68968 17.0837 1.34473 15.7422C-0.000273306 14.3989 0 12.4412 0 8.54199C0 4.64283 -0.000273273 2.6843 1.34473 1.3418C2.61802 0.0711236 4.51716 0.0058369 7.7627 0H7.76367ZM12.2852 1.72852C13.1017 1.48105 13.6744 1.99044 14.4668 2.69531C14.6001 2.81364 14.7454 2.94385 14.9062 3.08301L16.3623 4.34668C17.3646 5.21654 17.9158 5.69695 17.916 6.45508C17.916 7.21341 17.3663 7.69125 16.3672 8.55957L14.9062 9.82812C14.6964 10.0105 14.5141 10.1779 14.3525 10.3262C13.8017 10.8328 13.3435 11.2529 12.7344 11.2529C12.5936 11.2529 12.445 11.2308 12.2852 11.1816C11.382 10.9066 11.3093 9.89858 11.3359 9.16113C11.1627 9.1578 10.9902 9.1526 10.8203 9.14844C9.64203 9.11761 8.4226 9.08667 7.34766 9.34082C6.37449 9.57087 5.53806 10.0908 4.65234 10.6416C4.52985 10.7183 4.40667 10.7941 4.28418 10.8691C4.09179 10.9871 3.85063 10.9907 3.65332 10.8809C3.45582 10.77 3.33301 10.5618 3.33301 10.3359C3.33312 6.69529 5.18995 4.38914 8.56152 3.84082C9.43888 3.69836 10.3311 3.71464 11.1943 3.73047C11.241 3.7313 11.2893 3.73257 11.3359 3.7334C11.3109 2.99846 11.3887 2.00278 12.2852 1.72852ZM12.667 2.9209C12.5847 3.04214 12.5634 3.41369 12.6025 4.02637C12.6109 4.1554 12.6182 4.26781 12.6182 4.36523C12.6182 4.71018 12.3381 4.99015 11.9932 4.99023C11.719 4.99023 11.4401 4.98547 11.1709 4.98047C10.3628 4.96547 9.52817 4.95096 8.76172 5.07422C6.36505 5.46422 4.98849 6.84007 4.66016 9.1709C5.39097 8.73591 6.16475 8.33667 7.06055 8.125C8.29289 7.83337 9.59436 7.86692 10.8525 7.89941C11.2484 7.90941 11.6225 7.91992 11.9941 7.91992C12.339 7.9201 12.6191 8.20003 12.6191 8.54492C12.6191 8.64234 12.6109 8.75394 12.6025 8.88379C12.5634 9.49958 12.5856 9.87204 12.6689 9.99121C12.7972 10.0228 12.9112 9.95346 13.5059 9.40625C13.6733 9.25216 13.8636 9.07799 14.0859 8.88477L15.542 7.62012C16.147 7.09431 16.666 6.6434 16.666 6.45508C16.6654 6.26653 16.1449 5.81387 15.542 5.29004L14.0859 4.02637C13.9211 3.88317 13.7723 3.75048 13.6357 3.62891C13.1941 3.23557 12.8386 2.9209 12.6777 2.9209H12.667Z" fill="white"/>
</svg>
