<svg width="20" height="20" viewBox="0 0 20 20" fill="none" xmlns="http://www.w3.org/2000/svg">
<path d="M10 18.958C10.9929 18.958 11.6964 18.5067 12.3066 18.1152C12.4011 18.0546 12.4932 17.9953 12.584 17.9395C13.2709 17.5167 14.0845 17.1064 15.5557 17.1064C15.8423 17.1063 16.0926 16.9109 16.1621 16.6328C16.3905 15.7192 16.59 15.289 16.8652 15.0137C17.1405 14.7384 17.5706 14.538 18.4844 14.3096C18.7438 14.2447 18.9337 14.0223 18.9561 13.7559C18.9629 13.6746 18.9517 13.5953 18.9287 13.5205C19.0168 13.2412 18.8987 12.9296 18.6318 12.7842C17.0607 11.9282 16.5288 11.2208 16.4648 10.6211C16.3984 9.99599 16.795 9.15921 17.9844 7.93555C18.2249 7.6881 18.22 7.29237 17.9727 7.05176C17.7252 6.81123 17.3295 6.81713 17.0889 7.06445C16.2615 7.91565 15.6246 8.75618 15.3525 9.60352C15.1753 8.71119 15.1455 7.61478 15.1455 6.1875C15.1455 3.34585 12.8416 1.04209 10 1.04199C7.15829 1.04199 4.85449 3.34579 4.85449 6.1875C4.85449 7.61484 4.82379 8.71116 4.64648 9.60352C4.37435 8.75624 3.73844 7.91559 2.91113 7.06445C2.67054 6.81695 2.27486 6.81117 2.02734 7.05176C1.77989 7.2923 1.77422 7.68802 2.01465 7.93555C3.20417 9.15933 3.60063 9.99596 3.53418 10.6211C3.47025 11.2208 2.93863 11.9281 1.36719 12.7842C1.10018 12.9297 0.981784 13.242 1.07031 13.5215C1.04753 13.596 1.03717 13.675 1.04395 13.7559C1.06631 14.0222 1.2554 14.2446 1.51465 14.3096C2.42829 14.538 2.85846 14.7385 3.13379 15.0137C3.40908 15.289 3.60944 15.7191 3.83789 16.6328C3.90745 16.911 4.15754 17.1064 4.44434 17.1064C5.91525 17.1065 6.7282 17.5168 7.41504 17.9395C7.50591 17.9954 7.59876 18.0545 7.69336 18.1152C8.30361 18.5067 9.00698 18.958 10 18.958ZM10 17.708C9.39557 17.708 9.01684 17.4701 8.39941 17.0811C8.29699 17.0165 8.18803 16.9474 8.07031 16.875C7.33006 16.4195 6.40849 15.9542 4.92773 15.8701C4.71923 15.1507 4.46238 14.5738 4.01855 14.1299C3.79654 13.9079 3.54059 13.7327 3.25098 13.5869C4.35844 12.9023 5.07401 12.0991 5.50488 11.0791C6.06386 9.75568 6.10449 8.14028 6.10449 6.1875C6.10449 4.03615 7.84865 2.29199 10 2.29199C12.1513 2.29209 13.8955 4.03621 13.8955 6.1875C13.8955 8.14028 13.9361 9.75568 14.4951 11.0791C14.926 12.099 15.6407 12.9023 16.748 13.5869C16.4585 13.7326 16.2034 13.9079 15.9814 14.1299C15.5375 14.5738 15.2808 15.1506 15.0723 15.8701C13.5915 15.9541 12.67 16.4195 11.9297 16.875C11.8119 16.9475 11.7021 17.0165 11.5996 17.0811C10.9824 17.47 10.6043 17.708 10 17.708Z" fill="white"/>
</svg>
