<svg width="32" height="32" viewBox="0 0 32 32" fill="none" xmlns="http://www.w3.org/2000/svg">
<path d="M14.6665 2.66669V5.33335" stroke="#0B1D4F" stroke-width="2" stroke-linecap="round" stroke-linejoin="round"/>
<path d="M6.6665 2.66669V5.33335" stroke="#0B1D4F" stroke-width="2" stroke-linecap="round" stroke-linejoin="round"/>
<path d="M6.6665 4H5.33317C4.62593 4 3.94765 4.28095 3.44755 4.78105C2.94746 5.28115 2.6665 5.95942 2.6665 6.66667V12C2.6665 14.1217 3.50936 16.1566 5.00965 17.6569C6.50994 19.1571 8.54477 20 10.6665 20C12.7882 20 14.8231 19.1571 16.3234 17.6569C17.8236 16.1566 18.6665 14.1217 18.6665 12V6.66667C18.6665 5.95942 18.3856 5.28115 17.8855 4.78105C17.3854 4.28095 16.7071 4 15.9998 4H14.6665" stroke="#0B1D4F" stroke-width="2" stroke-linecap="round" stroke-linejoin="round"/>
<path d="M10.6665 20C10.6665 22.1217 11.5094 24.1566 13.0096 25.6569C14.5099 27.1571 16.5448 28 18.6665 28C20.7882 28 22.8231 27.1571 24.3234 25.6569C25.8237 24.1566 26.6665 22.1217 26.6665 20V16" stroke="#0B1D4F" stroke-width="2" stroke-linecap="round" stroke-linejoin="round"/>
<path d="M26.6667 16C28.1394 16 29.3333 14.8061 29.3333 13.3334C29.3333 11.8606 28.1394 10.6667 26.6667 10.6667C25.1939 10.6667 24 11.8606 24 13.3334C24 14.8061 25.1939 16 26.6667 16Z" stroke="#0B1D4F" stroke-width="2" stroke-linecap="round" stroke-linejoin="round"/>
</svg>
