<svg width="20" height="20" viewBox="0 0 20 20" fill="none" xmlns="http://www.w3.org/2000/svg">
<path d="M7.9165 18.3333C10.6779 18.3333 12.9165 16.0948 12.9165 13.3333V6.87115C13.7503 7.53958 14.7483 8.01177 15.8403 8.21768C16.1322 8.27274 16.2782 8.30027 16.4584 8.25372C16.6723 8.19841 16.9101 8.00134 17.004 7.80131C17.0832 7.63294 17.0832 7.44974 17.0832 7.08334C17.0832 6.70114 17.0832 6.51005 17.0414 6.3832C16.9724 6.17325 16.9125 6.09208 16.7323 5.96412C16.6234 5.88681 16.3661 5.80731 15.8515 5.6483C14.5408 5.24333 13.5065 4.20899 13.1015 2.89832C12.9425 2.38372 12.863 2.12641 12.7857 2.01754C12.6578 1.83733 12.5766 1.77745 12.3666 1.7084C12.2398 1.66667 12.0487 1.66667 11.6665 1.66667C11.2782 1.66667 11.0841 1.66667 10.9309 1.73011C10.7267 1.81468 10.5645 1.97691 10.4799 2.1811C10.4165 2.33424 10.4165 2.52839 10.4165 2.91667V13.3333C10.4165 14.7141 9.29722 15.8333 7.9165 15.8333C6.53579 15.8333 5.4165 14.7141 5.4165 13.3333C5.4165 12.387 5.94235 11.5634 6.71779 11.1389C7.29371 10.8237 7.58167 10.666 7.66229 10.5881C7.82121 10.4345 7.82845 10.4223 7.88687 10.2091C7.9165 10.101 7.9165 9.92845 7.9165 9.58334C7.9165 9.22895 7.9165 9.05175 7.83171 8.87845C7.73458 8.67992 7.46976 8.47407 7.25341 8.42892C7.06455 8.38951 6.93608 8.42221 6.67915 8.48762C4.5162 9.03826 2.9165 10.999 2.9165 13.3333C2.9165 16.0948 5.15508 18.3333 7.9165 18.3333Z" stroke="white" stroke-width="1.5" stroke-linecap="round" stroke-linejoin="round"/>
</svg>
