<svg width="32" height="32" viewBox="0 0 32 32" fill="none" xmlns="http://www.w3.org/2000/svg">
<path fill-rule="evenodd" clip-rule="evenodd" d="M26.9219 5.44211C24.573 2.50853 19.6926 1.91069 16.2149 5.35681C16.1425 5.42851 16.0709 5.49798 16 5.56529C15.9291 5.49798 15.8575 5.42851 15.7851 5.35681C12.3074 1.91069 7.42697 2.50853 5.07806 5.44211C5.06955 5.45273 5.06093 5.46349 5.05218 5.47441C4.709 5.90272 4.18058 6.56221 3.75143 7.53427C3.30892 8.53656 2.98702 9.83187 3.0004 11.5385C3.02696 14.9244 4.37239 19.9057 8.6523 27.4782C9.19352 28.4357 10.2397 29 11.328 29C13.0771 29 14.4515 27.6056 14.5091 25.9548C14.5498 24.7905 14.6826 23.6465 14.992 22.823C15.3019 21.998 15.6465 21.8047 16 21.8047C16.3535 21.8047 16.6981 21.998 17.008 22.823C17.3174 23.6465 17.4502 24.7905 17.4909 25.9548C17.5485 27.6056 18.9229 29 20.672 29C21.7603 29 22.8065 28.4357 23.3477 27.4782C27.6276 19.9057 28.973 14.9244 28.9996 11.5385C29.013 9.83187 28.6911 8.53656 28.2486 7.53427C27.8194 6.56222 27.291 5.90273 26.9478 5.47442C26.9391 5.4635 26.9305 5.45273 26.9219 5.44211ZM14.4217 6.82122C13.9452 7.12189 13.5651 7.27888 13.2797 7.34386C12.859 7.43963 12.7394 7.32524 12.7071 7.29294C12.3166 6.90242 11.6834 6.90242 11.2929 7.29294C10.9024 7.68347 10.9024 8.31663 11.2929 8.70716C11.9273 9.34152 12.8099 9.50199 13.7236 9.29396C14.6047 9.09338 15.5791 8.54627 16.6368 7.67288C16.9564 7.40892 17.2854 7.1116 17.6226 6.77746C20.2933 4.13101 23.7865 4.72603 25.3607 6.69216L25.3693 6.70281C25.7028 7.11938 26.0959 7.61021 26.419 8.34203C26.7424 9.07465 27.0109 10.0881 26.9997 11.5228C26.9769 14.4197 25.8128 19.0519 21.6066 26.4941C21.4451 26.7798 21.0914 27 20.672 27C20.0158 27 19.5103 26.4747 19.4897 25.885C19.4474 24.6734 19.3086 23.2598 18.8803 22.1197C18.4526 20.9811 17.5935 19.8047 16 19.8047C14.4065 19.8047 13.5474 20.9811 13.1197 22.1197C12.6914 23.2598 12.5526 24.6734 12.5103 25.885C12.4897 26.4747 11.9842 27 11.328 27C10.9086 27 10.5549 26.7798 10.3934 26.4941C6.18717 19.0519 5.02306 14.4197 5.00034 11.5228C4.98909 10.0881 5.25761 9.07465 5.58105 8.34203C5.90414 7.61021 6.29716 7.11939 6.63072 6.70283L6.63926 6.69216C8.21354 4.72603 11.7067 4.13101 14.3774 6.77746C14.3922 6.79212 14.407 6.8067 14.4217 6.82122Z" fill="#0B1D4F"/>
</svg>
