<svg width="18" height="18" viewBox="0 0 18 18" fill="none" xmlns="http://www.w3.org/2000/svg">
<path d="M8.95898 17.917C13.9064 17.9168 17.917 13.9055 17.917 8.95801C17.9168 4.0107 13.9063 0.000163318 8.95898 0C4.01154 0 0.000172025 4.0106 0 8.95801C0 10.1921 0.250589 11.3699 0.703125 12.4414C0.82177 12.7223 0.901644 12.9127 0.955078 13.0586C1.00903 13.206 1.01749 13.26 1.01855 13.2744C1.02397 13.3527 1.00329 13.4598 0.868164 13.9648L0.0214844 17.1299C-0.0362084 17.3455 0.025766 17.5756 0.183594 17.7334C0.341428 17.8912 0.571484 17.9532 0.787109 17.8955L3.95215 17.0488C4.45717 16.9137 4.56432 16.893 4.64258 16.8984C4.65695 16.8995 4.71098 16.9079 4.8584 16.9619C5.0043 17.0153 5.19468 17.0952 5.47559 17.2139C6.54707 17.6664 7.7249 17.917 8.95898 17.917ZM8.95898 16.667C7.89496 16.667 6.88227 16.4512 5.96191 16.0625L5.94727 16.0566C5.68469 15.9457 5.46693 15.8532 5.28906 15.7881C5.11074 15.7228 4.92261 15.6658 4.72852 15.6523C4.41335 15.6305 4.08654 15.7183 3.71094 15.8193C3.68421 15.8265 3.65711 15.8335 3.62988 15.8408L1.50879 16.4082L2.07617 14.2871C2.08346 14.2599 2.09047 14.2328 2.09766 14.2061C2.19869 13.8305 2.28646 13.5036 2.26465 13.1885C2.25121 12.9944 2.19421 12.8062 2.12891 12.6279C2.06375 12.4501 1.97125 12.2323 1.86035 11.9697L1.85449 11.9551C1.46578 11.0347 1.25 10.022 1.25 8.95801C1.25017 4.70096 4.7019 1.25 8.95898 1.25C13.2159 1.25016 16.6668 4.70106 16.667 8.95801C16.667 13.2151 13.216 16.6668 8.95898 16.667ZM11.3047 13.6553C11.621 13.727 11.9171 13.7943 12.3057 13.7129C12.5891 13.6535 12.8525 13.503 13.0566 13.3398C13.2608 13.1767 13.4656 12.9528 13.5859 12.6895C13.7516 12.3268 13.7507 11.9573 13.75 11.5576C13.75 11.5321 13.75 11.5062 13.75 11.4805C13.75 11.2968 13.744 10.9878 13.625 10.7021C13.4827 10.3607 13.1899 10.0789 12.7305 10.0068L12.7256 10.0059C12.1562 9.91662 11.7232 9.8492 11.417 9.80469C11.2639 9.78244 11.1366 9.76521 11.0371 9.75391C10.9553 9.74462 10.8422 9.73277 10.748 9.73828C10.3403 9.76219 10.0159 9.92747 9.76465 10.0996C9.60471 10.2092 9.43062 10.3562 9.29395 10.4717C9.24034 10.517 9.19242 10.5574 9.15332 10.5889L8.58496 11.0469C8.26647 10.8087 7.95865 10.5426 7.66602 10.25C7.37359 9.95753 7.1082 9.65033 6.87012 9.33203L7.32813 8.76367C7.35961 8.72457 7.40003 8.67666 7.44531 8.62305C7.56069 8.48644 7.70682 8.31222 7.81641 8.15234C7.98858 7.9011 8.15476 7.57674 8.17871 7.16895C8.18422 7.07481 8.17238 6.96167 8.16309 6.87988C8.15178 6.7804 8.13457 6.65316 8.1123 6.5C8.06779 6.19377 7.99942 5.76097 7.91016 5.19141V5.18652C7.83814 4.72707 7.55625 4.43431 7.21484 4.29199C6.92922 4.17297 6.62022 4.167 6.43652 4.16699C6.41065 4.16699 6.38401 4.16704 6.3584 4.16699C5.95886 4.16632 5.59004 4.16547 5.22754 4.33105C4.96415 4.45141 4.74035 4.65619 4.57715 4.86035C4.41395 5.06452 4.26348 5.3279 4.2041 5.61133C4.12274 5.99995 4.18994 6.29599 4.26172 6.6123C4.26501 6.62679 4.26819 6.64166 4.27148 6.65625C4.63358 8.25956 5.48019 9.8316 6.78223 11.1338C8.08455 12.4361 9.6572 13.2834 11.2607 13.6455C11.2754 13.6488 11.2902 13.652 11.3047 13.6553ZM6.16602 8.21289C5.85589 7.61684 5.63091 6.99938 5.49121 6.38086C5.40855 6.01479 5.40663 5.9691 5.42773 5.86816C5.43555 5.83081 5.47255 5.74216 5.55371 5.64062C5.63482 5.53922 5.71238 5.48362 5.74707 5.46777C5.833 5.42854 5.91605 5.41699 6.43652 5.41699C6.51817 5.417 6.58473 5.41917 6.64063 5.42578C6.65698 5.42772 6.67083 5.43047 6.68262 5.43262C6.7686 5.9813 6.83294 6.39035 6.875 6.67969C6.89674 6.82922 6.91183 6.94165 6.9209 7.02148C6.92711 7.07622 6.92908 7.10235 6.92969 7.10938C6.92121 7.20325 6.88183 7.30557 6.78613 7.44531C6.71146 7.55428 6.63735 7.64142 6.5459 7.74902C6.49014 7.81463 6.42793 7.88829 6.35449 7.97949L6.16602 8.21289ZM12.0488 12.4893C11.9478 12.5104 11.9024 12.5085 11.5361 12.4258C10.9176 12.2861 10.3002 12.0611 9.7041 11.751L9.9375 11.5625C10.0287 11.4891 10.1024 11.4269 10.168 11.3711C10.2755 11.2797 10.3618 11.2055 10.4707 11.1309C10.6107 11.0349 10.7136 10.9958 10.8076 10.9873C10.8149 10.9879 10.8411 10.9899 10.8955 10.9961C10.9753 11.0052 11.0878 11.0203 11.2373 11.042C11.5266 11.0841 11.9358 11.1474 12.4844 11.2334C12.4865 11.2453 12.4892 11.2598 12.4912 11.2764C12.4978 11.3323 12.5 11.3987 12.5 11.4805C12.5 12.0011 12.4875 12.084 12.4482 12.1699C12.4322 12.2048 12.3774 12.2825 12.2764 12.3633C12.1748 12.4444 12.0862 12.4814 12.0488 12.4893Z" fill="white"/>
</svg>
