<svg width="138" height="90" viewBox="0 0 138 90" fill="none" xmlns="http://www.w3.org/2000/svg">
<g clip-path="url(#clip0_571_6625)">
<path d="M30.6255 18.4263L30.2608 46.1322L23.5127 45.777L23.5601 18.4263H30.6255Z" fill="url(#paint0_linear_571_6625)"/>
<path d="M96.8294 18.6038L115.111 18.6091V24.081L100.805 24.097C99.2168 24.1378 99.7457 24.1112 97.1924 24.1112C97.1832 24.1112 97.1924 26.5888 97.1924 26.5976V30.1497L112.211 30.0822V35.73L97.3747 35.666C97.3747 35.666 97.3747 44.1803 96.9881 45.967C96.5358 48.0467 91.6936 49.1176 86.1128 45.2601C77.3713 39.2198 74.7906 38.8575 70.6305 35.3854C69.983 34.8455 73.0908 32.0252 73.9972 31.1425C76.1274 29.0681 77.2418 31.2792 81.4256 34.1315C86.3261 37.4722 90.4388 38.4721 90.4388 38.4721L90.8109 18.6055" fill="url(#paint1_linear_571_6625)"/>
<path d="M62.1771 37.126L56.7057 41.5146L40.2914 26.4184C40.3024 26.8127 40.6562 47.5531 40.6562 47.5531L34.3403 47.5317L33.9756 18.4263H40.0288L62.1789 37.126" fill="url(#paint2_linear_571_6625)"/>
<path d="M32.3871 69.0625V73.174H31.4004V69.0625H32.3871Z" fill="#062B57"/>
<path d="M36.4835 69.0625V73.174H35.6391L33.9868 70.3963C33.9886 70.4673 33.9904 70.5135 33.9922 70.5348C33.9995 70.6059 34.005 70.6645 34.005 70.7124V73.174H33.2354V69.0625H34.3023L35.7394 71.4868C35.7267 71.366 35.7212 71.2754 35.7212 71.2133V69.0625H36.4854H36.4835Z" fill="#062B57"/>
<path d="M40.3334 69.8759H38.3564V70.7977H39.9176V71.5649H38.3564V73.174H37.3296V69.0625H40.3334V69.8759Z" fill="#062B57"/>
<path d="M41.827 69.0625V73.174H40.8403V69.0625H41.827Z" fill="#062B57"/>
<path d="M45.9235 69.0625V73.174H45.0791L43.4267 70.3963C43.4285 70.4673 43.4303 70.5135 43.4322 70.5348C43.4395 70.6059 43.4449 70.6645 43.4449 70.7124V73.174H42.6753V69.0625H43.7422L45.1794 71.4868C45.1666 71.366 45.1611 71.2754 45.1611 71.2133V69.0625H45.9253H45.9235Z" fill="#062B57"/>
<path d="M47.7562 69.0625V73.174H46.7695V69.0625H47.7562Z" fill="#062B57"/>
<path d="M51.2798 69.0625V69.8759H50.2348V73.174H49.2335V69.8759H48.1812V69.0625H51.2798Z" fill="#062B57"/>
<path d="M55.0406 69.0625L53.7128 71.4424V73.174H52.7262V71.4424L51.3984 69.0625H52.5456L53.3499 70.6201L54.1506 69.0625H55.0369H55.0406Z" fill="#062B57"/>
<path d="M58.7521 73.174L57.7107 69.8209V73.174H56.8809V69.0625H58.4202L59.1606 71.5241L59.9394 69.0625H61.4841V73.174H60.4883V69.8209L59.4269 73.174H58.7503H58.7521Z" fill="#062B57"/>
<path d="M65.3432 69.8457H63.3334V70.6893H64.9146V71.4637H63.3334V72.3606H65.3432V73.174H62.3267V69.0625H65.3432V69.8457Z" fill="#062B57"/>
<path d="M65.938 69.0625H67.2274C67.7527 69.0625 68.1448 69.1335 68.4019 69.2756C68.6591 69.4177 68.8907 69.6415 69.095 69.947C69.2993 70.2524 69.4014 70.6396 69.4014 71.1085C69.4014 71.6963 69.2227 72.1883 68.867 72.5826C68.5114 72.9769 68.0189 73.174 67.3934 73.174H65.9416V69.0625H65.938ZM66.9101 69.8191V72.3997H67.3168C67.6761 72.3997 67.9442 72.2682 68.1193 72.0072C68.2943 71.7443 68.3819 71.437 68.3819 71.0836C68.3819 70.835 68.3326 70.6041 68.2323 70.3927C68.132 70.1814 68.008 70.0322 67.8603 69.947C67.7125 69.8617 67.5338 69.8191 67.3259 69.8191H66.9101Z" fill="#062B57"/>
<path d="M71.0316 69.0625V73.174H70.0449V69.0625H71.0316Z" fill="#062B57"/>
<path d="M75.2846 70.5916L74.2487 70.6556C74.2341 70.0748 74.0025 69.7853 73.552 69.7853C73.0359 69.7853 72.7769 70.2329 72.7769 71.1262C72.7769 71.643 72.8462 71.9929 72.9885 72.1758C73.1289 72.3588 73.3259 72.4511 73.5775 72.4511C73.9861 72.4511 74.2359 72.1918 74.3271 71.6732L75.2865 71.7301C75.2244 72.222 75.0366 72.5968 74.7229 72.8525C74.4092 73.1083 74.0226 73.2361 73.5684 73.2361C73.0103 73.2361 72.5562 73.0479 72.206 72.6731C71.8559 72.2984 71.6826 71.778 71.6826 71.1156C71.6826 70.4957 71.8522 69.9878 72.1896 69.5917C72.527 69.1957 72.9903 68.9985 73.5757 68.9985C74.5898 68.9985 75.1606 69.5296 75.2901 70.5916H75.2846Z" fill="#062B57"/>
<path d="M77.8855 69.0625L79.2077 73.174H78.1444L77.8836 72.3268H76.5194L76.255 73.174H75.3887L76.7419 69.0625H77.8873H77.8855ZM76.7565 71.5685H77.6502L77.207 70.1263L76.7565 71.5685Z" fill="#062B57"/>
<path d="M80.6634 72.3606H82.3431V73.174H79.6621V69.0625H80.6634V72.3606Z" fill="#062B57"/>
<path d="M87.8398 70.5916L86.8039 70.6556C86.7893 70.0748 86.5577 69.7853 86.1072 69.7853C85.5911 69.7853 85.3321 70.2329 85.3321 71.1262C85.3321 71.643 85.4014 71.9929 85.5436 72.1758C85.6841 72.3588 85.881 72.4511 86.1327 72.4511C86.5413 72.4511 86.7911 72.1918 86.8823 71.6732L87.8416 71.7301C87.7796 72.222 87.5918 72.5968 87.2781 72.8525C86.9644 73.1083 86.5777 73.2361 86.1236 73.2361C85.5655 73.2361 85.1114 73.0479 84.7612 72.6731C84.4111 72.2984 84.2378 71.778 84.2378 71.1156C84.2378 70.4957 84.4074 69.9878 84.7448 69.5917C85.0822 69.1957 85.5455 68.9985 86.1309 68.9985C87.1449 68.9985 87.7158 69.5296 87.8453 70.5916H87.8398Z" fill="#062B57"/>
<path d="M89.9939 73.2361C89.4248 73.2361 88.9853 73.0283 88.6734 72.6127C88.3616 72.1972 88.2065 71.6945 88.2065 71.1031C88.2065 70.5117 88.3634 70.002 88.6789 69.6006C88.9944 69.1992 89.4431 68.9985 90.0267 68.9985C90.6103 68.9985 91.0608 69.2134 91.3599 69.6415C91.659 70.0695 91.8104 70.5614 91.8104 71.112C91.8104 71.7087 91.6554 72.2114 91.3471 72.6216C91.0389 73.0319 90.5866 73.2361 89.9939 73.2361ZM90.0212 69.7853C89.5033 69.7853 89.2443 70.2293 89.2443 71.1173C89.2443 72.0053 89.5033 72.4511 90.0212 72.4511C90.5392 72.4511 90.7745 72.0071 90.7745 71.1191C90.7745 70.2311 90.5228 69.7853 90.0212 69.7853Z" fill="#062B57"/>
<path d="M94.3273 73.174L93.2859 69.8209V73.174H92.4561V69.0625H93.9953L94.7358 71.5241L95.5146 69.0625H97.0593V73.174H96.0635V69.8209L95.0021 73.174H94.3255H94.3273Z" fill="#062B57"/>
<path d="M98.9087 71.6466V73.174H97.9038V69.0625H99.5671C99.9392 69.0625 100.222 69.1016 100.419 69.1779C100.616 69.2543 100.791 69.3928 100.946 69.5918C101.101 69.7907 101.178 70.034 101.178 70.3235C101.178 70.5259 101.136 70.7249 101.054 70.9167C100.971 71.1103 100.855 71.2612 100.703 71.3713C100.552 71.4814 100.406 71.5543 100.266 71.5916C100.125 71.6271 99.9027 71.6466 99.6018 71.6466H98.9051H98.9087ZM98.8759 70.8989H99.5197C99.7659 70.8989 99.9374 70.8439 100.036 70.7337C100.134 70.6236 100.184 70.4975 100.184 70.3537C100.184 70.1867 100.129 70.0553 100.018 69.9558C99.9064 69.8564 99.7404 69.8084 99.5142 69.8084H98.8741V70.8989H98.8759Z" fill="#062B57"/>
<path d="M103.548 69.0625L104.87 73.174H103.807L103.546 72.3268H102.182L101.918 73.174H101.051L102.405 69.0625H103.55H103.548ZM102.419 71.5685H103.313L102.87 70.1263L102.419 71.5685Z" fill="#062B57"/>
<path d="M108.573 69.0625V73.174H107.728L106.076 70.3963C106.078 70.4673 106.08 70.5135 106.082 70.5348C106.089 70.6059 106.094 70.6645 106.094 70.7124V73.174H105.325V69.0625H106.392L107.829 71.4868C107.816 71.366 107.811 71.2754 107.811 71.2133V69.0625H108.575H108.573Z" fill="#062B57"/>
<path d="M112.467 69.0625L111.139 71.4424V73.174H110.152V71.4424L108.825 69.0625H109.972L110.776 70.6201L111.577 69.0625H112.463H112.467Z" fill="#062B57"/>
<path d="M68.2229 22.234C73.9588 17.325 78.8393 12.8317 84.0627 8.75394C90.8728 3.44008 98.7005 -0.0249444 107.53 0.186402C120.867 0.506087 132.729 6.81808 136.8 22.3743C141.193 39.1648 130.996 55.8949 113.67 59.8413C102.401 62.4076 92.5434 58.9994 83.8402 52.1688C78.6952 48.1319 73.9552 43.6066 68.9306 39.211C65.1808 42.6121 61.3946 46.1961 57.4424 49.5972C50.1983 55.8274 42.0003 60.1752 32.1189 60.6156C15.8104 61.3438 3.96847 52.199 0.782281 36.586C-2.32366 21.369 6.90844 6.23554 22.1591 1.76174C32.8995 -1.38893 42.8629 0.621528 51.6974 7.07915C56.846 10.8425 61.8724 14.8919 66.2623 19.5007C67.1013 20.3798 67.6886 21.4703 68.2229 22.234ZM60.6487 30.4197C56.4868 26.6438 52.5619 22.9515 48.4748 19.4385C46.7531 17.9573 44.7852 16.6874 42.7681 15.6041C36.113 12.0307 29.2282 11.212 22.4837 15.1778C16.1551 18.8986 13.0583 24.573 13.5963 31.8156C14.2511 40.6229 19.7134 46.5903 27.5721 48.0627C33.4667 49.1674 38.6828 47.5352 43.6599 44.7628C50.1417 41.1522 55.2156 35.9342 60.6469 30.4214L60.6487 30.4197ZM77.3493 30.5617C81.3963 34.2612 85.0567 37.7546 88.8958 41.0527C90.7433 42.6405 92.8315 44.0151 94.9727 45.2086C99.2641 47.5991 103.732 48.8139 108.896 48.1604C120.687 46.6685 129.607 32.9611 121.398 20.0637C116.853 12.924 107.393 10.6205 98.4489 14.2401C89.9645 17.6731 83.8311 24.0153 77.3474 30.5617H77.3493Z" fill="url(#paint3_linear_571_6625)" stroke="#2BB1A0" stroke-width="2" stroke-miterlimit="10"/>
<path d="M101.936 13.0982C101.936 13.0982 134.246 7.86073 136.318 32.8618C138.521 59.4542 99.2331 53.1032 91.7227 43.2906C91.7227 43.2906 105 48.1498 114.456 44.9334C121.122 42.6655 124.952 36.2718 123.212 30.0397C121.516 23.9622 118.188 16.2986 101.936 13.1V13.0982Z" fill="url(#paint4_linear_571_6625)"/>
<path d="M41.114 14.8441C41.114 14.8441 9.03872 -2.18267 1.40245 21.7723C-6.77549 47.4288 31.1341 52.6716 41.5663 45.7771C41.5663 45.7771 26.208 46.2033 18.2544 40.1506C12.6462 35.8828 12.7046 30.093 14.1198 25.2622C15.94 19.0444 24.5374 12.6986 41.114 14.8441Z" fill="url(#paint5_linear_571_6625)"/>
<path d="M35.3364 79.2781C35.3364 79.1005 35.393 78.9282 35.506 78.7577C35.6191 78.589 35.796 78.4363 36.0386 78.3013C36.2793 78.1663 36.5894 78.0509 36.9669 77.9532C37.3444 77.8555 37.7949 77.7916 38.3183 77.7578V79.7399H39.3214V80.429H37.7621C37.7128 80.4005 37.6691 80.3632 37.6344 80.3153C37.5998 80.2691 37.5706 80.2212 37.5469 80.175C37.525 80.1253 37.5049 80.072 37.4885 80.0169C37.4666 80.0968 37.4192 80.1661 37.3499 80.2247C37.2915 80.2762 37.204 80.3224 37.0909 80.365C36.976 80.4076 36.8228 80.429 36.6277 80.429C36.1571 80.429 35.8234 80.3259 35.6282 80.1217C35.4331 79.9157 35.3364 79.6351 35.3364 79.2763V79.2781ZM35.7614 76.8556C35.7614 76.7188 35.8143 76.6034 35.9182 76.5093C36.0222 76.4151 36.1498 76.3672 36.2994 76.3672C36.4489 76.3672 36.5638 76.4151 36.6642 76.5093C36.7645 76.6034 36.8155 76.7188 36.8155 76.8556C36.8155 76.9923 36.7645 77.0954 36.6642 77.1859C36.5638 77.2765 36.4417 77.3227 36.2994 77.3227C36.1571 77.3227 36.0222 77.2765 35.9182 77.1859C35.8143 77.0954 35.7614 76.9852 35.7614 76.8556ZM36.1754 79.1627V79.3669C36.1754 79.4894 36.2155 79.5818 36.2939 79.6457C36.3723 79.7097 36.5018 79.7416 36.6769 79.7416H37.4757V78.4789C37.2806 78.5144 37.1037 78.557 36.9432 78.6068C36.7827 78.6565 36.6477 78.7115 36.5365 78.7701C36.4252 78.8288 36.3377 78.8927 36.2757 78.9602C36.2119 79.0277 36.179 79.0952 36.1736 79.1609L36.1754 79.1627ZM37.1402 76.8556C37.1402 76.7188 37.1931 76.6034 37.297 76.5093C37.401 76.4151 37.5268 76.3672 37.6745 76.3672C37.8223 76.3672 37.9426 76.4151 38.0411 76.5093C38.1414 76.6034 38.1907 76.7188 38.1907 76.8556C38.1907 76.9923 38.1414 77.0954 38.0411 77.1859C37.9408 77.2765 37.8186 77.3227 37.6745 77.3227C37.5305 77.3227 37.401 77.2765 37.297 77.1859C37.1931 77.0954 37.1402 76.9852 37.1402 76.8556Z" fill="#29A899"/>
<path d="M39.1099 79.7418H40.4175V77.8858L41.3003 77.6567V79.7418H42.4219V80.4309H39.1099V79.7418ZM39.6187 81.4645C39.6187 81.3278 39.6716 81.2123 39.7756 81.1182C39.8795 81.0241 40.0054 80.9761 40.1531 80.9761C40.3008 80.9761 40.4194 81.0241 40.5197 81.1182C40.62 81.2123 40.6692 81.3278 40.6692 81.4645C40.6692 81.6013 40.62 81.7043 40.5197 81.7949C40.4194 81.8854 40.2972 81.9316 40.1531 81.9316C40.009 81.9316 39.8795 81.8854 39.7756 81.7949C39.6716 81.7043 39.6187 81.5942 39.6187 81.4645ZM40.9957 81.4645C40.9957 81.3278 41.0486 81.2123 41.1525 81.1182C41.2565 81.0241 41.3841 80.9761 41.5337 80.9761C41.6833 80.9761 41.7982 81.0241 41.8985 81.1182C41.9988 81.2123 42.0498 81.3278 42.0498 81.4645C42.0498 81.6013 41.9988 81.7043 41.8985 81.7949C41.7982 81.8854 41.676 81.9316 41.5337 81.9316C41.3914 81.9316 41.2565 81.8854 41.1525 81.7949C41.0486 81.7043 40.9957 81.5942 40.9957 81.4645Z" fill="#29A899"/>
<path d="M42.2124 79.7418H43.5201V77.8858L44.4028 77.6567V79.7418H45.5244V80.4309H42.2124V79.7418ZM43.4252 81.4574C43.4252 81.3207 43.4781 81.2052 43.5821 81.1111C43.686 81.017 43.8119 80.969 43.9596 80.969C44.1073 80.969 44.2259 81.017 44.3262 81.1111C44.4265 81.2052 44.4757 81.3207 44.4757 81.4574C44.4757 81.5942 44.4265 81.6972 44.3262 81.7878C44.2259 81.8783 44.1037 81.9245 43.9596 81.9245C43.8155 81.9245 43.686 81.8783 43.5821 81.7878C43.4781 81.6972 43.4252 81.5871 43.4252 81.4574Z" fill="#29A899"/>
<path d="M45.9691 79.7416V76.3636L46.8518 76.1345L46.8591 78.8962C47.2713 78.5375 47.6543 78.2693 48.0099 78.0917C48.3655 77.9141 48.723 77.8253 49.0841 77.8253C49.3632 77.8253 49.5875 77.8892 49.7571 78.0189C49.9267 78.1485 50.0599 78.3084 50.1547 78.502C50.2495 78.6956 50.3134 78.9016 50.3444 79.1236C50.3754 79.3456 50.3936 79.5516 50.3991 79.7399H51.0064V80.4289H45.3125V79.7399H45.9691V79.7416ZM49.4744 79.7416V79.3989C49.4744 79.1573 49.4033 78.9637 49.2592 78.8163C49.1151 78.6689 48.9109 78.5943 48.6464 78.5943C48.1047 78.5943 47.4919 78.9762 46.8044 79.7416H49.4744Z" fill="#29A899"/>
<path d="M50.7969 79.7416H51.7252V76.3636L52.6079 76.1345V80.4307H50.7969V79.7416Z" fill="#29A899"/>
<path d="M54.3022 76.1345V80.4307H53.4194V76.3636L54.3022 76.1345Z" fill="#29A899"/>
<path d="M57.3734 79.6459C57.4226 79.6619 57.4792 79.6797 57.5394 79.6957C57.5923 79.7099 57.6524 79.7223 57.7217 79.7294C57.7911 79.7383 57.8677 79.7418 57.9515 79.7418H59.5237C59.5237 79.6619 59.5091 79.5554 59.4817 79.4221C59.4544 79.2889 59.3978 79.1486 59.3139 78.9995C59.23 78.8503 59.1078 78.7046 58.9455 78.559C58.7832 78.4134 58.5662 78.2855 58.2908 78.1772L58.4877 77.481C58.8069 77.552 59.0878 77.6763 59.3285 77.8575C59.5693 78.0386 59.7699 78.2393 59.9267 78.4613C60.0836 78.6833 60.2021 78.9089 60.2824 79.138C60.3608 79.3671 60.4009 79.5696 60.4009 79.7436V80.4327H57.8877C57.8056 80.4327 57.7309 80.4292 57.6597 80.4203C57.5904 80.4114 57.5302 80.4025 57.4792 80.3901C57.419 80.3723 57.3606 80.3546 57.3096 80.3368L57.3734 79.6477V79.6459Z" fill="#29A899"/>
<path d="M63.8645 80.248C63.8645 80.2764 63.8627 80.3368 63.8572 80.4309C63.8517 80.5232 63.8335 80.6298 63.8007 80.7506C63.7678 80.8713 63.7131 80.9974 63.6383 81.1306C63.5617 81.2638 63.4523 81.3864 63.3082 81.4965C63.1641 81.6084 62.9799 81.699 62.7538 81.7718C62.5276 81.8446 62.2486 81.8801 61.9167 81.8801L61.7544 81.4255C61.9696 81.4112 62.1647 81.3668 62.338 81.2923C62.4127 81.2621 62.4875 81.2212 62.5623 81.1733C62.6371 81.1253 62.7064 81.0667 62.7684 80.9974C62.8304 80.9282 62.8851 80.8465 62.9307 80.7523C62.9763 80.6582 63.0073 80.5499 63.0201 80.4291H62.1702C61.9349 80.4291 61.7361 80.4078 61.5774 80.3652C61.4169 80.3225 61.2875 80.2586 61.1871 80.1716C61.0868 80.0846 61.0157 79.9744 60.9756 79.8412C60.9355 79.708 60.9136 79.5535 60.9136 79.3759C60.9136 79.1983 60.9665 79.0296 61.0704 78.8555C61.1744 78.6833 61.3367 78.5217 61.5556 78.3742C61.7744 78.2268 62.0589 78.099 62.4055 77.9906C62.752 77.8823 63.166 77.8077 63.6456 77.7668C63.7241 78.2144 63.7806 78.6389 63.8134 79.042C63.8463 79.4452 63.8627 79.8466 63.8627 80.2444L63.8645 80.248ZM63.0219 79.7418C63.0182 79.5375 63.0091 79.3333 62.9982 79.1255C62.9872 78.9177 62.9635 78.7117 62.9271 78.5039C62.5696 78.5767 62.2814 78.6797 62.0626 78.8147C61.8437 78.9497 61.7306 79.1344 61.7215 79.367C61.7215 79.4896 61.7616 79.5819 61.8401 79.6459C61.9185 79.7098 62.048 79.7418 62.2231 79.7418H63.0219Z" fill="#29A899"/>
<path d="M64.5336 79.6459C64.5828 79.6619 64.6393 79.6797 64.6995 79.6957C64.7524 79.7099 64.8126 79.7223 64.8819 79.7294C64.9512 79.7383 65.0278 79.7418 65.1117 79.7418H66.6838C66.6838 79.6619 66.6692 79.5554 66.6419 79.4221C66.6145 79.2889 66.558 79.1486 66.4741 78.9995C66.3902 78.8503 66.268 78.7046 66.1057 78.559C65.9434 78.4134 65.7263 78.2855 65.4509 78.1772L65.6479 77.481C65.958 77.5556 66.2425 77.687 66.5014 77.8735C66.6145 77.9534 66.7276 78.0493 66.837 78.1612C66.9465 78.2731 67.0522 78.4045 67.1489 78.5572C67.2456 78.71 67.3313 78.884 67.4024 79.0794C67.4735 79.2747 67.5264 79.4967 67.5611 79.7418H68.2851V80.4309H65.0479C64.9658 80.4309 64.891 80.4274 64.8199 80.4185C64.7506 80.4096 64.6904 80.4007 64.6393 80.3883C64.5792 80.3705 64.5208 80.3528 64.4697 80.335L64.5336 79.6459Z" fill="#29A899"/>
<path d="M72.5875 80.4309H68.0791L68.0718 79.7418H71.2178C71.0847 79.4931 70.9662 79.2818 70.8622 79.1113C70.7582 78.9408 70.6652 78.8022 70.5795 78.6992C70.4938 78.5962 70.4135 78.5216 70.3369 78.4754C70.2603 78.4293 70.1764 78.4062 70.0889 78.4062C69.9685 78.4062 69.8591 78.4382 69.7588 78.5003C69.6585 78.5625 69.5491 78.6619 69.4287 78.7987L68.9053 78.36C68.98 78.2677 69.0694 78.1771 69.1734 78.0883C69.2773 77.9995 69.3904 77.9213 69.5089 77.8538C69.6293 77.7863 69.7552 77.7331 69.8883 77.6922C70.0214 77.6514 70.1564 77.6318 70.2968 77.6318C70.4482 77.6318 70.5905 77.6691 70.7199 77.742C70.8494 77.8148 70.9807 77.9267 71.1102 78.0741C71.2397 78.2233 71.3783 78.4115 71.5261 78.6442L72.0495 79.4523C72.1133 79.5535 72.1881 79.6263 72.2775 79.6743C72.365 79.7204 72.4617 79.7435 72.562 79.7435L72.582 80.4326L72.5875 80.4309Z" fill="#29A899"/>
<path d="M77.2896 81.5728C77.0762 81.5728 76.8592 81.5391 76.6385 81.4733C76.4178 81.4076 76.2172 81.3082 76.0366 81.175C75.8561 81.0418 75.7102 80.8748 75.5953 80.6759C75.4804 80.477 75.4238 80.2372 75.4238 79.962C75.4238 79.7275 75.4475 79.5233 75.4968 79.3528C75.546 79.1823 75.6044 79.0349 75.6719 78.9123C75.7393 78.7898 75.8105 78.6832 75.8834 78.5926C75.9564 78.5021 76.0202 78.4168 76.0713 78.3351H76.6038C76.4835 78.5163 76.3795 78.7258 76.292 78.9638C76.2044 79.2 76.1588 79.4291 76.1588 79.6476C76.1588 79.779 76.1807 79.9175 76.2245 80.0632C76.2683 80.2088 76.3376 80.342 76.4342 80.4628C76.5291 80.5836 76.6494 80.683 76.7953 80.7629C76.9412 80.8429 77.1163 80.8819 77.3206 80.8819H77.6051C77.8094 80.8819 77.9845 80.8429 78.1304 80.7629C78.2763 80.683 78.3966 80.5836 78.4915 80.4628C78.5863 80.342 78.6556 80.2088 78.7012 80.0632C78.7468 79.9175 78.7669 79.779 78.7669 79.6476C78.7669 79.3652 78.7468 79.0757 78.7067 78.7773C78.6666 78.479 78.6118 78.1913 78.5389 77.9124L79.3705 77.6656C79.449 77.9746 79.5092 78.2907 79.5493 78.6104C79.5894 78.9319 79.6095 79.2427 79.6095 79.5464C79.6095 79.8891 79.5493 80.1857 79.4253 80.4397C79.3031 80.6937 79.1444 80.905 78.9474 81.0737C78.7523 81.2425 78.5334 81.3686 78.2908 81.4503C78.0501 81.532 77.8094 81.5746 77.5686 81.5746H77.2841L77.2896 81.5728ZM77.1364 77.186C77.1364 77.0528 77.1893 76.9374 77.2932 76.8433C77.3972 76.7491 77.5249 76.7012 77.6744 76.7012C77.824 76.7012 77.9389 76.7491 78.0373 76.8433C78.1377 76.9374 78.1869 77.0528 78.1869 77.186C78.1869 77.3192 78.1377 77.4293 78.0373 77.5199C77.937 77.6105 77.8167 77.6567 77.6744 77.6567C77.5322 77.6567 77.399 77.6105 77.2932 77.5199C77.1874 77.4293 77.1364 77.3175 77.1364 77.186Z" fill="#29A899"/>
<path d="M83.2185 80.248C83.2185 80.2764 83.2167 80.3368 83.2112 80.4309C83.2057 80.5232 83.1875 80.6298 83.1547 80.7506C83.1218 80.8713 83.0671 80.9974 82.9923 81.1306C82.9157 81.2638 82.8063 81.3864 82.6622 81.4965C82.5182 81.6084 82.334 81.699 82.1078 81.7718C81.8817 81.8446 81.6026 81.8801 81.2707 81.8801L81.1084 81.4255C81.3236 81.4112 81.5187 81.3668 81.692 81.2923C81.7668 81.2621 81.8415 81.2212 81.9163 81.1733C81.9911 81.1253 82.0604 81.0667 82.1224 80.9974C82.1844 80.9282 82.2391 80.8465 82.2847 80.7523C82.3303 80.6582 82.3613 80.5499 82.3741 80.4291H81.5242C81.2889 80.4291 81.0901 80.4078 80.9314 80.3652C80.771 80.3225 80.6415 80.2586 80.5411 80.1716C80.4408 80.0846 80.3697 79.9744 80.3278 79.8412C80.2876 79.708 80.2676 79.5535 80.2676 79.3759C80.2676 79.1983 80.3205 79.0296 80.4244 78.8555C80.5284 78.6833 80.6907 78.5217 80.9096 78.3742C81.1284 78.2268 81.4129 78.099 81.7595 77.9906C82.106 77.8823 82.52 77.8077 82.9996 77.7668C83.0781 78.2144 83.1346 78.6389 83.1674 79.042C83.2003 79.4452 83.2167 79.8466 83.2167 80.2444L83.2185 80.248ZM82.3759 79.7418C82.3704 79.5375 82.3631 79.3333 82.3522 79.1255C82.3412 78.9177 82.3175 78.7117 82.2811 78.5039C81.9236 78.5767 81.6354 78.6797 81.4166 78.8147C81.1977 78.9497 81.0846 79.1344 81.0755 79.367C81.0755 79.4896 81.1157 79.5819 81.1941 79.6459C81.2725 79.7098 81.402 79.7418 81.5771 79.7418H82.3759Z" fill="#29A899"/>
<path d="M83.8881 79.6459C83.9373 79.6619 83.9938 79.6797 84.054 79.6957C84.1069 79.7099 84.1671 79.7223 84.2364 79.7294C84.3057 79.7383 84.3823 79.7418 84.4662 79.7418H86.0383C86.0383 79.6619 86.0237 79.5554 85.9964 79.4221C85.969 79.2889 85.9125 79.1486 85.8286 78.9995C85.7447 78.8503 85.6225 78.7046 85.4602 78.559C85.2979 78.4134 85.0808 78.2855 84.8073 78.1772L85.0042 77.481C85.3143 77.5556 85.5988 77.687 85.8559 77.8735C85.969 77.9534 86.0821 78.0493 86.1915 78.1612C86.3009 78.2731 86.4067 78.4045 86.5034 78.5572C86.6 78.71 86.6858 78.884 86.7569 79.0794C86.828 79.2747 86.8809 79.4967 86.9156 79.7418H87.6396V80.4309H84.4024C84.3203 80.4309 84.2455 80.4274 84.1744 80.4185C84.1051 80.4096 84.0449 80.4007 83.9938 80.3883C83.9337 80.3705 83.8753 80.3528 83.8242 80.335L83.8881 79.6459Z" fill="#29A899"/>
<path d="M87.4263 79.7418H88.9984V77.8858L89.8811 77.6567L89.8884 80.4309H87.4263V79.7418ZM88.2762 81.4574C88.2762 81.3207 88.3291 81.2052 88.433 81.1111C88.537 81.017 88.6646 80.969 88.8142 80.969C88.9637 80.969 89.0786 81.017 89.1771 81.1111C89.2774 81.2052 89.3267 81.3207 89.3267 81.4574C89.3267 81.5942 89.2774 81.6972 89.1771 81.7878C89.0768 81.8783 88.9564 81.9245 88.8142 81.9245C88.6719 81.9245 88.537 81.8783 88.433 81.7878C88.3291 81.6972 88.2762 81.5871 88.2762 81.4574Z" fill="#29A899"/>
<path d="M92.998 79.2781C92.998 79.1005 93.0546 78.9282 93.1677 78.7577C93.2807 78.5872 93.4576 78.4363 93.7002 78.3013C93.941 78.1663 94.251 78.0509 94.6285 77.9532C95.0061 77.8555 95.4565 77.7916 95.98 77.7578V79.7399H96.9812V80.429H95.4219C95.3726 80.4005 95.3289 80.3632 95.2942 80.3153C95.2596 80.2691 95.2304 80.2212 95.2085 80.175C95.1866 80.1253 95.1666 80.072 95.1501 80.0169C95.1283 80.0968 95.0808 80.1661 95.0115 80.2247C94.9532 80.2762 94.8656 80.3224 94.7526 80.365C94.6377 80.4076 94.4844 80.429 94.2893 80.429C93.8188 80.429 93.485 80.3259 93.2899 80.1217C93.0947 79.9157 92.998 79.6351 92.998 79.2763V79.2781ZM93.423 76.8556C93.423 76.7188 93.4759 76.6034 93.5798 76.5093C93.6838 76.4151 93.8115 76.3672 93.961 76.3672C94.1106 76.3672 94.2255 76.4151 94.3258 76.5093C94.4261 76.6034 94.4772 76.7188 94.4772 76.8556C94.4772 76.9923 94.4261 77.0954 94.3258 77.1859C94.2255 77.2765 94.1033 77.3227 93.961 77.3227C93.8188 77.3227 93.6838 77.2765 93.5798 77.1859C93.4759 77.0954 93.423 76.9852 93.423 76.8556ZM93.837 79.1627V79.3669C93.837 79.4894 93.8771 79.5818 93.9555 79.6457C94.034 79.7097 94.1635 79.7416 94.3385 79.7416H95.1374V78.4789C94.9422 78.5144 94.7653 78.557 94.6048 78.6068C94.4443 78.6565 94.3094 78.7115 94.1981 78.7701C94.0869 78.8288 93.9993 78.8927 93.9373 78.9602C93.8735 79.0277 93.8406 79.0952 93.8352 79.1609L93.837 79.1627ZM94.8018 76.8556C94.8018 76.7188 94.8547 76.6034 94.9586 76.5093C95.0626 76.4151 95.1884 76.3672 95.3362 76.3672C95.4839 76.3672 95.6024 76.4151 95.7027 76.5093C95.8031 76.6034 95.8523 76.7188 95.8523 76.8556C95.8523 76.9923 95.8031 77.0954 95.7027 77.1859C95.6024 77.2765 95.4802 77.3227 95.3362 77.3227C95.1921 77.3227 95.0626 77.2765 94.9586 77.1859C94.8547 77.0954 94.8018 76.9852 94.8018 76.8556Z" fill="#29A899"/>
<path d="M99.965 80.4308H96.7715V79.7417H99.1388V79.5499C99.1388 79.4291 99.1005 79.2977 99.0257 79.1556C98.9509 79.0153 98.847 78.8768 98.7157 78.7418C98.5825 78.6068 98.4239 78.4772 98.2378 78.3528C98.0518 78.2285 97.8475 78.122 97.6268 78.0332L97.6852 76.9445L100.375 76.1133L100.155 76.9569L98.402 77.4417C98.5971 77.5661 98.7831 77.7099 98.96 77.8733C99.137 78.0367 99.2975 78.2054 99.4379 78.3795C99.5856 78.5713 99.7096 78.7649 99.8118 78.9602C99.9139 79.1556 99.965 79.3528 99.965 79.5517V80.4326V80.4308Z" fill="#29A899"/>
<path d="M102.213 77.6621C102.288 78.0297 102.343 78.3903 102.378 78.7455C102.412 79.1007 102.434 79.4328 102.443 79.7418H103.207V80.4309H102.443C102.44 80.5037 102.425 80.589 102.405 80.6902C102.383 80.7915 102.347 80.8945 102.292 81.001C102.239 81.1076 102.168 81.2124 102.08 81.3189C101.993 81.4237 101.878 81.5196 101.736 81.6031C101.593 81.6884 101.422 81.7558 101.221 81.8056C101.019 81.8553 100.78 81.8819 100.501 81.8819L100.34 81.4273C100.577 81.4095 100.789 81.3562 100.975 81.2728C101.053 81.2355 101.132 81.1893 101.208 81.1342C101.285 81.0792 101.353 81.0135 101.413 80.9353C101.473 80.8572 101.522 80.763 101.559 80.6547C101.595 80.5464 101.615 80.4238 101.615 80.2853C101.615 79.9017 101.604 79.5074 101.584 79.1042C101.564 78.6993 101.495 78.3015 101.376 77.9108L102.212 77.6639L102.213 77.6621Z" fill="#29A899"/>
<path d="M102.999 79.7417H104.141V77.9035L104.976 77.6371V79.7399H105.894V77.9018L106.729 77.6354V79.7382H107.639V77.9L108.474 77.6336V80.4273H102.998V79.7382L102.999 79.7417ZM105.057 76.8397C105.057 76.7029 105.11 76.5875 105.215 76.4934C105.321 76.3992 105.447 76.3513 105.595 76.3513C105.742 76.3513 105.861 76.3992 105.961 76.4934C106.062 76.5875 106.111 76.7029 106.111 76.8397C106.111 76.9765 106.062 77.0795 105.961 77.17C105.861 77.2606 105.739 77.3068 105.595 77.3068C105.451 77.3068 105.321 77.2606 105.215 77.17C105.11 77.0795 105.057 76.9693 105.057 76.8397ZM105.72 75.6373C105.72 75.5006 105.773 75.3851 105.877 75.291C105.981 75.1969 106.109 75.1489 106.259 75.1489C106.408 75.1489 106.523 75.1969 106.621 75.291C106.722 75.3851 106.771 75.5006 106.771 75.6373C106.771 75.7741 106.722 75.8789 106.621 75.9712C106.521 76.0636 106.401 76.1098 106.259 76.1098C106.116 76.1098 105.983 76.0636 105.877 75.9712C105.772 75.8789 105.72 75.767 105.72 75.6373ZM106.437 76.8397C106.437 76.7029 106.49 76.5875 106.594 76.4934C106.698 76.3992 106.826 76.3513 106.975 76.3513C107.125 76.3513 107.24 76.3992 107.338 76.4934C107.439 76.5875 107.488 76.7029 107.488 76.8397C107.488 76.9765 107.439 77.0795 107.338 77.17C107.238 77.2606 107.118 77.3068 106.975 77.3068C106.833 77.3068 106.698 77.2606 106.594 77.17C106.49 77.0795 106.437 76.9693 106.437 76.8397Z" fill="#29A899"/>
<path d="M36.4941 87.8459H37.2565V89.9345H37.8182V87.8459H38.5751V87.4338H36.4941V87.8459Z" fill="url(#paint6_linear_571_6625)"/>
<path d="M42.7333 88.4355H41.7539V87.4338H41.2104V89.9345H41.7539V88.8351H42.7333V89.9345H43.2841V87.4338H42.7333V88.4355Z" fill="url(#paint7_linear_571_6625)"/>
<path d="M46.6981 88.8476H47.7924V88.4408H46.6981V87.8459H47.8654V87.4338H46.1528V89.9345H47.9037V89.5242H46.6981V88.8476Z" fill="url(#paint8_linear_571_6625)"/>
<path d="M53.7199 87.4338L52.7861 89.9363H53.3096L53.5047 89.3999H54.5169L54.7011 89.9363H55.2574L54.3674 87.4338H53.7217H53.7199ZM53.6488 88.9879L54.0318 87.9258L54.382 88.9879H53.6488Z" fill="url(#paint9_linear_571_6625)"/>
<path d="M59.859 89.6324L59.8426 89.5027C59.8061 89.2328 59.7733 89.0552 59.746 88.9717C59.7186 88.8882 59.6785 88.8278 59.6292 88.787C59.58 88.7461 59.4851 88.7142 59.3484 88.6893C59.4377 88.6644 59.5089 88.6396 59.5654 88.6129C59.6621 88.5632 59.7368 88.4904 59.7934 88.3963C59.8499 88.3021 59.8773 88.2009 59.8773 88.0926C59.8773 87.8865 59.8061 87.7249 59.6657 87.6077C59.5253 87.4905 59.332 87.4319 59.0876 87.4319H57.8984V89.9343H58.4602V88.9273H58.9435C59 88.9273 59.0493 88.9344 59.093 88.9468C59.1368 88.9593 59.1696 88.977 59.1879 88.9983C59.217 89.0445 59.2444 89.1617 59.2718 89.35L59.3557 89.9343H59.9612C59.921 89.8615 59.8955 89.8029 59.8864 89.7585C59.8773 89.7141 59.8681 89.6715 59.8609 89.6306L59.859 89.6324ZM59.259 88.3341C59.2298 88.3909 59.1897 88.4353 59.1423 88.4726C59.0894 88.5082 59.0037 88.5277 58.8815 88.5277H58.4419V87.8244H58.8085C58.9562 87.8244 59.0529 87.8333 59.0985 87.851C59.166 87.8759 59.2152 87.9167 59.2517 87.97C59.2864 88.0251 59.3046 88.089 59.3046 88.1654C59.3046 88.224 59.29 88.2808 59.2608 88.3359L59.259 88.3341Z" fill="url(#paint10_linear_571_6625)"/>
<path d="M62.4561 87.8459H63.2166V89.9345H63.7783V87.8459H64.5352V87.4338H62.4561V87.8459Z" fill="url(#paint11_linear_571_6625)"/>
<path d="M70.663 87.384C70.2854 87.384 69.9863 87.503 69.7657 87.741C69.545 87.979 69.4355 88.304 69.4355 88.7161C69.4355 89.1281 69.5432 89.43 69.7602 89.6591C69.9772 89.8865 70.2745 90.0001 70.652 90.0001C71.0296 90.0001 71.3451 89.8811 71.5639 89.6431C71.7828 89.4051 71.8922 89.0766 71.8922 88.6574C71.8922 88.2383 71.7846 87.9453 71.5676 87.7215C71.3505 87.4977 71.0496 87.3858 70.6648 87.3858L70.663 87.384ZM70.6466 89.6041C70.4423 89.6041 70.2854 89.5259 70.176 89.3714C70.0666 89.2169 70.0119 88.9931 70.0119 88.7001C70.0119 88.0785 70.2307 87.7694 70.6684 87.7694C70.88 87.7694 71.0405 87.8458 71.1517 88.0003C71.263 88.1548 71.3177 88.3733 71.3177 88.6574C71.3177 89.2897 71.0934 89.6058 70.6447 89.6058L70.6466 89.6041Z" fill="url(#paint12_linear_571_6625)"/>
<path d="M74.6499 89.9345H75.1989V88.8689H76.2275V88.4568H75.1989V87.8334H76.3059V87.4338H74.6499V89.9345Z" fill="url(#paint13_linear_571_6625)"/>
<path d="M82.773 88.6415V88.6308C82.8204 88.6166 82.8806 88.5882 82.9517 88.5438C83.1268 88.439 83.2125 88.2898 83.2125 88.0945C83.2125 88.011 83.1924 87.924 83.1541 87.8298C83.1158 87.7357 83.0666 87.6664 83.0064 87.6185C82.9061 87.5386 82.7949 87.4888 82.6708 87.4675C82.5468 87.4462 82.421 87.4355 82.2951 87.4355H81.334V89.938H82.2951C82.5851 89.938 82.793 89.906 82.9243 89.8403C83.0465 89.7817 83.1414 89.7018 83.2107 89.597C83.28 89.4922 83.3128 89.3767 83.3128 89.2506C83.3128 89.0926 83.2672 88.9594 83.1742 88.8546C83.0812 88.7498 82.9481 88.6788 82.773 88.6432V88.6415ZM81.8611 87.8174H82.2222C82.3845 87.8174 82.5012 87.8423 82.5723 87.8902C82.6435 87.9382 82.6781 88.0199 82.6781 88.1318C82.6781 88.2436 82.6435 88.3307 82.576 88.3804C82.5067 88.4319 82.3954 88.4568 82.2404 88.4568H81.8629V87.8174H81.8611ZM82.7219 89.3767C82.6927 89.43 82.6471 89.4691 82.5888 89.4904C82.5103 89.5188 82.3881 89.533 82.2222 89.533H81.8611V88.8351H82.1729C82.3881 88.8351 82.5413 88.8635 82.6325 88.9185C82.7237 88.9754 82.7693 89.0677 82.7693 89.1974C82.7693 89.2631 82.7547 89.3217 82.7255 89.3767H82.7219Z" fill="url(#paint14_linear_571_6625)"/>
<path d="M86.625 88.8476H87.7211V88.4408H86.625V87.8459H87.7941V87.4338H86.0815V89.9345H87.8324V89.5242H86.625V88.8476Z" fill="url(#paint15_linear_571_6625)"/>
<path d="M91.2902 87.4338L90.3564 89.9363H90.8799L91.075 89.3999H92.0872L92.2714 89.9363H92.8277L91.9377 87.4338H91.2921H91.2902ZM91.2191 88.9879L91.6021 87.9258L91.9523 88.9879H91.2191Z" fill="url(#paint16_linear_571_6625)"/>
<path d="M97.1959 88.9326C97.1959 89.0871 97.1868 89.1919 97.1704 89.2434C97.154 89.2949 97.1321 89.3376 97.1066 89.3713C97.0099 89.5081 96.8531 89.5773 96.6342 89.5773C96.4153 89.5773 96.2749 89.5311 96.1892 89.4388C96.1035 89.3464 96.0615 89.1866 96.0615 88.9593V87.4319H95.5107V88.9326C95.5107 89.1315 95.5235 89.2683 95.5472 89.3447C95.5709 89.421 95.6038 89.4885 95.6439 89.5507C95.7369 89.691 95.8646 89.7993 96.0269 89.8721C96.1892 89.9467 96.3825 89.9823 96.605 89.9823C96.9534 89.9823 97.2288 89.8935 97.4312 89.7176C97.6336 89.54 97.734 89.3003 97.734 88.9983V87.4337H97.1941V88.9344L97.1959 88.9326Z" fill="url(#paint17_linear_571_6625)"/>
<path d="M100.42 87.8459H101.183V89.9345H101.744V87.8459H102.5V87.4338H100.42V87.8459Z" fill="url(#paint18_linear_571_6625)"/>
<path d="M106.665 87.4338L106.125 88.5812L105.598 87.4338H104.953L105.815 89.0145V89.9345H106.359V89.0305L107.227 87.4338H106.665Z" fill="url(#paint19_linear_571_6625)"/>
</g>
<defs>
<linearGradient id="paint0_linear_571_6625" x1="27.0691" y1="18.4263" x2="27.0691" y2="46.1322" gradientUnits="userSpaceOnUse">
<stop offset="0.04" stop-color="#97989A"/>
<stop offset="0.26" stop-color="#C4C5C7"/>
<stop offset="0.44" stop-color="#E7E9E8"/>
<stop offset="0.59" stop-color="#737574"/>
<stop offset="0.73" stop-color="#6C6E6D"/>
<stop offset="1" stop-color="#B3B3B3"/>
</linearGradient>
<linearGradient id="paint1_linear_571_6625" x1="88.6187" y1="19.8363" x2="102.084" y2="43.7883" gradientUnits="userSpaceOnUse">
<stop offset="0.04" stop-color="#97989A"/>
<stop offset="0.26" stop-color="#C4C5C7"/>
<stop offset="0.37" stop-color="#E7E9E8"/>
<stop offset="0.46" stop-color="#737574"/>
<stop offset="0.59" stop-color="#6F7170"/>
<stop offset="0.69" stop-color="#6C6E6D"/>
<stop offset="1" stop-color="#B3B3B3"/>
</linearGradient>
<linearGradient id="paint2_linear_571_6625" x1="48.0754" y1="18.4263" x2="48.0754" y2="47.5531" gradientUnits="userSpaceOnUse">
<stop offset="0.04" stop-color="#97989A"/>
<stop offset="0.26" stop-color="#C4C5C7"/>
<stop offset="0.44" stop-color="#E7E9E8"/>
<stop offset="0.51" stop-color="#EFF1F0"/>
<stop offset="0.59" stop-color="#737574"/>
<stop offset="0.73" stop-color="#636564"/>
<stop offset="1" stop-color="#B3B3B3"/>
</linearGradient>
<linearGradient id="paint3_linear_571_6625" x1="13.8736" y1="-0.524008" x2="122.676" y2="63.9841" gradientUnits="userSpaceOnUse">
<stop stop-color="#17317E"/>
<stop offset="0.21" stop-color="#2C5BA3"/>
<stop offset="0.27" stop-color="#3489C4"/>
<stop offset="0.35" stop-color="#286DA9"/>
<stop offset="0.46" stop-color="#11406B"/>
<stop offset="0.57" stop-color="#16918F"/>
<stop offset="0.68" stop-color="#30D2BF"/>
<stop offset="0.73" stop-color="#29B2A0"/>
<stop offset="0.82" stop-color="#106D6C"/>
<stop offset="0.96" stop-color="#116A69"/>
</linearGradient>
<linearGradient id="paint4_linear_571_6625" x1="114.064" y1="10.4875" x2="114.064" y2="49.6186" gradientUnits="userSpaceOnUse">
<stop offset="0.04" stop-color="#13342F"/>
<stop offset="0.26" stop-color="#086463"/>
<stop offset="0.66" stop-color="#075651"/>
<stop offset="1" stop-color="#01332F"/>
</linearGradient>
<linearGradient id="paint5_linear_571_6625" x1="30.6051" y1="8.43156" x2="18.3945" y2="45.0552" gradientUnits="userSpaceOnUse">
<stop offset="0.04" stop-color="#050D31"/>
<stop offset="0.26" stop-color="#0E1E59"/>
<stop offset="0.66" stop-color="#0B1D4F"/>
<stop offset="1" stop-color="#0A163E"/>
</linearGradient>
<linearGradient id="paint6_linear_571_6625" x1="37.5355" y1="87.4338" x2="37.5355" y2="89.9345" gradientUnits="userSpaceOnUse">
<stop offset="0.04" stop-color="#97989A"/>
<stop offset="0.26" stop-color="#C4C5C7"/>
<stop offset="0.46" stop-color="#737574"/>
<stop offset="0.59" stop-color="#6F7170"/>
<stop offset="0.69" stop-color="#6C6E6D"/>
<stop offset="1" stop-color="#B3B3B3"/>
</linearGradient>
<linearGradient id="paint7_linear_571_6625" x1="42.2464" y1="9.10642e-05" x2="42.2464" y2="9.10642e-05" gradientUnits="userSpaceOnUse">
<stop offset="0.04" stop-color="#97989A"/>
<stop offset="0.26" stop-color="#C4C5C7"/>
<stop offset="0.46" stop-color="#737574"/>
<stop offset="0.59" stop-color="#6F7170"/>
<stop offset="0.69" stop-color="#6C6E6D"/>
<stop offset="1" stop-color="#B3B3B3"/>
</linearGradient>
<linearGradient id="paint8_linear_571_6625" x1="47.0283" y1="9.10642e-05" x2="47.0283" y2="9.10642e-05" gradientUnits="userSpaceOnUse">
<stop offset="0.04" stop-color="#97989A"/>
<stop offset="0.26" stop-color="#C4C5C7"/>
<stop offset="0.46" stop-color="#737574"/>
<stop offset="0.59" stop-color="#6F7170"/>
<stop offset="0.69" stop-color="#6C6E6D"/>
<stop offset="1" stop-color="#B3B3B3"/>
</linearGradient>
<linearGradient id="paint9_linear_571_6625" x1="54.0209" y1="2.47593e-05" x2="54.0209" y2="2.47593e-05" gradientUnits="userSpaceOnUse">
<stop offset="0.04" stop-color="#97989A"/>
<stop offset="0.26" stop-color="#C4C5C7"/>
<stop offset="0.46" stop-color="#737574"/>
<stop offset="0.59" stop-color="#6F7170"/>
<stop offset="0.69" stop-color="#6C6E6D"/>
<stop offset="1" stop-color="#B3B3B3"/>
</linearGradient>
<linearGradient id="paint10_linear_571_6625" x1="58.9271" y1="4.71094e-05" x2="58.9271" y2="4.71094e-05" gradientUnits="userSpaceOnUse">
<stop offset="0.04" stop-color="#97989A"/>
<stop offset="0.26" stop-color="#C4C5C7"/>
<stop offset="0.46" stop-color="#737574"/>
<stop offset="0.59" stop-color="#6F7170"/>
<stop offset="0.69" stop-color="#6C6E6D"/>
<stop offset="1" stop-color="#B3B3B3"/>
</linearGradient>
<linearGradient id="paint11_linear_571_6625" x1="63.4956" y1="9.10642e-05" x2="63.4956" y2="9.10642e-05" gradientUnits="userSpaceOnUse">
<stop offset="0.04" stop-color="#97989A"/>
<stop offset="0.26" stop-color="#C4C5C7"/>
<stop offset="0.46" stop-color="#737574"/>
<stop offset="0.59" stop-color="#6F7170"/>
<stop offset="0.69" stop-color="#6C6E6D"/>
<stop offset="1" stop-color="#B3B3B3"/>
</linearGradient>
<linearGradient id="paint12_linear_571_6625" x1="70.663" y1="87.384" x2="70.663" y2="90.0001" gradientUnits="userSpaceOnUse">
<stop offset="0.04" stop-color="#97989A"/>
<stop offset="0.26" stop-color="#C4C5C7"/>
<stop offset="0.46" stop-color="#737574"/>
<stop offset="0.59" stop-color="#6F7170"/>
<stop offset="0.69" stop-color="#6C6E6D"/>
<stop offset="1" stop-color="#B3B3B3"/>
</linearGradient>
<linearGradient id="paint13_linear_571_6625" x1="75.4779" y1="9.10642e-05" x2="75.4779" y2="9.10642e-05" gradientUnits="userSpaceOnUse">
<stop offset="0.04" stop-color="#97989A"/>
<stop offset="0.26" stop-color="#C4C5C7"/>
<stop offset="0.46" stop-color="#737574"/>
<stop offset="0.59" stop-color="#6F7170"/>
<stop offset="0.69" stop-color="#6C6E6D"/>
<stop offset="1" stop-color="#B3B3B3"/>
</linearGradient>
<linearGradient id="paint14_linear_571_6625" x1="82.3225" y1="0.000158121" x2="82.3225" y2="0.000158121" gradientUnits="userSpaceOnUse">
<stop offset="0.04" stop-color="#97989A"/>
<stop offset="0.26" stop-color="#C4C5C7"/>
<stop offset="0.46" stop-color="#737574"/>
<stop offset="0.59" stop-color="#6F7170"/>
<stop offset="0.69" stop-color="#6C6E6D"/>
<stop offset="1" stop-color="#B3B3B3"/>
</linearGradient>
<linearGradient id="paint15_linear_571_6625" x1="86.957" y1="9.10642e-05" x2="86.957" y2="9.10642e-05" gradientUnits="userSpaceOnUse">
<stop offset="0.04" stop-color="#97989A"/>
<stop offset="0.26" stop-color="#C4C5C7"/>
<stop offset="0.46" stop-color="#737574"/>
<stop offset="0.59" stop-color="#6F7170"/>
<stop offset="0.69" stop-color="#6C6E6D"/>
<stop offset="1" stop-color="#B3B3B3"/>
</linearGradient>
<linearGradient id="paint16_linear_571_6625" x1="91.5912" y1="2.47593e-05" x2="91.5912" y2="2.47593e-05" gradientUnits="userSpaceOnUse">
<stop offset="0.04" stop-color="#97989A"/>
<stop offset="0.26" stop-color="#C4C5C7"/>
<stop offset="0.46" stop-color="#737574"/>
<stop offset="0.59" stop-color="#6F7170"/>
<stop offset="0.69" stop-color="#6C6E6D"/>
<stop offset="1" stop-color="#B3B3B3"/>
</linearGradient>
<linearGradient id="paint17_linear_571_6625" x1="96.6233" y1="0.000113291" x2="96.6233" y2="89.984" gradientUnits="userSpaceOnUse">
<stop offset="0.04" stop-color="#97989A"/>
<stop offset="0.26" stop-color="#C4C5C7"/>
<stop offset="0.46" stop-color="#737574"/>
<stop offset="0.59" stop-color="#6F7170"/>
<stop offset="0.69" stop-color="#6C6E6D"/>
<stop offset="1" stop-color="#B3B3B3"/>
</linearGradient>
<linearGradient id="paint18_linear_571_6625" x1="101.46" y1="9.10642e-05" x2="101.46" y2="9.10642e-05" gradientUnits="userSpaceOnUse">
<stop offset="0.04" stop-color="#97989A"/>
<stop offset="0.26" stop-color="#C4C5C7"/>
<stop offset="0.46" stop-color="#737574"/>
<stop offset="0.59" stop-color="#6F7170"/>
<stop offset="0.69" stop-color="#6C6E6D"/>
<stop offset="1" stop-color="#B3B3B3"/>
</linearGradient>
<linearGradient id="paint19_linear_571_6625" x1="106.089" y1="9.10642e-05" x2="106.089" y2="9.10642e-05" gradientUnits="userSpaceOnUse">
<stop offset="0.04" stop-color="#97989A"/>
<stop offset="0.26" stop-color="#C4C5C7"/>
<stop offset="0.46" stop-color="#737574"/>
<stop offset="0.59" stop-color="#6F7170"/>
<stop offset="0.69" stop-color="#6C6E6D"/>
<stop offset="1" stop-color="#B3B3B3"/>
</linearGradient>
<clipPath id="clip0_571_6625">
<rect width="138" height="90" fill="white"/>
</clipPath>
</defs>
</svg>
