<svg width="138" height="62" viewBox="0 0 138 62" fill="none" xmlns="http://www.w3.org/2000/svg">
<path d="M68.2231 22.234C73.9589 17.3251 78.8394 12.8318 84.0628 8.75402C90.8729 3.44015 98.7007 -0.0248681 107.53 0.186479C120.867 0.506163 132.729 6.81815 136.8 22.3743C141.193 39.1649 130.997 55.895 113.67 59.8413C102.401 62.4077 92.5435 58.9995 83.8403 52.1689C78.6954 48.132 73.9553 43.6067 68.9307 39.211C65.181 42.6121 61.3947 46.1961 57.4425 49.5972C50.1984 55.8275 42.0004 60.1752 32.119 60.6157C15.8106 61.3439 3.96859 52.1991 0.782403 36.5861C-2.32354 21.3691 6.90856 6.23562 22.1592 1.76181C32.8996 -1.38885 42.8631 0.621605 51.6976 7.07923C56.8462 10.8426 61.8726 14.892 66.2625 19.5007C67.1014 20.3799 67.6887 21.4703 68.2231 22.234ZM60.6488 30.4197C56.4869 26.6439 52.562 22.9515 48.4749 19.4386C46.7532 17.9574 44.7853 16.6875 42.7682 15.6041C36.1132 12.0308 29.2283 11.212 22.4839 15.1779C16.1553 18.8987 13.0584 24.5731 13.5965 31.8157C14.2512 40.623 19.7135 46.5904 27.5723 48.0627C33.4668 49.1674 38.6829 47.5353 43.6601 44.7629C50.1419 41.1522 55.2157 35.9343 60.647 30.4215L60.6488 30.4197ZM77.3494 30.5618C81.3964 34.2613 85.0568 37.7547 88.8959 41.0528C90.7434 42.6405 92.8317 44.0152 94.9728 45.2087C99.2642 47.5992 103.733 48.814 108.896 48.1604C120.687 46.6686 129.607 32.9612 121.398 20.0637C116.853 12.9241 107.393 10.6206 98.449 14.2402C89.9646 17.6732 83.8312 24.0154 77.3476 30.5618H77.3494Z" fill="url(#paint0_linear_6_95)" stroke="#2BB1A0" stroke-width="2" stroke-miterlimit="10"/>
<defs>
<linearGradient id="paint0_linear_6_95" x1="13.8737" y1="-0.523932" x2="122.676" y2="63.9842" gradientUnits="userSpaceOnUse">
<stop stop-color="#17317E"/>
<stop offset="0.21" stop-color="#2C5BA3"/>
<stop offset="0.27" stop-color="#3489C4"/>
<stop offset="0.35" stop-color="#286DA9"/>
<stop offset="0.46" stop-color="#11406B"/>
<stop offset="0.57" stop-color="#16918F"/>
<stop offset="0.68" stop-color="#30D2BF"/>
<stop offset="0.73" stop-color="#29B2A0"/>
<stop offset="0.82" stop-color="#106D6C"/>
<stop offset="0.96" stop-color="#116A69"/>
</linearGradient>
</defs>
</svg>
