<svg width="74" height="97" viewBox="0 0 74 97" fill="none" xmlns="http://www.w3.org/2000/svg">
<path d="M65.9099 63.4349C64.2599 63.4349 62.6909 62.7179 61.6124 61.4684C60.5309 62.7179 58.9589 63.4349 57.3074 63.4349H56.8154C55.1624 63.4349 53.5919 62.7179 52.5104 61.4684C51.4319 62.7179 49.8629 63.4349 48.2129 63.4349H43.2644V60.6044H48.2129C49.8164 60.6044 51.1154 59.3054 51.1154 57.7019V48.2339H53.9219V57.7019C53.9219 59.3054 55.2209 60.6044 56.8244 60.6044H57.3164C58.9199 60.6044 60.2189 59.3054 60.2189 57.7019V48.2339H63.0179V57.7019C63.1019 59.3069 64.4714 60.5399 66.0764 60.4559C67.5644 60.3779 68.7524 59.1899 68.8304 57.7019V48.2339H71.6294V57.7019C71.6384 60.8594 69.0854 63.4259 65.9279 63.4349C65.9204 63.4349 65.9159 63.4349 65.9099 63.4349Z" fill="#03A1AD"/>
<path d="M35.5485 63.4348H20.7915V60.6043H35.5485C38.5785 60.6043 41.0355 58.1473 41.0355 55.1158C41.0355 52.0858 38.5785 49.6303 35.5485 49.6288H22.068L32.955 38.7568L34.938 40.7398L28.848 46.8298H35.5485C40.125 46.8283 43.836 50.5363 43.839 55.1128C43.842 59.6893 40.1325 63.4003 35.556 63.4033C35.553 63.4033 35.5515 63.4033 35.5485 63.4033" fill="#03A1AD"/>
<path d="M11.2049 65.6159C6.22341 65.6114 2.18541 61.5734 2.18091 56.5919V50.9384H4.97991V56.5919C4.97991 60.0299 7.76841 62.8154 11.2064 62.8154C14.6429 62.8154 17.4284 60.0284 17.4299 56.5919V48.2339H20.2289V56.5919C20.2244 61.5734 16.1864 65.6114 11.2049 65.6159Z" fill="#03A1AD"/>
<path d="M13.1236 48.2339C13.1236 47.1734 12.2641 46.3154 11.2051 46.3154C10.1446 46.3154 9.28662 47.1749 9.28662 48.2339C9.28662 49.2944 10.1461 50.1524 11.2051 50.1524C12.2641 50.1539 13.1236 49.2944 13.1236 48.2339Z" fill="#03A1AD"/>
<path d="M11.22 77.9312C10.263 77.4032 9.24146 76.9982 8.18246 76.7252C7.23896 76.5092 6.34646 76.1162 5.54996 75.5672C5.08946 75.2282 4.81796 74.6882 4.82096 74.1167C4.78946 73.4552 5.08646 72.8207 5.61446 72.4202C6.26696 71.9642 7.05596 71.7437 7.85096 71.7932C8.71046 71.7392 9.55796 72.0077 10.23 72.5462C10.803 73.0772 11.1075 73.8362 11.0625 74.6162H13.4415C13.4325 73.7417 13.17 72.8882 12.6885 72.1577C12.201 71.4047 11.5155 70.8017 10.7055 70.4132C9.79946 69.9827 8.80646 69.7667 7.80296 69.7787C6.40346 69.7172 5.02646 70.1522 3.91796 71.0072C2.93696 71.7632 2.37445 72.9407 2.40295 74.1797C2.39245 75.2492 2.84696 76.2707 3.64796 76.9787C4.77896 77.8847 6.09896 78.5267 7.50896 78.8582C8.50496 79.1072 9.44996 79.5227 10.308 80.0867C10.7895 80.4692 11.058 81.0587 11.0295 81.6722C11.055 82.3172 10.758 82.9337 10.236 83.3132C9.53246 83.7752 8.69696 83.9912 7.85696 83.9312C6.91196 83.9762 5.98046 83.6957 5.21696 83.1377C4.57496 82.6517 4.21345 81.8807 4.24945 81.0767H1.87046C1.86446 81.9722 2.14196 82.8467 2.66396 83.5742C3.22196 84.3377 3.97946 84.9332 4.85246 85.2947C5.80796 85.7132 6.83846 85.9262 7.88096 85.9217C9.29546 85.9802 10.689 85.5707 11.8455 84.7562C12.8445 84.0152 13.4145 82.8287 13.368 81.5837C13.386 80.8382 13.1955 80.1032 12.8205 79.4582C12.4035 78.8012 11.832 78.2567 11.1555 77.8727" fill="#03A1AD"/>
<path d="M42.4305 69.9932H39.513L32.9385 77.3207V69.9932H30.561V85.7177H32.9385V80.4212L34.6275 78.6602L34.668 78.7157L40.005 85.7177H42.867L36.222 76.9712L42.4305 69.9932Z" fill="#03A1AD"/>
<path d="M59.4556 69.9932V85.7177H61.8421V74.2832L69.3121 85.7177H71.6191V69.9932H69.2491V81.4832L61.7626 69.9932H59.4556Z" fill="#03A1AD"/>
<path d="M21.9961 69.9932C18.6391 69.9977 15.9181 72.7187 15.9136 76.0757V85.7177H18.2926V80.2232H25.7071V85.7177H28.0861V76.0757C28.0861 72.7172 25.3636 69.9932 22.0036 69.9932C22.0021 69.9932 21.9991 69.9932 21.9961 69.9932ZM18.3016 77.8592V76.0667C18.3961 74.0192 20.1331 72.4367 22.1806 72.5312C24.0946 72.6197 25.6276 74.1527 25.7161 76.0667V77.8592H18.3016Z" fill="#03A1AD"/>
<path d="M50.8921 69.9932C47.5336 69.9932 44.8096 72.7157 44.8096 76.0757V85.7177H47.1886V80.2232H54.5941V85.7177H56.9731V76.0757C56.9686 72.7187 54.2491 69.9977 50.8921 69.9932ZM47.1961 77.8592V76.0667C47.1961 74.0222 48.8536 72.3632 50.8996 72.3632C52.9441 72.3632 54.6016 74.0207 54.6031 76.0667V77.8592H47.1961Z" fill="#03A1AD"/>
<path d="M73.8001 25.3742C73.2901 25.7852 72.6556 26.0087 72.0001 26.0087H66.2505C65.5951 26.0102 64.959 25.7867 64.4506 25.3742L55.8781 18.5867C53.8471 16.9547 50.955 16.9547 48.924 18.5867L47.7271 17.6267L49.6771 16.0802C50.6566 15.2972 51.8731 14.8697 53.1271 14.8667H58.599C59.8635 14.8622 61.0921 15.2912 62.0806 16.0802L73.8001 25.3742Z" fill="#03A1AD"/>
<path d="M41.8365 24.2162L38.2365 27.0707C37.26 27.8537 36.0465 28.2782 34.7955 28.2767H32.5905C31.326 28.2767 30.099 27.8492 29.109 27.0632L18.444 18.5867C16.4115 16.9502 13.5135 16.9502 11.4825 18.5867L2.91 25.3742C2.4015 25.7867 1.7655 26.0102 1.11 26.0087C0.728999 26.0132 0.351 25.9397 0 25.7942L12.228 16.0802C13.2165 15.2912 14.445 14.8637 15.7095 14.8667H21.165C22.4295 14.8622 23.658 15.2912 24.6465 16.0802L33.678 23.2172C35.709 24.8492 38.601 24.8492 40.632 23.2172L41.8365 24.2162Z" fill="#03A1AD"/>
<path d="M57.885 12.7816C57.372 13.1866 56.739 13.4071 56.085 13.4086H50.3595C49.704 13.4086 49.0665 13.1881 48.552 12.7816L37.149 3.71856C35.118 2.08656 32.226 2.08656 30.195 3.71856L18.7845 12.7816C18.2715 13.1866 17.6385 13.4071 16.9845 13.4086C16.6035 13.4101 16.2255 13.3351 15.8745 13.1866L30.924 1.21356C31.914 0.423062 33.1455 -0.00593791 34.413 6.20932e-05H39.8685C41.133 6.20932e-05 42.36 0.427562 43.35 1.21356L57.885 12.7816Z" fill="#03A1AD"/>
<path d="M23.1225 24.2086L18.801 27.6421C18.288 28.0531 17.6505 28.2766 16.9935 28.2766C16.611 28.2766 16.2345 28.1971 15.8835 28.0471L20.205 24.5821C20.718 24.1771 21.3525 23.9566 22.005 23.9551C22.3905 23.9626 22.7715 24.0481 23.1225 24.2086Z" fill="#03A1AD"/>
<path d="M57.8851 27.6422C57.3781 28.0517 56.7451 28.2752 56.0926 28.2767H50.3671C49.7116 28.2782 49.0756 28.0547 48.5671 27.6422L37.1566 18.5867C35.1256 16.9547 32.2336 16.9547 30.2026 18.5867L24.3196 23.2577L23.1226 22.2977L30.9256 16.0817C31.9141 15.2927 33.1426 14.8652 34.4071 14.8682H39.8866C41.1511 14.8637 42.3796 15.2927 43.3681 16.0817L57.8851 27.6422Z" fill="#03A1AD"/>
<path d="M3.53694 90.8325H3.98845C4.01845 90.8325 4.04395 90.858 4.04395 90.888V91.356C4.04395 91.386 4.01845 91.4115 3.98845 91.4115H3.53694C3.50694 91.4115 3.48145 91.386 3.48145 91.356V90.888C3.48145 90.8565 3.50544 90.8325 3.53694 90.8325Z" fill="#03A1AD"/>
<path d="M2.8304 90.8325H3.2819C3.3119 90.8325 3.3374 90.858 3.3374 90.888V91.356C3.3374 91.386 3.3119 91.4115 3.2819 91.4115H2.8304C2.8004 91.4115 2.7749 91.386 2.7749 91.356V90.888C2.7749 90.8565 2.8004 90.8325 2.8304 90.8325Z" fill="#03A1AD"/>
<path d="M5.33699 94.8843H5.78849C5.81849 94.8843 5.84399 94.9098 5.84399 94.9398V95.4078C5.84399 95.4378 5.81849 95.4633 5.78849 95.4633H5.33699C5.30699 95.4633 5.28149 95.4378 5.28149 95.4078V94.9398C5.28149 94.9098 5.30549 94.8843 5.33699 94.8843Z" fill="#03A1AD"/>
<path d="M6.04207 94.8843H6.49357C6.52357 94.8843 6.54907 94.9098 6.54907 94.9398V95.4078C6.54907 95.4378 6.52357 95.4633 6.49357 95.4633H6.04207C6.01207 95.4633 5.98657 95.4378 5.98657 95.4078V94.9398C5.98657 94.9098 6.01207 94.8843 6.04207 94.8843Z" fill="#03A1AD"/>
<path d="M11.3071 92.37C11.1856 92.2305 11.0341 92.1225 10.8631 92.0535C10.6366 91.9605 10.3936 91.917 10.1491 91.926C9.76656 91.923 9.38856 92.013 9.04656 92.187C9.03905 92.202 9.03905 92.22 9.04656 92.235C9.04806 92.2515 9.04806 92.2665 9.04656 92.283L9.18155 92.616H9.23705C9.36905 92.556 9.50705 92.511 9.64955 92.481C9.77555 92.4705 9.90305 92.4705 10.0306 92.481C10.2886 92.4585 10.5436 92.5455 10.7356 92.7195C10.8901 92.8935 10.9696 93.1215 10.9576 93.354C10.9666 93.438 10.9666 93.5235 10.9576 93.6075C10.9516 93.6705 10.9291 93.7305 10.8946 93.7815C10.8586 93.8235 10.8121 93.8565 10.7596 93.876C10.6861 93.8895 10.6111 93.8895 10.5376 93.876C10.5556 93.8145 10.5691 93.75 10.5766 93.6855C10.5811 93.6225 10.5811 93.558 10.5766 93.495C10.5916 93.2715 10.5106 93.0525 10.3546 92.892C10.1986 92.7525 9.99306 92.682 9.78306 92.694C9.69006 92.7075 9.59856 92.7345 9.51306 92.7735C9.42156 92.8035 9.33906 92.8515 9.26706 92.916C9.19356 92.988 9.13355 93.075 9.09305 93.1695C9.04955 93.2835 9.02856 93.405 9.03006 93.5265C9.02856 93.657 9.05556 93.7875 9.10956 93.9075H8.41205C8.29655 93.9165 8.18256 93.885 8.08656 93.8205C7.98906 93.774 7.92606 93.675 7.92756 93.567V90.7995C7.92756 90.7995 7.92756 90.7515 7.87206 90.7515H7.38006C7.38006 90.7515 7.32455 90.7515 7.32455 90.7995V93.567C7.32455 93.678 7.32456 93.75 7.26156 93.789C7.20906 93.84 7.13555 93.8625 7.06355 93.852H6.70655C6.59105 93.861 6.47706 93.8295 6.38106 93.765C6.29856 93.711 6.25056 93.618 6.25356 93.519V92.2185C6.25356 92.2185 6.25355 92.163 6.20555 92.163H5.67455C5.66405 92.1765 5.66405 92.196 5.67455 92.211V93.3375C5.67905 93.42 5.67905 93.501 5.67455 93.5835C5.68505 93.639 5.68505 93.6945 5.67455 93.75C5.65805 93.789 5.62955 93.822 5.59505 93.8445C5.54555 93.855 5.49455 93.855 5.44505 93.8445H5.03255C5.03255 93.8445 5.03256 93.8445 4.98456 93.8445C4.93656 93.8445 4.98456 93.8445 4.93656 93.8445H4.75356C4.68156 93.852 4.60955 93.8295 4.55555 93.7815C4.50605 93.7185 4.48356 93.639 4.49256 93.5595V91.7985C4.49706 91.773 4.48056 91.7475 4.45506 91.743C4.44906 91.7415 4.44305 91.7415 4.43705 91.743H3.91355C3.91355 91.743 3.86555 91.743 3.86555 91.7985V92.037H3.31805C3.18455 92.0355 3.04956 92.0535 2.92206 92.0925C2.79606 92.1255 2.67905 92.1885 2.58155 92.2755C2.47805 92.367 2.39555 92.481 2.34305 92.6085C2.28155 92.778 2.25156 92.9595 2.25606 93.1395C2.25456 93.297 2.28156 93.4515 2.33556 93.6C2.38356 93.7215 2.46005 93.8295 2.55755 93.9165C2.65055 94.002 2.76156 94.065 2.88306 94.0995C3.12006 94.173 3.37505 94.173 3.61205 94.0995C3.71255 94.0725 3.80556 94.02 3.88206 93.9495C3.89856 94.0815 3.97056 94.2 4.08006 94.275C4.20906 94.3455 4.35456 94.3785 4.50006 94.3695H4.93656H4.98456H5.03255H5.55006C5.69256 94.3755 5.83505 94.3575 5.97005 94.314C6.07205 94.2705 6.15305 94.1925 6.19955 94.092C6.24905 94.197 6.33756 94.2795 6.44556 94.3215C6.56706 94.3545 6.69306 94.371 6.81756 94.3695H7.26905C7.40105 94.374 7.53305 94.353 7.65755 94.3065C7.75655 94.266 7.83606 94.1895 7.87956 94.092C7.93056 94.2 8.02206 94.2825 8.13306 94.3215C8.25156 94.356 8.37455 94.371 8.49755 94.3695H10.6861C10.8226 94.3875 10.9621 94.3845 11.0986 94.362C11.2096 94.3275 11.3101 94.2615 11.3836 94.1715C11.4631 94.0725 11.5171 93.9555 11.5426 93.831C11.5846 93.663 11.6026 93.489 11.5981 93.315C11.5981 93.1455 11.5741 92.9775 11.5261 92.8155C11.4886 92.652 11.4136 92.5005 11.3071 92.37ZM3.87005 93.0675C3.87905 93.2235 3.83406 93.3765 3.74256 93.504C3.64356 93.612 3.49955 93.6675 3.35405 93.654C3.22355 93.6615 3.09606 93.6195 2.99706 93.5355C2.90406 93.438 2.85756 93.3045 2.86956 93.171C2.85006 93.009 2.90255 92.847 3.01205 92.727C3.11705 92.6415 3.25055 92.5995 3.38405 92.6085H3.86705V93.0675H3.87005ZM10.0306 93.789C9.97805 93.8535 9.90006 93.891 9.81606 93.8925H9.76056C9.67806 93.8895 9.60006 93.852 9.54606 93.789C9.49206 93.7065 9.46656 93.609 9.47406 93.5115C9.46506 93.4095 9.49356 93.309 9.55356 93.2265C9.61056 93.1545 9.70056 93.117 9.79206 93.123C9.88056 93.117 9.96756 93.156 10.0216 93.2265C10.0816 93.309 10.1101 93.411 10.1011 93.5115C10.1101 93.6105 10.0846 93.708 10.0306 93.789Z" fill="#03A1AD"/>
<path d="M13.9635 91.1417V90.9437H13.416C13.368 90.9122 13.329 90.8717 13.2975 90.8252C13.2585 90.7697 13.239 90.7022 13.242 90.6347C13.2405 90.5627 13.266 90.4907 13.314 90.4367C13.3635 90.3872 13.434 90.3602 13.5045 90.3647C13.551 90.3527 13.6005 90.3527 13.647 90.3647L13.7655 90.4517C13.7655 90.4517 13.7655 90.4517 13.821 90.4517L13.9635 90.3092C13.9635 90.3092 13.9635 90.3092 13.9635 90.2612C13.911 90.1982 13.8465 90.1472 13.773 90.1112C13.6875 90.0767 13.596 90.0572 13.503 90.0557C13.41 90.0542 13.3185 90.0737 13.233 90.1112C13.1655 90.1427 13.104 90.1847 13.05 90.2387C13.005 90.2882 12.972 90.3482 12.9555 90.4127C12.9435 90.4757 12.9435 90.5402 12.9555 90.6032C12.9465 90.6587 12.9465 90.7142 12.9555 90.7697C12.9705 90.8192 12.9915 90.8672 13.0185 90.9122H12.8205H12.7815V91.1102L13.9635 91.1417Z" fill="#03A1AD"/>
<path d="M14.5829 90.729C14.5619 90.7245 14.5409 90.738 14.5349 90.759C14.5334 90.765 14.5334 90.771 14.5349 90.777V93.5685C14.5439 93.648 14.5199 93.7275 14.4719 93.7905C14.4179 93.8385 14.3459 93.861 14.2739 93.8535H13.7114V91.5225C13.7159 91.497 13.6994 91.4715 13.6739 91.467C13.6679 91.4655 13.6619 91.4655 13.6559 91.467H13.1489C13.1489 91.467 13.0934 91.467 13.0934 91.5225V93.8535H12.1259C12.1259 93.8535 12.0779 93.8535 12.0779 93.909V94.3605C12.0779 94.3605 12.0779 94.416 12.1259 94.416H14.5049C14.6834 94.4355 14.8604 94.374 14.9879 94.2495C15.1019 94.1025 15.1559 93.9195 15.1379 93.7335V90.7755C15.1379 90.7755 15.1379 90.7275 15.0824 90.7275H14.5829V90.729Z" fill="#03A1AD"/>
<path d="M15.9061 90.729H16.4056C16.4356 90.729 16.4611 90.7545 16.4611 90.7845V94.3605C16.4611 94.3905 16.4356 94.416 16.4056 94.416H15.9061C15.8761 94.416 15.8506 94.3905 15.8506 94.3605V90.7845C15.8506 90.753 15.8761 90.729 15.9061 90.729Z" fill="#03A1AD"/>
<path d="M19.617 95.4556H20.0685C20.0985 95.4556 20.124 95.4811 20.124 95.5111V95.9791C20.124 96.0091 20.0985 96.0346 20.0685 96.0346H19.617C19.587 96.0346 19.5615 96.0091 19.5615 95.9791V95.5111C19.5615 95.4796 19.587 95.4556 19.617 95.4556Z" fill="#03A1AD"/>
<path d="M21.219 91.878C21.0675 91.8765 20.9175 91.9005 20.775 91.95C20.5305 92.0325 20.3325 92.214 20.2275 92.4495C20.1795 92.565 20.1555 92.6895 20.1555 92.814C20.1525 92.946 20.1825 93.0765 20.2425 93.195C20.301 93.309 20.3775 93.411 20.472 93.4965C20.562 93.585 20.661 93.6645 20.766 93.735L21.06 93.9255C21.141 93.978 21.2175 94.0365 21.2895 94.0995C21.339 94.1385 21.3705 94.1955 21.3765 94.2585C21.3735 94.3425 21.333 94.422 21.2655 94.473C21.1305 94.5405 20.979 94.5675 20.829 94.5525H19.7505C19.647 94.5645 19.5435 94.5645 19.4415 94.5525C19.3455 94.533 19.254 94.4955 19.1715 94.4415C19.0875 94.3845 19.02 94.3095 18.9735 94.2195C18.921 94.113 18.8925 93.9975 18.894 93.879C18.894 93.7245 18.921 93.5715 18.9735 93.4275C19.023 93.306 19.0785 93.186 19.14 93.0705L18.696 92.8965C18.681 92.874 18.6525 92.868 18.63 92.883C18.624 92.886 18.6195 92.8905 18.6165 92.8965C18.5175 93.0525 18.441 93.2205 18.387 93.396C18.3255 93.585 18.2925 93.783 18.2925 93.9825C18.2775 94.3155 18.4035 94.638 18.642 94.8705C18.9375 95.1075 19.311 95.2245 19.689 95.196H20.958C21.1245 95.1975 21.2895 95.1765 21.45 95.133C21.576 95.1015 21.6915 95.0415 21.7905 94.959C21.948 94.815 22.038 94.6095 22.0365 94.3965C22.0395 94.278 22.0065 94.1625 21.942 94.0635C21.8805 93.963 21.8025 93.8745 21.7125 93.8025C21.6225 93.717 21.5235 93.6405 21.4185 93.573L21.117 93.3585C21.033 93.2955 20.9565 93.2235 20.8875 93.144C20.8275 93.0795 20.793 92.994 20.793 92.9055C20.7855 92.79 20.8395 92.679 20.9355 92.6115C21.0315 92.541 21.1485 92.505 21.2685 92.508C21.378 92.5065 21.486 92.529 21.585 92.571C21.675 92.616 21.7575 92.6745 21.831 92.745C21.831 92.745 21.879 92.745 21.9105 92.745L22.2045 92.46C22.227 92.439 22.227 92.403 22.206 92.382C22.206 92.382 22.206 92.382 22.2045 92.3805C22.095 92.2545 21.963 92.1495 21.816 92.0715C21.633 91.962 21.429 91.896 21.219 91.878Z" fill="#03A1AD"/>
<path d="M20.3236 95.4556H20.7751C20.8051 95.4556 20.8306 95.4811 20.8306 95.5111V95.9791C20.8306 96.0091 20.8051 96.0346 20.7751 96.0346H20.3236C20.2936 96.0346 20.2681 96.0091 20.2681 95.9791V95.5111C20.2681 95.4796 20.2921 95.4556 20.3236 95.4556Z" fill="#03A1AD"/>
<path d="M29.1256 91.0454H29.6416C29.6716 91.0454 29.6971 91.0709 29.6971 91.1009V91.5689C29.6971 91.5989 29.6716 91.6244 29.6416 91.6244H29.1256C29.0956 91.6244 29.0701 91.5989 29.0701 91.5689V91.1009C29.0701 91.0709 29.0941 91.0454 29.1256 91.0454Z" fill="#03A1AD"/>
<path d="M30.576 91.0454H31.0275C31.0575 91.0454 31.083 91.0709 31.083 91.1009V91.5689C31.083 91.5989 31.0575 91.6244 31.0275 91.6244H30.576C30.546 91.6244 30.5205 91.5989 30.5205 91.5689V91.1009C30.5205 91.0709 30.546 91.0454 30.576 91.0454Z" fill="#03A1AD"/>
<path d="M31.2826 91.0454H31.7341C31.7641 91.0454 31.7896 91.0709 31.7896 91.1009V91.5689C31.7896 91.5989 31.7641 91.6244 31.7341 91.6244H31.2826C31.2526 91.6244 31.2271 91.5989 31.2271 91.5689V91.1009C31.2271 91.0709 31.2511 91.0454 31.2826 91.0454Z" fill="#03A1AD"/>
<path d="M32.583 90.7291C32.544 90.7291 32.5275 90.7291 32.5275 90.7771V93.5686C32.5365 93.6481 32.5125 93.7276 32.4645 93.7906C32.412 93.8416 32.3385 93.8641 32.2665 93.8536H31.9095C31.794 93.8626 31.68 93.8311 31.584 93.7666C31.5 93.7141 31.4505 93.6196 31.4565 93.5206V92.2201C31.4565 92.2201 31.4565 92.1646 31.401 92.1646H30.8775C30.867 92.1781 30.867 92.1976 30.8775 92.2126V93.3391C30.882 93.4216 30.882 93.5026 30.8775 93.5851C30.8925 93.6391 30.8925 93.6976 30.8775 93.7516C30.8625 93.7891 30.8385 93.8221 30.8055 93.8461C30.756 93.8566 30.705 93.8566 30.6555 93.8461H30.132C30.015 93.8536 29.898 93.8236 29.799 93.7591C29.7195 93.7036 29.6745 93.6106 29.6805 93.5131V92.2201C29.6805 92.2201 29.6805 92.1646 29.625 92.1646H29.1255C29.0865 92.1646 29.07 92.1646 29.07 92.2201V93.3706C29.0745 93.4501 29.0745 93.5296 29.07 93.6091C29.0805 93.6616 29.0805 93.7156 29.07 93.7681C29.058 93.8071 29.028 93.8386 28.9905 93.8551C28.944 93.8656 28.8945 93.8656 28.848 93.8551H28.5465H28.3725C28.2855 93.8566 28.203 93.8221 28.143 93.7606C28.065 93.6736 28.0245 93.5596 28.032 93.4441C28.0365 93.4126 28.0365 93.3811 28.032 93.3496V93.2551C28.0395 93.0631 28.0095 92.8726 27.945 92.6926C27.8985 92.5516 27.8205 92.4241 27.7155 92.3206C27.6165 92.2216 27.4935 92.1511 27.3585 92.1151C27.2145 92.0686 27.0645 92.0476 26.9145 92.0521C26.766 92.0476 26.619 92.0701 26.478 92.1151C26.3445 92.1526 26.223 92.2201 26.121 92.3131C26.0205 92.4151 25.9425 92.5366 25.8915 92.6701C25.83 92.8426 25.8015 93.0256 25.8045 93.2086V93.3676C25.8165 93.5056 25.7805 93.6421 25.701 93.7561C25.6395 93.8221 25.554 93.8596 25.4625 93.8596H24.876V93.2491C24.882 93.0586 24.855 92.8681 24.7965 92.6866C24.75 92.5486 24.672 92.4226 24.567 92.3221C24.471 92.2246 24.351 92.1526 24.2175 92.1166C24.0735 92.0701 23.9235 92.0491 23.7735 92.0536C23.628 92.0536 23.484 92.0761 23.346 92.1166C23.2155 92.1646 23.0955 92.2396 22.9965 92.3386C22.887 92.4451 22.803 92.5756 22.7505 92.7196C22.683 92.9026 22.65 93.0961 22.656 93.2911C22.6545 93.4666 22.68 93.6406 22.7355 93.8071C22.776 93.9376 22.8465 94.0576 22.941 94.1566C23.0355 94.2466 23.1495 94.3111 23.274 94.3471C23.421 94.3876 23.574 94.4056 23.7255 94.4026H24.273C24.2865 94.4941 24.2865 94.5886 24.273 94.6801C24.261 94.7431 24.2295 94.8001 24.186 94.8466C24.144 94.8871 24.0915 94.9171 24.036 94.9336C23.9625 94.9426 23.8875 94.9426 23.814 94.9336H23.1795C23.154 94.9291 23.1285 94.9456 23.124 94.9711C23.1225 94.9771 23.1225 94.9831 23.124 94.9891V95.4166C23.1195 95.4421 23.136 95.4676 23.1615 95.4721C23.1675 95.4736 23.1735 95.4736 23.1795 95.4721H23.9085C24.177 95.4946 24.444 95.4121 24.654 95.2426C24.8415 95.0431 24.9345 94.7701 24.9075 94.4971V94.3786H25.6365H25.803C25.86 94.3576 25.914 94.3276 25.962 94.2916C26.0145 94.2526 26.061 94.2031 26.097 94.1491C26.193 94.2601 26.316 94.3441 26.454 94.3951C26.613 94.4446 26.7795 94.4686 26.946 94.4671C27.1155 94.4701 27.285 94.4431 27.4455 94.3876C27.588 94.3411 27.714 94.2571 27.81 94.1416C27.855 94.2016 27.909 94.2556 27.969 94.3006C28.029 94.3366 28.0935 94.3651 28.1595 94.3876C28.2255 94.3951 28.2915 94.3951 28.3575 94.3876H28.9995C29.139 94.3936 29.2785 94.3756 29.412 94.3321C29.514 94.2886 29.595 94.2106 29.6415 94.1101C29.6895 94.2166 29.778 94.2991 29.8875 94.3396C30.009 94.3741 30.135 94.3891 30.2595 94.3876H30.759C30.9015 94.3936 31.044 94.3756 31.179 94.3321C31.281 94.2886 31.362 94.2106 31.4085 94.1101C31.4565 94.2166 31.545 94.2991 31.6545 94.3396C31.776 94.3741 31.902 94.3891 32.0265 94.3876H32.5095C32.6895 94.4056 32.8695 94.3456 33.0015 94.2211C33.108 94.0711 33.1575 93.8881 33.144 93.7051V90.7366C33.1485 90.7156 33.135 90.6946 33.114 90.6886C33.108 90.6871 33.102 90.6871 33.096 90.6886L32.583 90.7291ZM24.2805 93.9001H23.7885C23.646 93.9091 23.5065 93.8671 23.3925 93.7816C23.289 93.6481 23.241 93.4816 23.2575 93.3136C23.25 93.1366 23.298 92.9626 23.3925 92.8141C23.4825 92.6956 23.625 92.6281 23.7735 92.6311C23.9205 92.6191 24.063 92.6821 24.1545 92.7976C24.2445 92.9416 24.2865 93.1111 24.273 93.2806L24.2805 93.9001ZM27.309 93.7891C27.21 93.8971 27.066 93.9526 26.9205 93.9391C26.7765 93.9526 26.6355 93.8971 26.5395 93.7891C26.4435 93.6421 26.3985 93.4651 26.412 93.2896C26.4 93.1156 26.4435 92.9431 26.5395 92.7976C26.6295 92.6806 26.7735 92.6191 26.9205 92.6311C27.261 92.6311 27.4365 92.8531 27.4365 93.2896C27.4455 93.4576 27.402 93.6241 27.309 93.7651V93.7891Z" fill="#03A1AD"/>
<path d="M33.8985 90.729H34.398C34.428 90.729 34.4535 90.7545 34.4535 90.7845V94.3605C34.4535 94.3905 34.428 94.416 34.398 94.416H33.8985C33.8685 94.416 33.843 94.3905 33.843 94.3605V90.7845C33.843 90.753 33.8685 90.729 33.8985 90.729Z" fill="#03A1AD"/>
<path d="M37.554 91.7759H38.07C38.1 91.7759 38.1255 91.8014 38.1255 91.8314V92.2994C38.1255 92.3294 38.1 92.3549 38.07 92.3549H37.554C37.524 92.3549 37.4985 92.3294 37.4985 92.2994V91.8314C37.4985 91.7999 37.524 91.7759 37.554 91.7759Z" fill="#03A1AD"/>
<path d="M38.4346 92.6235C38.4346 92.6235 38.3791 92.6235 38.3791 92.6715V94.257C38.3971 94.4535 38.3281 94.6485 38.1886 94.788C38.0461 94.905 37.8646 94.965 37.6816 94.9545C37.5961 94.953 37.5106 94.9395 37.4281 94.9155C37.3411 94.896 37.2586 94.854 37.1896 94.797C37.1146 94.734 37.0546 94.656 37.0156 94.5675C36.9706 94.4535 36.9496 94.332 36.9526 94.2105C36.9496 94.059 36.9766 93.9075 37.0321 93.7665C37.0756 93.642 37.1311 93.522 37.1986 93.4095L36.7546 93.2355C36.7546 93.2355 36.6916 93.2355 36.6751 93.2355C36.5791 93.3945 36.5011 93.5655 36.4456 93.7425C36.3901 93.933 36.3601 94.131 36.3586 94.329C36.3541 94.5165 36.3871 94.701 36.4531 94.8765C36.5191 95.025 36.6166 95.1585 36.7381 95.265C36.8596 95.3715 37.0021 95.451 37.1581 95.4945C37.3291 95.5515 37.5091 95.5785 37.6891 95.574C37.8721 95.577 38.0536 95.55 38.2276 95.4945C38.3821 95.448 38.5261 95.37 38.6476 95.265C38.7676 95.16 38.8606 95.0265 38.9176 94.8765C38.9851 94.7055 39.0166 94.521 39.0121 94.338V92.7045C39.0121 92.7045 39.0121 92.6565 38.9566 92.6565L38.4346 92.6235Z" fill="#03A1AD"/>
<path d="M47.1571 92.1645C47.1316 92.16 47.1061 92.1765 47.1016 92.202C47.1001 92.208 47.1001 92.214 47.1016 92.22V93.3465C47.1061 93.4395 47.1061 93.531 47.1016 93.624C47.0986 93.6795 47.0821 93.735 47.0536 93.783C47.0296 93.8235 46.9891 93.852 46.9426 93.8625C46.8736 93.8715 46.8046 93.8715 46.7371 93.8625C46.6381 93.867 46.5406 93.84 46.4596 93.783C46.3876 93.7155 46.3501 93.6195 46.3561 93.522V92.634C46.3561 92.634 46.3561 92.5785 46.3006 92.5785H45.8011C45.8011 92.5785 45.7456 92.5785 45.7456 92.634V93.4275C45.7516 93.501 45.7516 93.576 45.7456 93.6495C45.7426 93.6975 45.7231 93.741 45.6901 93.777C45.6571 93.8025 45.6196 93.822 45.5791 93.8325H45.3886C45.1351 93.8325 45.0001 93.7215 45.0001 93.4995V92.604C45.0001 92.604 45.0001 92.5485 44.9446 92.5485H44.4061C44.3671 92.5485 44.3506 92.5485 44.3506 92.604V93.3975C44.3581 93.5085 44.3416 93.6195 44.3026 93.723C44.3026 93.786 44.2081 93.81 44.0971 93.81H43.6141C43.5031 93.8175 43.3921 93.789 43.2976 93.7305C43.2151 93.687 43.1656 93.6015 43.1701 93.5085V93.057C43.1776 92.88 43.1446 92.7045 43.0756 92.541C43.0171 92.4195 42.9226 92.3175 42.8056 92.247C42.6811 92.175 42.5431 92.13 42.4006 92.112C42.2296 92.103 42.0571 92.103 41.8846 92.112L42.7801 91.065C42.7996 91.047 42.8011 91.017 42.7846 90.9975C42.7831 90.996 42.7816 90.9945 42.7801 90.993L42.4306 90.699C42.4126 90.6795 42.3826 90.678 42.3631 90.6945C42.3616 90.696 42.3601 90.6975 42.3586 90.699L41.1856 92.079L41.1301 92.1345C41.1211 92.157 41.1211 92.1825 41.1301 92.2065V92.5785C41.1301 92.5785 41.1301 92.634 41.1856 92.634H42.0586C42.4231 92.634 42.6136 92.793 42.6136 93.1095V93.4035C42.6181 93.4725 42.6181 93.5415 42.6136 93.609C42.6061 93.6585 42.5881 93.7035 42.5581 93.744C42.5191 93.7785 42.4741 93.8025 42.4231 93.816H42.1846H40.5511C40.4791 93.8265 40.4056 93.8025 40.3531 93.753C40.3051 93.753 40.2901 93.642 40.2901 93.531V90.7155C40.2901 90.7155 40.2901 90.6675 40.2346 90.6675H39.7276C39.7276 90.6675 39.6721 90.6675 39.6721 90.7155V93.6735C39.6601 93.858 39.7141 94.0395 39.8221 94.1895C39.9511 94.3125 40.1281 94.3725 40.3051 94.356H42.3346C42.4771 94.359 42.6196 94.3365 42.7546 94.293C42.8686 94.245 42.9601 94.158 43.0156 94.047C43.0651 94.1625 43.1596 94.254 43.2766 94.3005C43.4041 94.341 43.5391 94.3605 43.6726 94.356H44.2906C44.4226 94.3605 44.5546 94.3395 44.6791 94.293C44.7781 94.2495 44.8576 94.17 44.9011 94.071C45.0031 94.266 45.2131 94.3785 45.4321 94.356H45.6706C45.8026 94.359 45.9346 94.338 46.0591 94.293C46.1581 94.251 46.2346 94.1715 46.2736 94.071C46.3186 94.1625 46.3906 94.236 46.4791 94.2855C46.5796 94.3365 46.6921 94.3605 46.8046 94.3575H47.0341C47.2216 94.377 47.4091 94.323 47.5576 94.2075C47.6761 94.0575 47.7331 93.867 47.7166 93.6765V92.226C47.7211 92.2005 47.7046 92.175 47.6791 92.1705C47.6731 92.169 47.6671 92.169 47.6611 92.1705H47.1571V92.1645Z" fill="#03A1AD"/>
<path d="M50.7496 90.729C50.7286 90.7245 50.7076 90.738 50.7016 90.759C50.7001 90.765 50.7001 90.771 50.7016 90.777V93.5685C50.7106 93.648 50.6866 93.7275 50.6386 93.7905C50.5846 93.8385 50.5126 93.861 50.4406 93.8535H49.8781V91.5225C49.8826 91.497 49.8661 91.4715 49.8406 91.467C49.8346 91.4655 49.8286 91.4655 49.8226 91.467H49.3156C49.3156 91.467 49.2601 91.467 49.2601 91.5225V93.8535H48.2926C48.2626 93.8535 48.2371 93.879 48.2371 93.909V94.3605C48.2326 94.386 48.2491 94.4115 48.2746 94.416C48.2806 94.4175 48.2866 94.4175 48.2926 94.416H50.6716C50.8501 94.4355 51.0271 94.374 51.1546 94.2495C51.2686 94.1025 51.3226 93.9195 51.3046 93.7335V90.7755C51.3046 90.7755 51.3046 90.7275 51.2491 90.7275H50.7496V90.729Z" fill="#03A1AD"/>
<path d="M49.575 95.6446C49.533 95.6101 49.4955 95.571 49.464 95.526C49.425 95.4705 49.4055 95.4031 49.4085 95.3356C49.4085 95.2651 49.434 95.1975 49.4805 95.145C49.527 95.0895 49.5975 95.0595 49.671 95.0655C49.773 95.067 49.8675 95.1136 49.932 95.1931L50.0745 95.058C50.0835 95.04 50.0835 95.0205 50.0745 95.0025C50.0235 94.941 49.9575 94.8915 49.884 94.86C49.797 94.821 49.7025 94.8015 49.6065 94.8045C49.5165 94.8015 49.428 94.818 49.3455 94.8525C49.278 94.884 49.2165 94.9261 49.1625 94.9801C49.1505 95.0386 49.143 95.097 49.1625 95.154C49.1505 95.217 49.1505 95.2816 49.1625 95.3446C49.155 95.4031 49.155 95.4615 49.1625 95.5185C49.1775 95.5665 49.1985 95.6116 49.2255 95.6536H49.0275M48.9885 95.6536V95.8516V95.6536ZM49.0275 95.8516H50.178V95.6536L49.0275 95.8516Z" fill="#03A1AD"/>
<path d="M52.0726 90.729H52.5721C52.6021 90.729 52.6276 90.7545 52.6276 90.7845V94.3605C52.6276 94.3905 52.6021 94.416 52.5721 94.416H52.0726C52.0426 94.416 52.0171 94.3905 52.0171 94.3605V90.7845C52.0171 90.753 52.0426 90.729 52.0726 90.729Z" fill="#03A1AD"/>
<path d="M55.0545 90.8325H55.506C55.536 90.8325 55.5615 90.858 55.5615 90.888V91.356C55.5615 91.386 55.536 91.4115 55.506 91.4115H55.0545C55.0245 91.4115 54.999 91.386 54.999 91.356V90.888C54.999 90.8565 55.0245 90.8325 55.0545 90.8325Z" fill="#03A1AD"/>
<path d="M55.7611 90.8325H56.2126C56.2426 90.8325 56.2681 90.858 56.2681 90.888V91.356C56.2681 91.386 56.2426 91.4115 56.2126 91.4115H55.7611C55.7311 91.4115 55.7056 91.386 55.7056 91.356V90.888C55.7056 90.8565 55.7296 90.8325 55.7611 90.8325Z" fill="#03A1AD"/>
<path d="M65.2996 92.1646C65.2996 92.1646 65.2441 92.1646 65.2441 92.2201V93.3466C65.2501 93.4396 65.2501 93.5311 65.2441 93.6241C65.2441 93.6796 65.2306 93.7336 65.2051 93.7831C65.1796 93.8221 65.1391 93.8506 65.0941 93.8626C65.0251 93.8716 64.9561 93.8716 64.8886 93.8626C64.7896 93.8701 64.6906 93.8416 64.6111 93.7831C64.5361 93.7171 64.4986 93.6196 64.5076 93.5221V92.6341C64.5121 92.6086 64.4956 92.5831 64.4701 92.5786C64.4641 92.5771 64.4581 92.5771 64.4521 92.5786H63.9451C63.9196 92.5741 63.8941 92.5906 63.8896 92.6161C63.8881 92.6221 63.8881 92.6281 63.8896 92.6341V93.4276C63.8941 93.5011 63.8941 93.5761 63.8896 93.6496C63.8791 93.6946 63.8596 93.7381 63.8341 93.7771C63.8011 93.8011 63.7636 93.8206 63.7231 93.8326H63.5326C63.2716 93.8326 63.1366 93.7216 63.1366 93.4996V92.6041C63.1366 92.6041 63.1366 92.5486 63.0886 92.5486H62.5816C62.5816 92.5486 62.5261 92.5486 62.5261 92.6041V93.3976C62.5441 93.5056 62.5441 93.6151 62.5261 93.7231C62.5261 93.7861 62.4226 93.8101 62.3116 93.8101H61.7881C61.6711 93.8191 61.5526 93.7891 61.4551 93.7231C61.3756 93.6676 61.3306 93.5746 61.3366 93.4771V92.2246C61.3366 92.2246 61.3366 92.1691 61.2811 92.1691H60.7741C60.7486 92.1646 60.7231 92.1811 60.7186 92.2066C60.7171 92.2126 60.7171 92.2186 60.7186 92.2246V93.3511C60.7186 93.4621 60.7186 93.5566 60.7186 93.6286C60.7156 93.6841 60.6991 93.7396 60.6706 93.7876C60.6391 93.8251 60.5986 93.8521 60.5521 93.8671C60.4861 93.8761 60.4201 93.8761 60.3541 93.8671C60.2551 93.8731 60.1576 93.8461 60.0766 93.7876C60.0061 93.7261 59.9671 93.6346 59.9731 93.5416V92.6371C59.9731 92.6371 59.9731 92.5816 59.9176 92.5816H59.4181C59.4181 92.5816 59.3626 92.5816 59.3626 92.6371V93.3346C59.3671 93.4246 59.3671 93.5146 59.3626 93.6046C59.3581 93.6631 59.3416 93.7201 59.3146 93.7711C59.2861 93.8116 59.2441 93.8401 59.1961 93.8506C59.1256 93.8596 59.0536 93.8596 58.9816 93.8506C58.8796 93.8596 58.7791 93.8311 58.6966 93.7711C58.6351 93.7021 58.6036 93.6106 58.6096 93.5176V92.6221C58.6096 92.6221 58.6096 92.5666 58.5541 92.5666H58.0546C58.0546 92.5666 57.9991 92.5666 57.9991 92.6221V93.5731C58.0036 93.6286 58.0036 93.6841 57.9991 93.7396C57.9841 93.7801 57.9571 93.8131 57.9196 93.8341C57.8731 93.8446 57.8236 93.8446 57.7771 93.8341H57.3406H57.1351C57.0631 93.8446 56.9896 93.8206 56.9371 93.7711C56.8891 93.7711 56.8741 93.6601 56.8741 93.5491V91.7881C56.8786 91.7626 56.8621 91.7371 56.8366 91.7326C56.8306 91.7311 56.8246 91.7311 56.8186 91.7326H56.1451C56.1196 91.7281 56.0941 91.7446 56.0896 91.7701C56.0881 91.7761 56.0881 91.7821 56.0896 91.7881V92.0266H55.5511C55.4176 92.0251 55.2826 92.0431 55.1551 92.0821C55.0291 92.1151 54.9121 92.1781 54.8146 92.2651C54.7081 92.3536 54.6256 92.4676 54.5761 92.5981C54.5101 92.7676 54.4801 92.9476 54.4891 93.1291C54.4831 93.2866 54.5101 93.4426 54.5686 93.5896C54.6166 93.7111 54.6931 93.8191 54.7906 93.9061C54.8836 93.9916 54.9946 94.0546 55.1161 94.0891C55.2436 94.1356 55.3771 94.1566 55.5121 94.1521C55.6246 94.1521 55.7371 94.1371 55.8451 94.1041C55.9456 94.0741 56.0371 94.0231 56.1151 93.9541C56.0956 94.1161 56.1691 94.2751 56.3056 94.3666C56.4316 94.4356 56.5741 94.4686 56.7181 94.4611H57.8911C58.0231 94.4641 58.1551 94.4431 58.2796 94.3981C58.3741 94.3516 58.4506 94.2736 58.4941 94.1761C58.5961 94.3711 58.8061 94.4836 59.0251 94.4611H59.2636C59.3956 94.4641 59.5276 94.4431 59.6521 94.3981C59.7511 94.3561 59.8276 94.2766 59.8666 94.1761C59.9116 94.2676 59.9836 94.3411 60.0721 94.3906C60.1726 94.4416 60.2851 94.4656 60.3976 94.4626H60.6271C60.7591 94.4671 60.8911 94.4461 61.0156 94.3996C61.1146 94.3591 61.1941 94.2826 61.2376 94.1851C61.2871 94.2901 61.3756 94.3726 61.4836 94.4146C61.6021 94.4491 61.7251 94.4641 61.8481 94.4626H62.4661C62.6011 94.4671 62.7361 94.4446 62.8621 94.3996C62.9581 94.3516 63.0361 94.2736 63.0841 94.1776C63.1816 94.3726 63.3901 94.4866 63.6076 94.4626H63.8461C63.9811 94.4566 64.1131 94.4251 64.2346 94.3681C64.3336 94.3246 64.4131 94.2451 64.4566 94.1461C64.4986 94.2361 64.5676 94.3111 64.6546 94.3606C64.7551 94.4101 64.8676 94.4341 64.9801 94.4326H65.2186C65.4061 94.4521 65.5936 94.3981 65.7421 94.2826C65.8591 94.1311 65.9131 93.9406 65.8921 93.7516V92.2291C65.8921 92.2291 65.8921 92.1736 65.8366 92.1736H65.2996V92.1646ZM56.0851 93.0676C56.0986 93.2236 56.0536 93.3796 55.9576 93.5041C55.8616 93.6121 55.7206 93.6676 55.5766 93.6541C55.4461 93.6616 55.3186 93.6196 55.2196 93.5356C55.1236 93.4396 55.0741 93.3061 55.0846 93.1711C55.0651 93.0091 55.1176 92.8471 55.2271 92.7271C55.3336 92.6446 55.4656 92.6026 55.5991 92.6086H56.0821V93.0676H56.0851Z" fill="#03A1AD"/>
<path d="M68.1945 91.6485V91.443H67.6005C67.5585 91.416 67.5195 91.38 67.4895 91.3395C67.4475 91.2915 67.428 91.2285 67.434 91.1655C67.434 91.0995 67.4595 91.038 67.506 90.9915C67.5585 90.9405 67.6305 90.9135 67.704 90.9195C67.7565 90.906 67.8105 90.906 67.863 90.9195C67.908 90.9435 67.9515 90.9735 67.9905 91.0065C67.9905 91.0065 67.9905 91.0065 68.0385 91.0065L68.1975 90.8565C68.1975 90.8565 68.1975 90.8565 68.1975 90.801C68.142 90.735 68.0715 90.684 67.992 90.651C67.899 90.609 67.8 90.588 67.698 90.588C67.6005 90.5865 67.5045 90.603 67.413 90.636C67.3455 90.6675 67.284 90.7095 67.23 90.7635C67.185 90.8145 67.1505 90.8745 67.1265 90.9375C67.116 90.9945 67.116 91.0545 67.1265 91.1115C67.1175 91.167 67.1175 91.2225 67.1265 91.278C67.143 91.323 67.164 91.365 67.1895 91.4055H66.999V91.611L68.1945 91.6485Z" fill="#03A1AD"/>
<path d="M71.7466 92.7105C71.6971 92.571 71.6191 92.4435 71.5171 92.3385C71.4151 92.2425 71.2936 92.172 71.1601 92.133C71.0161 92.088 70.8661 92.0655 70.7161 92.07C70.5661 92.0655 70.4161 92.088 70.2721 92.133C70.1416 92.1705 70.0216 92.238 69.9226 92.331C69.8221 92.433 69.7441 92.5545 69.6931 92.688C69.6331 92.862 69.6001 93.0435 69.5986 93.2265V93.306C69.5986 93.306 69.5986 93.354 69.5986 93.3855C69.6121 93.4635 69.6121 93.5445 69.5986 93.624C69.5806 93.678 69.5536 93.729 69.5191 93.774C69.4891 93.81 69.4516 93.837 69.4081 93.8535C69.3691 93.861 69.3286 93.861 69.2896 93.8535H68.7031V93.243C68.7091 93.0525 68.6821 92.862 68.6236 92.6805C68.5741 92.544 68.4961 92.4195 68.3941 92.316C68.2981 92.2185 68.1781 92.1465 68.0446 92.1105C67.8991 92.064 67.7461 92.043 67.5931 92.0475C67.4506 92.049 67.3096 92.07 67.1731 92.1105C67.0396 92.154 66.9211 92.2305 66.8236 92.3325C66.7111 92.4375 66.6271 92.568 66.5776 92.7135C66.5101 92.8965 66.4771 93.09 66.4831 93.285C66.4786 93.459 66.5026 93.633 66.5551 93.801C66.5941 93.9345 66.6691 94.0545 66.7696 94.1505C66.8641 94.2405 66.9781 94.305 67.1026 94.341C67.2496 94.3815 67.4026 94.401 67.5541 94.3965H68.1016C68.1151 94.488 68.1151 94.5825 68.1016 94.674C68.0836 94.7355 68.0506 94.7925 68.0071 94.8405C67.9666 94.8825 67.9141 94.914 67.8571 94.9275C67.7866 94.9365 67.7146 94.9365 67.6426 94.9275H67.0081C66.9691 94.9275 66.9526 94.9275 66.9526 94.983V95.4105C66.9526 95.4495 66.9526 95.466 67.0081 95.466H67.7371C68.0056 95.487 68.2726 95.4045 68.4826 95.2365C68.6671 95.034 68.7586 94.764 68.7361 94.491V94.3725H69.4651H69.6316C69.6871 94.35 69.7411 94.32 69.7906 94.2855C69.8416 94.245 69.8836 94.197 69.9181 94.143C70.0186 94.2525 70.1446 94.3365 70.2826 94.389C70.4416 94.4385 70.6081 94.4625 70.7746 94.461C70.9276 94.4625 71.0791 94.44 71.2261 94.398C71.3596 94.356 71.4811 94.2855 71.5831 94.1925C71.6851 94.0905 71.7616 93.966 71.8051 93.828C71.8666 93.6525 71.8951 93.4665 71.8921 93.2805C71.8741 93.0795 71.8261 92.889 71.7466 92.7105ZM68.0746 93.8775H67.5916C67.4491 93.888 67.3081 93.846 67.1956 93.759C67.0861 93.6285 67.0351 93.4605 67.0531 93.291C67.0426 93.1125 67.0936 92.937 67.1956 92.7915C67.2841 92.6715 67.4266 92.604 67.5766 92.6085C67.7236 92.5965 67.8661 92.6595 67.9576 92.775C68.0476 92.919 68.0896 93.0885 68.0761 93.258L68.0746 93.8775ZM71.1046 93.7665C70.8811 93.9765 70.5346 93.9765 70.3111 93.7665C70.2151 93.6195 70.1701 93.4425 70.1836 93.267C70.1761 93.0945 70.2196 92.9235 70.3111 92.775C70.4056 92.6595 70.5511 92.598 70.6996 92.6085C71.0401 92.6085 71.2156 92.8305 71.2156 93.267C71.2336 93.441 71.1946 93.6165 71.1046 93.7665Z" fill="#03A1AD"/>
</svg>
