<svg width="70" height="75" viewBox="0 0 70 75" fill="none" xmlns="http://www.w3.org/2000/svg">
<path d="M0.0300018 50.3849C2.58 49.9499 5.13 49.7549 7.695 50.2799C8.295 50.3999 8.85 50.6099 9.405 50.8799C10.95 51.6599 11.715 52.9349 11.82 54.6299C11.865 55.3949 11.82 56.1599 11.535 56.8949C11.1 58.0349 10.245 58.7399 9.18 59.2349C9.105 59.2649 9.045 59.2949 8.97 59.3399C8.955 59.3399 8.94 59.3549 8.925 59.3699C9.915 60.6449 10.785 61.9949 11.58 63.3899C11.97 64.0799 12.33 64.7849 12.675 65.4899C12.765 65.6849 12.72 65.7149 12.54 65.7149C11.37 65.7149 10.215 65.7149 9.045 65.7149C8.88 65.7149 8.805 65.6549 8.73 65.5199C7.86 63.9449 6.975 62.3699 5.925 60.8999C5.715 60.5999 5.55 60.2249 5.25 60.0749C4.98 59.9399 4.59 60.0449 4.245 60.0449C4.02 60.0449 3.72 59.9699 3.585 60.0899C3.45 60.2099 3.54 60.5249 3.54 60.7349C3.54 62.3099 3.54 63.8849 3.54 65.4599C3.54 65.6549 3.48 65.7149 3.285 65.7149C2.19 65.7149 1.095 65.7149 0 65.7149L0.0300018 50.3849ZM3.57 55.1399C3.57 55.7849 3.57 56.4149 3.57 57.0599C3.57 57.2099 3.615 57.2399 3.75 57.2399C4.47 57.2399 5.205 57.2549 5.925 57.1649C6.48 57.0899 7.02 56.9849 7.5 56.6699C8.16 56.2199 8.415 55.1999 8.115 54.3449C7.875 53.6399 7.29 53.3549 6.645 53.1749C5.685 52.9199 4.71 52.9499 3.735 53.0249C3.585 53.0399 3.585 53.1299 3.585 53.2199C3.57 53.8649 3.57 54.4949 3.57 55.1399Z" fill="#010101"/>
<path d="M49.7401 74.8348C49.7401 74.7898 49.7101 74.7898 49.6651 74.7898C48.5851 74.6848 47.8501 73.9048 47.7301 72.7198C47.6701 72.1198 47.7301 71.5498 48.0151 70.9948C48.4351 70.1998 49.3051 69.7648 50.2201 69.8998C51.1951 70.0348 51.9001 70.6948 52.0651 71.6398C52.2001 72.4048 52.1701 73.1548 51.7501 73.8298C51.3901 74.4148 50.8501 74.7148 50.1751 74.7898C50.1151 74.7898 50.0401 74.7448 49.9951 74.8348H49.7401ZM51.6151 72.3448C51.6301 72.1198 51.6001 71.9098 51.5551 71.6998C51.3751 70.8598 50.7751 70.3348 49.9501 70.3198C49.1401 70.2898 48.5401 70.7548 48.3001 71.5648C48.1501 72.1048 48.1501 72.6448 48.3151 73.1848C48.5401 73.9498 49.1401 74.3848 49.9351 74.3848C50.7001 74.3848 51.2701 73.9198 51.5101 73.1548C51.5851 72.8698 51.6301 72.6148 51.6151 72.3448Z" fill="#010101"/>
<path d="M18.2551 74.8348C18.2551 74.7898 18.2251 74.7898 18.1801 74.7898C17.3551 74.7148 16.8001 74.1898 16.7551 73.2448C16.6951 72.2098 16.7401 71.1598 16.7401 70.1098C16.7401 69.8698 16.9501 70.0198 17.0551 69.9898C17.1901 69.9448 17.2051 70.0348 17.2051 70.1548C17.2051 71.0098 17.2051 71.8498 17.2051 72.7048C17.2051 72.9448 17.2201 73.1998 17.2801 73.4398C17.4451 74.0848 17.8801 74.4148 18.5551 74.3698C19.1701 74.3398 19.5901 73.9498 19.6801 73.3048C19.7551 72.8248 19.7101 72.3298 19.7251 71.8348C19.7251 71.2648 19.7401 70.7098 19.7251 70.1398C19.7251 69.9298 19.8451 69.9748 19.9651 69.9748C20.0851 69.9748 20.2051 69.9298 20.2051 70.1548C20.1901 71.1448 20.2201 72.1348 20.1901 73.1098C20.1751 74.0548 19.6651 74.7448 18.6451 74.7898C18.6151 74.7898 18.5851 74.8048 18.5701 74.8348H18.2551Z" fill="#010101"/>
<path d="M26.4299 22.3501C25.3049 22.6051 24.1799 22.7551 23.0399 22.7251C18.8699 22.6651 15.3899 19.6951 14.6849 15.6751C14.1599 12.6601 14.9999 10.0351 17.2049 7.89013C18.5699 6.55513 20.2349 5.79013 22.1399 5.56513C23.5649 5.40013 24.9449 5.65513 26.2949 6.04513C27.8099 6.48013 29.2199 7.14014 30.5399 7.99514C31.7249 8.77514 32.8049 9.67513 33.7499 10.7551C33.8849 10.9201 33.9749 10.8901 34.0949 10.7401C35.6249 9.04513 37.4399 7.72513 39.5249 6.78013C40.8599 6.18013 42.2549 5.76013 43.7099 5.58013C45.4499 5.35513 47.0999 5.65513 48.6599 6.48013C49.9049 7.14013 50.9549 8.01013 51.7499 9.18013C52.7549 10.6351 53.2799 12.2251 53.2799 14.0101C53.2949 15.6301 52.9049 17.1151 52.0949 18.4951C51.4949 19.5151 50.6999 20.3551 49.7399 21.0601C48.0749 22.2901 46.1849 22.8001 44.1449 22.7101C43.1399 22.6651 42.1499 22.5451 41.1899 22.2901C41.1299 22.2751 41.0699 22.2751 40.9799 22.2751C41.1449 22.6501 41.3099 23.0251 41.4599 23.3851C41.8949 24.4051 42.1649 25.4551 42.3599 26.5351C42.6899 28.3501 42.4499 30.0901 41.6249 31.7401C40.4549 34.0651 38.6099 35.5951 36.0749 36.2851C35.8649 36.3451 35.8349 36.4351 35.8349 36.6151C35.8349 37.8001 35.8349 38.9851 35.8349 40.1851C35.8349 41.1151 35.2199 41.8801 34.3199 42.0901C33.1199 42.3751 31.9649 41.4601 31.9499 40.2151C31.9499 39.0301 31.9349 37.8601 31.9499 36.6751C31.9499 36.4201 31.8749 36.3301 31.6349 36.2701C30.1349 35.8951 28.8449 35.1301 27.7649 34.0351C26.2499 32.4901 25.3949 30.6301 25.2899 28.4701C25.1849 26.4301 25.5449 24.4651 26.3399 22.5751C26.4149 22.5151 26.4599 22.4551 26.4299 22.3501ZM23.5499 18.8551C24.1049 18.8551 24.8999 18.7501 25.6949 18.5401C28.1399 17.8951 30.0299 16.4401 31.4999 14.4151C31.6199 14.2501 31.5899 14.1601 31.4849 14.0251C29.8649 12.0151 27.8399 10.5601 25.3649 9.79514C24.4349 9.51014 23.5049 9.28514 22.5149 9.42014C21.1199 9.60014 20.0399 10.3051 19.2299 11.4151C18.6599 12.1951 18.4049 13.0801 18.4049 14.0551C18.4049 15.1651 18.6899 16.1701 19.4249 17.0401C20.4149 18.2701 21.7049 18.8851 23.5499 18.8551ZM34.0049 32.7301C34.8149 32.7301 35.6549 32.5051 36.4049 32.0251C37.8449 31.0951 38.6249 29.7751 38.6699 28.0501C38.6849 27.2851 38.5049 26.5501 38.2799 25.8151C37.5149 23.2951 36.0449 21.2401 33.9899 19.5901C33.8849 19.5001 33.8099 19.4851 33.6899 19.5751C32.5049 20.4301 31.4849 21.4351 30.7049 22.6801C29.6849 24.3151 29.1599 26.1001 29.2049 28.0201C29.2349 29.7601 30.0149 31.0951 31.4849 32.0251C32.2049 32.5051 33.0299 32.7151 34.0049 32.7301ZM44.5199 18.8401C44.7749 18.8401 45.0299 18.8401 45.2849 18.8401C45.4199 18.8401 45.5549 18.8101 45.6749 18.7651C47.5799 18.3001 48.8549 17.1301 49.3049 15.2251C49.7699 13.3201 49.1849 11.6851 47.6849 10.4251C46.7549 9.64513 45.6449 9.27013 44.4299 9.37513C43.3049 9.48013 42.2249 9.79514 41.1899 10.2451C39.2549 11.1001 37.6649 12.3901 36.3449 14.0401C36.2399 14.1751 36.2549 14.2651 36.3449 14.3851C36.5999 14.7151 36.8549 15.0601 37.1249 15.3751C38.2199 16.6201 39.5249 17.5651 41.0549 18.1801C42.1499 18.6601 43.3199 18.8551 44.5199 18.8401Z" fill="#CD9967"/>
<path d="M39.1649 53.9402C39.8999 53.7302 40.6199 53.6102 41.3549 53.6402C42.0449 53.6702 42.7349 53.7602 43.3799 54.0152C44.8049 54.5702 45.5399 55.6652 45.8249 57.1202C45.9599 57.7802 46.0049 58.4552 46.0049 59.1302C46.0049 61.2302 46.0049 63.3302 46.0199 65.4302C46.0199 65.7002 45.9449 65.7452 45.7049 65.7452C44.7749 65.7302 43.8449 65.7302 42.9149 65.7452C42.7049 65.7452 42.6449 65.7002 42.6449 65.4752C42.6449 63.4652 42.6449 61.4402 42.6449 59.4302C42.6449 58.8152 42.6149 58.2152 42.4199 57.6302C42.1949 56.9402 41.7449 56.5802 41.0099 56.5352C40.4399 56.4902 39.8849 56.5652 39.3299 56.7152C39.1799 56.7452 39.1349 56.8202 39.1349 56.9702C39.1349 57.7652 39.1349 58.5752 39.1349 59.3702C39.1349 61.4102 39.1349 63.4502 39.1349 65.4902C39.1349 65.6852 39.0749 65.7452 38.8799 65.7452C37.9199 65.7302 36.9599 65.7302 35.9999 65.7452C35.8199 65.7452 35.7749 65.7002 35.7749 65.5202C35.7749 60.0452 35.7749 54.5552 35.7749 49.0652C35.7749 48.9002 35.8049 48.8402 35.9849 48.8102C36.9599 48.6602 37.9499 48.4952 38.9249 48.3302C39.1049 48.3002 39.1349 48.3602 39.1349 48.5252C39.1349 50.2352 39.1349 51.9452 39.1349 53.6702L39.1649 53.9402Z" fill="#010101"/>
<path d="M59.5049 59.7898C59.4899 61.2748 59.1899 62.6848 58.2749 63.8998C57.3449 65.1298 56.0699 65.7898 54.5399 65.9698C53.3849 66.1048 52.2599 65.9848 51.1799 65.5048C49.9049 64.9198 48.9899 63.9598 48.4499 62.6548C47.7599 60.9898 47.6999 59.2798 48.2249 57.5698C48.9299 55.2598 50.7749 53.8348 53.2199 53.6098C56.3249 53.3248 58.9499 55.3798 59.3999 58.4698C59.4749 58.9048 59.5049 59.3398 59.5049 59.7898ZM51.3299 59.6698C51.3299 60.4198 51.4049 61.0798 51.6599 61.6948C52.0649 62.6698 52.7699 63.1498 53.7599 63.1498C54.7049 63.1348 55.4099 62.6548 55.7699 61.6648C56.2349 60.4198 56.2349 59.1448 55.7549 57.8848C55.4249 57.0148 54.7799 56.5048 53.8199 56.4748C52.8749 56.4448 52.1849 56.8498 51.7499 57.6898C51.4199 58.3348 51.3299 59.0398 51.3299 59.6698Z" fill="#010101"/>
<path d="M23.0551 61.3798C23.0551 62.6248 23.0551 63.8698 23.0551 65.1298C23.0551 65.3248 22.9801 65.3998 22.8001 65.4298C21.2101 65.7748 19.6201 65.9848 17.9851 65.9548C16.9801 65.9398 15.9601 65.8798 15.0151 65.4898C13.7101 64.9648 13.0201 63.9748 12.9001 62.5798C12.8251 61.6348 12.9301 60.7348 13.5301 59.9398C14.1301 59.1748 14.9401 58.7848 15.8551 58.5748C17.1151 58.2898 18.3751 58.2748 19.6501 58.5148C19.7701 58.5298 19.8301 58.5448 19.8301 58.3798C19.8301 57.9748 19.7851 57.5998 19.5901 57.2398C19.2601 56.6698 18.7201 56.4598 18.1201 56.4148C16.9201 56.3248 15.7501 56.4448 14.5951 56.7898C14.4451 56.8348 14.4001 56.8198 14.3701 56.6548C14.2501 55.8748 14.1301 55.1098 14.0101 54.3298C13.9951 54.1948 13.9951 54.1198 14.1601 54.0748C15.9601 53.6398 17.7901 53.3848 19.6351 53.7148C20.8651 53.9398 21.9151 54.4798 22.5151 55.6498C22.8901 56.3698 23.0251 57.1498 23.0401 57.9448C23.0551 59.0998 23.0401 60.2398 23.0551 61.3798ZM19.8301 62.0098C19.8301 61.6648 19.8151 61.3198 19.8301 60.9748C19.8451 60.7948 19.7851 60.7198 19.6051 60.7048C19.3351 60.6898 19.0801 60.6298 18.7951 60.6298C18.2251 60.5998 17.6551 60.6148 17.1001 60.8098C16.4851 61.0198 16.1851 61.4398 16.2151 62.0398C16.2451 62.7298 16.5151 63.0898 17.1901 63.2548C18.0301 63.4798 18.8701 63.3598 19.7251 63.2998C19.8451 63.2998 19.8151 63.2098 19.8151 63.1348C19.8301 62.7448 19.8301 62.3848 19.8301 62.0098Z" fill="#010101"/>
<path d="M61.5301 59.1152C61.5301 57.0302 61.5001 54.9452 61.5451 52.8602C61.5751 51.3152 62.1451 49.9802 63.4801 49.0802C64.3051 48.5252 65.2351 48.3452 66.2101 48.3002C67.3051 48.2402 68.3551 48.4052 69.3901 48.7652C69.5401 48.8102 69.6001 48.8702 69.5401 49.0502C69.3451 49.8152 69.1651 50.5802 68.9851 51.3452C68.9551 51.4952 68.9101 51.5102 68.7601 51.4502C67.9951 51.1652 67.2001 51.0302 66.3901 51.1652C65.5501 51.3152 65.0551 51.8252 64.9351 52.6802C64.8901 52.9952 64.8901 53.3102 64.8751 53.6402C64.8751 53.8352 64.9201 53.8952 65.1151 53.8952C66.3151 53.8802 67.5151 53.8952 68.7151 53.8802C68.9701 53.8802 69.0151 53.9402 69.0151 54.1802C69.0001 54.9152 69.0001 55.6652 69.0151 56.4002C69.0151 56.6102 68.9851 56.6852 68.7451 56.6852C67.5451 56.6702 66.3301 56.6852 65.1301 56.6702C64.9351 56.6702 64.8901 56.7152 64.8901 56.9252C64.8901 59.7602 64.8901 62.5952 64.9051 65.4302C64.9051 65.6552 64.8451 65.7152 64.6351 65.7002C63.6901 65.6852 62.7451 65.6852 61.8001 65.7002C61.6051 65.7002 61.5451 65.6552 61.5451 65.4602C61.5151 63.3452 61.5151 61.2302 61.5301 59.1152Z" fill="#010101"/>
<path d="M28.125 66.0148C27.315 66.0148 26.175 65.7898 25.065 65.4148C24.855 65.3398 24.81 65.2498 24.855 65.0398C25.02 64.2898 25.185 63.5398 25.32 62.7898C25.365 62.5798 25.425 62.6098 25.575 62.6548C26.73 63.0898 27.915 63.3298 29.16 63.2998C29.475 63.2848 29.775 63.2698 30.075 63.1648C30.585 62.9848 30.735 62.3698 30.375 61.9798C30.135 61.7248 29.805 61.5898 29.505 61.4398C28.785 61.1098 28.02 60.8698 27.3 60.5248C26.34 60.0748 25.56 59.4298 25.29 58.3648C24.96 57.0298 25.08 55.7848 26.13 54.7648C26.79 54.1348 27.615 53.8198 28.515 53.6848C30.105 53.4598 31.665 53.6548 33.195 54.1198C33.36 54.1648 33.39 54.2398 33.345 54.4048C33.165 55.1398 33 55.8598 32.85 56.5948C32.805 56.8048 32.73 56.7898 32.565 56.7448C31.68 56.4448 30.765 56.2648 29.805 56.3098C29.505 56.3248 29.22 56.3548 28.935 56.4598C28.65 56.5798 28.455 56.7598 28.41 57.0898C28.38 57.4048 28.485 57.6598 28.77 57.8398C29.235 58.1548 29.76 58.3498 30.27 58.5448C31.005 58.8298 31.71 59.1298 32.385 59.5498C33.51 60.2548 33.915 61.3048 33.87 62.5798C33.825 64.1398 33.03 65.1598 31.44 65.6698C30.51 65.9698 29.505 66.0298 28.125 66.0148Z" fill="#010101"/>
<path d="M31.5301 0C32.1451 0 32.6101 0.270001 33.0451 0.615001C33.3301 0.840001 33.5701 1.095 33.7651 1.38C33.8701 1.545 33.9301 1.53 34.0501 1.38C34.4251 0.870002 34.8901 0.465003 35.4601 0.195003C36.2101 -0.164997 37.0201 0.06 37.6051 0.6C38.7301 1.62 38.4301 3.51 37.6501 4.455C36.7501 5.535 35.5801 6.195 34.3651 6.81C33.9901 7.005 33.7051 6.945 33.3751 6.78C32.3401 6.285 31.3351 5.73 30.5251 4.89C29.8501 4.2 29.4151 3.39 29.4301 2.385C29.4451 1.29 30.1651 0.3 31.0951 0.0450005C31.2601 0.0150005 31.4101 0.015 31.5301 0Z" fill="#CD9967"/>
<path d="M0.630113 70.8301V72.6751C0.630113 73.2751 0.615113 73.8901 0.630113 74.5051C0.630113 74.7001 0.540113 74.7001 0.405113 74.7001C0.285113 74.6851 0.135111 74.7601 0.150111 74.5201C0.165111 73.0651 0.150111 71.6251 0.150111 70.1701C0.150111 70.1101 0.105111 69.9901 0.225111 69.9901C0.360111 69.9901 0.495112 69.9451 0.615112 70.0801C1.11011 70.6651 1.57511 71.2651 2.02511 71.8951C2.44511 72.4801 2.85011 73.0801 3.27011 73.6801C3.27011 73.5901 3.28511 73.5151 3.28511 73.4251C3.28511 72.3451 3.28511 71.2801 3.28511 70.2151C3.28511 70.0201 3.34511 69.9751 3.52511 69.9901C3.69011 69.9901 3.76511 70.0051 3.76511 70.2151C3.75011 71.6251 3.76511 73.0351 3.75011 74.4451C3.75011 74.5351 3.84011 74.6851 3.67511 74.7151C3.52511 74.7301 3.37511 74.7751 3.25511 74.5801C2.55011 73.3801 1.75511 72.2401 0.900111 71.1451C0.825111 71.0401 0.735115 70.9501 0.660115 70.8601L0.630113 70.8301Z" fill="#010101"/>
<path d="M57.63 73.7552V72.6002C57.63 71.7902 57.645 70.9802 57.63 70.1702C57.63 69.9452 57.735 69.9752 57.885 69.9602C58.065 69.9452 58.11 70.0052 58.11 70.1852C58.095 71.6102 58.11 73.0352 58.095 74.4602C58.095 74.5352 58.17 74.6702 58.02 74.6852C57.885 74.6852 57.735 74.7602 57.645 74.5802C57.285 73.9352 56.865 73.3202 56.445 72.7202C56.055 72.1352 55.65 71.5652 55.2 71.0252C55.14 70.9502 55.08 70.8902 55.02 70.8152C54.96 70.9202 54.99 71.0102 54.99 71.1002C54.99 72.2102 54.99 73.3052 54.99 74.4152C54.99 74.5952 54.975 74.7002 54.735 74.7002C54.51 74.7002 54.51 74.6102 54.51 74.4302C54.51 73.0352 54.51 71.6402 54.525 70.2602C54.525 70.1702 54.435 70.0202 54.6 69.9902C54.735 69.9602 54.885 69.9452 55.005 70.0952C55.47 70.6502 55.905 71.2202 56.34 71.8052C56.775 72.4202 57.195 73.0352 57.63 73.7552Z" fill="#010101"/>
<path d="M26.1451 74.6552C25.7851 74.7752 25.5901 74.6402 25.4251 74.3252C25.1701 73.8152 24.8101 73.3502 24.4651 72.9002C24.3901 72.8102 24.3301 72.7652 24.2101 72.7802C23.9401 72.7952 23.6701 72.8102 23.4001 72.7952C23.2351 72.7952 23.1751 72.8252 23.1751 73.0202C23.1901 73.5152 23.1751 74.0102 23.1901 74.5052C23.1901 74.7152 23.0851 74.7002 22.9651 74.6852C22.8451 74.6702 22.6951 74.7602 22.6951 74.5052C22.7101 73.0802 22.6951 71.6552 22.6951 70.2302C22.6951 70.1102 22.7251 70.0352 22.8451 70.0202C23.4901 69.9152 24.1351 69.8702 24.7801 70.0202C25.6201 70.2302 26.0401 70.9502 25.8151 71.7752C25.7101 72.1802 25.4551 72.4202 24.8701 72.6602C25.3651 73.3052 25.8001 73.9352 26.1451 74.6552ZM23.2051 71.3702C23.2051 71.6552 23.2051 71.9252 23.2051 72.1952C23.2051 72.3302 23.2201 72.3902 23.3851 72.3902C23.7601 72.3902 24.1201 72.3902 24.4951 72.3452C24.8551 72.3002 25.1851 72.1652 25.3201 71.7902C25.5451 71.1752 25.2451 70.6052 24.6151 70.4252C24.1801 70.3052 23.7451 70.3502 23.3101 70.3802C23.1901 70.3802 23.2051 70.4552 23.2051 70.5302C23.2051 70.8152 23.2051 71.0852 23.2051 71.3702Z" fill="#010101"/>
<path d="M45.3301 72.3149C45.3301 73.0199 45.3151 73.7399 45.3301 74.4449C45.3301 74.6549 45.2701 74.6849 45.0751 74.6849C44.8651 74.6999 44.8351 74.6099 44.8351 74.4299C44.8501 73.8449 44.8351 73.2449 44.8351 72.6599C44.8351 72.4799 44.8051 72.4049 44.6101 72.4199C43.9051 72.4349 43.2151 72.4349 42.5101 72.4199C42.3301 72.4199 42.2851 72.4649 42.2851 72.6449C42.3001 73.2599 42.2851 73.8749 42.3001 74.4899C42.3001 74.6849 42.2251 74.6849 42.0751 74.6849C41.9551 74.6699 41.8201 74.7299 41.8201 74.5049C41.8351 73.0499 41.8351 71.6099 41.8201 70.1549C41.8201 69.9149 41.9551 69.9749 42.0751 69.9749C42.2101 69.9599 42.3001 69.9749 42.3001 70.1699C42.2851 70.7249 42.3001 71.2649 42.2851 71.8199C42.2851 71.9849 42.3151 72.0449 42.4951 72.0449C43.2151 72.0299 43.9201 72.0299 44.6401 72.0449C44.8051 72.0449 44.8351 71.9999 44.8351 71.8499C44.8201 71.2949 44.8501 70.7399 44.8201 70.1849C44.8201 69.9449 44.9551 70.0049 45.0751 70.0049C45.1951 70.0049 45.3151 69.9599 45.3001 70.1849C45.3301 70.8749 45.3301 71.5949 45.3301 72.3149Z" fill="#010101"/>
<path d="M27.9299 74.6851C28.4849 73.1101 29.0849 71.5951 29.7599 70.1251C29.8349 69.9751 29.9399 69.9751 30.0599 69.9751C30.1949 69.9751 30.2699 70.0051 30.3299 70.1401C30.9749 71.5201 31.4999 72.9301 32.0399 74.3401C32.0849 74.4451 32.1449 74.5501 32.1449 74.6701C32.1299 74.6701 32.1299 74.6851 32.1149 74.6851C31.6499 74.7301 31.6499 74.7301 31.4999 74.2951C31.4099 74.0551 31.3199 73.8301 31.2599 73.5751C31.2149 73.4251 31.1399 73.3951 31.0049 73.4101C30.3599 73.4101 29.7299 73.4101 29.0849 73.4101C28.9499 73.4101 28.8899 73.4401 28.8449 73.5751C28.7549 73.8601 28.6349 74.1301 28.5599 74.4001C28.4999 74.6401 28.3799 74.7301 28.1399 74.6851C28.0649 74.6851 28.0049 74.6851 27.9299 74.6851ZM30.0299 70.5451C29.9549 70.7251 29.8799 70.8601 29.8199 71.0101C29.5799 71.6101 29.3399 72.2101 29.1149 72.8101C29.0849 72.8701 28.9799 72.9901 29.1749 73.0051C29.7899 73.0051 30.3899 73.0051 31.0349 73.0051C30.7049 72.1501 30.3899 71.3551 30.0299 70.5451Z" fill="#010101"/>
<path d="M10.0049 74.67C9.95989 74.685 9.94489 74.685 9.92989 74.685C9.49489 74.7 9.49489 74.7 9.34489 74.28C9.31489 74.205 9.28489 74.115 9.25489 74.04C9.17989 73.83 9.17988 73.545 8.99988 73.425C8.83488 73.32 8.57989 73.395 8.35489 73.395C7.87489 73.395 7.39488 73.395 6.91488 73.395C6.77988 73.395 6.71988 73.44 6.67488 73.56C6.55488 73.89 6.43488 74.22 6.31488 74.55C6.26988 74.655 5.87989 74.745 5.80489 74.67C5.75989 74.625 5.80489 74.58 5.81989 74.535C6.35989 73.035 6.92988 71.565 7.58988 70.125C7.64988 69.99 7.73989 69.975 7.85989 69.975C7.97989 69.975 8.08489 69.96 8.15989 70.125C8.86489 71.595 9.43489 73.125 10.0049 74.67ZM6.89988 72.99C7.52988 72.99 8.14489 72.99 8.74489 72.99C8.90989 72.99 8.84989 72.9 8.81989 72.825C8.53489 72.06 8.23488 71.31 7.87488 70.53C7.51488 71.37 7.21488 72.165 6.89988 72.99Z" fill="#010101"/>
<path d="M60.6599 72.2999C60.6599 71.5949 60.6599 70.8899 60.6599 70.1699C60.6599 70.0199 60.6749 69.9449 60.8549 69.9599C61.6349 69.9749 62.4299 69.9749 63.2099 69.9599C63.3749 69.9599 63.4049 70.0049 63.4049 70.1549C63.3899 70.2899 63.4199 70.3799 63.2099 70.3799C62.5949 70.3649 61.9799 70.3799 61.3649 70.3649C61.1849 70.3649 61.1399 70.4099 61.1399 70.5899C61.1549 70.9799 61.1549 71.3699 61.1399 71.7449C61.1399 71.9249 61.1699 71.9999 61.3649 71.9849C61.8899 71.9699 62.4149 71.9849 62.9399 71.9699C63.1049 71.9699 63.1499 72.0149 63.1499 72.1799C63.1499 72.3449 63.1049 72.3899 62.9399 72.3749C62.4149 72.3599 61.8899 72.3749 61.3799 72.3749C61.1999 72.3749 61.1399 72.4199 61.1549 72.5999C61.1699 73.0799 61.1699 73.5599 61.1549 74.0399C61.1549 74.2049 61.1849 74.2499 61.3649 74.2499C62.0399 74.2349 62.7149 74.2499 63.3899 74.2499C63.5549 74.2499 63.5999 74.2949 63.5999 74.4599C63.5999 74.6249 63.5549 74.6699 63.3899 74.6699C62.5499 74.6549 61.7099 74.6699 60.8699 74.6699C60.7199 74.6699 60.6899 74.6249 60.6899 74.4899C60.6749 73.7699 60.6599 73.0349 60.6599 72.2999Z" fill="#010101"/>
<path d="M12.69 72.5251C12.69 71.9101 12.675 71.2951 12.69 70.6801C12.69 70.4551 12.66 70.3501 12.39 70.3801C12.045 70.4101 11.7001 70.3801 11.3551 70.3951C11.1751 70.3951 11.175 70.3051 11.175 70.1851C11.175 70.0501 11.1751 69.9751 11.3551 69.9751C12.4051 69.9901 13.455 69.9901 14.49 69.9751C14.7 69.9751 14.6401 70.0951 14.6551 70.2001C14.6701 70.3201 14.655 70.4101 14.49 70.3951C14.13 70.3801 13.785 70.4101 13.425 70.3801C13.2 70.3651 13.14 70.4251 13.14 70.6501C13.155 71.9101 13.14 73.1701 13.14 74.4151C13.14 74.6551 12.9301 74.7751 12.7201 74.6701C12.6301 74.6251 12.675 74.5351 12.675 74.4751C12.69 73.8301 12.69 73.1851 12.69 72.5251Z" fill="#010101"/>
<path d="M68.9849 70.0051C68.5049 70.8751 68.0249 71.7301 67.4849 72.5551C67.3949 72.6901 67.3499 72.8251 67.3499 73.0051C67.3649 73.5151 67.3349 74.0251 67.3649 74.5201C67.3649 74.7451 67.2449 74.7001 67.1249 74.7001C67.0049 74.7001 66.8849 74.7451 66.8849 74.5201C66.8999 74.0251 66.8849 73.5451 66.8999 73.0501C66.8999 72.8551 66.8549 72.6901 66.7499 72.5251C66.2249 71.7151 65.7299 70.8751 65.2649 70.0051C65.7149 69.9001 65.7749 69.9301 65.9699 70.3051C66.3149 70.9951 66.6899 71.6701 67.1249 72.3301C67.3199 72.1051 67.4399 71.8651 67.5749 71.6251C67.8149 71.2051 68.0699 70.8001 68.2649 70.3651C68.4149 70.0351 68.5949 69.8701 68.9849 70.0051Z" fill="#010101"/>
<path d="M34.1699 72.33C34.1699 71.61 34.1849 70.905 34.1699 70.185C34.1699 69.96 34.2899 69.99 34.4249 69.975C34.5749 69.96 34.6499 69.99 34.6499 70.185C34.6349 71.475 34.6499 72.765 34.6349 74.055C34.6349 74.235 34.6799 74.295 34.8599 74.28C35.4449 74.265 36.0449 74.28 36.6299 74.265C36.7949 74.265 36.8399 74.31 36.8399 74.475C36.8399 74.64 36.7949 74.685 36.6299 74.685C35.8649 74.67 35.1149 74.67 34.3499 74.685C34.1849 74.685 34.1399 74.64 34.1399 74.475C34.1699 73.755 34.1699 73.035 34.1699 72.33Z" fill="#010101"/>
</svg>
