<svg width="108" height="47" viewBox="0 0 108 47" fill="none" xmlns="http://www.w3.org/2000/svg">
<path d="M7.84969 41.5577H7.16869H6.49219V34.5947H7.25269H8.02219L10.8137 39.4787V34.5947H11.4872H12.1682V41.5577H11.4467H10.7222L7.84969 36.5387V41.5577Z" fill="#A4AAAB"/>
<path d="M21.3422 36.1412L20.4137 38.9297H22.2692L21.3422 36.1412ZM18.0557 41.5577L20.5217 34.5947H22.2062L24.6677 41.5577H23.1302L22.6607 40.1402H20.0162L19.5542 41.5577H18.0557Z" fill="#A4AAAB"/>
<path d="M43.3217 41.5577H42.6407H41.9597V34.5947H43.0232H44.0942L45.3617 40.1207L46.6127 34.5947H47.6597H48.7112V41.5577H48.0377H47.3567V35.7032L46.0502 41.5577H45.3407H44.6237L43.3217 35.5712V41.5577Z" fill="#A4AAAB"/>
<path d="M32.7707 36.1412L31.8467 38.9297H33.6992L32.7707 36.1412ZM29.4797 41.5577L31.9502 34.5947H33.6347L36.0962 41.5577H34.5632L34.0892 40.1402H31.4447L30.9827 41.5577H29.4797Z" fill="#A4AAAB"/>
<path d="M58.5255 36.1412L57.597 38.9297H59.4525L58.5255 36.1412ZM55.239 41.5577L57.705 34.5947H59.3895L61.851 41.5577H60.315L59.8455 40.1402H57.201L56.739 41.5577H55.239Z" fill="#A4AAAB"/>
<path d="M58.6696 10.6513H61.2031C61.4026 10.6573 61.5961 10.5808 61.7371 10.4398C61.8751 10.3078 61.9516 10.1248 61.9486 9.93432V7.40532C61.9561 7.20432 61.8796 7.00932 61.7371 6.86832C61.6066 6.73182 61.4251 6.65532 61.2346 6.65682H58.6696C58.4656 6.65382 58.2691 6.73032 58.1206 6.86832C57.9706 7.00632 57.8881 7.20282 57.8941 7.40532V9.93432C57.8911 10.1248 57.9676 10.3078 58.1056 10.4398C58.2556 10.5853 58.4596 10.6618 58.6696 10.6513Z" fill="#193661"/>
<path d="M62.0311 16.6063C62.0311 16.0768 62.0026 15.4678 61.9831 14.7733C61.9651 14.6113 61.8961 14.4583 61.7881 14.3353C61.6471 14.2048 61.4581 14.1388 61.2661 14.1553H58.5571C58.3816 14.1478 58.2091 14.2123 58.0831 14.3353C57.9661 14.4508 57.9031 14.6098 57.9076 14.7733C57.9481 16.3303 57.9706 17.7808 57.9706 19.1233V22.9873C57.9706 23.5093 57.8836 23.8153 57.7111 23.9113C57.3796 24.0373 57.0241 24.0868 56.6716 24.0583H47.1121C46.9366 24.0553 46.7626 24.0388 46.5901 24.0103C46.3786 23.9788 46.1716 23.9248 45.9721 23.8468C45.7801 23.7703 45.6001 23.6668 45.4381 23.5408C45.2746 23.4103 45.1636 23.2243 45.1276 23.0188C45.1726 22.7998 45.1951 22.5763 45.1951 22.3543V19.7728C45.1951 17.3833 44.5561 15.5803 43.2796 14.3668C42.0016 13.1533 40.2601 12.5533 38.0536 12.5668C35.8231 12.5668 34.0471 13.1773 32.7286 14.3998C31.4086 15.6208 30.7456 17.4238 30.7366 19.8058V22.5343C30.7456 22.8028 30.7111 23.0728 30.6376 23.3308C30.5986 23.4958 30.5071 23.6428 30.3781 23.7523C30.2416 23.8633 30.0796 23.9413 29.9086 23.9788C29.7166 24.0223 29.5201 24.0493 29.3236 24.0583C29.1166 24.0583 28.9246 24.0583 28.7896 24.0583H6.04213C5.57113 24.0883 5.10163 23.9938 4.68013 23.7838C4.37713 23.6008 4.22563 23.1388 4.22563 22.4023V4.15782C4.22713 3.98982 4.17013 3.82782 4.06213 3.70032C3.94063 3.56982 3.76663 3.49932 3.58813 3.50982H0.684132C0.502631 3.50532 0.327133 3.57432 0.198133 3.70032C0.0721329 3.81882 0.00163243 3.98532 0.00313243 4.15782V23.6368C-0.0208676 24.4243 0.0931316 25.2103 0.342132 25.9588C0.535632 26.5033 0.873131 26.9848 1.31863 27.3523C1.76413 27.7018 2.28763 27.9358 2.84413 28.0378C3.50113 28.1608 4.16713 28.2193 4.83613 28.2133H28.6846C29.3941 28.2133 30.1021 28.1383 30.7951 27.9868C31.4311 27.8653 32.0191 27.5608 32.4841 27.1108C33.0976 27.7993 33.9061 28.2868 34.8031 28.5088C35.8381 28.8118 36.9106 28.9648 37.9891 28.9633C38.9986 28.9783 40.0021 28.8253 40.9606 28.5088C41.7886 28.2373 42.5326 27.7558 43.1191 27.1108C43.6996 27.5098 44.3491 27.7963 45.0346 27.9553C45.7471 28.1293 46.4761 28.2163 47.2096 28.2148H55.9456C56.3761 28.2148 56.8531 28.2148 57.3721 28.2148C57.8911 28.2148 58.3951 28.1833 58.8811 28.1518C59.3671 28.1203 59.8126 28.0798 60.2116 28.0408C60.5356 28.0093 60.8566 27.9553 61.1716 27.8773C61.3861 27.8023 61.5721 27.6628 61.7056 27.4783C61.8106 27.3088 61.8826 27.1213 61.9171 26.9248C61.9846 26.3428 62.0206 25.5778 62.0326 24.6388C62.0446 23.6983 62.0326 22.5313 62.0326 21.1453V18.1183C62.0311 17.6413 62.0311 17.1403 62.0311 16.6063ZM41.1076 21.5098C41.1076 22.7893 40.8586 23.7193 40.3591 24.2983C39.8596 24.8773 39.0631 25.1638 37.9696 25.1593C37.2721 25.1863 36.5806 25.0108 35.9776 24.6568C35.4196 24.2623 35.0446 23.6593 34.9381 22.9843C34.8721 22.4953 34.8391 22.0033 34.8421 21.5098V20.1163C34.8421 18.7933 35.0896 17.8378 35.5876 17.2408C36.0856 16.6438 36.8866 16.3483 37.9771 16.3483C39.0676 16.3483 39.8776 16.6468 40.3666 17.2408C40.8571 17.8348 41.1001 18.7948 41.1001 20.1163L41.1076 21.5098Z" fill="#193661"/>
<path d="M83.0041 20.9564V8.12988L76.9171 12.5954C74.7871 14.1599 73.5286 16.6439 73.5271 19.2869V41.6174L79.6141 37.1519C81.7456 35.5889 83.0056 33.1034 83.0041 30.4604V24.9719L79.0201 24.9404L83.0041 20.9564Z" fill="#0E8644"/>
<path d="M101.613 16.842C99.4816 18.4065 98.2231 20.8905 98.2231 23.5335V24.729L102.08 28.581H98.2231V41.631L104.31 37.1655C106.442 35.6025 107.702 33.117 107.7 30.474V12.3765L101.613 16.842Z" fill="#4886C5"/>
<path d="M95.2397 24.6735V0L89.1572 4.4655C87.0257 6.027 85.7657 8.511 85.7627 11.154V20.9535L89.7467 24.9375H85.7627V46.6065L91.8497 42.141C93.9812 40.578 95.2412 38.0925 95.2397 35.4495V28.5705H91.3442L95.2397 24.6735Z" fill="#64BB6C"/>
</svg>
