<svg width="121" height="54" viewBox="0 0 121 54" fill="none" xmlns="http://www.w3.org/2000/svg">
<path d="M114.78 30.99H117.915V26.715C117.285 26.7 117.24 26.685 116.61 26.685C115.68 26.685 114.795 27.27 114.795 28.215V30.99H114.78ZM74.2949 25.05V29.325C74.2949 32.28 78.9749 32.28 78.9749 29.325V25.05H81.3599V28.665C81.3599 34.935 71.9099 34.98 71.9099 28.665V25.05H74.2949ZM75.0749 23.25C75.0749 22.53 75.6299 21.96 76.3499 21.96C77.0699 21.96 77.6399 22.515 77.6399 23.25C77.6399 23.97 77.0699 24.525 76.3499 24.525C75.6449 24.525 75.0749 23.955 75.0749 23.25ZM83.0999 24.705C90.5999 24.705 89.3699 24 89.3699 31.815C89.3699 32.37 88.9199 32.835 88.3799 32.835H82.4849V30.99H86.7599C86.7599 26.355 86.8799 26.73 83.1299 26.73L83.0999 24.705ZM92.2799 32.805C91.5299 32.805 91.0949 32.22 91.0949 31.515V22.26H93.4649V30.99H100.515C100.005 30.3 99.0299 28.92 98.7599 28.14C97.9799 25.95 100.2 24.555 102.165 24.555H104.625C106.38 24.555 108.675 25.785 108.12 27.855C107.85 28.86 106.875 30.195 106.29 30.975H112.68V28.215C112.68 25.65 113.805 24.495 116.61 24.54H120.045V31.635C120.045 32.25 119.655 32.805 118.995 32.805H92.2799ZM103.335 30.735H103.44L105.57 27.885C106.2 27.03 105.405 26.625 104.625 26.625H102.15C101.4 26.625 100.575 27.045 101.205 27.885L103.335 30.735Z" fill="#00574A"/>
<path fill-rule="evenodd" clip-rule="evenodd" d="M50.04 23.5648L58.14 15.1948L59.97 31.9798L61.815 15.2248L69.885 23.5648L59.97 33.8398L50.04 23.5648Z" fill="#00574A"/>
<path fill-rule="evenodd" clip-rule="evenodd" d="M58.635 7.215L60.045 0L61.275 7.305L67.86 2.955L63.81 9.465L71.82 11.265L63.825 12.555L66.18 17.475L59.82 11.64L54.975 16.785L56.565 12.45L50.085 11.385L56.43 9.795L53.235 3.75L58.635 7.215Z" fill="#DCA945"/>
<path d="M0.0148926 33.3302L0.0748928 23.4902C2.02489 23.5202 3.41989 24.1352 4.76989 25.6952C6.10489 24.1202 7.48489 23.5202 9.41989 23.4902L9.40489 33.3302H7.43989L7.45489 25.7402C6.92989 26.0102 5.75989 27.2852 5.75989 27.8702L5.72989 33.3302H3.76489L3.77989 27.8552C3.76489 27.2402 2.57989 25.9802 2.00989 25.7102L1.96489 33.3302H0.0148926ZM18.4499 23.4902H19.8449V27.1502H18.4499V23.4902ZM23.0849 30.1652H24.7799C24.6299 24.8852 23.0849 25.5152 23.0849 30.1652ZM24.7649 32.1302H23.0699V33.5252H21.1049V28.2152C21.1049 26.8352 21.7649 23.5202 23.4899 23.5052H24.4049C25.9199 23.5202 26.7449 26.8952 26.7449 28.2152V33.5252H24.7799L24.7649 32.1302ZM13.2749 30.1652H14.9699C14.8349 24.8852 13.2749 25.5152 13.2749 30.1652ZM14.9699 32.1302H13.2749V33.5252H11.3099V28.2152C11.3099 26.8352 11.9699 23.5202 13.6949 23.5052H14.6099C16.1249 23.5202 16.9499 26.8952 16.9499 28.2152V33.5252H14.9849L14.9699 32.1302ZM42.1949 33.9452V23.4902L43.3199 23.5652C44.0699 23.6252 45.1349 24.5102 46.0499 25.6952V23.5652H48.1799V33.9302H46.0499V30.2402C45.8249 29.1302 44.9699 27.7952 44.2949 26.8652V33.9452H42.1949ZM40.6799 25.4552H37.7549L37.7699 27.3902H40.7849V29.3702H37.7849L37.7999 31.9952H40.7399V33.9602H35.8499L35.8049 23.5052H40.7099V25.4552H40.6799ZM30.1949 25.4702V31.9202H31.9349C32.4149 31.9202 32.6849 31.8602 32.6849 31.3502L32.6099 26.3402C32.6099 25.6952 32.2799 25.4852 31.6649 25.4702H30.1949ZM28.2149 23.4902L32.8199 23.5202C34.2749 23.5352 34.6649 25.0802 34.6649 26.2652V30.0602C34.6499 31.3802 34.8599 33.9002 32.9249 33.8852L28.2299 33.8702V23.4902H28.2149Z" fill="#00574A"/>
<path fill-rule="evenodd" clip-rule="evenodd" d="M6.18012 43.065H6.96012V43.665H6.18012V43.065ZM118.155 41.91H118.545C118.845 41.925 118.995 41.805 119.01 41.55V40.02H119.94V41.73C119.94 42.105 119.775 42.375 119.445 42.525C119.31 42.585 119.145 42.63 118.95 42.645H117.225C117.21 42.645 117.195 42.645 117.18 42.645H115.41V42.63C115.365 42.63 115.335 42.645 115.29 42.645H114.3H113.88H112.785H112.425H111.255H110.895H109.725H109.365H108.12H107.85H107.415C107.355 42.915 107.205 43.155 106.965 43.35C106.65 43.59 106.185 43.695 105.6 43.665L105.615 43.095C105.66 43.095 105.69 43.11 105.735 43.11C105.975 43.11 106.2 43.035 106.365 42.855C106.485 42.735 106.545 42.54 106.545 42.27V40.02H107.445V41.895H107.865H108.135H109.38H109.74H110.91H111.27H112.44H112.8H113.895H114.315H114.885C115.185 41.91 115.335 41.79 115.35 41.535V40.005H116.28V41.715C116.28 41.775 116.28 41.835 116.265 41.88H116.775C117.075 41.895 117.225 41.775 117.24 41.52V39.99H118.155V41.7C118.155 41.805 118.155 41.85 118.155 41.91ZM117.24 38.235H118.02V38.835H117.24V38.235ZM117.915 39.03H118.695V39.63H117.915V39.03ZM116.61 39.03H117.39V39.63H116.61V39.03ZM99.9301 41.91H104.115C104.175 41.31 103.965 40.875 103.47 40.605C103.125 40.455 102.6 40.38 101.88 40.395H100.89L102.27 38.55H103.185L102.42 39.645C102.54 39.645 102.66 39.66 102.78 39.675C103.425 39.69 103.98 39.885 104.445 40.275C104.82 40.68 105.015 41.175 105.015 41.76V41.82V42.66H100.275H99.9451H98.9101H98.4001H98.2051C97.8451 42.66 97.5301 42.585 97.2901 42.435C97.0201 42.255 96.8551 42.075 96.7651 41.865C96.6001 41.97 96.4651 42.03 96.3901 42.075C96.2551 42.15 96.0301 42.195 95.7151 42.195C95.3851 42.195 95.1001 42.135 94.8451 42.03C94.5901 41.925 94.4101 41.745 94.2901 41.505C94.1851 41.295 94.1251 41.055 94.1251 40.785C94.1251 40.62 94.1551 40.47 94.2001 40.32C94.2901 40.05 94.4401 39.81 94.6351 39.63C94.7551 39.525 94.9501 39.405 95.1901 39.27C95.4751 39.15 95.8501 39.09 96.3151 39.105H97.7251L97.7401 40.89C97.7251 40.89 97.7251 41.025 97.7401 41.31C97.7851 41.685 97.9651 41.88 98.2951 41.895H98.4301H98.9401L99.9301 41.91ZM96.7051 39.675C96.3901 39.66 96.1501 39.675 95.9701 39.705C95.6101 39.78 95.3701 39.93 95.2651 40.155C95.1901 40.32 95.1451 40.485 95.1451 40.68C95.1451 40.845 95.1751 40.995 95.2501 41.115C95.3251 41.25 95.4301 41.37 95.5801 41.445C95.7301 41.535 95.8801 41.58 96.0151 41.565C96.2551 41.535 96.4501 41.415 96.5851 41.22C96.6751 41.085 96.7201 40.92 96.7201 40.71C96.7201 40.635 96.7051 40.305 96.7051 39.675ZM95.2801 38.145H96.0601V38.745H95.2801V38.145ZM96.5851 38.145H97.3651V38.745H96.5851V38.145ZM91.1401 38.535H92.1301V42.66L91.1251 42.675L91.1401 38.535ZM89.5501 38.55H90.5251V41.745C90.5251 42.12 90.3151 42.405 89.8801 42.585C89.7151 42.645 89.5201 42.675 89.3101 42.675H88.6201H88.3651H86.1001V42.69C85.4251 42.69 84.9451 42.69 84.6751 42.69C84.5101 42.69 84.3301 42.645 84.1501 42.57C84.0001 42.51 83.8951 42.45 83.8351 42.375C83.8051 42.33 83.7751 42.315 83.7451 42.315C83.7151 42.315 83.6851 42.33 83.6701 42.36C83.4751 42.585 83.1751 42.69 82.7401 42.69H81.9151H81.6001H80.6251H80.0401H76.2001V41.94H78.7201C78.7351 41.895 78.7351 41.835 78.7351 41.775C78.7351 41.595 78.6751 41.415 78.5701 41.265C78.3601 40.995 78.1051 40.83 77.7751 40.77C77.6251 40.74 77.4451 40.725 77.2201 40.725C77.1451 40.725 77.0701 40.725 76.9801 40.725V40.08C77.0701 40.065 77.1601 40.065 77.2501 40.065C77.6401 40.065 78.0151 40.125 78.3601 40.23C78.6601 40.335 78.9001 40.47 79.0801 40.62C79.2151 40.74 79.3351 40.905 79.4401 41.115C79.4851 41.22 79.5301 41.37 79.5751 41.58C79.6051 41.745 79.6201 41.85 79.6201 41.91V41.94H80.0101H80.5951H81.8851H82.7251C82.9051 41.91 83.0401 41.85 83.1301 41.745C82.9801 41.46 82.7401 41.265 82.4101 41.175C82.2601 41.13 82.1251 41.085 82.0051 41.04L81.9001 40.44C82.1401 40.23 82.4851 40.065 82.9651 39.96C83.1601 39.9 83.4001 39.87 83.7001 39.855C84.2251 39.855 84.6901 39.96 85.0801 40.17C85.2301 40.245 85.3801 40.335 85.5001 40.425C85.6801 40.575 85.6951 40.725 85.5451 40.845C85.2901 40.935 84.9451 41.235 84.5101 41.775C84.5701 41.865 84.6901 41.91 84.8701 41.925H85.7101V41.91H86.2801C86.6551 41.94 86.8651 41.79 86.8951 41.46V40.035H87.9451V41.475C87.9451 41.7 87.8851 41.85 87.7801 41.91H88.3501H88.7401C88.8001 41.91 88.8901 41.91 89.0101 41.91C89.3251 41.88 89.4901 41.715 89.5351 41.415V38.55H89.5501ZM86.3551 39.045H87.1351V39.645H86.3551V39.045ZM87.6451 39.045H88.4251V39.645H87.6451V39.045ZM83.1301 40.695C83.2951 40.62 83.4901 40.575 83.7001 40.575C83.9401 40.575 84.1651 40.62 84.3751 40.725C84.1201 40.95 83.9251 41.13 83.7901 41.25C83.6251 40.965 83.4001 40.77 83.1301 40.695ZM73.3951 43.065H74.1751V43.665H73.3951V43.065ZM74.6701 40.035H75.5851V41.745C75.5851 42.12 75.4201 42.39 75.0901 42.54C74.9551 42.6 74.7901 42.645 74.5951 42.66H73.4851H73.1851H72.0451H71.5951H70.8901C70.8451 42.84 70.7701 43.005 70.6501 43.185C70.1851 43.815 69.4651 44.145 68.5051 44.175C67.5601 44.115 66.8551 43.845 66.4051 43.335C66.0001 42.885 65.7751 42.3 65.7301 41.595V40.02H66.6301V41.205C66.6301 41.655 66.7051 42.045 66.8401 42.345C67.2001 42.975 67.7401 43.29 68.4901 43.305C68.9701 43.275 69.3151 43.185 69.5701 42.99C69.7501 42.885 69.9151 42.705 70.0651 42.45C70.2001 42.15 70.2601 41.685 70.2601 41.055V40.005H71.1601V41.895H71.6101H72.0751H73.2001H73.5001H74.2051C74.5051 41.91 74.6701 41.79 74.6701 41.535V41.13V40.035ZM74.7001 43.065H75.4801V43.665H74.7001V43.065ZM68.1301 39.09H68.9101V39.69H68.1301V39.09ZM62.7901 38.535H63.7801V42.66L62.7751 42.675L62.7901 38.535ZM61.2001 38.55H62.1751V41.745C62.1751 42.12 61.9651 42.405 61.5301 42.585C61.3651 42.645 61.1701 42.675 60.9601 42.675H60.4501V42.69C59.7751 42.69 59.2951 42.69 59.0251 42.69C58.8601 42.69 58.6801 42.645 58.5001 42.57C58.3501 42.51 58.2451 42.45 58.1851 42.375C58.1551 42.33 58.1251 42.315 58.0801 42.315C58.0501 42.315 58.0201 42.33 58.0051 42.36C57.8101 42.585 57.5101 42.69 57.0751 42.69H56.2501H55.9501H54.7501H54.3901H53.1451H52.8751H52.4401C52.3801 42.96 52.2301 43.2 51.9901 43.395C51.6751 43.635 51.2101 43.74 50.6251 43.71L50.6401 43.14C50.6851 43.14 50.7151 43.155 50.7601 43.155C51.0001 43.155 51.2251 43.08 51.3901 42.9C51.5101 42.78 51.5701 42.585 51.5701 42.315V40.065H52.4701V41.94H52.8901H53.1601H54.4051H54.7651H56.2801H57.1201C57.3001 41.91 57.4351 41.85 57.5251 41.745C57.3751 41.46 57.1351 41.265 56.8051 41.175C56.6551 41.13 56.5201 41.085 56.4001 41.04L56.2501 40.44C56.4901 40.23 56.8351 40.065 57.3151 39.96C57.5101 39.9 57.7501 39.87 58.0501 39.855C58.5751 39.855 59.0401 39.96 59.4301 40.17C59.5801 40.245 59.7301 40.335 59.8501 40.425C60.0301 40.575 60.0451 40.725 59.8951 40.845C59.6401 40.935 59.2951 41.235 58.8601 41.775C58.9201 41.865 59.0401 41.91 59.2201 41.925H60.0151V41.91H60.4051C60.4651 41.91 60.5551 41.91 60.6751 41.91C60.9901 41.88 61.1551 41.715 61.2001 41.415V38.55ZM57.4801 40.695C57.6451 40.62 57.8401 40.575 58.0501 40.575C58.2901 40.575 58.5151 40.62 58.7251 40.725C58.4701 40.95 58.2751 41.13 58.1401 41.25C57.9751 40.965 57.7501 40.77 57.4801 40.695ZM47.9101 43.065H48.6901V43.665H47.9101V43.065ZM48.6151 40.035H49.5451V41.745C49.5451 42.12 49.3801 42.39 49.0501 42.54C48.9151 42.6 48.7501 42.645 48.5551 42.66H47.4451H47.1601H44.8351H44.5351H43.3051H42.9451H41.9251H41.4151H41.2201C40.8601 42.66 40.5451 42.585 40.3051 42.435C40.0351 42.255 39.8701 42.075 39.7801 41.865C39.6151 41.97 39.4801 42.03 39.4051 42.075C39.2701 42.15 39.0451 42.195 38.7301 42.195C38.4001 42.195 38.1151 42.135 37.8601 42.03C37.6051 41.925 37.4251 41.745 37.3051 41.505C37.2001 41.295 37.1401 41.055 37.1401 40.785C37.1401 40.62 37.1701 40.47 37.2151 40.32C37.3051 40.05 37.4551 39.81 37.6501 39.63C37.7701 39.525 37.9651 39.405 38.2051 39.27C38.4901 39.15 38.8651 39.09 39.3301 39.105H40.7401L40.7551 40.89C40.7401 40.89 40.7401 41.025 40.7551 41.31C40.8001 41.685 40.9801 41.88 41.3101 41.895H41.4451H41.9551H42.9751H43.3351H44.5651H45.1351C45.5101 41.925 45.7201 41.775 45.7501 41.445V40.02H46.8001V41.46C46.8001 41.685 46.7401 41.835 46.6351 41.895H47.4601H48.1651C48.4651 41.91 48.6301 41.79 48.6301 41.535V41.13V40.035H48.6151ZM44.8501 43.065H45.6301V43.665H44.8501V43.065ZM46.1551 43.065H46.9351V43.665H46.1551V43.065ZM39.7351 39.675C39.4201 39.66 39.1801 39.675 39.0001 39.705C38.6401 39.78 38.4001 39.93 38.2951 40.155C38.2201 40.32 38.1751 40.485 38.1751 40.68C38.1751 40.845 38.2051 40.995 38.2801 41.115C38.3551 41.25 38.4601 41.37 38.6101 41.445C38.7601 41.535 38.9101 41.58 39.0451 41.565C39.2851 41.535 39.4801 41.415 39.6151 41.22C39.7051 41.085 39.7501 40.92 39.7501 40.71C39.7351 40.635 39.7351 40.305 39.7351 39.675ZM38.3101 38.145H39.0901V38.745H38.3101V38.145ZM39.6151 38.145H40.3951V38.745H39.6151V38.145ZM34.1551 38.535H35.1451V42.66L34.1401 42.675L34.1551 38.535ZM32.5801 38.55H33.5551V41.745C33.5551 42.12 33.3451 42.405 32.9101 42.585C32.7451 42.645 32.5501 42.675 32.3401 42.675H31.6801H31.3951H30.0301C30.0151 42.675 30.0001 42.675 29.9851 42.675H28.2601C28.2451 42.675 28.2301 42.675 28.2151 42.675H26.4451V42.66C26.4001 42.66 26.3701 42.675 26.3251 42.675H25.4251H24.9301H23.9101H23.5501H22.4851V42.69C21.8101 42.69 21.3301 42.69 21.0601 42.69C20.8951 42.69 20.7151 42.645 20.5351 42.57C20.3851 42.51 20.2801 42.45 20.2201 42.375C20.1901 42.33 20.1601 42.315 20.1301 42.315C20.1001 42.315 20.0701 42.33 20.0551 42.36C19.8601 42.585 19.5601 42.69 19.1251 42.69H18.3001H17.9851H16.8301H16.4251H16.2301C16.1701 42.96 16.0201 43.2 15.7801 43.395C15.4951 43.605 15.0901 43.71 14.5651 43.71H14.4151L14.4301 43.14C14.4751 43.14 14.5051 43.155 14.5501 43.155C14.8051 43.155 15.0151 43.08 15.1801 42.9C15.2551 42.81 15.3151 42.705 15.3451 42.57C15.1201 42.66 14.8651 42.69 14.5951 42.69C14.0851 42.69 13.6801 42.54 13.3951 42.225C13.2151 42.03 13.1101 41.76 13.0801 41.415C13.0801 41.25 13.1101 41.085 13.1701 40.92C13.2451 40.74 13.3351 40.575 13.4551 40.455C13.7101 40.17 14.1151 40.02 14.6701 40.005H14.7151C15.1801 40.005 15.5851 40.17 15.9451 40.515C16.1401 40.725 16.2601 41.04 16.2751 41.43C16.2751 41.46 16.2751 41.49 16.2751 41.505V41.94H16.8451H18.3151H19.1551C19.3351 41.91 19.4701 41.85 19.5601 41.745C19.4101 41.46 19.1701 41.265 18.8551 41.175C18.7051 41.13 18.5701 41.085 18.4501 41.04L18.3151 40.47C18.5551 40.26 18.9001 40.095 19.3801 39.99C19.5751 39.93 19.8151 39.9 20.1151 39.885C20.6401 39.885 21.1051 39.99 21.4951 40.2C21.6451 40.275 21.7951 40.365 21.9151 40.455C22.0951 40.605 22.1101 40.755 21.9601 40.875C21.7051 40.965 21.3601 41.265 20.9251 41.805C20.9851 41.895 21.1051 41.94 21.2851 41.955H22.0651H23.5501H23.9101H24.9301H25.4251H25.9201C26.2201 41.97 26.3701 41.85 26.3851 41.595V40.065H27.3151V41.775C27.3151 41.835 27.3151 41.895 27.3001 41.94H27.8101C28.1101 41.955 28.2601 41.835 28.2751 41.58V40.05H29.1901V41.76C29.1901 41.82 29.1901 41.88 29.1751 41.925H29.5651C29.8651 41.94 30.0301 41.82 30.0301 41.565V40.035H30.9601V41.745C30.9601 41.805 30.9601 41.865 30.9451 41.91H31.3651H31.7551C31.8151 41.91 31.9051 41.91 32.0251 41.91C32.3401 41.88 32.5051 41.715 32.5501 41.415V38.55H32.5801ZM19.5151 40.695C19.6801 40.62 19.8751 40.575 20.0851 40.575C20.3251 40.575 20.5501 40.62 20.7601 40.725C20.5051 40.95 20.3101 41.13 20.1751 41.25C19.9951 40.965 19.7851 40.77 19.5151 40.695ZM14.6101 40.545C14.6401 40.545 14.6701 40.53 14.7001 40.53C15.0151 40.53 15.2251 40.71 15.3151 41.055C15.3451 41.145 15.3601 41.22 15.3601 41.295C15.3601 41.475 15.3001 41.64 15.1651 41.79C15.0751 41.895 14.9851 41.955 14.9101 41.985C14.8501 42 14.7601 42.015 14.6551 42.015C14.3401 42.015 14.1151 41.895 14.0101 41.64C13.9501 41.52 13.9351 41.4 13.9351 41.28C13.9351 41.145 13.9651 41.01 14.0401 40.89C14.1001 40.785 14.1751 40.71 14.2651 40.665C14.3851 40.59 14.5051 40.545 14.6101 40.545ZM9.81012 40.05C9.90012 40.035 9.99012 40.035 10.0801 40.035C10.4701 40.035 10.8451 40.095 11.1901 40.2C11.4901 40.305 11.7301 40.44 11.9101 40.59C12.0451 40.71 12.1651 40.875 12.2701 41.085C12.3151 41.19 12.3601 41.34 12.4051 41.55C12.4351 41.715 12.4501 41.82 12.4501 41.88V42.66H9.01512V41.91H11.5351C11.5501 41.865 11.5501 41.805 11.5501 41.745C11.5501 41.565 11.4901 41.385 11.3851 41.235C11.1751 40.965 10.9201 40.8 10.5901 40.74C10.4401 40.71 10.2601 40.695 10.0351 40.695C9.96012 40.695 9.88512 40.695 9.79512 40.695V40.05H9.81012ZM4.90512 42.66H4.39512H4.20012C3.84012 42.66 3.52512 42.585 3.28512 42.435C3.01512 42.255 2.85012 42.075 2.76012 41.865C2.59512 41.97 2.46012 42.03 2.38512 42.075C2.25012 42.15 2.02512 42.195 1.71012 42.195C1.38012 42.195 1.09512 42.135 0.840117 42.03C0.585117 41.925 0.405117 41.745 0.285117 41.505C0.180117 41.295 0.120117 41.055 0.120117 40.785C0.120117 40.62 0.150117 40.47 0.195117 40.32C0.285117 40.05 0.435116 39.81 0.630116 39.63C0.750116 39.525 0.945117 39.405 1.18512 39.27C1.47012 39.15 1.84512 39.09 2.31012 39.105H3.72012L3.73512 40.89C3.72012 40.89 3.72012 41.025 3.73512 41.31C3.78012 41.685 3.96012 41.88 4.29012 41.895H4.42512H4.93512H6.01512H6.31512H7.02012C7.32012 41.91 7.48512 41.79 7.48512 41.535V41.13V40.005H8.40012V41.715C8.40012 42.09 8.23512 42.36 7.90512 42.51C7.77012 42.57 7.60512 42.615 7.41012 42.63H6.30012H6.00012H4.90512V42.66ZM7.48512 43.065H8.26512V43.665H7.48512V43.065ZM2.71512 39.675C2.40012 39.66 2.16012 39.675 1.98012 39.705C1.62012 39.78 1.38012 39.93 1.27512 40.155C1.20012 40.32 1.15512 40.485 1.15512 40.68C1.15512 40.845 1.18512 40.995 1.26012 41.115C1.33512 41.25 1.44012 41.37 1.59012 41.445C1.74012 41.535 1.89012 41.58 2.02512 41.565C2.26512 41.535 2.46012 41.415 2.59512 41.22C2.68512 41.085 2.73012 40.92 2.73012 40.71C2.71512 40.635 2.71512 40.305 2.71512 39.675ZM1.29012 38.145H2.07012V38.745H1.29012V38.145ZM2.59512 38.145H3.37512V38.745H2.59512V38.145Z" fill="#00574A"/>
<path d="M2.625 46.6498L2.565 47.5798C2.4 47.5048 2.25 47.4448 2.085 47.3998C1.935 47.3548 1.785 47.3398 1.65 47.3398C1.44 47.3398 1.29 47.3848 1.185 47.4748C1.08 47.5648 1.02 47.6998 1.02 47.8648C1.02 48.0148 1.065 48.1498 1.155 48.2548C1.245 48.3598 1.44 48.4948 1.725 48.6448C2.205 48.8998 2.52 49.1398 2.655 49.3648C2.79 49.5748 2.865 49.8598 2.865 50.2198C2.865 50.7148 2.715 51.1198 2.43 51.4048C2.13 51.6898 1.74 51.8398 1.23 51.8398C1.05 51.8398 0.87 51.8248 0.675 51.7798C0.48 51.7348 0.27 51.6898 0.0450005 51.6148L0.12 50.6848C0.315 50.7898 0.495 50.8648 0.675 50.9248C0.855 50.9698 1.02 50.9998 1.17 50.9998C1.38 50.9998 1.545 50.9398 1.665 50.8348C1.785 50.7298 1.845 50.5798 1.845 50.3848C1.845 50.1148 1.605 49.8448 1.11 49.5598C1.05 49.5298 1.005 49.4998 0.975 49.4848C0.585 49.2598 0.33 49.0498 0.195 48.8398C0.0600005 48.6298 0 48.3598 0 48.0448C0 47.5648 0.135 47.1748 0.42 46.8898C0.705 46.6048 1.095 46.4698 1.605 46.4698C1.755 46.4698 1.92 46.4848 2.085 46.5148C2.265 46.5448 2.445 46.5898 2.625 46.6498ZM6.3 49.9498C6.255 49.9498 6.21 49.9348 6.165 49.9348C6.12 49.9348 6.06 49.9348 6 49.9348C5.76 49.9348 5.58 49.9798 5.46 50.0848C5.34 50.1898 5.28 50.3398 5.28 50.5348C5.28 50.6998 5.325 50.8198 5.4 50.9098C5.475 50.9998 5.595 51.0448 5.73 51.0448C5.925 51.0448 6.075 50.9698 6.165 50.8348C6.255 50.6848 6.3 50.4598 6.3 50.1598V49.9498ZM7.29 49.5448V50.9698C7.29 51.1348 7.29 51.2848 7.305 51.4048C7.305 51.5248 7.32 51.6448 7.335 51.7648H6.39L6.345 51.2698C6.21 51.4648 6.06 51.6148 5.895 51.7048C5.73 51.7948 5.535 51.8548 5.325 51.8548C5.025 51.8548 4.785 51.7498 4.605 51.5248C4.425 51.2998 4.335 51.0148 4.335 50.6548C4.335 50.2198 4.47 49.8898 4.755 49.6648C5.04 49.4398 5.445 49.3198 5.97 49.3198H6.3V49.2148C6.3 49.0048 6.24 48.8548 6.135 48.7498C6.015 48.6448 5.85 48.5848 5.64 48.5848C5.49 48.5848 5.325 48.6148 5.175 48.6748C5.025 48.7348 4.875 48.8248 4.74 48.9448L4.695 48.0748C4.905 47.9848 5.115 47.9248 5.31 47.8798C5.505 47.8348 5.7 47.8198 5.88 47.8198C6.405 47.8198 6.765 47.9398 6.975 48.1948C7.185 48.4198 7.29 48.8848 7.29 49.5448ZM9.12 47.8948H10.125V50.2948C10.125 50.5048 10.155 50.6548 10.215 50.7598C10.275 50.8648 10.38 50.9098 10.515 50.9098C10.665 50.9098 10.785 50.8348 10.86 50.6998C10.935 50.5648 10.98 50.3698 10.98 50.0998V47.8948H11.985V50.9398C11.985 51.1648 11.985 51.3448 12 51.4498C12 51.5698 12.015 51.6748 12.03 51.7648H11.1C11.085 51.6598 11.085 51.5548 11.07 51.4648C11.07 51.3748 11.055 51.2698 11.055 51.1798C10.98 51.3898 10.845 51.5548 10.68 51.6748C10.515 51.7948 10.32 51.8548 10.095 51.8548C9.78 51.8548 9.525 51.7498 9.36 51.5248C9.195 51.2998 9.12 50.9848 9.12 50.5498V47.8948ZM15.81 49.6648C15.81 49.3498 15.765 49.1098 15.675 48.9298C15.585 48.7498 15.45 48.6748 15.285 48.6748C15.12 48.6748 14.985 48.7798 14.895 48.9748C14.805 49.1698 14.76 49.4548 14.76 49.8448C14.76 50.2348 14.805 50.5198 14.895 50.7148C14.985 50.9098 15.105 50.9998 15.285 50.9998C15.45 50.9998 15.585 50.9098 15.675 50.7448C15.765 50.5798 15.81 50.3248 15.81 50.0098V49.6648ZM15.81 46.1548H16.815V51.7648H15.87C15.855 51.6748 15.855 51.5848 15.855 51.4798C15.855 51.3748 15.855 51.2698 15.855 51.1648C15.75 51.4048 15.615 51.5698 15.465 51.6748C15.315 51.7948 15.135 51.8398 14.925 51.8398C14.535 51.8398 14.235 51.6598 14.025 51.3148C13.815 50.9698 13.71 50.4598 13.71 49.8148C13.71 49.1548 13.815 48.6448 14.025 48.2998C14.235 47.9548 14.535 47.7898 14.94 47.7898C15.135 47.7898 15.3 47.8348 15.435 47.9398C15.57 48.0298 15.705 48.1948 15.825 48.4198V46.1548H15.81ZM18.705 47.8948H19.71V51.7798H18.705V47.8948ZM18.705 46.2148H19.71V47.2348H18.705V46.2148ZM26.055 47.5948L25.5 49.7098H26.535L26.055 47.5948ZM25.455 46.5748H26.685L28.11 51.7798H27.015L26.745 50.6248H25.26L24.975 51.7798H23.94L25.455 46.5748ZM31.515 47.8198V48.8548C31.515 48.8548 31.5 48.8548 31.47 48.8548C31.365 48.8248 31.305 48.8248 31.275 48.8248C31.02 48.8248 30.84 48.9148 30.72 49.0798C30.6 49.2448 30.54 49.5298 30.54 49.9048V51.7648H29.55V48.7198C29.55 48.4948 29.55 48.3298 29.535 48.2098C29.535 48.0898 29.52 47.9848 29.505 47.8798H30.42C30.42 47.8948 30.42 47.9098 30.42 47.9248C30.435 48.1648 30.45 48.3298 30.45 48.4348V48.5548C30.525 48.3148 30.645 48.1348 30.795 47.9998C30.96 47.8648 31.14 47.7898 31.335 47.7898C31.365 47.7898 31.425 47.7898 31.485 47.8048C31.515 47.8198 31.515 47.8198 31.515 47.8198ZM34.725 49.9498C34.68 49.9498 34.635 49.9348 34.59 49.9348C34.545 49.9348 34.485 49.9348 34.425 49.9348C34.185 49.9348 34.005 49.9798 33.885 50.0848C33.765 50.1898 33.705 50.3398 33.705 50.5348C33.705 50.6998 33.75 50.8198 33.825 50.9098C33.9 50.9998 34.02 51.0448 34.155 51.0448C34.35 51.0448 34.5 50.9698 34.59 50.8348C34.68 50.6848 34.725 50.4598 34.725 50.1598V49.9498ZM35.715 49.5448V50.9698C35.715 51.1348 35.715 51.2848 35.73 51.4048C35.73 51.5248 35.745 51.6448 35.76 51.7648H34.815L34.77 51.2698C34.635 51.4648 34.485 51.6148 34.32 51.7048C34.155 51.7948 33.96 51.8548 33.75 51.8548C33.45 51.8548 33.21 51.7498 33.03 51.5248C32.85 51.2998 32.76 51.0148 32.76 50.6548C32.76 50.2198 32.895 49.8898 33.18 49.6648C33.465 49.4398 33.87 49.3198 34.395 49.3198H34.725V49.2148C34.725 49.0048 34.665 48.8548 34.56 48.7498C34.44 48.6448 34.275 48.5848 34.065 48.5848C33.915 48.5848 33.75 48.6148 33.6 48.6748C33.45 48.7348 33.3 48.8248 33.165 48.9448L33.12 48.0748C33.33 47.9848 33.54 47.9248 33.735 47.8798C33.93 47.8348 34.125 47.8198 34.305 47.8198C34.83 47.8198 35.19 47.9398 35.4 48.1948C35.61 48.4198 35.715 48.8848 35.715 49.5448ZM38.595 50.0098C38.595 50.3248 38.64 50.5648 38.73 50.7448C38.82 50.9098 38.955 50.9998 39.12 50.9998C39.285 50.9998 39.42 50.9098 39.51 50.7148C39.6 50.5198 39.645 50.2348 39.645 49.8448C39.645 49.4698 39.6 49.1698 39.51 48.9748C39.42 48.7798 39.285 48.6748 39.12 48.6748C38.955 48.6748 38.82 48.7648 38.73 48.9298C38.64 49.0948 38.595 49.3498 38.595 49.6648V50.0098ZM37.575 46.1548H38.58V48.4348C38.7 48.2098 38.82 48.0598 38.97 47.9548C39.105 47.8648 39.27 47.8048 39.465 47.8048C39.87 47.8048 40.17 47.9698 40.38 48.3148C40.59 48.6598 40.695 49.1548 40.695 49.8298C40.695 50.4898 40.59 50.9848 40.38 51.3298C40.17 51.6748 39.87 51.8548 39.48 51.8548C39.27 51.8548 39.09 51.7948 38.94 51.6898C38.79 51.5848 38.655 51.4048 38.55 51.1798C38.55 51.3448 38.535 51.4648 38.535 51.5548C38.535 51.6448 38.52 51.7198 38.52 51.7798H37.575V46.1548ZM42.405 47.8948H43.41V51.7798H42.405V47.8948ZM42.405 46.2148H43.41V47.2348H42.405V46.2148ZM47.01 49.9498C46.965 49.9498 46.92 49.9348 46.875 49.9348C46.83 49.9348 46.77 49.9348 46.71 49.9348C46.47 49.9348 46.29 49.9798 46.17 50.0848C46.05 50.1898 45.99 50.3398 45.99 50.5348C45.99 50.6998 46.035 50.8198 46.11 50.9098C46.185 50.9998 46.305 51.0448 46.44 51.0448C46.635 51.0448 46.785 50.9698 46.875 50.8348C46.965 50.6848 47.01 50.4598 47.01 50.1598V49.9498ZM48 49.5448V50.9698C48 51.1348 48 51.2848 48.015 51.4048C48.015 51.5248 48.03 51.6448 48.045 51.7648H47.1L47.055 51.2698C46.92 51.4648 46.77 51.6148 46.605 51.7048C46.44 51.7948 46.245 51.8548 46.035 51.8548C45.735 51.8548 45.495 51.7498 45.315 51.5248C45.135 51.2998 45.045 51.0148 45.045 50.6548C45.045 50.2198 45.18 49.8898 45.465 49.6648C45.75 49.4398 46.155 49.3198 46.68 49.3198H47.01V49.2148C47.01 49.0048 46.95 48.8548 46.845 48.7498C46.725 48.6448 46.56 48.5848 46.35 48.5848C46.2 48.5848 46.035 48.6148 45.885 48.6748C45.735 48.7348 45.585 48.8248 45.45 48.9448L45.405 48.0748C45.615 47.9848 45.825 47.9248 46.02 47.8798C46.215 47.8348 46.41 47.8198 46.59 47.8198C47.115 47.8198 47.475 47.9398 47.685 48.1948C47.895 48.4198 48 48.8848 48 49.5448ZM52.725 49.1248V51.7798H51.705V49.3798C51.705 49.1698 51.675 49.0198 51.615 48.9148C51.555 48.8098 51.45 48.7648 51.33 48.7648C51.18 48.7648 51.06 48.8398 50.985 48.9748C50.91 49.1098 50.865 49.3048 50.865 49.5748V51.7798H49.86V48.7348C49.86 48.5098 49.86 48.3448 49.845 48.2248C49.845 48.1048 49.83 47.9998 49.815 47.8948H50.73C50.745 48.0148 50.745 48.1198 50.76 48.2098C50.76 48.2998 50.775 48.3898 50.775 48.4798C50.85 48.2698 50.985 48.1048 51.15 47.9848C51.33 47.8648 51.525 47.8048 51.735 47.8048C52.05 47.8048 52.29 47.9098 52.455 48.1348C52.65 48.3598 52.725 48.6898 52.725 49.1248ZM57.465 46.5748H58.95L59.775 50.0548L60.615 46.5748H62.115V51.7798H61.17V47.4598L60.09 51.7798H59.43L58.335 47.4598V51.7798H57.435V46.5748H57.465ZM64.05 47.8948H65.055V51.7798H64.05V47.8948ZM64.05 46.2148H65.055V47.2348H64.05V46.2148ZM69.825 49.1248V51.7798H68.805V49.3798C68.805 49.1698 68.775 49.0198 68.715 48.9148C68.655 48.8098 68.55 48.7648 68.43 48.7648C68.28 48.7648 68.16 48.8398 68.085 48.9748C68.01 49.1098 67.965 49.3048 67.965 49.5748V51.7798H66.96V48.7348C66.96 48.5098 66.96 48.3448 66.945 48.2248C66.945 48.1048 66.93 47.9998 66.915 47.8948H67.83C67.845 48.0148 67.845 48.1198 67.86 48.2098C67.86 48.2998 67.875 48.3898 67.875 48.4798C67.95 48.2698 68.085 48.1048 68.25 47.9848C68.43 47.8648 68.625 47.8048 68.835 47.8048C69.15 47.8048 69.39 47.9098 69.555 48.1348C69.735 48.3598 69.825 48.6898 69.825 49.1248ZM71.67 47.8948H72.675V51.7798H71.67V47.8948ZM71.67 46.2148H72.675V47.2348H71.67V46.2148ZM77.43 49.1248V51.7798H76.41V49.3798C76.41 49.1698 76.38 49.0198 76.32 48.9148C76.26 48.8098 76.155 48.7648 76.035 48.7648C75.885 48.7648 75.765 48.8398 75.69 48.9748C75.615 49.1098 75.57 49.3048 75.57 49.5748V51.7798H74.565V48.7348C74.565 48.5098 74.565 48.3448 74.55 48.2248C74.55 48.1048 74.535 47.9998 74.52 47.8948H75.435C75.45 48.0148 75.45 48.1198 75.465 48.2098C75.465 48.2998 75.48 48.3898 75.48 48.4798C75.555 48.2698 75.69 48.1048 75.855 47.9848C76.035 47.8648 76.23 47.8048 76.44 47.8048C76.755 47.8048 76.995 47.9098 77.16 48.1348C77.355 48.3598 77.43 48.6898 77.43 49.1248ZM81.225 49.6198C81.225 49.3198 81.18 49.0798 81.09 48.9148C81 48.7498 80.865 48.6598 80.7 48.6598C80.535 48.6598 80.4 48.7498 80.31 48.9448C80.22 49.1248 80.175 49.4098 80.175 49.7548C80.175 50.1298 80.22 50.4298 80.31 50.6098C80.4 50.8048 80.52 50.8948 80.7 50.8948C80.865 50.8948 80.985 50.8048 81.075 50.6398C81.165 50.4748 81.21 50.2348 81.21 49.9348V49.6198H81.225ZM81.255 48.4948C81.255 48.3898 81.255 48.2998 81.255 48.1948C81.255 48.0898 81.27 47.9998 81.27 47.8948H82.245V47.9248C82.23 48.4798 82.215 48.7948 82.215 48.8998V51.0598C82.215 51.6148 82.185 52.0048 82.14 52.2148C82.095 52.4398 82.005 52.6348 81.885 52.8148C81.735 53.0248 81.555 53.1748 81.315 53.2798C81.075 53.3848 80.79 53.4298 80.46 53.4298C80.25 53.4298 80.055 53.4148 79.845 53.3698C79.65 53.3398 79.44 53.2798 79.26 53.2048L79.305 52.2748C79.455 52.3798 79.62 52.4548 79.785 52.4998C79.965 52.5448 80.13 52.5748 80.31 52.5748C80.625 52.5748 80.85 52.4848 80.985 52.3048C81.12 52.1248 81.195 51.8248 81.195 51.4048C81.195 51.3448 81.195 51.2998 81.195 51.2698C81.195 51.2398 81.195 51.2098 81.195 51.1798C81.075 51.3898 80.955 51.5398 80.82 51.6298C80.685 51.7198 80.505 51.7648 80.31 51.7648C79.905 51.7648 79.605 51.5998 79.395 51.2548C79.185 50.9248 79.095 50.4148 79.095 49.7548C79.095 49.1398 79.2 48.6598 79.41 48.3148C79.62 47.9698 79.92 47.8048 80.295 47.8048C80.505 47.8048 80.685 47.8648 80.85 47.9698C81.03 48.0898 81.15 48.2548 81.255 48.4948ZM90.045 46.7248L90 47.6998C89.865 47.6098 89.715 47.5348 89.58 47.4898C89.445 47.4448 89.295 47.4298 89.115 47.4298C88.725 47.4298 88.425 47.5798 88.23 47.8798C88.02 48.1798 87.915 48.6148 87.915 49.1698C87.915 49.7398 88.02 50.1748 88.245 50.4748C88.455 50.7748 88.77 50.9398 89.16 50.9398C89.31 50.9398 89.445 50.9098 89.595 50.8648C89.73 50.8198 89.88 50.7448 90.03 50.6398L90.075 51.6448C89.91 51.7198 89.745 51.7798 89.565 51.8098C89.385 51.8398 89.19 51.8698 88.995 51.8698C88.32 51.8698 87.795 51.6298 87.39 51.1348C87 50.6548 86.79 49.9948 86.79 49.1698C86.79 48.3598 86.985 47.6998 87.375 47.2198C87.765 46.7248 88.29 46.4848 88.95 46.4848C89.13 46.4848 89.31 46.4998 89.49 46.5448C89.67 46.5898 89.865 46.6498 90.045 46.7248ZM93.15 48.6298C92.985 48.6298 92.85 48.7348 92.76 48.9448C92.67 49.1548 92.625 49.4548 92.625 49.8448C92.625 50.2348 92.67 50.5198 92.76 50.7298C92.85 50.9398 92.985 51.0448 93.15 51.0448C93.315 51.0448 93.45 50.9398 93.54 50.7298C93.63 50.5198 93.675 50.2198 93.675 49.8298C93.675 49.4398 93.63 49.1398 93.54 48.9298C93.45 48.7348 93.315 48.6298 93.15 48.6298ZM93.15 47.8048C93.66 47.8048 94.05 47.9848 94.335 48.3298C94.605 48.6748 94.74 49.1848 94.74 49.8298C94.74 50.4748 94.605 50.9698 94.32 51.3298C94.05 51.6748 93.645 51.8548 93.15 51.8548C92.64 51.8548 92.25 51.6748 91.98 51.3298C91.71 50.9698 91.56 50.4748 91.56 49.8298C91.56 49.1848 91.695 48.6748 91.965 48.3298C92.25 47.9848 92.64 47.8048 93.15 47.8048ZM99.21 48.4498C99.3 48.2398 99.42 48.0898 99.585 47.9698C99.75 47.8648 99.945 47.8048 100.17 47.8048C100.47 47.8048 100.71 47.9098 100.86 48.1348C101.025 48.3598 101.1 48.6898 101.1 49.1098V51.7648H100.08V49.3648C100.08 49.1548 100.05 49.0048 99.99 48.8998C99.93 48.7948 99.84 48.7498 99.72 48.7498C99.57 48.7498 99.45 48.8098 99.375 48.9598C99.3 49.0948 99.255 49.2898 99.255 49.5598V51.7648H98.25V49.3648C98.25 49.1548 98.22 49.0048 98.16 48.8998C98.1 48.7948 98.01 48.7498 97.875 48.7498C97.725 48.7498 97.62 48.8098 97.545 48.9598C97.47 49.0948 97.425 49.2898 97.425 49.5598V51.7648H96.45V48.7198C96.45 48.4948 96.45 48.3298 96.435 48.2098C96.435 48.0898 96.42 47.9848 96.405 47.8798H97.32C97.335 47.9998 97.335 48.1048 97.35 48.1948C97.35 48.2848 97.365 48.3748 97.365 48.4648C97.44 48.2548 97.56 48.0898 97.725 47.9698C97.89 47.8498 98.07 47.7898 98.28 47.7898C98.505 47.7898 98.685 47.8498 98.835 47.9548C99.015 48.0748 99.135 48.2398 99.21 48.4498ZM103.98 51.2398V53.3998H102.975V48.8848C102.975 48.8548 102.975 48.6748 102.96 48.3748C102.96 48.1798 102.945 48.0148 102.945 47.8798H103.92C103.92 47.9398 103.935 48.0148 103.935 48.1048C103.935 48.1948 103.95 48.3148 103.95 48.4798C104.055 48.2548 104.19 48.0748 104.34 47.9698C104.49 47.8648 104.67 47.8048 104.88 47.8048C105.27 47.8048 105.57 47.9848 105.78 48.3298C105.99 48.6748 106.095 49.1848 106.095 49.8298C106.095 50.4898 105.99 50.9998 105.78 51.3448C105.57 51.6898 105.27 51.8548 104.865 51.8548C104.67 51.8548 104.505 51.8098 104.37 51.7048C104.22 51.6148 104.1 51.4648 103.98 51.2398ZM103.98 49.9948C103.98 50.3098 104.025 50.5498 104.115 50.7298C104.205 50.8948 104.34 50.9848 104.505 50.9848C104.67 50.9848 104.805 50.8948 104.895 50.6998C104.985 50.5048 105.03 50.2198 105.03 49.8448C105.03 49.4548 104.985 49.1698 104.895 48.9748C104.805 48.7798 104.685 48.6748 104.505 48.6748C104.34 48.6748 104.205 48.7648 104.115 48.9298C104.025 49.1098 103.98 49.3498 103.98 49.6648V49.9948ZM109.515 49.9498C109.47 49.9498 109.425 49.9348 109.38 49.9348C109.335 49.9348 109.275 49.9348 109.215 49.9348C108.975 49.9348 108.795 49.9798 108.675 50.0848C108.555 50.1898 108.495 50.3398 108.495 50.5348C108.495 50.6998 108.54 50.8198 108.615 50.9098C108.69 50.9998 108.81 51.0448 108.945 51.0448C109.14 51.0448 109.29 50.9698 109.38 50.8348C109.47 50.6848 109.515 50.4598 109.515 50.1598V49.9498ZM110.505 49.5448V50.9698C110.505 51.1348 110.505 51.2848 110.52 51.4048C110.52 51.5248 110.535 51.6448 110.55 51.7648H109.605L109.56 51.2698C109.425 51.4648 109.275 51.6148 109.11 51.7048C108.945 51.7948 108.75 51.8548 108.54 51.8548C108.24 51.8548 108 51.7498 107.82 51.5248C107.64 51.2998 107.55 51.0148 107.55 50.6548C107.55 50.2198 107.685 49.8898 107.97 49.6648C108.255 49.4398 108.66 49.3198 109.185 49.3198H109.515V49.2148C109.515 49.0048 109.455 48.8548 109.35 48.7498C109.23 48.6448 109.065 48.5848 108.855 48.5848C108.705 48.5848 108.54 48.6148 108.39 48.6748C108.24 48.7348 108.09 48.8248 107.955 48.9448L107.91 48.0748C108.12 47.9848 108.33 47.9248 108.525 47.8798C108.72 47.8348 108.915 47.8198 109.095 47.8198C109.62 47.8198 109.98 47.9398 110.19 48.1948C110.4 48.4198 110.505 48.8848 110.505 49.5448ZM115.23 49.1248V51.7798H114.21V49.3798C114.21 49.1698 114.18 49.0198 114.12 48.9148C114.06 48.8098 113.955 48.7648 113.835 48.7648C113.685 48.7648 113.565 48.8398 113.49 48.9748C113.415 49.1098 113.37 49.3048 113.37 49.5748V51.7798H112.365V48.7348C112.365 48.5098 112.365 48.3448 112.35 48.2248C112.35 48.1048 112.335 47.9998 112.32 47.8948H113.235C113.25 48.0148 113.25 48.1198 113.265 48.2098C113.265 48.2998 113.28 48.3898 113.28 48.4798C113.355 48.2698 113.49 48.1048 113.655 47.9848C113.835 47.8648 114.03 47.8048 114.24 47.8048C114.555 47.8048 114.795 47.9098 114.96 48.1348C115.155 48.3598 115.23 48.6898 115.23 49.1248ZM116.715 47.8948H117.795L118.44 50.7298L119.055 47.8948H120.045L118.89 52.0198C118.725 52.5898 118.56 52.9648 118.365 53.1598C118.185 53.3548 117.915 53.4448 117.57 53.4448C117.465 53.4448 117.36 53.4298 117.27 53.4148C117.18 53.3998 117.09 53.3848 116.985 53.3398L117.06 52.4998C117.12 52.5148 117.165 52.5298 117.21 52.5448C117.255 52.5598 117.285 52.5598 117.315 52.5598C117.465 52.5598 117.585 52.5148 117.675 52.4398C117.765 52.3648 117.825 52.2298 117.87 52.0648L117.915 51.8998L116.715 47.8948Z" fill="#00574A"/>
</svg>
