<svg width="118" height="36" viewBox="0 0 118 36" fill="none" xmlns="http://www.w3.org/2000/svg">
<path d="M2.17496 0.135118V9.51012C2.17496 11.7601 3.08996 12.8551 5.12996 12.8551H7.01996V14.6851H4.82996C2.02496 14.6851 0.209961 12.7351 0.209961 9.97512V0.120117H2.17496V0.135118Z" fill="#8FC85C"/>
<path d="M12.315 0.134766H10.365V14.6998H12.315V0.134766Z" fill="#8FC85C"/>
<path d="M16.7251 14.7001V1.80014C16.7251 0.51014 17.4751 0.0151367 18.4351 0.0151367C19.5601 0.0151367 19.9351 0.675139 20.6551 2.16014L25.3351 11.8351H25.3801V0.15014H27.3301V13.4401C27.3301 14.2351 26.8501 14.8351 25.8301 14.8351C24.9001 14.8351 24.4501 14.5501 23.8951 13.4251L18.7201 2.77514H18.6751V14.7151H16.7251V14.7001Z" fill="#8FC85C"/>
<path d="M39.9749 8.0849H32.9399C33.1049 10.8299 35.5349 12.8699 38.0849 12.8699H39.9749V14.6999H38.4299C34.0649 14.6999 30.8999 11.5349 30.8999 7.4249C30.8999 3.3149 34.0649 0.149902 38.4299 0.149902H39.9749V1.9799H38.6699C34.8599 1.9799 33.0299 4.8149 32.9549 6.2699H39.9899V8.0849H39.9749Z" fill="#8FC85C"/>
<path d="M2.17496 0.135118V9.51012C2.17496 11.7601 3.08996 12.8551 5.12996 12.8551H7.01996V14.6851H4.82996C2.02496 14.6851 0.209961 12.7351 0.209961 9.97512V0.120117H2.17496V0.135118Z" fill="#006BB6"/>
<path d="M12.315 0.134766H10.365V14.6998H12.315V0.134766Z" fill="#006BB6"/>
<path d="M16.7251 14.7001V1.80014C16.7251 0.51014 17.4751 0.0151367 18.4351 0.0151367C19.5601 0.0151367 19.9351 0.675139 20.6551 2.16014L25.3351 11.8351H25.3801V0.15014H27.3301V13.4401C27.3301 14.2351 26.8501 14.8351 25.8301 14.8351C24.9001 14.8351 24.4501 14.5501 23.8951 13.4251L18.7201 2.77514H18.6751V14.7151H16.7251V14.7001Z" fill="#006BB6"/>
<path d="M39.9749 8.0849H32.9399C33.1049 10.8299 35.5349 12.8699 38.0849 12.8699H39.9749V14.6999H38.4299C34.0649 14.6999 30.8999 11.5349 30.8999 7.4249C30.8999 3.3149 34.0649 0.149902 38.4299 0.149902H39.9749V1.9799H38.6699C34.8599 1.9799 33.0299 4.8149 32.9549 6.2699H39.9899V8.0849H39.9749Z" fill="#006BB6"/>
<path d="M0.0449219 18.1348H0.359922H0.674921V21.1198H0.359922H0.0449219V18.1348Z" fill="#8E979D"/>
<path d="M2.87992 21.1198H2.57992H2.29492V18.1348H2.62492H2.95492L4.15492 20.2348V18.1348H4.43992H4.72492V21.1198H4.42492H4.10992L2.87992 18.9748V21.1198Z" fill="#8E979D"/>
<path d="M6.16504 18.1348H6.49504H6.82504L7.48504 20.4148L8.13004 18.1348H8.46004H8.77504L7.77004 21.1198H7.47004H7.17004L6.16504 18.1348Z" fill="#8E979D"/>
<path d="M10.2451 21.1198V18.1348H12.4501V18.4048V18.6748H10.8751V19.3048H12.3301V19.5598V19.8148H10.8751V20.5948H12.5251V20.8648V21.1198H10.2451Z" fill="#8E979D"/>
<path d="M15.705 19.0351C15.69 18.9001 15.63 18.7801 15.51 18.6901C15.39 18.6001 15.255 18.5551 15.06 18.5551C14.895 18.5551 14.775 18.5851 14.685 18.6601C14.595 18.7351 14.55 18.8251 14.55 18.9601C14.55 19.0501 14.595 19.1251 14.685 19.1701C14.775 19.2151 14.97 19.2751 15.27 19.3501C15.705 19.4401 15.99 19.5601 16.14 19.6951C16.29 19.8151 16.365 20.0251 16.365 20.2951C16.365 20.5801 16.26 20.7901 16.035 20.9701C15.81 21.1351 15.51 21.2101 15.135 21.2101C14.76 21.2101 14.46 21.1201 14.25 20.9551C14.04 20.7751 13.92 20.5351 13.905 20.2051H14.505C14.505 20.3551 14.565 20.4901 14.67 20.5651C14.775 20.6551 14.925 20.7001 15.12 20.7001C15.315 20.7001 15.48 20.6701 15.585 20.6101C15.705 20.5501 15.75 20.4601 15.75 20.3401C15.75 20.2351 15.705 20.1451 15.63 20.0851C15.555 20.0251 15.39 19.9801 15.135 19.9201C14.655 19.8151 14.34 19.6951 14.19 19.5751C14.025 19.4551 13.95 19.2601 13.95 19.0051C13.95 18.7201 14.055 18.4801 14.265 18.3151C14.475 18.1501 14.76 18.0601 15.12 18.0601C15.45 18.0601 15.72 18.1501 15.93 18.3301C16.14 18.5101 16.26 18.7501 16.275 19.0501H15.705V19.0351Z" fill="#8E979D"/>
<path d="M18.5851 18.6598H17.6851V18.4048V18.1348H20.1151V18.4048V18.6598H19.2001V21.1198H18.9001H18.5851V18.6598Z" fill="#8E979D"/>
<path d="M22.095 21.1198H21.81H21.51V18.1348H21.975H22.425L22.98 20.5048L23.52 18.1348H23.97H24.42V21.1198H24.12H23.835V18.6148L23.265 21.1198H22.965H22.665L22.095 18.5548V21.1198Z" fill="#8E979D"/>
<path d="M26.085 21.1198V18.1348H28.29V18.4048V18.6748H26.715V19.3048H28.17V19.5598V19.8148H26.715V20.5948H28.35V20.8648V21.1198H26.085Z" fill="#8E979D"/>
<path d="M30.48 21.1198H30.195H29.895V18.1348H30.225H30.555L31.755 20.2348V18.1348H32.04H32.34V21.1198H32.025H31.71L30.48 18.9748V21.1198Z" fill="#8E979D"/>
<path d="M34.65 18.6598H33.75V18.4048V18.1348H36.18V18.4048V18.6598H35.28V21.1198H34.965H34.65V18.6598Z" fill="#8E979D"/>
<path d="M39.2401 19.0351C39.2251 18.9001 39.1651 18.7801 39.0601 18.6901C38.9401 18.6001 38.7901 18.5551 38.6101 18.5551C38.4451 18.5551 38.3251 18.5851 38.2351 18.6601C38.1451 18.7351 38.1001 18.8251 38.1001 18.9601C38.1001 19.0501 38.1451 19.1251 38.2351 19.1701C38.3251 19.2151 38.5201 19.2751 38.8201 19.3501C39.2551 19.4401 39.5401 19.5601 39.6901 19.6951C39.8401 19.8151 39.9151 20.0251 39.9151 20.2951C39.9151 20.5801 39.8101 20.7901 39.5851 20.9701C39.3601 21.1351 39.0751 21.2101 38.6851 21.2101C38.2951 21.2101 38.0101 21.1201 37.8001 20.9551C37.5901 20.7751 37.4701 20.5351 37.4551 20.2051H38.0551C38.0701 20.3551 38.1151 20.4901 38.2201 20.5651C38.3251 20.6551 38.4751 20.7001 38.6701 20.7001C38.8651 20.7001 39.0301 20.6701 39.1351 20.6101C39.2551 20.5501 39.3001 20.4601 39.3001 20.3401C39.3001 20.2351 39.2551 20.1451 39.1801 20.0851C39.1051 20.0251 38.9401 19.9801 38.6701 19.9201C38.2051 19.8151 37.8751 19.6951 37.7251 19.5751C37.5601 19.4551 37.4851 19.2601 37.4851 19.0051C37.4851 18.7201 37.5901 18.4801 37.8001 18.3151C38.0101 18.1501 38.2951 18.0601 38.6551 18.0601C38.9851 18.0601 39.2551 18.1501 39.4801 18.3301C39.6901 18.5101 39.8101 18.7501 39.8251 19.0501H39.2401V19.0351Z" fill="#8E979D"/>
<path d="M0.39 23.8499C0.39 23.6249 0.465 23.4599 0.6 23.3249C0.735 23.1899 0.93 23.1299 1.17 23.1299C1.395 23.1299 1.575 23.1899 1.695 23.3249C1.83 23.4449 1.89 23.6249 1.89 23.8349C1.89 23.9999 1.83 24.1349 1.725 24.2699C1.65 24.3599 1.53 24.4499 1.395 24.5399L1.845 25.0799L1.89 25.0049C1.95 24.8549 1.995 24.7199 2.01 24.5699H2.52C2.505 24.7649 2.445 24.9749 2.34 25.1849C2.295 25.2899 2.235 25.3949 2.175 25.4849L2.715 26.1299H2.01L1.8 25.8899C1.695 25.9949 1.59 26.0549 1.485 26.0999C1.35 26.1599 1.17 26.1899 0.945 26.1899C0.66 26.1899 0.420001 26.1149 0.255001 25.9649C0.0900007 25.8149 0 25.6049 0 25.3499C0 25.1249 0.0600005 24.9449 0.195 24.7949C0.285 24.6899 0.435001 24.5699 0.630001 24.4499L0.615 24.4349C0.54 24.3449 0.48 24.2549 0.435 24.1499C0.405 24.0299 0.39 23.9399 0.39 23.8499ZM1.035 25.7099C1.125 25.7099 1.23 25.6799 1.32 25.6349C1.38 25.6049 1.44 25.5599 1.5 25.4999L1.32 25.2749L0.945 24.8099C0.87 24.8699 0.81 24.9149 0.75 24.9599C0.645 25.0649 0.6 25.1849 0.6 25.3049C0.6 25.4249 0.645 25.5299 0.72 25.5899C0.795 25.6799 0.9 25.7099 1.035 25.7099ZM0.915 23.8049C0.915 23.8499 0.93 23.8949 0.945 23.9399C0.96 23.9849 0.99 24.0299 1.02 24.0599L1.14 24.2099C1.2 24.1649 1.245 24.1349 1.29 24.0899C1.38 23.9999 1.425 23.9099 1.425 23.8349C1.425 23.7449 1.41 23.6849 1.365 23.6399C1.32 23.5949 1.26 23.5649 1.185 23.5649C1.11 23.5649 1.05 23.5799 1.005 23.6249C0.930001 23.6699 0.915 23.7299 0.915 23.8049Z" fill="#8E979D"/>
<path d="M4.53003 23.1299H4.84503H5.79003C6.13503 23.1299 6.39003 23.2049 6.57003 23.3699C6.75003 23.5349 6.84003 23.7599 6.84003 24.0599C6.84003 24.3749 6.75003 24.6299 6.57003 24.7949C6.39003 24.9599 6.13503 25.0499 5.79003 25.0499C5.55003 25.0499 5.34003 25.0499 5.16003 25.0499V26.1149H4.84503H4.53003V23.1299ZM5.16003 24.5399H5.68503C5.86503 24.5399 5.98503 24.4949 6.07503 24.4199C6.16503 24.3449 6.21003 24.2249 6.21003 24.0749C6.21003 23.9249 6.16503 23.8199 6.07503 23.7599C5.98503 23.6849 5.85003 23.6549 5.68503 23.6549H5.16003V24.5399Z" fill="#8E979D"/>
<path d="M7.30493 23.1299H7.61993H8.81993C9.10493 23.1299 9.32993 23.2049 9.50993 23.3549C9.68993 23.5049 9.76493 23.7149 9.76493 23.9549C9.76493 24.2399 9.67493 24.4499 9.47993 24.5849C9.41993 24.6149 9.37493 24.6449 9.29993 24.6749C9.34493 24.6899 9.37493 24.7049 9.40493 24.7199C9.56993 24.8249 9.65993 24.9899 9.67493 25.2299L9.68993 25.7249C9.68993 25.8149 9.70493 25.8899 9.71993 25.9349C9.73493 25.9799 9.77993 26.0099 9.82493 26.0249V26.0999H9.13493C9.11993 26.0699 9.10493 26.0099 9.08993 25.9049C9.07493 25.7999 9.07493 25.6949 9.07493 25.5749V25.3049C9.07493 25.1699 9.02993 25.0799 8.95493 25.0199C8.87993 24.9599 8.74493 24.9299 8.57993 24.9299H7.96493V26.1149H7.64993H7.33493V23.1299H7.30493ZM7.93493 24.4349H8.65493C8.81993 24.4349 8.93993 24.4049 9.01493 24.3299C9.08993 24.2699 9.13493 24.1649 9.13493 24.0299C9.13493 23.8949 9.08993 23.8049 9.01493 23.7299C8.93993 23.6699 8.81993 23.6249 8.66993 23.6249H7.91993V24.4349H7.93493Z" fill="#8E979D"/>
<path d="M10.5599 25.7852C10.3049 25.5002 10.1699 25.1252 10.1699 24.6452C10.1699 24.1652 10.3049 23.7752 10.5599 23.4902C10.8149 23.2052 11.1749 23.0552 11.6099 23.0552C12.0449 23.0552 12.4049 23.2052 12.6599 23.4902C12.9149 23.7752 13.0499 24.1652 13.0499 24.6452C13.0499 25.1252 12.9149 25.5002 12.6599 25.7852C12.4049 26.0702 12.0449 26.2052 11.6099 26.2052C11.1749 26.2052 10.8149 26.0552 10.5599 25.7852ZM12.2099 25.3952C12.3449 25.2152 12.4199 24.9602 12.4199 24.6302C12.4199 24.3002 12.3449 24.0452 12.2099 23.8502C12.0599 23.6702 11.8649 23.5652 11.6099 23.5652C11.3549 23.5652 11.1599 23.6552 11.0099 23.8502C10.8599 24.0452 10.7999 24.3002 10.7999 24.6302C10.7999 24.9602 10.8749 25.2002 11.0099 25.3952C11.1599 25.5752 11.3549 25.6652 11.6099 25.6652C11.8649 25.6652 12.0599 25.5752 12.2099 25.3952Z" fill="#8E979D"/>
<path d="M13.5449 23.1299H13.8599H14.8049C15.1499 23.1299 15.4049 23.2049 15.5849 23.3699C15.7649 23.5349 15.8549 23.7599 15.8549 24.0599C15.8549 24.3749 15.7649 24.6299 15.5849 24.7949C15.4049 24.9599 15.1499 25.0499 14.8049 25.0499C14.5649 25.0499 14.3549 25.0499 14.1749 25.0499V26.1149H13.8599H13.5449V23.1299ZM14.1749 24.5399H14.6999C14.8799 24.5399 14.9999 24.4949 15.0899 24.4199C15.1799 24.3449 15.2249 24.2249 15.2249 24.0749C15.2249 23.9249 15.1799 23.8199 15.0899 23.7599C14.9999 23.6849 14.8649 23.6549 14.6999 23.6549H14.1749V24.5399Z" fill="#8E979D"/>
<path d="M16.3201 26.1149V23.1299H18.5251V23.3999V23.6549H16.9501V24.2999H18.4051V24.5549V24.8099H16.9501V25.5899H18.5851V25.8449V26.1149H16.3201Z" fill="#8E979D"/>
<path d="M19.095 23.1299H19.41H20.61C20.895 23.1299 21.12 23.2049 21.3 23.3549C21.465 23.5049 21.555 23.7149 21.555 23.9549C21.555 24.2399 21.465 24.4499 21.27 24.5849C21.225 24.6149 21.165 24.6449 21.09 24.6749C21.135 24.6899 21.165 24.7049 21.195 24.7199C21.36 24.8249 21.45 24.9899 21.465 25.2299L21.48 25.7249C21.48 25.8149 21.495 25.8899 21.51 25.9349C21.525 25.9799 21.555 26.0099 21.615 26.0249V26.0999H20.91C20.895 26.0699 20.88 26.0099 20.865 25.9049C20.85 25.7999 20.85 25.6949 20.85 25.5749V25.3049C20.85 25.1699 20.805 25.0799 20.73 25.0199C20.655 24.9599 20.52 24.9299 20.355 24.9299H19.74V26.1149H19.41H19.095V23.1299ZM19.725 24.4349H20.445C20.61 24.4349 20.73 24.4049 20.805 24.3299C20.88 24.2699 20.925 24.1649 20.925 24.0299C20.925 23.8949 20.88 23.8049 20.805 23.7299C20.73 23.6699 20.61 23.6249 20.46 23.6249H19.71V24.4349H19.725Z" fill="#8E979D"/>
<path d="M22.7401 23.6549H21.8401V23.3999V23.1299H24.2701V23.3999V23.6549H23.3701V26.1149H23.0551H22.7401V23.6549Z" fill="#8E979D"/>
<path d="M25.4249 24.9899L24.3899 23.1299H24.7499H25.1249L25.7549 24.4199L26.3249 23.1299H26.6849H27.0449L26.0549 24.9749V26.1149H25.7399H25.4249V24.9899Z" fill="#8E979D"/>
<path d="M28.845 26.1149V23.1299H29.145H29.46V25.5899H30.945V25.8449V26.1149H28.845Z" fill="#8E979D"/>
<path d="M31.9501 25.5151H31.3201V26.1151H31.9501V25.5151Z" fill="#8E979D"/>
<path d="M32.5349 26.1149V23.1299H32.8499H33.1649V25.5899H34.6499V25.8449V26.1149H32.5349Z" fill="#8E979D"/>
<path d="M35.6549 25.5151H35.0249V26.1151H35.6549V25.5151Z" fill="#8E979D"/>
<path d="M38.7601 25.065C38.7301 25.41 38.5951 25.68 38.3551 25.89C38.1301 26.1 37.8301 26.19 37.4701 26.19C37.0501 26.19 36.7201 26.055 36.4651 25.77C36.2251 25.485 36.0901 25.11 36.0901 24.63C36.0901 24.15 36.2101 23.76 36.4651 23.475C36.7051 23.19 37.0501 23.04 37.4701 23.04C37.8301 23.04 38.1151 23.13 38.3551 23.325C38.5951 23.52 38.7301 23.775 38.7601 24.105H38.1301C38.1151 23.94 38.0401 23.82 37.9201 23.715C37.8001 23.625 37.6501 23.58 37.4701 23.58C37.2301 23.58 37.0501 23.67 36.9301 23.85C36.7951 24.03 36.7351 24.285 36.7351 24.615C36.7351 24.93 36.7951 25.185 36.9301 25.365C37.0651 25.545 37.2451 25.635 37.4701 25.635C37.6501 25.635 37.8001 25.575 37.9201 25.47C38.0401 25.365 38.1001 25.23 38.1301 25.035H38.7601V25.065Z" fill="#8E979D"/>
<path d="M39.7949 25.5151H39.1799V26.1151H39.7949V25.5151Z" fill="#8E979D"/>
<path d="M79.7249 20.6699C79.9799 20.4299 80.1599 20.1599 80.2649 19.8299C80.3099 19.6949 80.3399 19.5599 80.3399 19.4249C80.3399 19.1549 80.2649 18.9299 80.1149 18.7499C80.0549 18.6749 80.0099 18.5999 79.9499 18.5099C79.8749 18.4199 79.7999 18.3449 79.7099 18.3149L79.4849 18.7649C79.5899 18.8849 79.6949 19.0199 79.7849 19.1399C79.8899 19.2899 79.9649 19.4249 79.9799 19.5599C79.8749 19.7999 79.6949 20.0249 79.4249 20.2199C79.1399 20.4449 78.8699 20.5499 78.5999 20.5499C78.4199 20.5499 78.1049 20.4599 77.6849 20.2499C77.6699 20.2499 77.6699 20.2799 77.6699 20.3099C77.9999 20.7899 78.3899 21.0449 78.8099 21.0449C79.1249 21.0599 79.4399 20.9399 79.7249 20.6699Z" fill="#8E979D"/>
<path d="M94.1251 17.6551C94.1701 17.6551 94.2151 17.6101 94.2601 17.5201C94.3051 17.4301 94.3501 17.3701 94.3951 17.3551C94.6351 17.4751 94.8151 17.5801 94.9501 17.6551C95.1001 17.5201 95.1901 17.4001 95.2351 17.2801C95.0101 17.1451 94.8451 17.0401 94.7401 16.9801C94.6801 16.9651 94.6201 16.9951 94.5601 17.0701C94.4701 17.1901 94.4251 17.2501 94.4101 17.2651C94.3501 17.2351 94.2601 17.1901 94.1251 17.1001C93.9901 17.0251 93.9001 16.9651 93.8401 16.9351C93.7201 17.0551 93.6451 17.1601 93.6001 17.2501C93.7651 17.4151 93.9151 17.5201 94.0201 17.5801C94.0651 17.6251 94.0951 17.6551 94.1251 17.6551Z" fill="#8E979D"/>
<path d="M94.4851 16.7098C94.5451 16.6498 94.5601 16.5898 94.5451 16.5298L94.1251 16.2148H94.0801C93.9451 16.3798 93.8701 16.4998 93.8701 16.5748C94.0351 16.7098 94.1851 16.8148 94.3351 16.9048C94.3801 16.8448 94.4251 16.7848 94.4851 16.7098Z" fill="#8E979D"/>
<path d="M92.9851 19.7099H95.0401H95.1451H96.1051H96.2101H97.1701H97.2751H98.2351H98.3401H99.3001H99.4051H101.46H101.565H102.525H102.63H103.59H103.71H104.67H104.79H105.75H105.855H105.975C106.47 19.7099 106.8 19.6499 106.98 19.5449C107.01 19.6349 107.07 19.6949 107.175 19.7099H107.55V19.6949C107.775 19.6649 107.94 19.6049 108.03 19.5149C108.12 19.5599 108.21 19.5899 108.315 19.6349C108.405 19.6799 108.495 19.6949 108.585 19.6949V19.7099H109.065C109.245 19.6949 109.395 19.6499 109.515 19.5749C109.59 19.4099 109.635 19.1999 109.635 18.9599C109.635 18.7199 109.59 18.4949 109.515 18.2999H109.455C109.44 18.3149 109.365 18.3899 109.23 18.5099C109.125 18.5999 109.08 18.6749 109.08 18.7349C109.08 18.7649 109.095 18.8099 109.11 18.8399C109.11 18.8549 109.125 18.8849 109.155 18.9299C109.185 18.9749 109.185 19.0049 109.185 19.0349C109.185 19.0649 109.17 19.0949 109.155 19.1099H108.405L108.33 19.0499C108.36 18.9749 108.39 18.8999 108.435 18.8249C108.465 18.7349 108.48 18.6599 108.48 18.5999C108.48 18.5249 108.465 18.4649 108.42 18.4049C108.24 18.5399 108.105 18.6449 108.015 18.7199C108.015 18.7349 108.015 18.8099 108.015 18.9299C108.015 19.0199 107.985 19.0799 107.925 19.1099C107.88 19.1099 107.805 19.1399 107.7 19.1699C107.595 19.1999 107.52 19.2149 107.46 19.2149H107.145C107.175 19.1099 107.22 18.9899 107.25 18.8849C107.295 18.7649 107.31 18.6749 107.31 18.5999C107.31 18.5249 107.295 18.4649 107.28 18.4049C107.07 18.5399 106.935 18.6599 106.845 18.7649C106.845 18.7349 106.86 18.8099 106.86 18.9749C106.86 19.0799 106.83 19.1549 106.755 19.2149H105.9H105.795H104.835H104.715H103.755H103.635H102.675H102.57H101.565C101.52 19.0049 101.46 18.7649 101.34 18.4949C101.175 18.1949 101.055 17.9999 100.98 17.9549L100.74 18.5249L101.01 18.9599C101.01 18.9749 101.01 19.0049 101.025 19.0499C101.04 19.0949 101.04 19.1249 101.04 19.1399C101.04 19.1699 101.025 19.1999 100.995 19.2299H99.4201H99.3601H98.4001H98.2951H97.3351H97.2301H96.2701H96.1651H95.1601C95.1151 19.0199 95.0551 18.7799 94.9351 18.5099C94.7701 18.2099 94.6501 18.0149 94.5751 17.9699L94.3351 18.5399L94.6051 18.9749C94.6051 18.9899 94.6051 19.0199 94.6201 19.0649C94.6351 19.1099 94.6351 19.1399 94.6351 19.1549C94.6351 19.1849 94.6201 19.2149 94.5901 19.2449H93.0151H92.9101H91.9501H91.8451H90.8701H90.7651H89.7601H89.6551H88.6951H88.5901H87.6751C87.6751 19.1699 87.6601 19.0649 87.6301 18.9449C87.4951 18.6899 87.3901 18.5249 87.3151 18.4349C87.1651 18.2399 86.9851 18.1499 86.7901 18.1349C86.6251 18.1649 86.5051 18.2699 86.4001 18.4499C86.3251 18.5999 86.2351 18.7499 86.1601 18.8999C85.9351 19.1549 85.4851 19.2599 84.7801 19.2449H84.7351C84.7201 19.2449 84.6901 19.2449 84.6751 19.2449H83.7151H83.6101H82.6501C82.0651 19.2449 81.7651 19.2299 81.7651 19.1999C81.6601 18.7949 81.5851 18.2549 81.5251 17.5649C81.4651 16.6499 81.4351 16.0949 81.4051 15.8999C81.3751 15.8699 81.3451 15.8849 81.3151 15.9299C81.2401 16.0049 81.1651 16.0949 81.1051 16.1699C81.0151 16.2749 80.9851 16.3649 80.9851 16.4249C80.9851 16.4699 81.0001 16.4999 81.0151 16.5449C81.0301 16.6799 81.0901 17.1599 81.1651 17.9999C81.2251 18.5849 81.3001 19.0649 81.4051 19.4099C81.4351 19.5449 81.6151 19.6499 81.9151 19.7249H82.5451H82.6501H83.6101H83.7151H84.7951C85.4551 19.6949 85.9201 19.6199 86.1451 19.4849C86.3101 19.5749 86.5351 19.6499 86.8351 19.7249H87.5251H87.6451H88.6051H88.7101H89.6701H89.7751H90.7351H90.8401H91.8151H91.9201H92.8801H92.9851V19.7099ZM87.0151 19.2149C86.8051 19.2149 86.5801 19.1249 86.3401 18.9599C86.5201 18.7499 86.6551 18.6449 86.7451 18.6149C86.8501 18.5999 86.9701 18.6449 87.0751 18.7499C87.1951 18.9449 87.2551 19.0949 87.2401 19.1849C87.1501 19.1999 87.0751 19.2149 87.0151 19.2149Z" fill="#8E979D"/>
<path d="M100.53 17.4751C100.56 17.4751 100.605 17.4301 100.665 17.3551C100.725 17.2801 100.77 17.2351 100.83 17.2351L101.34 17.4751C101.4 17.4301 101.445 17.3701 101.475 17.2801C101.49 17.2351 101.52 17.1601 101.55 17.0701L101.01 16.7251C100.95 16.7251 100.905 16.7551 100.86 16.8151C100.8 16.9051 100.755 16.9651 100.725 16.9951C100.665 16.9801 100.575 16.9351 100.455 16.8601C100.335 16.7851 100.23 16.7401 100.155 16.7251C100.11 16.7851 100.08 16.8601 100.035 16.9351C99.9901 17.0251 99.9451 17.1001 99.9451 17.1601L100.5 17.4751C100.515 17.4601 100.515 17.4751 100.53 17.4751Z" fill="#8E979D"/>
<path d="M110.445 20.9699C110.505 20.9999 110.55 21.0449 110.61 21.0749C110.535 21.1799 110.505 21.2549 110.505 21.3299C110.505 21.3599 110.505 21.3749 110.52 21.3899C110.955 21.1199 111.285 20.9399 111.525 20.8499C111.585 20.7599 111.6 20.6999 111.555 20.6549L111.06 20.8199C110.865 20.8499 110.73 20.8349 110.655 20.7599C110.655 20.7449 110.67 20.6849 110.715 20.5949C110.775 20.5349 110.88 20.4899 111 20.4749C111.165 20.4599 111.27 20.4449 111.3 20.4299C111.3 20.4299 111.3 20.3999 111.315 20.3249C111.33 20.2949 111.315 20.2649 111.285 20.2349C111 20.2349 110.835 20.2499 110.76 20.2949C110.52 20.4599 110.4 20.6249 110.4 20.8199C110.34 20.8649 110.37 20.9099 110.445 20.9699Z" fill="#8E979D"/>
<path d="M115.14 19.7101H116.115H116.22H117.765C117.84 19.6501 117.885 19.5301 117.885 19.3501C117.885 18.1351 117.84 16.9651 117.735 15.8701L117.195 16.3501C117.21 16.5151 117.285 16.9801 117.39 17.7301C117.48 18.2851 117.525 18.7501 117.54 19.1251L117.51 19.2151H116.22H116.115H115.14H115.035H114.06C113.91 19.2151 113.775 19.1701 113.655 19.0651C113.52 18.9601 113.445 18.8251 113.445 18.6751C113.415 18.3751 113.4 17.9401 113.37 17.3551C113.355 16.7701 113.34 16.3351 113.31 16.0501C113.31 15.9451 113.295 15.9001 113.25 15.9001C113.22 15.9001 113.16 15.9451 113.085 16.0201C112.995 16.1101 112.95 16.1701 112.92 16.1851C112.905 16.3051 112.905 16.4251 112.905 16.5751C112.905 16.6801 112.905 16.8451 112.92 17.0701C112.935 17.2951 112.935 17.4601 112.935 17.5651C112.935 18.2251 112.77 18.7051 112.455 19.0051L112.44 18.9751C112.485 18.8101 112.5 18.6451 112.5 18.4801C112.5 18.0901 112.38 17.7001 112.14 17.3101C111.975 17.0251 111.69 16.6951 111.315 16.2901C111.255 16.2301 111.18 16.1851 111.12 16.1251C111.06 16.0651 110.97 16.0501 110.895 16.0501C110.835 16.0651 110.775 16.1251 110.715 16.2001C110.67 16.2901 110.64 16.3651 110.64 16.4551C110.64 16.6951 110.79 16.9651 111.105 17.2801C111.12 17.2951 111.15 17.3101 111.165 17.3101C111.195 17.3101 111.225 17.2801 111.285 17.2351C111.345 17.1751 111.375 17.1601 111.405 17.1751C111.81 17.6401 112.065 18.0901 112.17 18.5401C112.185 18.6451 112.185 18.7501 112.185 18.8401C112.185 19.1401 112.095 19.3501 111.9 19.5001C111.555 19.6651 111.105 19.8151 110.535 19.9501C110.52 19.9651 110.505 19.9801 110.46 19.9951C110.415 20.0101 110.4 20.0251 110.4 20.0551C110.91 20.1001 111.39 20.0851 111.84 19.9951C112.155 19.9651 112.41 19.7701 112.62 19.4551C112.77 19.1701 112.935 18.8851 113.1 18.6001C113.145 18.8101 113.205 19.0051 113.265 19.2151C113.355 19.4551 113.475 19.6051 113.655 19.6951C113.685 19.7251 113.79 19.7551 113.955 19.7551H115.035H115.14V19.7101Z" fill="#8E979D"/>
<path d="M78.4499 25.4999C78.3299 25.5149 78.2549 25.5749 78.2099 25.6799C78.1649 25.7999 78.1949 25.8899 78.2999 25.9799C78.3599 26.0549 78.4799 26.0699 78.6299 26.0249C78.7499 25.9949 78.795 25.9349 78.795 25.8599C78.825 25.7399 78.7949 25.6349 78.7349 25.5749C78.6749 25.5149 78.5849 25.4849 78.4499 25.4999Z" fill="#8E979D"/>
<path d="M80.5949 24.2998C80.0849 24.5848 79.8449 24.8848 79.9049 25.2298C79.9199 25.2298 80.0099 25.1698 80.1749 25.0348C80.2949 24.9448 80.3849 24.8998 80.4749 24.8998C80.5199 24.8998 80.5499 24.9148 80.5949 24.9298C80.7299 25.0048 80.8499 25.1398 80.9699 25.3048C80.7449 25.3198 80.5199 25.3198 80.2949 25.3348C80.0549 25.3648 79.8599 25.4248 79.7249 25.5298C79.6049 25.6198 79.5299 25.7398 79.5149 25.8898L80.1149 28.3498C80.0999 28.3498 80.1149 28.3348 80.1599 28.3048C80.2499 28.1098 80.2799 27.8848 80.2799 27.6598C80.2799 27.4348 80.2349 27.1498 80.1449 26.8198C80.0099 26.3248 79.9499 26.0548 79.9349 25.9948L79.9649 25.9798C80.2049 25.8898 80.5649 25.8598 81.0449 25.8898C81.1799 25.8748 81.3299 25.8748 81.4649 25.8748C81.6299 25.8598 81.7499 25.8298 81.8549 25.7698C81.8549 25.7398 81.8699 25.6948 81.8999 25.6348C81.9299 25.5748 81.9449 25.5298 81.9449 25.4998C81.9449 25.4698 81.9449 25.4398 81.9299 25.4098C81.5699 25.0798 81.1349 24.7048 80.5949 24.2998Z" fill="#8E979D"/>
<path d="M82.8601 25.4999C82.7401 25.5149 82.6651 25.5749 82.6201 25.6799C82.5751 25.7999 82.6051 25.8899 82.7101 25.9799C82.7701 26.0549 82.8901 26.0699 83.0401 26.0249C83.1601 25.9949 83.2051 25.9349 83.2051 25.8599C83.2351 25.7399 83.2051 25.6349 83.1451 25.5749C83.0851 25.5149 82.9951 25.4849 82.8601 25.4999Z" fill="#8E979D"/>
<path d="M85.0051 24.2998C84.4951 24.5848 84.2551 24.8848 84.3151 25.2298C84.3301 25.2298 84.4201 25.1698 84.5851 25.0348C84.7051 24.9448 84.7951 24.8998 84.8851 24.8998C84.9301 24.8998 84.9601 24.9148 85.0051 24.9298C85.1401 25.0048 85.2601 25.1398 85.3801 25.3048C85.1551 25.3198 84.9301 25.3198 84.7051 25.3348C84.4651 25.3648 84.2701 25.4248 84.1351 25.5298C84.0151 25.6198 83.94 25.7398 83.925 25.8898L84.525 28.3498C84.51 28.3498 84.5251 28.3348 84.5701 28.3048C84.6601 28.1098 84.6901 27.8848 84.6901 27.6598C84.6901 27.4348 84.6451 27.1498 84.5551 26.8198C84.4201 26.3248 84.3601 26.0548 84.3451 25.9948L84.375 25.9798C84.615 25.8898 84.9751 25.8598 85.4551 25.8898C85.5901 25.8748 85.74 25.8748 85.875 25.8748C86.025 25.8598 86.1601 25.8298 86.2651 25.7698C86.2651 25.7398 86.2801 25.6948 86.3101 25.6348C86.3401 25.5748 86.3401 25.5298 86.3401 25.4998C86.3401 25.4698 86.34 25.4398 86.325 25.4098C85.98 25.0798 85.5451 24.7048 85.0051 24.2998Z" fill="#8E979D"/>
<path d="M87.27 25.4999C87.15 25.5149 87.075 25.5749 87.03 25.6799C86.985 25.7999 87.015 25.8899 87.12 25.9799C87.18 26.0549 87.3 26.0699 87.45 26.0249C87.57 25.9949 87.615 25.9349 87.615 25.8599C87.645 25.7399 87.615 25.6349 87.555 25.5749C87.51 25.5149 87.405 25.4849 87.27 25.4999Z" fill="#8E979D"/>
<path d="M89.7151 22.9649C89.7601 22.8899 89.7901 22.8149 89.7901 22.7549C89.5651 22.6199 89.3701 22.5149 89.2051 22.4399C89.0701 22.6349 88.9801 22.7849 88.9351 22.8749C89.2501 23.0399 89.4601 23.1449 89.5801 23.1899C89.6251 23.1149 89.6701 23.0549 89.7151 22.9649Z" fill="#8E979D"/>
<path d="M89.8651 23.6701C89.7301 23.9551 89.6401 24.1351 89.6101 24.2101L89.9401 25.0651C89.9401 25.0951 89.9551 25.1401 89.9851 25.2001C90.0151 25.2601 90.0151 25.3201 90.0151 25.3501C90.0151 25.3951 90.0001 25.4251 89.9701 25.4701C89.6401 25.5601 89.2201 25.5751 88.7251 25.5301C88.6351 25.5151 88.5751 25.4401 88.5751 25.3201C88.5751 25.2301 88.5751 25.1401 88.5601 25.0351C88.5451 25.0351 88.5451 25.0351 88.5301 25.0501C88.5151 25.0501 88.5151 25.0651 88.5001 25.0651C88.3801 25.2151 88.3201 25.3951 88.3201 25.6051C88.3201 25.6951 88.3351 25.7851 88.3501 25.8601C88.3801 25.9201 88.4251 25.9651 88.5001 25.9951C88.5301 26.0101 88.5901 26.0401 88.6801 26.0851C89.3851 26.1151 89.8801 26.0551 90.1501 25.9051C90.2851 25.8301 90.3451 25.7251 90.3301 25.5901C90.3151 24.9901 90.1651 24.3451 89.8651 23.6401V23.6701Z" fill="#8E979D"/>
<path d="M95.8801 24.4199C95.7601 24.6449 95.6851 24.8099 95.6251 24.9149C95.7901 25.1249 95.8801 25.2899 95.9101 25.4099C95.8801 25.4549 95.8351 25.4849 95.7751 25.4999C95.7151 25.5149 95.6401 25.5449 95.5801 25.5599C95.0101 25.6649 94.3051 25.6949 93.4951 25.6799C93.2701 25.6349 93.1351 25.6199 93.0751 25.6049C92.9251 25.5599 92.8051 25.4999 92.7001 25.4099C92.6401 25.3499 92.5951 25.2599 92.5951 25.1699C92.5951 25.1249 92.6401 24.9749 92.7151 24.7049L92.6851 24.6749C92.5951 24.7049 92.5201 24.7649 92.4901 24.8549C92.4451 24.9449 92.4151 25.0349 92.3851 25.1399C92.3551 25.2299 92.3401 25.3349 92.3401 25.4399C92.3401 25.6499 92.4001 25.8149 92.5201 25.9349C92.8051 26.1449 93.2551 26.2649 93.8551 26.2649C93.9901 26.2649 94.1701 26.2499 94.4251 26.2499C94.6801 26.2349 94.8601 26.2349 94.9801 26.2349C95.5351 26.1749 95.9101 26.0549 96.1051 25.8599C96.1951 25.7549 96.2401 25.6349 96.2401 25.4699C96.2401 25.3199 96.1801 25.0949 96.0751 24.7949C96.0301 24.5699 95.9551 24.4499 95.8801 24.4199Z" fill="#8E979D"/>
<path d="M94.3499 23.9102C94.2899 24.0002 94.2449 24.0602 94.2149 24.0752C94.1549 24.0602 94.0649 24.0152 93.9299 23.9402C93.8099 23.8652 93.7049 23.8202 93.6299 23.8052C93.5849 23.8652 93.5549 23.9402 93.5099 24.0002C93.4499 24.0902 93.4199 24.1652 93.4199 24.2252L93.9749 24.5402C93.9899 24.5402 94.0049 24.5552 94.0199 24.5552C94.0499 24.5552 94.0949 24.5102 94.1549 24.4352C94.2149 24.3602 94.2599 24.3152 94.3049 24.3152L94.8299 24.5552C94.8899 24.5102 94.9349 24.4502 94.9649 24.3602C94.9799 24.3152 95.0099 24.2402 95.0399 24.1502L94.4999 23.8052C94.4549 23.8052 94.4099 23.8352 94.3499 23.9102Z" fill="#8E979D"/>
<path d="M97.41 22.0952L96.96 22.7102C96.96 22.8602 96.99 23.3552 97.02 24.1952C97.05 24.8102 97.065 25.3052 97.065 25.6952L97.11 25.9352H97.14C97.38 25.6952 97.53 25.5452 97.59 25.4552C97.59 23.9252 97.56 22.8902 97.5 22.3202C97.44 22.2152 97.425 22.1402 97.41 22.0952Z" fill="#8E979D"/>
<path d="M99.9 24.7502C99.825 24.6602 99.75 24.5852 99.66 24.5552L99.435 25.0052C99.54 25.1252 99.645 25.2602 99.735 25.3802C99.84 25.5302 99.9 25.6652 99.93 25.8002C99.825 26.0402 99.645 26.2652 99.375 26.4602C99.09 26.6852 98.82 26.7902 98.55 26.7902C98.37 26.7902 98.055 26.6852 97.635 26.4902C97.62 26.4902 97.605 26.5202 97.605 26.5652C97.935 27.0452 98.325 27.2852 98.76 27.2852C99.075 27.2852 99.375 27.1502 99.66 26.8952C99.915 26.6552 100.095 26.3852 100.215 26.0702C100.26 25.9352 100.29 25.8002 100.29 25.6502C100.29 25.3802 100.215 25.1552 100.065 24.9752C100.005 24.9002 99.945 24.8252 99.9 24.7502Z" fill="#8E979D"/>
<path d="M105.45 22.5449C105.42 22.5449 105.375 22.5749 105.315 22.6499C105.255 22.7399 105.21 22.7999 105.195 22.8149L104.67 22.5449H104.625C104.58 22.6049 104.535 22.6649 104.49 22.7249C104.43 22.7999 104.415 22.8749 104.415 22.9199L104.91 23.2349C104.97 23.2499 105.03 23.2199 105.09 23.1449C105.15 23.0699 105.195 23.0249 105.21 23.0099C105.48 23.1449 105.66 23.2199 105.75 23.2499L106.005 22.8899C105.825 22.7699 105.66 22.6799 105.555 22.6199C105.525 22.5749 105.48 22.5449 105.45 22.5449Z" fill="#8E979D"/>
<path d="M113.025 22.5749C113.04 22.7399 113.115 23.2049 113.22 23.9549C113.31 24.5099 113.355 24.9749 113.355 25.3499L113.325 25.4399H112.035H111.93H110.955C110.76 25.4399 110.55 25.3649 110.31 25.2299L110.4 25.0649C110.49 24.9299 110.535 24.7799 110.535 24.6149C110.535 24.4799 110.505 24.3749 110.43 24.2699C110.28 24.1049 109.995 24.0149 109.605 24.0149C109.41 23.9999 109.245 24.0749 109.14 24.2549C109.05 24.4199 108.975 24.5999 108.9 24.7499C108.915 24.7799 108.945 24.7799 108.975 24.7799C108.99 24.7799 109.02 24.7799 109.05 24.7649C109.095 24.7499 109.11 24.7499 109.14 24.7499C109.35 24.7049 109.53 24.8399 109.68 25.1399C109.485 25.2749 109.23 25.3499 108.915 25.3799C108.765 25.3949 108.48 25.4099 108.06 25.4099H107.1H107.01H106.095C106.095 25.3349 106.095 25.2599 106.095 25.1849C106.095 24.5999 105.975 24.1349 105.735 23.7749C105.63 23.6549 105.495 23.6099 105.345 23.6549C104.925 23.9249 104.685 24.2999 104.655 24.7949C104.67 24.9449 104.775 25.0799 104.955 25.1849C105.105 25.2599 105.255 25.3349 105.405 25.4099H103.605H103.5H102.54C101.955 25.4099 101.655 25.3949 101.655 25.3649C101.55 24.9599 101.475 24.4199 101.415 23.7299C101.355 22.8149 101.325 22.2749 101.295 22.0649C101.265 22.0349 101.235 22.0499 101.205 22.0949C101.13 22.1699 101.055 22.2599 100.98 22.3499C100.905 22.4549 100.86 22.5299 100.86 22.6049C100.86 22.6499 100.875 22.6799 100.89 22.7249C100.905 22.8599 100.965 23.3399 101.04 24.1799C101.1 24.7649 101.175 25.2449 101.28 25.5899C101.31 25.7249 101.49 25.8299 101.79 25.9049H102.42H102.525H103.485H103.59H105.9H106.02H106.98H107.085H108.165C108.93 25.8899 109.515 25.7549 109.89 25.4849C110.13 25.7249 110.37 25.8599 110.58 25.9049H110.82H110.94H111.915H112.02H113.61C113.685 25.8449 113.73 25.7099 113.73 25.5299C113.73 24.3149 113.685 23.1449 113.58 22.0499L113.025 22.5749ZM105 24.5549C105.015 24.4499 105.12 24.3299 105.3 24.1949C105.51 24.2099 105.66 24.4049 105.78 24.7649L105.825 24.9599L105 24.5549Z" fill="#8E979D"/>
<path d="M114.87 22.0952L114.42 22.7102C114.42 22.8602 114.45 23.3552 114.48 24.1952C114.51 24.8102 114.525 25.3052 114.525 25.6952L114.555 25.9352H114.585C114.825 25.6952 114.975 25.5452 115.035 25.4552C115.035 23.9252 115.005 22.8902 114.945 22.3202C114.9 22.2152 114.885 22.1402 114.87 22.0952Z" fill="#8E979D"/>
<path d="M117.54 24.5699C117.435 24.4349 117.315 24.3599 117.18 24.3599C117.075 24.3749 117.015 24.4199 116.97 24.4949C116.73 24.7649 116.61 25.0499 116.61 25.3199C116.61 25.4399 116.64 25.5599 116.685 25.6799C116.715 25.7399 116.76 25.7849 116.82 25.8299C116.88 25.8749 116.955 25.9049 117.015 25.9499L117.51 26.0399C117.24 26.4599 116.94 26.7299 116.64 26.8349C116.52 26.8799 116.385 26.8949 116.265 26.8949C115.905 26.8949 115.515 26.7299 115.095 26.3999C115.08 26.3999 115.08 26.4299 115.08 26.4749C115.2 26.7149 115.365 26.9249 115.59 27.1049C115.845 27.2999 116.085 27.4049 116.34 27.4049C116.625 27.4049 116.91 27.2849 117.195 27.0449C117.645 26.6549 117.885 26.1749 117.885 25.6049C117.885 25.3799 117.84 25.1699 117.765 24.9599C117.615 24.7049 117.555 24.5849 117.54 24.5699ZM117.48 25.4399C117.45 25.4549 117.42 25.4549 117.375 25.4549C117.33 25.4549 117.225 25.4249 117.045 25.3349C117 25.3199 116.985 25.2749 116.97 25.2149C116.955 25.1699 116.97 25.1249 117 25.0799C117.03 24.9899 117.09 24.9449 117.15 24.9449C117.21 24.9449 117.27 24.9749 117.33 25.0349C117.39 25.0949 117.435 25.1549 117.45 25.2149C117.45 25.2299 117.465 25.2599 117.465 25.3049C117.495 25.3649 117.495 25.4099 117.48 25.4399Z" fill="#8E979D"/>
<path d="M116.025 0.0301376V8.44514H116.04C115.905 9.93014 114.81 10.6051 112.71 10.6051H110.4V12.2551H113.19C115.905 12.2551 117.84 10.7551 117.885 8.44514H117.9V0.0151367L116.025 0.0301376Z" fill="#006BB6"/>
<path d="M112.32 0.0297852H110.37V9.62979H112.32V0.0297852Z" fill="#006BB6"/>
<path d="M105.36 6.50977V8.11476C105.36 9.83976 104.265 10.6048 102.015 10.6048H88.9651V12.2548H102.495C105.24 12.2548 107.19 10.7248 107.19 8.35476V6.50977H105.36Z" fill="#006BB6"/>
<path d="M87.8549 6.50977V10.6498C87.8549 12.3748 86.7449 13.1398 84.5099 13.1398H84.4349H83.0849C80.8349 13.1398 79.7399 12.3748 79.7399 10.6498V6.50977H77.9099V10.8898C77.9099 12.9898 79.4399 14.4298 81.7049 14.7298V14.7898H82.6049H84.4349H84.9899C87.7349 14.7898 89.6849 13.2598 89.6849 10.8898V6.50977H87.8549Z" fill="#006BB6"/>
<path d="M83.43 5.34015H84.555V3.66016H82.605V4.56016C82.605 5.08516 82.86 5.34015 83.43 5.34015Z" fill="#006BB6"/>
<path d="M98.5801 14.805H99.7051V13.125H97.7551V14.025C97.7701 14.55 98.0251 14.805 98.5801 14.805Z" fill="#006BB6"/>
<path d="M101.55 14.805H102.675V13.125H100.725V14.025C100.725 14.55 100.98 14.805 101.55 14.805Z" fill="#006BB6"/>
<path d="M63.6599 7.70996V8.32496H64.2599C64.0349 8.14496 63.8399 7.93496 63.6599 7.70996Z" fill="#006BB6"/>
<path d="M67.74 7.485H71.985V0H64.665V3.99C64.65 6.33 65.61 7.485 67.74 7.485Z" fill="#006BB6"/>
<path d="M46.2299 18.6899H45.7949V20.4449H46.2299V18.6899Z" fill="#006BB6"/>
<path d="M53.3099 25.7549H51.5549V26.1899H53.3099V25.7549Z" fill="#006BB6"/>
<path d="M56.9401 25.7549H54.3601V26.1899H56.9401V25.7549Z" fill="#006BB6"/>
<path d="M48.1649 25.7549H47.2949V26.1899H48.1649V25.7549Z" fill="#006BB6"/>
<path d="M46.2299 21.4951H45.7949V22.7701H46.2299V21.4951Z" fill="#006BB6"/>
<path d="M62.5949 25.7549H58.0049V26.1899H62.5949V25.7549Z" fill="#006BB6"/>
<path d="M46.2299 23.835H45.7949V24.705H46.2299V23.835Z" fill="#006BB6"/>
<path d="M46.2299 25.7549H45.7949V26.1899H46.2299V25.7549Z" fill="#006BB6"/>
<path d="M50.4901 25.7549H49.2151V26.1899H50.4901V25.7549Z" fill="#006BB6"/>
<path d="M62.5949 9.39014H58.0049V13.9801H62.5949V9.39014Z" fill="#006BB6"/>
<path d="M53.3099 21.4951H51.5549V22.7701H53.3099V21.4951Z" fill="#006BB6"/>
<path d="M62.5949 15.0449H58.0049V17.6249H62.5949V15.0449Z" fill="#006BB6"/>
<path d="M50.4901 21.4951H49.2151V22.7701H50.4901V21.4951Z" fill="#006BB6"/>
<path d="M62.5949 23.835H58.0049V24.705H62.5949V23.835Z" fill="#006BB6"/>
<path d="M62.5949 18.6899H58.0049V20.4449H62.5949V18.6899Z" fill="#006BB6"/>
<path d="M62.5949 21.4951H58.0049V22.7701H62.5949V21.4951Z" fill="#006BB6"/>
<path d="M53.3099 18.6899H51.5549V20.4449H53.3099V18.6899Z" fill="#006BB6"/>
<path d="M56.9401 9.39014H54.3601V13.9801H56.9401V9.39014Z" fill="#006BB6"/>
<path d="M56.9401 23.835H54.3601V24.705H56.9401V23.835Z" fill="#006BB6"/>
<path d="M48.1649 21.4951H47.2949V22.7701H48.1649V21.4951Z" fill="#006BB6"/>
<path d="M56.9401 15.0449H54.3601V17.6249H56.9401V15.0449Z" fill="#006BB6"/>
<path d="M56.9401 18.6899H54.3601V20.4449H56.9401V18.6899Z" fill="#006BB6"/>
<path d="M56.9401 21.4951H54.3601V22.7701H56.9401V21.4951Z" fill="#006BB6"/>
<path d="M53.3099 23.835H51.5549V24.705H53.3099V23.835Z" fill="#006BB6"/>
<path d="M46.2299 15.0449H45.7949V17.6249H46.2299V15.0449Z" fill="#006BB6"/>
<path d="M50.4901 23.835H49.2151V24.705H50.4901V23.835Z" fill="#006BB6"/>
<path d="M48.1649 23.835H47.2949V24.705H48.1649V23.835Z" fill="#006BB6"/>
<path d="M50.4901 9.39014H49.2151V13.9801H50.4901V9.39014Z" fill="#006BB6"/>
<path d="M48.1649 18.6899H47.2949V20.4449H48.1649V18.6899Z" fill="#006BB6"/>
<path d="M50.4901 18.6899H49.2151V20.4449H50.4901V18.6899Z" fill="#006BB6"/>
<path d="M46.2299 9.39014H45.7949V13.9801H46.2299V9.39014Z" fill="#006BB6"/>
<path d="M53.3099 9.39014H51.5549V13.9801H53.3099V9.39014Z" fill="#006BB6"/>
<path d="M48.1649 15.0449H47.2949V17.6249H48.1649V15.0449Z" fill="#006BB6"/>
<path d="M53.3099 15.0449H51.5549V17.6249H53.3099V15.0449Z" fill="#006BB6"/>
<path d="M50.4901 15.0449H49.2151V17.6249H50.4901V15.0449Z" fill="#006BB6"/>
<path d="M48.1649 9.39014H47.2949V13.9801H48.1649V9.39014Z" fill="#006BB6"/>
<path d="M50.4901 1.18506H49.2151V8.32506H50.4901V1.18506Z" fill="#006BB6"/>
<path d="M70.7999 23.835H63.6599V24.705H70.7999V23.835Z" fill="#006BB6"/>
<path d="M70.7999 21.4951H63.6599V22.7701H70.7999V21.4951Z" fill="#006BB6"/>
<path d="M53.3099 1.18506H51.5549V8.32506H53.3099V1.18506Z" fill="#006BB6"/>
<path d="M70.7999 18.6899H63.6599V20.4449H70.7999V18.6899Z" fill="#006BB6"/>
<path d="M48.1649 1.18506H47.2949V8.32506H48.1649V1.18506Z" fill="#006BB6"/>
<path d="M46.2299 1.18506H45.7949V8.32506H46.2299V1.18506Z" fill="#006BB6"/>
<path d="M56.9401 1.18506H54.3601V8.32506H56.9401V1.18506Z" fill="#006BB6"/>
<path d="M70.7999 9.39014H63.6599V13.9801H70.7999V9.39014Z" fill="#006BB6"/>
<path d="M62.5949 1.18506H58.0049V8.32506H62.5949V1.18506Z" fill="#006BB6"/>
<path d="M70.7999 25.7549H63.6599V26.1899H70.7999V25.7549Z" fill="#006BB6"/>
<path d="M70.7999 15.0449H63.6599V17.6249H70.7999V15.0449Z" fill="#006BB6"/>
<path d="M1.01989 34.5451L0.584893 35.8801H0.0148926L1.46989 31.6201H2.12989L3.58489 35.8801H2.99989L2.54989 34.5451H1.01989ZM2.41489 34.1101L1.99489 32.8801C1.90489 32.5951 1.84489 32.3551 1.76989 32.1001H1.75489C1.69489 32.3401 1.63489 32.6101 1.54489 32.8651L1.12489 34.0951H2.41489V34.1101Z" fill="#8E979D"/>
<path d="M5.53502 31.695C5.86502 31.635 6.27002 31.605 6.70502 31.605C7.50002 31.605 8.05502 31.8 8.43002 32.13C8.82002 32.475 9.03002 32.97 9.03002 33.66C9.03002 34.365 8.80502 34.92 8.41502 35.31C8.01002 35.715 7.35002 35.925 6.52502 35.925C6.13502 35.925 5.80502 35.91 5.52002 35.88V31.695H5.53502ZM6.09002 35.46C6.22502 35.475 6.43502 35.49 6.64502 35.49C7.83002 35.49 8.46002 34.83 8.46002 33.69C8.46002 32.685 7.89002 32.055 6.73502 32.055C6.45002 32.055 6.24002 32.07 6.09002 32.115V35.46Z" fill="#8E979D"/>
<path d="M10.305 31.6201H9.75V35.8801H10.305V31.6201Z" fill="#8E979D"/>
<path d="M12.195 35.8801L10.8 31.6201H11.4L12.06 33.7201C12.24 34.2901 12.39 34.8151 12.51 35.3101H12.525C12.645 34.8151 12.81 34.2751 13.02 33.7201L13.74 31.6201H14.325L12.81 35.8801H12.195Z" fill="#8E979D"/>
<path d="M15.345 31.6201H14.79V35.8801H15.345V31.6201Z" fill="#8E979D"/>
<path d="M16.23 35.2202C16.47 35.3852 16.83 35.5052 17.205 35.5052C17.76 35.5052 18.09 35.2052 18.09 34.7852C18.09 34.3952 17.865 34.1552 17.295 33.9452C16.605 33.6902 16.17 33.3302 16.17 32.7302C16.17 32.0702 16.725 31.5752 17.55 31.5752C17.985 31.5752 18.3 31.6802 18.48 31.7852L18.33 32.2352C18.195 32.1602 17.91 32.0402 17.535 32.0402C16.95 32.0402 16.725 32.3852 16.725 32.6852C16.725 33.0752 16.98 33.2852 17.58 33.5102C18.3 33.7952 18.66 34.1402 18.66 34.7552C18.66 35.4152 18.18 35.9852 17.175 35.9852C16.77 35.9852 16.32 35.8652 16.095 35.7002L16.23 35.2202Z" fill="#8E979D"/>
<path d="M19.98 31.6201H19.425V35.8801H19.98V31.6201Z" fill="#8E979D"/>
<path d="M24.5699 33.7048C24.5699 35.1598 23.6849 35.9398 22.5899 35.9398C21.4649 35.9398 20.6699 35.0548 20.6699 33.7648C20.6699 32.4148 21.5099 31.5298 22.6499 31.5298C23.8199 31.5448 24.5699 32.4448 24.5699 33.7048ZM21.2699 33.7798C21.2699 34.6948 21.7649 35.5048 22.6349 35.5048C23.5049 35.5048 23.9999 34.7098 23.9999 33.7348C23.9999 32.8798 23.5499 31.9948 22.6349 31.9948C21.7199 31.9948 21.2699 32.8498 21.2699 33.7798Z" fill="#8E979D"/>
<path d="M25.29 35.88V31.62H25.89L27.255 33.765C27.57 34.26 27.81 34.71 28.02 35.145L28.035 35.13C27.99 34.56 27.975 34.05 27.975 33.39V31.605H28.5V35.865H27.945L26.595 33.705C26.295 33.225 26.01 32.745 25.8 32.28H25.785C25.815 32.82 25.815 33.33 25.815 34.035V35.85H25.29V35.88Z" fill="#8E979D"/>
<path d="M34.4399 33.7048C34.4399 35.1598 33.5549 35.9398 32.4599 35.9398C31.3349 35.9398 30.5549 35.0548 30.5549 33.7648C30.5549 32.4148 31.3949 31.5298 32.5199 31.5298C33.6899 31.5448 34.4399 32.4448 34.4399 33.7048ZM31.1249 33.7798C31.1249 34.6948 31.6199 35.5048 32.4899 35.5048C33.3599 35.5048 33.8549 34.7098 33.8549 33.7348C33.8549 32.8798 33.4199 31.9948 32.4899 31.9948C31.5749 31.9948 31.1249 32.8498 31.1249 33.7798Z" fill="#8E979D"/>
<path d="M35.145 31.6201H37.44V32.0851H35.7V33.4951H37.305V33.9601H35.7V35.8801H35.145V31.6201Z" fill="#8E979D"/>
<path d="M39.885 31.6201H40.44V35.4301H42.255V35.8801H39.885V31.6201Z" fill="#8E979D"/>
<path d="M43.2 31.6201V34.1401C43.2 35.0851 43.62 35.4901 44.19 35.4901C44.82 35.4901 45.225 35.0701 45.225 34.1401V31.6201H45.78V34.1101C45.78 35.4151 45.09 35.9551 44.175 35.9551C43.305 35.9551 42.645 35.4601 42.645 34.1401V31.6351H43.2V31.6201Z" fill="#8E979D"/>
<path d="M46.74 31.6201H47.295V35.4301H49.11V35.8801H46.74V31.6201Z" fill="#8E979D"/>
<path d="M50.0401 31.6201V34.1401C50.0401 35.0851 50.4601 35.4901 51.0301 35.4901C51.6601 35.4901 52.0651 35.0701 52.0651 34.1401V31.6201H52.6201V34.1101C52.6201 35.4151 51.9301 35.9551 51.0151 35.9551C50.1451 35.9551 49.4851 35.4601 49.4851 34.1401V31.6351H50.0401V31.6201Z" fill="#8E979D"/>
<path d="M58.185 35.7C57.945 35.79 57.45 35.94 56.865 35.94C56.22 35.94 55.695 35.775 55.275 35.385C54.915 35.025 54.675 34.455 54.675 33.795C54.675 32.52 55.56 31.605 56.985 31.605C57.48 31.605 57.87 31.71 58.05 31.8L57.915 32.25C57.69 32.145 57.405 32.07 56.97 32.07C55.935 32.07 55.26 32.715 55.26 33.78C55.26 34.86 55.905 35.505 56.895 35.505C57.255 35.505 57.495 35.46 57.63 35.385V34.095H56.775V33.645H58.185V35.7Z" fill="#8E979D"/>
<path d="M59.0251 31.6798C59.3101 31.6198 59.7001 31.5898 60.0751 31.5898C60.6601 31.5898 61.0501 31.6948 61.3051 31.9348C61.5151 32.1298 61.6351 32.4148 61.6351 32.7448C61.6351 33.2998 61.2751 33.6748 60.8401 33.8248V33.8398C61.1701 33.9598 61.3651 34.2598 61.4551 34.7098C61.5901 35.2948 61.6951 35.7148 61.7851 35.8798H61.2151C61.1401 35.7598 61.0501 35.3998 60.9301 34.8598C60.7951 34.2748 60.5701 34.0498 60.0751 34.0348H59.5501V35.8798H58.9951V31.6798H59.0251ZM59.5651 33.6148H60.1351C60.7201 33.6148 61.0951 33.2998 61.0951 32.8048C61.0951 32.2498 60.6901 32.0098 60.1201 32.0098C59.8501 32.0098 59.6701 32.0248 59.5801 32.0548V33.6148H59.5651Z" fill="#8E979D"/>
<path d="M66.075 33.7049C66.075 35.1599 65.1901 35.9399 64.0951 35.9399C62.9551 35.9399 62.175 35.0699 62.175 33.7799C62.175 32.4299 63.0151 31.5449 64.1401 31.5449C65.3251 31.5449 66.075 32.4449 66.075 33.7049ZM62.7601 33.7799C62.7601 34.6949 63.255 35.5049 64.125 35.5049C64.995 35.5049 65.4901 34.7099 65.4901 33.7349C65.4901 32.8799 65.04 31.9949 64.125 31.9949C63.21 31.9949 62.7601 32.8499 62.7601 33.7799Z" fill="#8E979D"/>
<path d="M67.3499 31.6201V34.1401C67.3499 35.0851 67.7699 35.4901 68.3399 35.4901C68.9699 35.4901 69.3749 35.0701 69.3749 34.1401V31.6201H69.9299V34.1101C69.9299 35.4151 69.2399 35.9551 68.3249 35.9551C67.4549 35.9551 66.7949 35.4601 66.7949 34.1401V31.6351H67.3499V31.6201Z" fill="#8E979D"/>
<path d="M70.8899 31.6798C71.1599 31.6348 71.5049 31.5898 71.9399 31.5898C72.4799 31.5898 72.8849 31.7098 73.1399 31.9498C73.3649 32.1598 73.5149 32.4598 73.5149 32.8348C73.5149 33.2248 73.3949 33.5248 73.1849 33.7498C72.8849 34.0648 72.4199 34.2148 71.8799 34.2148C71.7149 34.2148 71.5649 34.2148 71.4449 34.1698V35.8798H70.8899V31.6798ZM71.4449 33.7348C71.5649 33.7648 71.7149 33.7798 71.8949 33.7798C72.5549 33.7798 72.9599 33.4498 72.9599 32.8798C72.9599 32.3098 72.5549 32.0398 71.9549 32.0398C71.7149 32.0398 71.5349 32.0548 71.4299 32.0848V33.7348H71.4449Z" fill="#8E979D"/>
<path d="M76.14 31.6201H75.585V35.8801H76.14V31.6201Z" fill="#8E979D"/>
<path d="M77.1001 35.8801V31.6201H77.7151L79.0651 33.7801C79.3801 34.2751 79.6351 34.7251 79.8301 35.1601L79.8451 35.1451C79.7851 34.5751 79.7851 34.0651 79.7851 33.4051V31.6201H80.3101V35.8801H79.7551L78.4051 33.7201C78.1051 33.2401 77.8201 32.7601 77.6101 32.2951H77.5951C77.6251 32.8351 77.6401 33.3451 77.6401 34.0501V35.8651H77.1001V35.8801Z" fill="#8E979D"/>
<path d="M82.0799 32.0851H80.7749V31.6201H83.9249V32.0851H82.6349V35.8801H82.0799V32.0851Z" fill="#8E979D"/>
<path d="M86.61 33.8851H84.96V35.4301H86.805V35.8801H84.405V31.6201H86.715V32.0851H84.96V33.4351H86.61V33.8851Z" fill="#8E979D"/>
<path d="M87.525 31.6798C87.81 31.6198 88.2 31.5898 88.575 31.5898C89.16 31.5898 89.55 31.6948 89.805 31.9348C90.015 32.1298 90.135 32.4148 90.135 32.7448C90.135 33.2998 89.775 33.6748 89.34 33.8248V33.8398C89.655 33.9598 89.865 34.2598 89.955 34.7098C90.09 35.2948 90.195 35.7148 90.285 35.8798H89.715C89.64 35.7598 89.55 35.3998 89.43 34.8598C89.31 34.2748 89.07 34.0498 88.575 34.0348H88.065V35.8798H87.51V31.6798H87.525ZM88.08 33.6148H88.635C89.22 33.6148 89.595 33.2998 89.595 32.8048C89.595 32.2498 89.19 32.0098 88.62 32.0098C88.35 32.0098 88.17 32.0248 88.08 32.0548V33.6148Z" fill="#8E979D"/>
<path d="M90.9299 35.8801V31.6201H91.5299L92.8949 33.7801C93.2099 34.2751 93.4649 34.7251 93.6599 35.1601L93.6749 35.1451C93.6149 34.5751 93.6149 34.0651 93.6149 33.4051V31.6201H94.1249V35.8801H93.5699L92.2199 33.7201C91.9199 33.2401 91.6349 32.7601 91.4249 32.2951H91.4099C91.4399 32.8351 91.4549 33.3451 91.4549 34.0501V35.8651H90.9299V35.8801Z" fill="#8E979D"/>
<path d="M95.775 34.5451L95.34 35.8801H94.77L96.225 31.6201H96.885L98.34 35.8801H97.755L97.305 34.5451H95.775ZM97.17 34.1101L96.75 32.8801C96.66 32.5951 96.6 32.3551 96.525 32.1001H96.51C96.45 32.3401 96.375 32.6101 96.3 32.8651L95.88 34.0951H97.17V34.1101Z" fill="#8E979D"/>
<path d="M99.285 32.0851H97.98V31.6201H101.13V32.0851H99.84V35.8801H99.285V32.0851Z" fill="#8E979D"/>
<path d="M102.165 31.6201H101.61V35.8801H102.165V31.6201Z" fill="#8E979D"/>
<path d="M106.77 33.7049C106.77 35.1599 105.885 35.9399 104.79 35.9399C103.665 35.9399 102.87 35.0699 102.87 33.7799C102.87 32.4299 103.71 31.5449 104.835 31.5449C106.02 31.5449 106.77 32.4449 106.77 33.7049ZM103.455 33.7799C103.455 34.6949 103.95 35.5049 104.82 35.5049C105.69 35.5049 106.185 34.7099 106.185 33.7349C106.185 32.8799 105.75 31.9949 104.82 31.9949C103.89 31.9949 103.455 32.8499 103.455 33.7799Z" fill="#8E979D"/>
<path d="M107.49 35.8801V31.6201H108.09L109.455 33.7801C109.77 34.2751 110.01 34.7251 110.205 35.1601L110.22 35.1451C110.16 34.5751 110.16 34.0651 110.16 33.4051V31.6201H110.67V35.8801H110.115L108.765 33.7201C108.465 33.2401 108.18 32.7601 107.985 32.2951H107.97C108 32.8351 108.015 33.3451 108.015 34.0501V35.8651H107.49V35.8801Z" fill="#8E979D"/>
<path d="M112.335 34.5451L111.9 35.8801H111.33L112.785 31.6201H113.445L114.9 35.8801H114.315L113.865 34.5451H112.335ZM113.73 34.1101L113.31 32.8951C113.22 32.6101 113.16 32.3701 113.085 32.1151H113.07C113.01 32.3551 112.95 32.6251 112.86 32.8801L112.44 34.1101H113.73Z" fill="#8E979D"/>
<path d="M115.515 31.6201H116.07V35.4301H117.885V35.8801H115.515V31.6201Z" fill="#8E979D"/>
</svg>
