<svg width="91" height="56" viewBox="0 0 91 56" fill="none" xmlns="http://www.w3.org/2000/svg">
<path d="M88.2899 52.1699C88.1399 52.3949 87.9299 52.6049 87.6599 52.7699C87.3899 52.9349 87.0599 53.0699 86.6849 53.1899C86.3099 53.3099 85.8899 53.3699 85.4399 53.4149L85.5149 54.0749C86.0699 54.0149 86.5799 53.9099 87.0299 53.7749C87.4949 53.6399 87.8699 53.4299 88.1999 53.1899C88.5299 52.9349 88.7699 52.6049 88.9499 52.2149C89.1299 51.8249 89.2199 51.3299 89.2199 50.7449V49.7099C89.2199 49.3499 89.1899 49.0349 89.1299 48.7799C89.0549 48.5099 88.9799 48.2849 88.8749 48.0899C88.7549 47.8949 88.6349 47.7449 88.4999 47.6099C88.3499 47.4899 88.1999 47.3849 88.0349 47.3099C87.8699 47.2349 87.7049 47.1899 87.5399 47.1449C87.3749 47.1149 87.1949 47.0999 87.0299 47.0999C86.6849 47.0999 86.3699 47.1599 86.0699 47.2799C85.7849 47.3999 85.5449 47.5799 85.3199 47.7899C85.1099 47.9999 84.9599 48.2549 84.8399 48.5399C84.7199 48.8399 84.6749 49.1399 84.6749 49.4699C84.6749 49.7999 84.7199 49.9949 84.7949 50.2649C84.8849 50.5349 85.0199 50.7749 85.1999 50.9699C85.3949 51.1799 85.6349 51.3599 85.9349 51.4949C86.2349 51.6299 86.5949 51.7049 87.0299 51.7049C87.4649 51.7049 87.2099 51.7049 87.3299 51.7049C87.4499 51.7049 87.5699 51.6749 87.7049 51.6599C87.8399 51.6449 87.9599 51.6149 88.0949 51.5699C88.2299 51.5399 88.3499 51.4949 88.4699 51.4349C88.4699 51.7049 88.3949 51.9599 88.2599 52.1849M86.4149 50.8349C86.1749 50.7449 85.9799 50.6249 85.8449 50.4899C85.7099 50.3549 85.5899 50.1749 85.5149 49.9799C85.4399 49.7849 85.4099 49.5899 85.4099 49.3799C85.4099 49.1699 85.4549 48.8999 85.5299 48.7199C85.6049 48.5099 85.7249 48.3449 85.8599 48.1949C85.9949 48.0449 86.1599 47.9399 86.3399 47.8499C86.5349 47.7749 86.7299 47.7299 86.9549 47.7299C87.1799 47.7299 87.3449 47.7599 87.5249 47.8199C87.7199 47.8799 87.8699 47.9999 88.0349 48.1649C88.1849 48.3299 88.3049 48.5699 88.3949 48.8699C88.4849 49.1699 88.5299 49.5599 88.5299 50.0399V50.6999C88.4549 50.7299 88.3799 50.7599 88.2749 50.7899C88.1699 50.8199 88.0649 50.8499 87.9449 50.8649C87.8249 50.8949 87.7049 50.9099 87.5849 50.9249C87.4649 50.9249 87.3449 50.9549 87.2399 50.9549C86.9249 50.9549 86.6399 50.9099 86.3999 50.8199M82.0349 51.6749H82.7549V43.5599H82.0349V51.6749ZM79.2899 43.5449V50.9399H76.8299V45.9299H76.1249V50.9399H73.5749V51.6599H80.0099V43.5449H79.2749H79.2899ZM65.1899 48.4949H64.4699V50.0549C64.4699 50.2049 64.4399 50.3399 64.4099 50.4449C64.3799 50.5499 64.3049 50.6549 64.2299 50.7299C64.1399 50.8049 64.0199 50.8499 63.8849 50.8949C63.7349 50.9249 63.5549 50.9549 63.3299 50.9549H62.0399C61.9649 50.9549 61.9199 50.9549 61.8749 50.9849C61.8149 51.0149 61.7999 51.0599 61.7999 51.1199V51.5549C61.7999 51.6449 61.8749 51.6899 62.0549 51.6899H63.5099C63.9149 51.6899 64.2449 51.6449 64.4699 51.5549C64.7099 51.4649 64.8749 51.3449 64.9949 51.1949C65.0999 51.2999 65.2199 51.3749 65.3699 51.4499C65.5199 51.5249 65.6699 51.5699 65.8199 51.6149C65.9849 51.6449 66.1349 51.6899 66.2999 51.6899C66.4649 51.6899 66.6299 51.7199 66.7799 51.7199H67.0649C67.3799 51.7199 67.6349 51.6749 67.8299 51.5849C68.0399 51.4949 68.1749 51.3749 68.2949 51.2399C68.5349 51.4349 68.8349 51.5549 69.1949 51.6299C69.5549 51.7049 69.9599 51.7199 70.4099 51.7199H71.8349V47.3549H71.1149V50.9999H70.4999C70.0199 50.9999 69.6449 50.9699 69.3299 50.9249C69.0299 50.8799 68.7599 50.8049 68.5499 50.6849C68.5499 50.6399 68.5499 50.6099 68.5799 50.5649C68.5799 50.5349 68.5799 50.4899 68.5799 50.4449V48.0149H67.8599V50.0999C67.8599 50.3999 67.7849 50.6249 67.6499 50.7749C67.5149 50.9249 67.2749 50.9999 66.9449 50.9999H66.7799C66.4799 50.9999 66.1949 50.9699 65.9249 50.9249C65.6549 50.8799 65.3999 50.7749 65.1749 50.6249C65.1749 50.5949 65.1749 50.5649 65.1749 50.5349V48.5249L65.1899 48.4949ZM60.0449 45.0749C59.9549 44.9849 59.8499 44.9399 59.7149 44.9399C59.5799 44.9399 59.4749 44.9849 59.3849 45.0749C59.2949 45.1649 59.2499 45.2849 59.2499 45.4049C59.2499 45.5249 59.2949 45.6599 59.3849 45.7349C59.4749 45.8249 59.5949 45.8699 59.7149 45.8699C59.8349 45.8699 59.9549 45.8249 60.0449 45.7349C60.1349 45.6449 60.1799 45.5249 60.1799 45.4049C60.1799 45.2849 60.1349 45.1649 60.0449 45.0749ZM61.5149 45.0749C61.4249 44.9849 61.3199 44.9399 61.1849 44.9399C61.0499 44.9399 60.9449 44.9849 60.8549 45.0749C60.7649 45.1649 60.7199 45.2849 60.7199 45.4049C60.7199 45.5249 60.7649 45.6599 60.8549 45.7349C60.9449 45.8249 61.0649 45.8699 61.1849 45.8699C61.3049 45.8699 61.4249 45.8249 61.5149 45.7349C61.6049 45.6449 61.6499 45.5249 61.6499 45.4049C61.6499 45.2849 61.6049 45.1649 61.5149 45.0749ZM59.5499 51.6599C59.8049 51.6599 59.9999 51.6149 60.1649 51.5399C60.3299 51.4499 60.4649 51.3449 60.5549 51.1949C60.6599 51.2699 60.7649 51.3299 60.8849 51.3899C61.0049 51.4499 61.1249 51.5099 61.2599 51.5399C61.3949 51.5699 61.5449 51.6149 61.7099 51.6299C61.8749 51.6449 62.0699 51.6599 62.2799 51.6599H62.3549C62.4299 51.6599 62.4749 51.6599 62.5199 51.6299C62.5649 51.5999 62.5949 51.5699 62.5949 51.4949V51.0599C62.5949 50.9699 62.5199 50.9249 62.3399 50.9249H62.3099C61.6949 50.9249 61.1849 50.8049 60.7949 50.5799C60.7949 50.5199 60.7949 50.4749 60.8249 50.4149C60.8249 50.3549 60.8249 50.2949 60.8249 50.2499V47.2649H60.1049V50.0099C60.1049 50.1899 60.1049 50.3399 60.0749 50.4449C60.0449 50.5499 59.9999 50.6549 59.9549 50.7149C59.8949 50.7899 59.8199 50.8349 59.7299 50.8499C59.6399 50.8649 59.5199 50.8799 59.3849 50.8799H58.1849C58.1099 50.8799 58.0649 50.8799 58.0199 50.9099C57.9749 50.9399 57.9449 50.9849 57.9449 51.0449V51.4799C57.9449 51.5699 58.0199 51.6149 58.1999 51.6149H59.5649V51.6449L59.5499 51.6599ZM56.8499 44.0099C56.7599 43.9199 56.6549 43.8749 56.5199 43.8749C56.3849 43.8749 56.2799 43.9199 56.1899 44.0099C56.0999 44.0999 56.0549 44.2199 56.0549 44.3399C56.0549 44.4599 56.0999 44.5949 56.1899 44.6699C56.2799 44.7599 56.3999 44.8049 56.5199 44.8049C56.6399 44.8049 56.7599 44.7599 56.8499 44.6699C56.9399 44.5799 56.9849 44.4599 56.9849 44.3399C56.9849 44.2199 56.9399 44.0999 56.8499 44.0099ZM56.1749 45.0749C56.0849 44.9849 55.9799 44.9399 55.8449 44.9399C55.7099 44.9399 55.6049 44.9849 55.5149 45.0749C55.4249 45.1649 55.3799 45.2849 55.3799 45.4049C55.3799 45.5249 55.4249 45.6599 55.5149 45.7349C55.6049 45.8249 55.7249 45.8699 55.8449 45.8699C55.9649 45.8699 56.0849 45.8249 56.1749 45.7349C56.2649 45.6449 56.3099 45.5249 56.3099 45.4049C56.3099 45.2849 56.2499 45.1649 56.1749 45.0749ZM57.6449 45.0749C57.5549 44.9849 57.4499 44.9399 57.3149 44.9399C57.1799 44.9399 57.0749 44.9849 56.9849 45.0749C56.8949 45.1649 56.8499 45.2849 56.8499 45.4049C56.8499 45.5249 56.8949 45.6599 56.9849 45.7349C57.0749 45.8249 57.1949 45.8699 57.3149 45.8699C57.4349 45.8699 57.5549 45.8249 57.6449 45.7349C57.7349 45.6449 57.7799 45.5249 57.7799 45.4049C57.7799 45.2849 57.7199 45.1649 57.6449 45.0749ZM55.6949 51.6599C55.9499 51.6599 56.1449 51.6149 56.3099 51.5399C56.4749 51.4499 56.6099 51.3449 56.6999 51.1949C56.8049 51.2699 56.9099 51.3299 57.0299 51.3899C57.1499 51.4499 57.2699 51.5099 57.4049 51.5399C57.5399 51.5699 57.6899 51.6149 57.8549 51.6299C58.0199 51.6449 58.2149 51.6599 58.4249 51.6599H58.4999C58.5749 51.6599 58.6199 51.6599 58.6649 51.6299C58.7099 51.5999 58.7399 51.5699 58.7399 51.4949V51.0599C58.7399 50.9699 58.6649 50.9249 58.4849 50.9249H58.4249C57.8099 50.9249 57.2999 50.8049 56.9099 50.5799C56.9099 50.5199 56.9099 50.4749 56.9399 50.4149C56.9399 50.3549 56.9399 50.2949 56.9399 50.2499V47.2649H56.2199V50.0099C56.2199 50.1899 56.2199 50.3399 56.1899 50.4449C56.1599 50.5499 56.1149 50.6549 56.0699 50.7149C56.0099 50.7899 55.9349 50.8349 55.8449 50.8499C55.7549 50.8649 55.6349 50.8799 55.4999 50.8799H54.2999C54.2249 50.8799 54.1799 50.8799 54.1349 50.9099C54.0899 50.9399 54.0599 50.9849 54.0599 51.0449V51.4799C54.0599 51.5699 54.1349 51.6149 54.3149 51.6149H55.6949V51.6449V51.6599ZM52.6499 50.3099C52.5749 50.4749 52.4399 50.6099 52.3049 50.6999C52.1399 50.8049 51.9599 50.8799 51.7499 50.9249C51.5399 50.9699 51.2999 50.9999 51.0299 50.9999C50.7599 50.9999 50.6699 50.9699 50.4749 50.9399C50.2799 50.9099 50.0999 50.8499 49.9199 50.7899C49.7549 50.7299 49.5899 50.6699 49.4549 50.5799C49.3199 50.5049 49.2299 50.4149 49.1699 50.3549C49.2449 50.0099 49.3499 49.7099 49.4699 49.4099C49.5899 49.1099 49.7399 48.8549 49.9049 48.6299C50.0699 48.4049 50.2499 48.2399 50.4599 48.1049C50.6699 47.9699 50.8949 47.8949 51.1199 47.8949C51.3449 47.8949 51.6149 47.9549 51.8249 48.0899C52.0349 48.2099 52.1999 48.3749 52.3349 48.5549C52.4699 48.7349 52.5749 48.9449 52.6349 49.1549C52.7099 49.3649 52.7399 49.5599 52.7399 49.7249C52.7399 49.9499 52.7099 50.1449 52.6349 50.2949M49.3349 51.2549C49.4999 51.3449 49.6799 51.4349 49.8899 51.5099C50.0999 51.5849 50.2949 51.6299 50.5049 51.6749C50.7149 51.7199 50.9399 51.7499 51.1799 51.7499C51.5399 51.7499 51.8399 51.6899 52.1099 51.5849C52.3799 51.4799 52.5899 51.3299 52.7699 51.1649C52.8899 51.2399 52.9949 51.3149 53.1149 51.3749C53.2349 51.4499 53.3699 51.4949 53.5049 51.5399C53.6399 51.5849 53.8049 51.6149 53.9849 51.6449C54.1499 51.6749 54.3599 51.6749 54.5849 51.6749H54.6599C54.7349 51.6749 54.7799 51.6749 54.8249 51.6449C54.8699 51.6149 54.8999 51.5849 54.8999 51.5099V51.0749C54.8999 50.9849 54.8249 50.9399 54.6449 50.9399H54.5849C54.2849 50.9399 54.0149 50.9099 53.7749 50.8649C53.5349 50.8199 53.3249 50.7449 53.1299 50.6399C53.2049 50.4749 53.2649 50.3099 53.3099 50.1299C53.3549 49.9499 53.3699 49.7699 53.3699 49.5899C53.3699 49.4099 53.3399 49.2449 53.2949 49.0649C53.2499 48.8849 53.1899 48.7049 53.1149 48.5249C53.0399 48.3449 52.9349 48.1799 52.8149 48.0149C52.6949 47.8499 52.5599 47.7149 52.3799 47.5799C52.2149 47.4599 52.0349 47.3699 51.8249 47.2799C51.6149 47.2049 51.3899 47.1599 51.1499 47.1599C50.9099 47.1599 50.8949 47.1599 50.7599 47.1899C50.6249 47.2199 50.4749 47.2649 50.3249 47.3549C50.1749 47.4449 50.0249 47.5349 49.8599 47.6699C49.6949 47.8049 49.5449 47.9699 49.3949 48.1949C49.2299 48.4049 49.0949 48.6749 48.9599 48.9899C48.8249 49.3049 48.6899 49.6649 48.5699 50.0999C48.5249 50.2649 48.4649 50.3849 48.3899 50.4899C48.3149 50.5949 48.2249 50.6849 48.1199 50.7449C48.0149 50.8199 47.9099 50.8649 47.7899 50.8799C47.6699 50.9099 47.5499 50.9249 47.4449 50.9249H47.2349C47.1599 50.9249 47.1149 50.9249 47.0699 50.9549C47.0249 50.9849 46.9949 51.0299 46.9949 51.0899V51.5249C46.9949 51.6149 47.0699 51.6599 47.2499 51.6599H47.5349C47.6849 51.6599 47.8349 51.6599 47.9549 51.6299C48.0899 51.5999 48.2099 51.5699 48.3149 51.5099C48.4199 51.4499 48.5249 51.3899 48.6149 51.2849C48.7049 51.1949 48.7949 51.0749 48.8699 50.9249C49.0049 51.0449 49.1549 51.1649 49.3199 51.2549M45.6299 50.0699C45.6299 50.2949 45.6599 50.5049 45.7049 50.6999C45.7649 50.8949 45.8399 51.0599 45.9599 51.2099C46.0799 51.3599 46.2299 51.4649 46.4099 51.5549C46.5899 51.6299 46.8149 51.6749 47.0849 51.6749H47.5799C47.6549 51.6749 47.7149 51.6749 47.7599 51.6449C47.8049 51.6149 47.8349 51.5849 47.8349 51.5099V51.0749C47.8349 50.9849 47.7449 50.9399 47.5799 50.9399H47.3249C47.1299 50.9399 46.9799 50.9099 46.8449 50.8799C46.7249 50.8499 46.6199 50.7899 46.5449 50.6999C46.4699 50.6099 46.4249 50.4899 46.3799 50.3549C46.3499 50.2049 46.3349 50.0399 46.3349 49.8299V43.5449H45.6149V50.0549L45.6299 50.0699ZM40.9499 54.2099C41.4149 54.1349 41.8199 54.0299 42.1499 53.8799C42.4949 53.7299 42.7649 53.5349 42.9749 53.2949C43.1849 53.0399 43.3499 52.7549 43.4549 52.3949C43.5599 52.0349 43.6199 51.6149 43.6199 51.1199V47.2949H42.8999V50.9399C42.8999 51.3299 42.8699 51.6449 42.8249 51.9449C42.7649 52.2449 42.6599 52.4849 42.5249 52.6949C42.3749 52.9049 42.1799 53.0849 41.9099 53.2199C41.6549 53.3549 41.3099 53.4599 40.8899 53.5349L40.9799 54.2249L40.9499 54.2099ZM35.8049 51.6749H36.5249V43.5599H35.8049V51.6749ZM33.7799 51.6599V43.5449H33.0599V50.9399H31.1999C31.1249 50.9399 31.0649 50.9399 31.0199 50.9699C30.9749 50.9999 30.9449 51.0449 30.9449 51.1049V51.5399C30.9449 51.6299 31.0349 51.6749 31.1999 51.6749H33.7799V51.6599ZM29.4449 48.6899C29.3699 48.8549 29.2649 49.0199 29.1449 49.1999C29.0099 49.3799 28.8599 49.5599 28.6799 49.7249C28.4999 49.9049 28.3199 50.0549 28.1099 50.1899C27.9899 50.0999 27.8549 49.9949 27.7349 49.8749C27.5999 49.7549 27.4799 49.6199 27.3449 49.4999C27.2249 49.3649 27.0899 49.2299 26.9849 49.0949C26.8649 48.9599 26.7599 48.8249 26.6549 48.7049C26.5499 48.5849 26.4749 48.4499 26.3999 48.3449C26.3249 48.2249 26.2649 48.1349 26.2199 48.0449C26.6099 47.8649 26.9699 47.7449 27.2999 47.6849C27.6149 47.6249 27.8699 47.5949 28.0649 47.5949C28.2599 47.5949 28.4999 47.6249 28.6799 47.6399C28.8599 47.6699 29.0249 47.7149 29.1449 47.7899C29.2649 47.8499 29.3699 47.9249 29.4449 47.9999C29.5199 48.0749 29.5499 48.1649 29.5499 48.2699C29.5499 48.3899 29.5049 48.5249 29.4299 48.6899M26.6099 50.8349C26.2649 50.9099 25.8599 50.9549 25.3799 50.9549H24.5099C24.4349 50.9549 24.3899 50.9549 24.3299 50.9849C24.2699 51.0149 24.2549 51.0599 24.2549 51.1199V51.5549C24.2549 51.6449 24.3449 51.6899 24.5099 51.6899H25.3049C25.5599 51.6899 25.8299 51.6899 26.0549 51.6449C26.2949 51.6149 26.5199 51.5699 26.7299 51.5099C26.9399 51.4499 27.1649 51.3749 27.3599 51.2699C27.5699 51.1799 27.7799 51.0599 27.9749 50.9399C28.0799 50.9999 28.2149 51.0749 28.3799 51.1499C28.5449 51.2399 28.7549 51.3149 28.9799 51.4049C29.2049 51.4949 29.4599 51.5549 29.7449 51.6149C30.0299 51.6749 30.3299 51.6899 30.6599 51.6899H31.4999C31.5749 51.6899 31.6199 51.6899 31.6799 51.6599C31.7249 51.6299 31.7549 51.5999 31.7549 51.5249V51.0899C31.7549 50.9999 31.6799 50.9549 31.4999 50.9549H30.9899C30.7799 50.9549 30.5549 50.9549 30.3599 50.9249C30.1499 50.8949 29.9399 50.8799 29.7449 50.8349C29.5349 50.8049 29.3549 50.7599 29.1749 50.6999C28.9949 50.6549 28.8299 50.5799 28.6949 50.5199C29.0249 50.2199 29.2949 49.9349 29.4899 49.6799C29.6999 49.4099 29.8349 49.1699 29.9399 48.9449C30.0449 48.7199 30.1049 48.5249 30.1499 48.3749C30.1949 48.2249 30.1949 48.0749 30.1949 47.9849C30.1949 47.8049 30.1349 47.6549 30.0299 47.5349C29.9249 47.4149 29.7899 47.3099 29.6399 47.2199C29.4749 47.1449 29.2949 47.0849 29.0999 47.0399C28.8899 47.0099 28.6949 46.9799 28.4999 46.9799C28.2149 46.9799 27.9449 47.0099 27.6749 47.0399C27.4199 47.0699 27.1649 47.1149 26.9399 47.1749C26.7149 47.2349 26.5049 47.2949 26.3249 47.3699C26.1449 47.4449 25.9799 47.5049 25.8749 47.5799C25.8449 47.5799 25.8149 47.6249 25.7999 47.6699C25.7699 47.7149 25.7549 47.7899 25.7249 47.8499C25.6949 47.9249 25.6799 47.9999 25.6499 48.0749C25.6199 48.1499 25.6049 48.2399 25.5749 48.3149C25.6349 48.3749 25.7249 48.4799 25.8299 48.6299C25.9349 48.7799 26.0699 48.9599 26.2199 49.1549C26.3699 49.3499 26.5649 49.5749 26.7749 49.8149C26.9849 50.0549 27.2249 50.2799 27.5099 50.5199C27.2549 50.6849 26.9399 50.7749 26.5949 50.8649M19.6799 48.5099C19.7699 48.3149 19.8899 48.1649 20.0399 48.0449C20.1899 47.9249 20.3549 47.8349 20.5499 47.7749C20.7449 47.7149 20.9399 47.6849 21.1199 47.6849C21.2999 47.6849 21.5099 47.7149 21.6899 47.7899C21.8699 47.8649 22.0349 47.9549 22.1699 48.0899C22.3199 48.2249 22.4249 48.3899 22.5149 48.5699C22.6049 48.7649 22.6499 48.9899 22.6499 49.2449C22.6499 49.4999 22.6199 49.5899 22.5749 49.7549C22.5299 49.9199 22.4849 50.0849 22.4099 50.2349C22.3349 50.3849 22.2749 50.5199 22.1999 50.6399C22.1249 50.7599 22.0649 50.8649 22.0049 50.9399H21.5099C21.2249 50.9399 20.9699 50.8949 20.7299 50.8199C20.4749 50.7299 20.2799 50.6099 20.0999 50.4599C19.9199 50.3099 19.7699 50.1149 19.6649 49.9049C19.5599 49.6949 19.4999 49.4549 19.4999 49.1999C19.4999 48.9449 19.5449 48.7199 19.6499 48.5249M24.8249 51.6599C24.8999 51.6599 24.9449 51.6599 25.0049 51.6299C25.0499 51.5999 25.0799 51.5699 25.0799 51.4949V51.0599C25.0799 50.9699 25.0049 50.9249 24.8249 50.9249H22.7699C22.8299 50.8349 22.8899 50.7149 22.9649 50.5649C23.0399 50.4149 23.0849 50.2649 23.1449 50.0849C23.2049 49.9049 23.2499 49.7399 23.2799 49.5599C23.3099 49.3799 23.3399 49.1999 23.3399 49.0349C23.3399 48.7649 23.2949 48.5099 23.2049 48.2699C23.1149 48.0299 22.9799 47.8199 22.7999 47.6399C22.6199 47.4599 22.3949 47.3099 22.1249 47.2049C21.8549 47.0999 21.5399 47.0399 21.1649 47.0399C20.7899 47.0399 20.4749 47.0999 20.1899 47.2199C19.9049 47.3399 19.6649 47.5049 19.4699 47.6999C19.2749 47.9099 19.1249 48.1349 19.0349 48.4049C18.9299 48.6749 18.8699 48.9599 18.8699 49.2599C18.8699 49.5599 18.8999 49.5749 18.9449 49.7399C18.9899 49.9049 19.0649 50.0399 19.1399 50.1899C19.2299 50.3399 19.3349 50.4749 19.4549 50.5949C19.5749 50.7149 19.7249 50.8349 19.8899 50.9249H17.7449C17.6699 50.9249 17.6249 50.9249 17.5799 50.9549C17.5349 50.9849 17.5049 51.0299 17.5049 51.0899V51.5249C17.5049 51.6149 17.5799 51.6599 17.7599 51.6599H18.2549C18.5399 51.6599 18.8249 51.6599 19.1249 51.6599C19.4249 51.6599 19.7099 51.6299 20.0099 51.6299C20.2949 51.6299 20.5799 51.5999 20.8499 51.5699C21.1199 51.5399 21.3749 51.5099 21.5999 51.4799C21.7649 51.5099 21.9449 51.5549 22.1399 51.5699C22.3499 51.5999 22.5449 51.6149 22.7699 51.6449C22.9949 51.6749 23.2199 51.6749 23.4599 51.6749C23.6999 51.6749 23.9399 51.6749 24.1649 51.6749H24.8549V51.6449L24.8249 51.6599ZM20.7149 45.0749C20.6249 44.9849 20.5049 44.9399 20.3849 44.9399C20.2649 44.9399 20.1449 44.9849 20.0549 45.0749C19.9649 45.1649 19.9199 45.2849 19.9199 45.4049C19.9199 45.5249 19.9649 45.6599 20.0549 45.7349C20.1449 45.8249 20.2649 45.8699 20.3849 45.8699C20.5049 45.8699 20.6249 45.8249 20.7149 45.7349C20.8049 45.6449 20.8499 45.5249 20.8499 45.4049C20.8499 45.2849 20.8049 45.1649 20.7149 45.0749ZM22.1699 45.0749C22.0799 44.9849 21.9749 44.9399 21.8399 44.9399C21.7049 44.9399 21.5999 44.9849 21.5099 45.0749C21.4199 45.1649 21.3749 45.2849 21.3749 45.4049C21.3749 45.5249 21.4199 45.6599 21.5099 45.7349C21.5999 45.8249 21.7199 45.8699 21.8399 45.8699C21.9599 45.8699 22.0799 45.8249 22.1699 45.7349C22.2599 45.6449 22.2899 45.5249 22.2899 45.4049C22.2899 45.2849 22.2599 45.1649 22.1699 45.0749ZM16.1249 50.0699C16.1249 50.2949 16.1549 50.5049 16.1999 50.6999C16.2599 50.8949 16.3349 51.0599 16.4549 51.2099C16.5749 51.3599 16.7249 51.4649 16.9049 51.5549C17.0849 51.6299 17.3099 51.6749 17.5799 51.6749H18.0749C18.1499 51.6749 18.2099 51.6749 18.2549 51.6449C18.2999 51.6149 18.3299 51.5849 18.3299 51.5099V51.0749C18.3299 50.9849 18.2399 50.9399 18.0749 50.9399H17.8199C17.6249 50.9399 17.4749 50.9099 17.3399 50.8799C17.2199 50.8499 17.1149 50.7899 17.0399 50.6999C16.9649 50.6099 16.9199 50.4899 16.8749 50.3549C16.8449 50.2049 16.8299 50.0399 16.8299 49.8299V43.5449H16.1099V50.0549L16.1249 50.0699ZM11.4299 54.2099C11.8949 54.1349 12.2999 54.0299 12.6299 53.8799C12.9749 53.7299 13.2449 53.5349 13.4549 53.2949C13.6649 53.0399 13.8299 52.7549 13.9349 52.3949C14.0399 52.0349 14.0999 51.6149 14.0999 51.1199V47.2949H13.3799V50.9399C13.3799 51.3299 13.3499 51.6449 13.3049 51.9449C13.2449 52.2449 13.1399 52.4849 13.0049 52.6949C12.8549 52.9049 12.6599 53.0849 12.3899 53.2199C12.1349 53.3549 11.7899 53.4599 11.3699 53.5349L11.4599 54.2249L11.4299 54.2099ZM7.2599 55.6649C7.3499 55.7549 7.4549 55.7999 7.5899 55.7999C7.7249 55.7999 7.8299 55.7549 7.9199 55.6649C8.0099 55.5749 8.0549 55.4549 8.0549 55.3349C8.0549 55.2149 8.0099 55.0949 7.9199 55.0049C7.8299 54.9149 7.7099 54.8699 7.5899 54.8699C7.4699 54.8699 7.3499 54.9149 7.2599 55.0049C7.1699 55.0949 7.1249 55.2149 7.1249 55.3349C7.1249 55.4549 7.1699 55.5749 7.2599 55.6649ZM5.7899 55.6649C5.8799 55.7549 5.9849 55.7999 6.1199 55.7999C6.2549 55.7999 6.3599 55.7549 6.4499 55.6649C6.5399 55.5749 6.5849 55.4549 6.5849 55.3349C6.5849 55.2149 6.5399 55.0949 6.4499 55.0049C6.3599 54.9149 6.2399 54.8699 6.1199 54.8699C5.9999 54.8699 5.8799 54.9149 5.7899 55.0049C5.6999 55.0949 5.6549 55.2149 5.6549 55.3349C5.6549 55.4549 5.6999 55.5749 5.7899 55.6649ZM9.41991 52.3499C9.28491 52.5299 9.0899 52.6949 8.8499 52.8599C8.5949 53.0099 8.3249 53.1299 7.9799 53.2349C7.6349 53.3249 7.2749 53.3849 6.8999 53.3849C6.3449 53.3849 5.8799 53.3249 5.4899 53.2049C5.0999 53.0849 4.7849 52.9199 4.5599 52.7249C4.3349 52.5299 4.1399 52.2899 4.0349 52.0199C3.9299 51.7499 3.8699 51.4799 3.8699 51.1949C3.8699 50.9099 3.8999 50.6249 3.9899 50.3549C4.0649 50.0549 4.1849 49.7999 4.3349 49.5599L3.7499 49.2149C3.5699 49.4849 3.4199 49.7999 3.3149 50.1449C3.2099 50.4899 3.1499 50.8799 3.1499 51.2699C3.1499 51.6599 3.1799 51.6299 3.2249 51.8399C3.2699 52.0499 3.3449 52.2599 3.4499 52.4699C3.5549 52.6799 3.7049 52.8899 3.8849 53.0849C4.0649 53.2799 4.2899 53.4599 4.5599 53.6099C4.8299 53.7599 5.1449 53.8799 5.5199 53.9849C5.8949 54.0749 6.3149 54.1199 6.8099 54.1199C7.3049 54.1199 7.5599 54.0899 7.8899 53.9999C8.2199 53.9249 8.5199 53.8199 8.7749 53.6999C9.0449 53.5799 9.2699 53.4149 9.4799 53.2649C9.6899 53.0999 9.8549 52.9199 9.9899 52.7399C10.1249 52.5599 10.2299 52.3649 10.2899 52.1699C10.3649 51.9749 10.3949 51.8099 10.3949 51.6449C10.3949 51.4799 10.3349 51.2999 10.2299 51.1349C10.1249 50.9699 9.9899 50.8199 9.8399 50.6699C9.6749 50.5199 9.50991 50.3699 9.34491 50.2349C9.16491 50.0999 8.9999 49.9649 8.8499 49.8149C8.6849 49.6799 8.5649 49.5299 8.4599 49.3949C8.3549 49.2449 8.2949 49.1099 8.2949 48.9599C8.2949 48.8099 8.3399 48.5999 8.4299 48.4799C8.5199 48.3449 8.6399 48.2399 8.7749 48.1649C8.9099 48.0899 9.0449 48.0299 9.2099 47.9999C9.3749 47.9699 9.50991 47.9549 9.64491 47.9549C9.77991 47.9549 9.9149 47.9549 10.0499 47.9849C10.1849 48.0149 10.3049 48.0299 10.4249 48.0599C10.5449 48.0899 10.6799 48.1199 10.7999 48.1499L10.9949 47.4449C10.8749 47.4149 10.7099 47.3699 10.4999 47.3249C10.2899 47.2799 10.0199 47.2499 9.6899 47.2499C9.3599 47.2499 9.2399 47.2799 8.9849 47.3549C8.7449 47.4299 8.5199 47.5199 8.3249 47.6549C8.1149 47.7899 7.9649 47.9849 7.8299 48.1949C7.6949 48.4199 7.6349 48.6899 7.6349 49.0199C7.6349 49.3499 7.6799 49.4399 7.7849 49.6199C7.8899 49.7999 8.0099 49.9649 8.1599 50.1299C8.3099 50.2949 8.4749 50.4299 8.6399 50.5799C8.8049 50.7299 8.98491 50.8649 9.11991 50.9999C9.25491 51.1349 9.38991 51.2699 9.49491 51.4049C9.59991 51.5399 9.64491 51.6749 9.64491 51.8249C9.64491 51.9599 9.5699 52.1399 9.4349 52.3349" fill="black"/>
<path d="M88.785 37.5899C88.71 37.7549 88.59 37.8749 88.44 37.9799C88.29 38.0849 88.11 38.1599 87.9 38.2049C87.69 38.2499 87.465 38.2799 87.195 38.2799C86.925 38.2799 86.85 38.2499 86.67 38.2199C86.475 38.1899 86.31 38.1299 86.145 38.0699C85.98 38.0099 85.83 37.9499 85.695 37.8599C85.575 37.7849 85.485 37.7099 85.425 37.6349C85.5 37.3049 85.605 37.0049 85.725 36.7199C85.845 36.4199 85.98 36.1799 86.16 35.9699C86.325 35.7599 86.505 35.5799 86.7 35.4449C86.895 35.3099 87.12 35.2499 87.345 35.2499C87.57 35.2499 87.825 35.3099 88.035 35.4299C88.245 35.5499 88.395 35.6999 88.53 35.8799C88.665 36.0599 88.77 36.2549 88.83 36.4499C88.905 36.6599 88.935 36.8399 88.935 37.0049C88.905 37.2449 88.875 37.4249 88.8 37.5749M85.575 38.5049C85.74 38.5949 85.92 38.6699 86.115 38.7449C86.31 38.8199 86.505 38.8649 86.73 38.9099C86.94 38.9549 87.165 38.9699 87.39 38.9699C87.765 38.9699 88.095 38.9099 88.35 38.7899C88.62 38.6699 88.83 38.5199 89.01 38.3249C89.175 38.1299 89.31 37.9049 89.4 37.6649C89.49 37.4249 89.52 37.1549 89.52 36.8999C89.52 36.6449 89.49 36.5699 89.46 36.3899C89.415 36.2099 89.355 36.0449 89.28 35.8649C89.205 35.6999 89.1 35.5199 88.98 35.3699C88.86 35.2199 88.725 35.0699 88.56 34.9499C88.395 34.8299 88.215 34.7399 88.02 34.6649C87.825 34.5899 87.6 34.5449 87.36 34.5449C87.12 34.5449 87.12 34.5449 86.985 34.5749C86.85 34.6049 86.7 34.6499 86.55 34.7249C86.4 34.7999 86.25 34.9049 86.1 35.0249C85.935 35.1599 85.8 35.3249 85.65 35.5349C85.5 35.7449 85.35 36.0149 85.215 36.2999C85.08 36.5999 84.96 36.9599 84.84 37.3649C84.795 37.5149 84.735 37.6349 84.66 37.7399C84.585 37.8449 84.495 37.9199 84.405 37.9799C84.3 38.0399 84.195 38.0849 84.09 38.1149C83.97 38.1449 83.865 38.1599 83.745 38.1599H83.535C83.46 38.1599 83.415 38.1599 83.37 38.1899C83.325 38.2199 83.295 38.2499 83.295 38.3249V38.7449C83.295 38.8349 83.37 38.8649 83.535 38.8649H83.805C83.955 38.8649 84.09 38.8649 84.21 38.8349C84.33 38.8049 84.465 38.7749 84.555 38.7299C84.675 38.6699 84.765 38.6099 84.855 38.5199C84.945 38.4299 85.02 38.3099 85.11 38.1749C85.23 38.3399 85.38 38.4299 85.545 38.5199M81.855 36.0299C81.78 36.1949 81.69 36.3449 81.555 36.5249C81.435 36.6899 81.285 36.8699 81.105 37.0499C80.94 37.2149 80.76 37.3799 80.55 37.4999C80.43 37.4099 80.31 37.3049 80.175 37.1999C80.055 37.0799 79.92 36.9599 79.8 36.8399C79.68 36.7199 79.56 36.5849 79.455 36.4499C79.35 36.3149 79.23 36.1949 79.14 36.0599C79.05 35.9399 78.96 35.8199 78.885 35.7149C78.81 35.5949 78.75 35.5049 78.72 35.4299C79.11 35.2649 79.47 35.1299 79.77 35.0849C80.085 35.0249 80.34 34.9949 80.52 34.9949C80.7 34.9949 80.955 34.9949 81.12 35.0399C81.3 35.0699 81.45 35.1149 81.57 35.1749C81.69 35.2349 81.78 35.3099 81.855 35.3849C81.93 35.4599 81.945 35.5499 81.945 35.6399C81.975 35.7449 81.945 35.8799 81.855 36.0299ZM79.095 38.0999C78.75 38.1749 78.36 38.2199 77.895 38.2199H77.055C76.98 38.2199 76.935 38.2199 76.89 38.2499C76.845 38.2499 76.815 38.3099 76.815 38.3849V38.8049C76.815 38.8949 76.89 38.9249 77.07 38.9249H77.835C78.09 38.9249 78.33 38.9249 78.57 38.8799C78.795 38.8499 79.02 38.8049 79.23 38.7449C79.44 38.6849 79.65 38.6099 79.845 38.5199C80.04 38.4299 80.25 38.3099 80.46 38.2049C80.55 38.2649 80.685 38.3249 80.85 38.4149C81.015 38.4899 81.21 38.5799 81.435 38.6549C81.66 38.7299 81.915 38.7899 82.185 38.8499C82.455 38.9099 82.755 38.9249 83.07 38.9249H83.88C83.955 38.9249 84 38.9249 84.045 38.8949C84.09 38.8949 84.12 38.8349 84.12 38.7749V38.3549C84.12 38.2649 84.045 38.2349 83.88 38.2349H83.385C83.175 38.2349 82.965 38.2349 82.77 38.2049C82.575 38.1749 82.365 38.1599 82.17 38.1299C81.975 38.0999 81.795 38.0549 81.615 38.0099C81.45 37.9649 81.285 37.8899 81.15 37.8449C81.48 37.5449 81.735 37.2749 81.93 37.0199C82.125 36.7649 82.275 36.5249 82.365 36.3149C82.47 36.1049 82.53 35.9099 82.56 35.7449C82.59 35.5799 82.605 35.4599 82.605 35.3699C82.605 35.2049 82.56 35.0549 82.455 34.9349C82.35 34.8149 82.23 34.7099 82.065 34.6349C81.9 34.5599 81.72 34.4999 81.54 34.4699C81.36 34.4399 81.15 34.4099 80.955 34.4099C80.76 34.4099 80.415 34.4399 80.16 34.4699C79.905 34.4999 79.665 34.5449 79.455 34.6049C79.23 34.6649 79.035 34.7249 78.855 34.7849C78.675 34.8449 78.525 34.9199 78.42 34.9949C78.39 34.9949 78.375 35.0399 78.345 35.0849C78.315 35.1299 78.3 35.1899 78.27 35.2499C78.24 35.3249 78.225 35.3999 78.195 35.4749C78.165 35.5499 78.15 35.6399 78.135 35.7149C78.195 35.7749 78.27 35.8799 78.375 36.0149C78.48 36.1649 78.6 36.3299 78.765 36.5399C78.93 36.7499 79.095 36.9449 79.305 37.1849C79.515 37.4099 79.74 37.6349 80.01 37.8599C79.725 37.9649 79.44 38.0699 79.095 38.1449M73.47 41.3849C73.875 41.3099 74.235 41.2199 74.535 41.0999C74.835 40.9799 75.105 40.8149 75.3 40.6199C75.51 40.4099 75.675 40.1849 75.795 39.8999C75.915 39.6149 75.99 39.2849 76.02 38.8949H77.355C77.43 38.8949 77.475 38.8949 77.52 38.8649C77.565 38.8649 77.595 38.8049 77.595 38.7449V38.3249C77.595 38.2349 77.52 38.2049 77.355 38.2049H76.035V34.6499H75.33V38.2049C75.33 38.5799 75.3 38.9099 75.255 39.1799C75.21 39.4499 75.09 39.7049 74.955 39.9149C74.805 40.1249 74.61 40.2899 74.355 40.4249C74.1 40.5599 73.77 40.6649 73.365 40.7249L73.44 41.3699L73.47 41.3849ZM69.075 32.4899C68.985 32.3999 68.88 32.3549 68.76 32.3549C68.64 32.3549 68.535 32.3999 68.445 32.4899C68.355 32.5799 68.31 32.6849 68.31 32.8049C68.31 32.9249 68.355 33.0449 68.445 33.1349C68.535 33.2249 68.64 33.2549 68.76 33.2549C68.88 33.2549 68.985 33.2099 69.075 33.1349C69.165 33.0449 69.195 32.9399 69.195 32.8049C69.195 32.6849 69.165 32.5799 69.075 32.4899ZM71.895 38.2199H66.855C66.93 37.9799 67.005 37.7399 67.11 37.4699C67.215 37.1999 67.35 36.9599 67.5 36.7199C67.65 36.4649 67.815 36.2399 67.995 36.0149C68.175 35.8049 68.385 35.6099 68.595 35.4449C68.805 35.2799 69.045 35.1449 69.285 35.0549C69.54 34.9499 69.78 34.9049 70.05 34.9049C70.32 34.9049 70.545 34.9349 70.77 35.0249C70.995 35.0999 71.19 35.2199 71.355 35.3849C71.52 35.5499 71.655 35.7749 71.745 36.0749C71.835 36.3599 71.895 36.7199 71.895 37.1399V38.2349V38.2199ZM64.185 39.1949C64.065 39.5399 63.885 39.8249 63.66 40.0649C63.435 40.3049 63.15 40.4849 62.82 40.6049C62.49 40.7249 62.115 40.7999 61.695 40.7999C61.275 40.7999 60.945 40.7249 60.63 40.6049C60.33 40.4849 60.06 40.3049 59.85 40.0799C59.64 39.8549 59.475 39.5999 59.37 39.2999C59.25 38.9999 59.205 38.6849 59.205 38.3549C59.205 38.0249 59.205 38.0999 59.235 37.9499C59.235 37.8149 59.28 37.6649 59.31 37.5299C59.34 37.3949 59.385 37.2599 59.43 37.1399C59.475 37.0199 59.52 36.8849 59.58 36.7799L58.98 36.4649C58.905 36.5999 58.845 36.7499 58.77 36.9149C58.71 37.0799 58.65 37.2599 58.605 37.4249C58.56 37.6049 58.515 37.7699 58.485 37.9649C58.455 38.1449 58.455 38.3249 58.455 38.5049C58.455 38.8949 58.53 39.2699 58.65 39.6299C58.77 39.9899 58.965 40.3049 59.235 40.5749C59.49 40.8449 59.82 41.0549 60.21 41.2349C60.6 41.3999 61.065 41.4899 61.605 41.4899C62.145 41.4899 62.565 41.4149 62.97 41.2799C63.36 41.1299 63.72 40.9349 64.005 40.6949C64.305 40.4399 64.53 40.1399 64.71 39.7799C64.875 39.4349 64.995 39.0299 65.055 38.6099C65.25 38.7149 65.445 38.7899 65.7 38.8499C65.94 38.9099 66.225 38.9249 66.555 38.9249H72.63V37.0049C72.63 36.6149 72.585 36.2549 72.495 35.9099C72.405 35.5649 72.255 35.2799 72.06 35.0249C71.865 34.7699 71.625 34.5899 71.31 34.4399C71.01 34.2899 70.65 34.2299 70.23 34.2299C69.81 34.2299 69.525 34.3049 69.21 34.4399C68.895 34.5749 68.595 34.7399 68.325 34.9649C68.055 35.1749 67.8 35.4299 67.575 35.7149C67.35 35.9999 67.14 36.2849 66.96 36.5849C66.78 36.8849 66.63 37.1699 66.495 37.4549C66.375 37.7549 66.27 38.0099 66.195 38.2499C65.985 38.2499 65.775 38.2199 65.58 38.1749C65.4 38.1299 65.22 38.0549 65.055 37.9649C65.055 37.7999 65.025 37.6199 65.01 37.4549C64.98 37.2749 64.95 37.1099 64.92 36.9299C64.89 36.7649 64.845 36.5849 64.8 36.4199C64.755 36.2549 64.71 36.1049 64.665 35.9699L63.975 36.1799C64.035 36.3449 64.095 36.5099 64.14 36.6899C64.185 36.8699 64.23 37.0349 64.26 37.2149C64.29 37.3949 64.32 37.5449 64.335 37.6949C64.335 37.8449 64.365 37.9799 64.365 38.0849C64.365 38.4899 64.29 38.8799 64.17 39.2249M53.655 32.4899C53.565 32.3999 53.46 32.3549 53.34 32.3549C53.22 32.3549 53.115 32.3999 53.025 32.4899C52.935 32.5799 52.89 32.6849 52.89 32.8049C52.89 32.9249 52.935 33.0449 53.025 33.1349C53.115 33.2249 53.22 33.2549 53.34 33.2549C53.46 33.2549 53.565 33.2099 53.655 33.1349C53.745 33.0599 53.775 32.9399 53.775 32.8049C53.775 32.6849 53.745 32.5799 53.655 32.4899ZM55.08 32.4899C55.005 32.3999 54.885 32.3549 54.765 32.3549C54.645 32.3549 54.54 32.3999 54.45 32.4899C54.36 32.5799 54.315 32.6849 54.315 32.8049C54.315 32.9249 54.36 33.0449 54.45 33.1349C54.54 33.2249 54.645 33.2549 54.765 33.2549C54.885 33.2549 55.005 33.2099 55.08 33.1349C55.17 33.0449 55.2 32.9399 55.2 32.8049C55.2 32.6699 55.155 32.5799 55.08 32.4899ZM54.45 38.9099V34.6649H53.745V38.2199H51.6C51.525 38.2199 51.48 38.2199 51.435 38.2499C51.39 38.2499 51.36 38.3099 51.36 38.3849V38.8049C51.36 38.8949 51.435 38.9249 51.6 38.9249H54.465L54.45 38.9099ZM49.995 38.2199H44.97C45.03 37.9799 45.12 37.7399 45.225 37.4699C45.33 37.1999 45.465 36.9599 45.615 36.7199C45.765 36.4799 45.93 36.2399 46.11 36.0149C46.29 35.8049 46.5 35.6099 46.71 35.4449C46.92 35.2799 47.145 35.1449 47.4 35.0549C47.655 34.9499 47.895 34.9049 48.165 34.9049C48.435 34.9049 48.66 34.9349 48.885 35.0249C49.11 35.0999 49.305 35.2199 49.47 35.3849C49.635 35.5499 49.77 35.7749 49.86 36.0749C49.95 36.3599 49.995 36.7199 49.995 37.1399V38.2349V38.2199ZM51.915 38.9099C51.99 38.9099 52.035 38.9099 52.08 38.8799C52.125 38.8799 52.155 38.8199 52.155 38.7599V38.3399C52.155 38.2499 52.08 38.2199 51.915 38.2199H50.715V37.0049C50.715 36.6149 50.67 36.2549 50.58 35.9099C50.49 35.5649 50.34 35.2799 50.145 35.0249C49.95 34.7699 49.71 34.5899 49.395 34.4399C49.095 34.2899 48.735 34.2299 48.3 34.2299C47.865 34.2299 47.76 34.2749 47.505 34.3499C47.25 34.4249 47.01 34.5449 46.785 34.6949C46.56 34.8299 46.35 34.9949 46.14 35.1899C45.93 35.3849 45.75 35.5799 45.585 35.7899V31.0199H44.88V36.8399C44.745 37.0949 44.625 37.3349 44.52 37.5749C44.415 37.8149 44.34 38.0249 44.28 38.2349H43.02C42.945 38.2349 42.9 38.2349 42.855 38.2649C42.81 38.2649 42.78 38.3249 42.78 38.3999V38.8199C42.78 38.9099 42.855 38.9399 43.02 38.9399H51.885V38.9099H51.915ZM40.05 38.2199C39.735 38.2199 39.465 38.1749 39.225 38.0999C39 38.0249 38.82 37.9049 38.67 37.7699C38.52 37.6349 38.415 37.4699 38.355 37.2899C38.28 37.1099 38.265 36.8999 38.265 36.7049C38.265 36.5099 38.295 36.2849 38.385 36.0899C38.475 35.8949 38.58 35.7299 38.715 35.5799C38.85 35.4299 39.015 35.3249 39.195 35.2349C39.375 35.1449 39.585 35.0999 39.78 35.0999C39.975 35.0999 40.155 35.1299 40.335 35.1899C40.515 35.2499 40.68 35.3549 40.815 35.5349C40.965 35.6999 41.07 35.9249 41.16 36.2249C41.25 36.5249 41.295 36.8999 41.295 37.3649V38.2349H40.05V38.2199ZM41.265 38.9099C41.22 39.1649 41.115 39.3899 40.965 39.5699C40.8 39.7649 40.59 39.9299 40.335 40.0649C40.08 40.2149 39.765 40.3199 39.435 40.4099C39.105 40.4999 38.73 40.5599 38.325 40.6049C38.325 40.7249 38.355 40.8299 38.355 40.9349C38.355 41.0399 38.385 41.1449 38.385 41.2649C38.82 41.2049 39.24 41.1449 39.63 41.0549C40.02 40.9649 40.38 40.8299 40.68 40.6499C40.995 40.4699 41.25 40.2449 41.475 39.9749C41.685 39.6899 41.835 39.3449 41.925 38.9249H43.335C43.41 38.9249 43.455 38.9249 43.515 38.8949C43.56 38.8949 43.59 38.8349 43.59 38.7749V38.3549C43.59 38.2649 43.515 38.2349 43.335 38.2349H42V37.0199C42 36.6749 41.97 36.3599 41.91 36.1049C41.85 35.8499 41.76 35.6249 41.655 35.4299C41.55 35.2349 41.43 35.0849 41.295 34.9649C41.16 34.8449 41.01 34.7549 40.86 34.6649C40.695 34.5899 40.56 34.5449 40.395 34.5149C40.23 34.4849 40.095 34.4699 39.93 34.4699C39.57 34.4699 39.24 34.5299 38.955 34.6499C38.655 34.7699 38.415 34.9349 38.205 35.1299C37.995 35.3399 37.845 35.5799 37.725 35.8649C37.605 36.1499 37.56 36.4499 37.56 36.7649C37.56 37.0799 37.605 37.2749 37.68 37.5299C37.755 37.7849 37.905 38.0099 38.1 38.2199C38.295 38.4299 38.55 38.5949 38.85 38.7149C39.165 38.8349 39.555 38.9099 40.005 38.9099H41.25H41.265ZM35.16 40.7249C35.25 40.8149 35.355 40.8599 35.475 40.8599C35.595 40.8599 35.7 40.8149 35.79 40.7249C35.88 40.6349 35.925 40.5299 35.925 40.4099C35.925 40.2899 35.88 40.1699 35.79 40.0799C35.7 39.9899 35.595 39.9449 35.475 39.9449C35.355 39.9449 35.25 39.9899 35.16 40.0799C35.07 40.1699 35.025 40.2749 35.025 40.4099C35.025 40.5299 35.07 40.6349 35.16 40.7249ZM33.735 40.7249C33.81 40.8149 33.93 40.8599 34.05 40.8599C34.17 40.8599 34.275 40.8149 34.365 40.7249C34.455 40.6349 34.5 40.5299 34.5 40.4099C34.5 40.2899 34.455 40.1699 34.365 40.0799C34.275 39.9899 34.17 39.9449 34.05 39.9449C33.93 39.9449 33.81 39.9899 33.735 40.0799C33.645 40.1699 33.615 40.2749 33.615 40.4099C33.615 40.5449 33.66 40.6349 33.735 40.7249ZM35.505 38.9099V34.6649H34.8V38.2199H32.655C32.58 38.2199 32.535 38.2199 32.49 38.2499C32.445 38.2499 32.415 38.3099 32.415 38.3849V38.8049C32.415 38.8949 32.49 38.9249 32.655 38.9249H35.52L35.505 38.9099ZM29.07 41.3849C29.475 41.3099 29.835 41.2199 30.135 41.0999C30.435 40.9799 30.705 40.8149 30.9 40.6199C31.11 40.4099 31.275 40.1849 31.395 39.8999C31.515 39.6149 31.59 39.2849 31.62 38.8949H32.955C33.03 38.8949 33.075 38.8949 33.12 38.8649C33.165 38.8649 33.195 38.8049 33.195 38.7449V38.3249C33.195 38.2349 33.12 38.2049 32.955 38.2049H31.635V34.6499H30.93V38.2049C30.93 38.5799 30.9 38.9099 30.855 39.1799C30.81 39.4499 30.705 39.7049 30.555 39.9149C30.405 40.1249 30.21 40.2899 29.955 40.4249C29.7 40.5599 29.37 40.6649 28.965 40.7249L29.04 41.3699L29.07 41.3849ZM24.075 38.9099H24.78V31.0049H24.075V38.9099ZM22.095 38.9099V31.0049H21.39V38.2049H19.575C19.5 38.2049 19.455 38.2049 19.395 38.2349C19.35 38.2349 19.32 38.2949 19.32 38.3699V38.7899C19.32 38.8799 19.395 38.9099 19.575 38.9099H22.08H22.095ZM17.94 37.5899C17.865 37.7549 17.745 37.8749 17.595 37.9799C17.445 38.0849 17.265 38.1599 17.055 38.2049C16.845 38.2499 16.62 38.2799 16.35 38.2799C16.08 38.2799 16.005 38.2499 15.825 38.2199C15.63 38.1899 15.465 38.1299 15.3 38.0699C15.135 38.0099 14.985 37.9499 14.85 37.8599C14.73 37.7849 14.625 37.7099 14.58 37.6349C14.655 37.3049 14.76 37.0049 14.88 36.7199C15 36.4199 15.135 36.1799 15.315 35.9699C15.48 35.7599 15.66 35.5799 15.855 35.4449C16.05 35.3099 16.275 35.2499 16.5 35.2499C16.725 35.2499 16.98 35.3099 17.19 35.4299C17.4 35.5499 17.55 35.6999 17.685 35.8799C17.82 36.0599 17.925 36.2549 17.985 36.4499C18.045 36.6449 18.09 36.8399 18.09 37.0049C18.06 37.2449 18.03 37.4249 17.955 37.5749M14.715 38.5049C14.88 38.5949 15.06 38.6699 15.255 38.7449C15.45 38.8199 15.645 38.8649 15.87 38.9099C16.08 38.9549 16.305 38.9699 16.53 38.9699C16.875 38.9699 17.19 38.9249 17.43 38.8199C17.685 38.7149 17.91 38.5799 18.075 38.4149C18.195 38.4899 18.3 38.5649 18.42 38.6249C18.54 38.6999 18.66 38.7449 18.81 38.7899C18.945 38.8349 19.11 38.8649 19.275 38.8949C19.44 38.9249 19.635 38.9249 19.845 38.9249H19.92C19.995 38.9249 20.04 38.9249 20.085 38.8949C20.13 38.8649 20.16 38.8349 20.16 38.7749V38.3549C20.16 38.2649 20.085 38.2349 19.92 38.2349H19.86C19.56 38.2349 19.305 38.2049 19.065 38.1599C18.825 38.1149 18.63 38.0399 18.435 37.9499C18.51 37.7849 18.57 37.6199 18.6 37.4549C18.63 37.2899 18.66 37.1099 18.66 36.9299C18.66 36.7499 18.63 36.5999 18.6 36.4199C18.555 36.2399 18.495 36.0749 18.42 35.8949C18.345 35.7299 18.24 35.5499 18.12 35.3999C18 35.2499 17.865 35.0999 17.7 34.9799C17.535 34.8599 17.355 34.7699 17.16 34.6949C16.965 34.6199 16.74 34.5749 16.5 34.5749C16.26 34.5749 16.26 34.5749 16.125 34.6049C15.99 34.6349 15.84 34.6799 15.69 34.7549C15.54 34.8299 15.39 34.9349 15.24 35.0549C15.075 35.1899 14.94 35.3549 14.79 35.5649C14.64 35.7749 14.49 36.0449 14.355 36.3299C14.22 36.6299 14.1 36.9899 13.98 37.3949C13.935 37.5449 13.875 37.6649 13.8 37.7699C13.725 37.8749 13.635 37.9499 13.545 38.0099C13.44 38.0699 13.335 38.1149 13.23 38.1449C13.11 38.1749 13.005 38.1899 12.885 38.1899H12.675C12.6 38.1899 12.555 38.1899 12.51 38.2199C12.465 38.2199 12.435 38.2799 12.435 38.3549V38.7749C12.435 38.8649 12.51 38.8949 12.675 38.8949H12.945C13.095 38.8949 13.23 38.8949 13.35 38.8649C13.47 38.8349 13.605 38.8049 13.695 38.7599C13.815 38.6999 13.905 38.6399 13.995 38.5499C14.085 38.4599 14.16 38.3399 14.25 38.2049C14.4 38.3399 14.535 38.4449 14.7 38.5349M9.615 38.9099C10.005 38.9099 10.32 38.8649 10.575 38.7899C10.83 38.6999 11.055 38.5799 11.22 38.4299C11.34 38.5049 11.445 38.5799 11.565 38.6399C11.685 38.6999 11.805 38.7599 11.94 38.8049C12.075 38.8499 12.24 38.8799 12.405 38.9099C12.57 38.9399 12.765 38.9399 12.975 38.9399H13.05C13.125 38.9399 13.17 38.9399 13.215 38.9099C13.26 38.9099 13.29 38.8499 13.29 38.7899V38.3699C13.29 38.2799 13.215 38.2499 13.05 38.2499H12.99C12.69 38.2499 12.42 38.2199 12.195 38.1749C11.97 38.1299 11.76 38.0549 11.565 37.9499C11.655 37.7249 11.685 37.4849 11.685 37.2149C11.685 36.9449 11.625 36.6749 11.52 36.3899C11.415 36.1049 11.265 35.8349 11.085 35.5649C10.905 35.2949 10.695 35.0399 10.47 34.7849C10.245 34.5299 9.99 34.3049 9.765 34.0799L9.24 34.6049C9.48 34.8149 9.705 35.0099 9.93 35.2349C10.155 35.4449 10.35 35.6699 10.53 35.9099C10.695 36.1349 10.845 36.3749 10.95 36.5999C11.055 36.8249 11.115 37.0649 11.115 37.2899C11.115 37.5149 11.085 37.5749 11.04 37.6949C10.995 37.8149 10.92 37.9049 10.785 37.9949C10.665 38.0699 10.5 38.1449 10.305 38.1899C10.11 38.2349 9.825 38.2649 9.51 38.2649H7.65V38.9699H9.645V38.9399L9.615 38.9099ZM3.915 33.7049C3.825 33.6149 3.72 33.5699 3.6 33.5699C3.48 33.5699 3.375 33.6149 3.285 33.7049C3.195 33.7949 3.15 33.8999 3.15 34.0199C3.15 34.1399 3.195 34.2599 3.285 34.3499C3.375 34.4399 3.48 34.4699 3.6 34.4699C3.72 34.4699 3.825 34.4249 3.915 34.3499C4.005 34.2599 4.035 34.1549 4.035 34.0199C4.035 33.8849 4.005 33.7799 3.915 33.7049ZM5.49 39.0899C5.37 39.4049 5.19 39.6599 4.965 39.8849C4.74 40.1099 4.47 40.2749 4.17 40.3799C3.855 40.4999 3.51 40.5449 3.12 40.5449C2.73 40.5449 2.445 40.4999 2.145 40.3949C1.845 40.2899 1.605 40.1399 1.395 39.9599C1.185 39.7649 1.035 39.5399 0.915001 39.2699C0.795001 38.9999 0.75 38.6999 0.75 38.3549C0.75 38.0099 0.750002 38.0999 0.780002 37.9499C0.780002 37.8149 0.825002 37.6649 0.855002 37.5299C0.885002 37.3949 0.93 37.2599 0.975 37.1399C1.02 37.0199 1.065 36.8849 1.125 36.7799L0.525 36.4649C0.45 36.5999 0.390001 36.7499 0.315001 36.9149C0.255001 37.0799 0.195 37.2599 0.15 37.4249C0.105 37.6049 0.0600018 37.7699 0.0300018 37.9649C1.83061e-06 38.1449 0 38.3249 0 38.5049C0 38.8949 0.0750014 39.2549 0.210001 39.5999C0.345001 39.9449 0.54 40.2299 0.795 40.4849C1.05 40.7399 1.365 40.9199 1.74 41.0699C2.115 41.2199 2.55 41.2799 3.03 41.2799C3.51 41.2799 4.08 41.1899 4.5 41.0249C4.92 40.8449 5.265 40.6049 5.55 40.3199C5.835 40.0349 6.03 39.6749 6.18 39.2999C6.315 38.9099 6.39 38.5049 6.39 38.0549C6.39 37.6049 6.39 37.7099 6.36 37.5299C6.33 37.3499 6.315 37.1549 6.285 36.9749C6.255 36.7949 6.21 36.6149 6.165 36.4499C6.12 36.2849 6.075 36.1199 6.015 35.9699L5.31 36.1649C5.37 36.3299 5.43 36.4949 5.475 36.6749C5.52 36.8549 5.565 37.0199 5.595 37.1999C5.625 37.3649 5.655 37.5299 5.67 37.6799C5.7 37.8299 5.7 37.9649 5.7 38.0699C5.67 38.4599 5.625 38.8049 5.49 39.1199" fill="black"/>
<path d="M82.0351 27.1948C82.1251 27.4048 82.2451 27.5848 82.4101 27.7348C82.5751 27.8998 82.7551 28.0198 82.9651 28.1098C83.1751 28.1998 83.4001 28.2448 83.6401 28.2448C83.8801 28.2448 84.1201 28.1998 84.3151 28.1098C84.5251 28.0198 84.7051 27.8998 84.8551 27.7348C85.0201 27.5698 85.1401 27.3898 85.2301 27.1948C85.3201 26.9998 85.3651 26.7598 85.3651 26.5198C85.3651 26.2798 85.3201 26.0398 85.2301 25.8448C85.1401 25.6498 85.0201 25.4548 84.8551 25.2898C84.6901 25.1248 84.5101 25.0048 84.3151 24.9148C84.1201 24.8248 83.8801 24.7798 83.6401 24.7798C83.4001 24.7798 83.1751 24.8248 82.9651 24.9148C82.7551 25.0048 82.5751 25.1248 82.4101 25.2898C82.2451 25.4548 82.1251 25.6348 82.0351 25.8448C81.9451 26.0548 81.9001 26.2798 81.9001 26.5198C81.9001 26.7598 81.9451 26.9998 82.0351 27.1948ZM78.7651 14.3248C79.4251 14.0698 80.0551 13.8898 80.6551 13.7848C81.2551 13.6798 81.7351 13.6348 82.1251 13.6348C82.6951 13.6348 83.1301 13.7548 83.4751 14.0248C83.8201 14.2798 84.0901 14.5948 84.3001 14.9998C84.5101 15.4048 84.6601 15.8548 84.7651 16.3498C84.8701 16.8598 84.9601 17.3548 85.0201 17.8648C85.0801 18.2098 85.1401 18.5248 85.2301 18.8248C85.3201 19.1248 85.4401 19.4248 85.6201 19.7098H76.7551C76.5001 19.7098 76.2901 19.7398 76.1551 19.7698C76.0201 19.7998 75.9001 19.8598 75.8401 19.9498C75.7651 20.0248 75.7201 20.1298 75.7201 20.2498C75.7201 20.3698 75.6901 20.5198 75.6901 20.6848V21.6298C75.6901 21.8698 75.6901 22.0498 75.7351 22.1848C75.7651 22.3198 75.8101 22.4248 75.9001 22.4998C75.9751 22.5748 76.0951 22.6198 76.2301 22.6498C76.3651 22.6798 76.5451 22.6798 76.7551 22.6798H90.0451V19.7248C89.7001 19.7248 89.4301 19.6048 89.2051 19.3798C88.9951 19.1398 88.8001 18.8248 88.6651 18.4498C88.5151 18.0598 88.4101 17.6098 88.3201 17.0998C88.2301 16.5898 88.1401 16.0648 88.0651 15.4948C87.9451 14.8198 87.7651 14.2048 87.4951 13.6348C87.2251 13.0648 86.8801 12.5698 86.4451 12.1648C86.0101 11.7598 85.5001 11.4298 84.8851 11.2048C84.2701 10.9798 83.5801 10.8598 82.8001 10.8598C82.0201 10.8598 81.3151 10.9348 80.6701 11.0698C80.0401 11.2198 79.4101 11.3698 78.7801 11.5498V14.3098L78.7651 14.3248ZM67.6651 22.6498C68.7601 22.6498 69.6901 22.5298 70.4401 22.2598C71.2051 22.0048 71.8201 21.6598 72.3151 21.2248C72.8101 21.6598 73.4101 21.9898 74.1001 22.2448C74.8051 22.4998 75.6601 22.6348 76.6801 22.6348H76.8301C77.0401 22.6348 77.2201 22.6348 77.3551 22.6048C77.4901 22.5748 77.6101 22.5298 77.6851 22.4548C77.7601 22.3798 77.8201 22.2748 77.8501 22.1398C77.8801 22.0048 77.8951 21.8248 77.8951 21.5848V20.6398C77.8951 20.4748 77.8951 20.3248 77.8651 20.2048C77.8351 20.0848 77.8051 19.9798 77.7451 19.9048C77.6851 19.8298 77.5801 19.7698 77.4301 19.7248C77.2801 19.6948 77.0851 19.6648 76.8301 19.6648H76.7101C76.1251 19.6648 75.5551 19.6198 75.0301 19.5148C74.5051 19.4098 73.9951 19.2598 73.5451 19.0348C73.6501 18.5998 73.6951 18.1798 73.6951 17.7448C73.6951 16.5148 73.2301 15.2098 72.3151 13.8448C71.4001 12.4648 70.0651 11.0698 68.3101 9.62981L65.7751 12.1048C66.3301 12.5398 66.8701 13.0198 67.3951 13.5298C67.9201 14.0398 68.4151 14.5498 68.8351 15.0748C69.2551 15.5998 69.6001 16.0948 69.8701 16.6048C70.1251 17.1148 70.2601 17.5798 70.2601 18.0148C70.2601 18.4498 70.2301 18.4798 70.1701 18.6898C70.0951 18.8998 69.9901 19.0798 69.8101 19.2148C69.6301 19.3648 69.3751 19.4698 69.0301 19.5598C68.6851 19.6348 68.2501 19.6798 67.7101 19.6798H62.5351V22.6348H67.6501L67.6651 22.6498ZM51.3301 7.1998C51.4201 7.4098 51.5401 7.58981 51.7051 7.73981C51.8701 7.90481 52.0501 8.02481 52.2451 8.11481C52.4401 8.20481 52.6801 8.2498 52.9201 8.2498C53.1601 8.2498 53.4001 8.20481 53.5951 8.11481C53.8051 8.02481 53.9851 7.90481 54.1351 7.73981C54.3001 7.57481 54.4201 7.3948 54.5101 7.1998C54.6001 7.0048 54.6451 6.7648 54.6451 6.5248C54.6451 6.2848 54.6001 6.0598 54.5101 5.8498C54.4201 5.6398 54.3001 5.4598 54.1351 5.3098C53.9701 5.1448 53.7901 5.0248 53.5951 4.9348C53.4001 4.8448 53.1601 4.7998 52.9201 4.7998C52.6801 4.7998 52.4551 4.8448 52.2451 4.9348C52.0351 5.0248 51.8551 5.1448 51.7051 5.3098C51.5401 5.4748 51.4201 5.6548 51.3301 5.8498C51.2401 6.0448 51.1951 6.2848 51.1951 6.5248C51.1951 6.7648 51.2401 7.0048 51.3301 7.1998ZM55.3651 7.1998C55.4551 7.4098 55.5751 7.58981 55.7401 7.73981C55.9051 7.90481 56.0851 8.02481 56.2801 8.11481C56.4751 8.20481 56.7151 8.2498 56.9551 8.2498C57.1951 8.2498 57.4201 8.20481 57.6301 8.11481C57.8401 8.02481 58.0201 7.90481 58.1701 7.73981C58.3351 7.57481 58.4551 7.3948 58.5451 7.1998C58.6351 7.0048 58.6801 6.7648 58.6801 6.5248C58.6801 6.2848 58.6351 6.0598 58.5451 5.8498C58.4551 5.6398 58.3351 5.4598 58.1701 5.3098C58.0051 5.1448 57.8251 5.0248 57.6301 4.9348C57.4351 4.8448 57.1951 4.7998 56.9551 4.7998C56.7151 4.7998 56.4751 4.8448 56.2801 4.9348C56.0701 5.0248 55.8901 5.1448 55.7401 5.3098C55.5751 5.4748 55.4551 5.6548 55.3651 5.8498C55.2751 6.0448 55.2301 6.2848 55.2301 6.5248C55.2301 6.7648 55.2751 7.0048 55.3651 7.1998ZM52.7701 15.5098C52.9201 15.0298 53.1151 14.6398 53.3551 14.3248C53.6101 14.0098 53.8801 13.7698 54.1801 13.6198C54.4801 13.4698 54.7951 13.3948 55.1251 13.3948C55.4551 13.3948 55.6501 13.4698 55.9351 13.6498C56.2201 13.8148 56.4601 14.0548 56.7001 14.3548C56.9251 14.6698 57.1201 15.0598 57.2701 15.5398C57.4201 16.0198 57.4801 16.5598 57.4801 17.1748C57.4801 17.7898 57.4351 17.8348 57.3601 18.1498C57.2701 18.4498 57.1501 18.7198 56.9701 18.9448C56.7901 19.1698 56.5801 19.3648 56.3101 19.4998C56.0401 19.6348 55.7251 19.7098 55.3651 19.7098H55.0801C54.3151 19.7098 53.7001 19.4998 53.2501 19.0948C52.8001 18.6898 52.5751 18.0448 52.5751 17.1898C52.5451 16.5448 52.6201 15.9898 52.7851 15.5248M55.4851 22.6498C56.2951 22.6498 57.0301 22.5148 57.6901 22.2298C58.3501 21.9448 58.9201 21.5698 59.3851 21.1198C59.8501 20.6698 60.2101 20.1148 60.4501 19.5148C60.6901 18.9148 60.8401 18.2698 60.8401 17.6398C60.8401 16.4848 60.6751 15.4648 60.3301 14.5948C59.9851 13.7248 59.5501 13.0048 59.0101 12.4348C58.4701 11.8648 57.8551 11.4298 57.1801 11.1448C56.5051 10.8598 55.8301 10.7098 55.1551 10.7098C54.4801 10.7098 54.2851 10.7848 53.8351 10.9048C53.3851 11.0398 52.9501 11.2348 52.5151 11.4898C52.0801 11.7448 51.6751 12.0748 51.2851 12.4648C50.8951 12.8548 50.5651 13.3048 50.2651 13.7998C49.9651 14.2948 49.7401 14.8798 49.5751 15.5248C49.4101 16.1698 49.3201 16.8598 49.3201 17.6248C49.3201 18.3898 49.4401 18.9598 49.6951 19.5898C49.9501 20.2048 50.3101 20.7448 50.7601 21.1948C51.2401 21.6448 51.7951 22.0048 52.4851 22.2748C53.1601 22.5448 53.9401 22.6648 54.8101 22.6648H55.4701L55.4851 22.6498Z" fill="black"/>
<mask id="mask0_790_6428" style="mask-type:luminance" maskUnits="userSpaceOnUse" x="0" y="0" width="27" height="28">
<path d="M0 0V27.075C7.095 24.48 16.23 22.905 26.19 22.905V0H0Z" fill="white"/>
</mask>
<g mask="url(#mask0_790_6428)">
<path d="M26.19 0H0V27.075H26.19V0Z" fill="url(#paint0_linear_790_6428)"/>
</g>
<path d="M19.635 23.145V3.27002L22.905 4.90502V22.965C21.81 23.01 20.7 23.07 19.635 23.145Z" fill="white"/>
<path d="M13.095 23.8651V11.3701L16.365 12.1651V23.4601C15.27 23.5801 14.16 23.7151 13.095 23.8801" fill="white"/>
<path d="M9.91504 24.405V12.075L13.11 11.355V23.865C11.985 24.03 10.965 24.21 9.91504 24.405Z" fill="#8DC63F"/>
<path d="M16.3801 23.445V4.42502L19.6501 3.27002V23.145C18.5251 23.22 17.4451 23.325 16.3801 23.445Z" fill="#8DC63F"/>
<defs>
<linearGradient id="paint0_linear_790_6428" x1="12.435" y1="28.23" x2="12.435" y2="0.854999" gradientUnits="userSpaceOnUse">
<stop stop-color="#8CC63F"/>
<stop offset="0.5" stop-color="#4A9A3C"/>
<stop offset="1" stop-color="#006838"/>
</linearGradient>
</defs>
</svg>
