<svg width="107" height="41" viewBox="0 0 107 41" fill="none" xmlns="http://www.w3.org/2000/svg">
<path d="M3.07058 25.2516L4.46558 27.5211C4.59758 27.7161 4.75958 27.8871 4.94708 28.0296L4.70408 27.5931C4.53758 27.2556 4.67708 27.2946 4.50458 27.0396C4.24958 26.6361 4.44908 26.9241 4.36658 26.7516C4.28408 26.5806 4.20608 26.5086 4.03958 26.1981C3.87308 25.8876 3.78008 25.5666 3.66908 25.4016C3.55808 25.2351 3.32558 25.0701 3.32558 25.1796C3.32558 25.2906 3.07058 25.2621 3.07058 25.2621M1.62158 22.5726C1.49108 22.3956 1.40408 22.1916 1.36658 21.9756C1.33958 21.6651 1.08458 20.9301 1.02908 20.6691C0.97358 20.4096 0.747079 20.0211 0.714079 19.7676C0.681079 19.5126 0.747079 19.0311 0.747079 18.8271C0.747079 18.6231 0.45908 16.8411 0.48758 16.5576C0.51458 16.2756 0.48758 15.6726 0.48758 15.5001C0.48758 15.3276 0.55358 14.7921 0.55358 14.6811V13.5741L0.664578 14.3151C0.724578 14.5581 0.762079 14.8071 0.775579 15.0561C0.775579 15.2556 0.891079 15.5646 0.925579 15.3381C0.958579 15.1116 0.92558 14.9061 0.97508 14.6241C1.02458 14.3421 1.09058 13.0026 1.11908 12.7476C1.16108 12.3246 1.23758 11.9076 1.34558 11.4966C1.50608 11.0391 1.69208 10.5906 1.89908 10.1526L2.10908 9.50008C2.05508 9.21208 2.10308 8.91508 2.24258 8.65858C2.49758 8.18308 2.54708 8.34808 2.82908 7.80658L3.46508 6.52858C3.59558 6.27808 3.78458 6.06358 4.01858 5.90308L4.47308 5.50408C4.66658 5.33758 4.66658 5.22208 4.90508 4.99558C5.14358 4.76908 5.32508 4.44208 5.15408 4.56958C4.89458 4.73308 4.64858 4.91908 4.41758 5.12308L3.56558 6.14158C3.56558 6.14158 3.56558 5.12308 5.80658 3.76258L9.40958 1.49908C10.8511 0.852579 12.3541 0.357583 13.8976 0.0215828C14.9311 -0.0189172 15.9646 -0.0024192 16.9966 0.0710808C18.6391 0.210581 20.2336 0.687579 21.6841 1.47058C23.6911 2.77708 25.2946 4.61608 26.3161 6.78358C27.0796 8.66008 27.4231 12.2901 27.4231 13.5681C27.4231 14.8461 26.4271 17.4411 25.9396 18.4536C25.2226 19.8216 24.1906 20.9991 22.9291 21.8901C21.8506 22.6086 20.5891 23.0046 19.2931 23.0301C18.3061 23.0721 17.3296 22.8231 16.4821 22.3161C15.2686 21.5841 14.4121 20.3826 14.1196 18.9966C13.8031 17.6376 13.7191 16.2336 13.8706 14.8461C14.0896 13.8936 14.4736 12.9876 15.0046 12.1671C15.3286 11.6871 15.7681 11.2971 16.2826 11.0331C16.7716 10.8636 17.3041 10.8636 17.7931 11.0331C18.2746 11.2326 18.3856 11.4876 18.3466 11.8071C18.3466 12.0846 18.1606 12.3261 17.8921 12.3996C17.6281 12.4491 17.3701 12.5241 17.1226 12.6261C16.6756 13.0056 16.3501 13.5081 16.1881 14.0706C15.9541 14.8776 15.8026 15.7071 15.7336 16.5441C15.7006 17.3841 15.8266 18.2241 16.1041 19.0176C16.4566 19.7166 17.0446 20.2701 17.7646 20.5776C18.3541 20.7936 18.9796 20.8986 19.6066 20.8881C20.4001 20.7471 21.1591 20.4591 21.8476 20.0421C22.6981 19.3911 23.4301 18.5991 24.0106 17.7021C24.5821 16.4991 25.0006 15.2301 25.2556 13.9221C25.3891 12.7326 25.4101 11.5341 25.3171 10.3416C24.9976 8.91808 24.5176 7.53508 23.8891 6.21958C23.0026 4.95058 21.9211 3.83008 20.6851 2.90008C19.8046 2.32708 18.8221 1.93108 17.7916 1.73308C16.8766 1.58758 15.9496 1.53208 15.0241 1.56658C13.6591 1.62058 12.3046 1.83658 10.9906 2.20858C9.64508 2.78608 8.35058 3.47308 7.11758 4.26208C6.34358 4.82158 5.62808 5.45758 4.98158 6.15958C4.65008 6.64108 3.51458 8.06308 3.32108 8.51758C3.12758 8.97208 2.55758 10.0221 2.35208 10.5876C2.10008 11.1816 1.91408 11.8011 1.79858 12.4356C1.79858 12.9441 1.46108 14.0961 1.42808 14.5101C1.39508 14.9256 1.46108 15.6996 1.46108 16.1256C1.44008 16.5006 1.37708 16.8711 1.27358 17.2326V16.3476C1.27358 16.2096 1.33958 15.8931 1.33958 15.7941C1.31408 15.6816 1.26608 15.5766 1.19558 15.4836C1.21508 15.6831 1.21508 15.8826 1.19558 16.0806C1.16858 16.3626 0.996079 16.6731 0.996079 16.4511C0.996079 16.2291 0.996079 15.7371 0.913579 15.8976C0.859579 16.2636 0.831078 16.6341 0.831078 17.0046C0.831078 17.1261 0.798081 17.6631 0.798081 17.8011C0.856581 18.1191 0.933079 18.4341 1.03058 18.7416C1.09508 18.9531 1.12208 19.1736 1.10858 19.3941C1.10858 19.6761 0.79358 19.6491 0.88208 19.9026C0.97058 20.1576 1.19258 20.6661 1.22558 20.8161C1.25858 20.9661 1.19258 20.1906 1.31408 20.5611C1.43558 20.9316 1.48058 21.2976 1.62458 21.6681C1.76858 22.0386 1.94558 22.9026 1.94558 22.9026L1.62158 22.5726Z" fill="#265B65"/>
<path d="M2.13614 21.893V21.8105C2.07614 21.629 2.02814 21.4445 1.99214 21.257C1.97264 21.083 1.93364 20.912 1.87664 20.7485C1.82114 20.549 2.04764 20.804 2.07614 20.9195C2.10314 21.035 2.13764 20.039 2.16464 20.5205C2.16764 20.855 2.20664 21.1895 2.28014 21.5165C2.36264 21.9095 2.45114 22.451 2.38514 22.2575C2.34314 22.124 2.26664 22.004 2.16314 21.9095M1.73714 20.249V20.1935C1.73714 20.072 1.71014 19.784 1.71014 19.64C1.71014 19.496 1.66064 19.28 1.66064 19.0535V18.146C1.69214 18.5075 1.74914 18.866 1.83164 19.22C1.91114 19.547 1.95914 19.88 1.97564 20.216L1.73714 20.249Z" fill="#265B65"/>
<path d="M18.2609 16.3807C18.2609 15.9607 18.7199 15.6172 19.1414 15.5617C19.7699 15.4057 20.2694 14.9302 20.4584 14.3107C20.7764 13.3237 20.9669 12.3022 21.0284 11.2672C20.9729 10.6477 20.7464 8.97069 20.2094 8.46219C19.7174 7.94469 19.0994 7.56368 18.4169 7.35519C17.7299 7.23818 17.0279 7.23818 16.3424 7.35519C15.5639 7.62069 14.8364 8.01518 14.1899 8.52218C13.4129 9.29018 12.7694 10.1827 12.2864 11.1622C11.7434 12.5467 11.4164 14.0062 11.3174 15.4897C11.3174 16.5472 11.3954 18.9037 12.3074 20.7742C13.2209 22.6447 14.5484 24.4432 16.2584 25.2892C17.8349 26.1427 19.6079 26.5642 21.3989 26.5117C23.0594 26.4007 25.4834 26.1742 27.5579 24.9232C29.6324 23.6722 31.8524 22.2442 33.1244 19.7542C34.1144 17.8417 34.8044 15.7882 35.1719 13.6672C35.2769 12.8602 35.3339 12.0472 35.3429 11.2327C35.3429 10.8892 35.3984 10.2637 35.3984 10.2637L35.5364 10.7182C35.5979 10.8892 35.6249 11.1727 35.6864 11.0827C35.7479 10.9942 35.8244 11.0557 35.8244 10.8892C35.8244 10.7227 35.6534 9.66668 35.6534 9.44468C35.6534 9.22268 35.5979 8.67068 35.5979 8.58668C35.6114 8.33918 35.6114 8.09168 35.5979 7.84568C35.5649 7.73468 35.2829 7.45269 35.2829 7.29219C35.2829 7.13169 35.0279 7.08218 35.0279 7.08218C35.0279 7.08218 35.1989 6.88868 35.1389 6.80618C35.0774 6.72368 34.8629 6.63518 34.8629 6.50168C34.8629 6.36818 34.8134 6.50169 34.7849 6.66219C34.7549 6.75519 34.6769 6.82268 34.5809 6.83918L34.4924 6.41319L34.5584 5.95419C34.5584 5.95419 34.8134 6.30219 34.8134 6.21369C34.8134 6.12519 34.8959 6.12519 34.8959 5.90319C34.8959 5.68119 34.8629 5.34968 34.8629 5.24468C34.8629 5.13968 34.8134 4.69118 34.8134 4.69118C34.8134 4.69118 35.0624 5.57618 35.1179 5.88668C35.1734 6.19718 35.5214 6.90969 35.5769 7.34169C35.6324 7.77369 35.8589 8.22219 35.8589 8.36019C35.8589 8.49819 36.0029 9.17919 36.0029 9.46719C36.0029 9.75519 36.1139 10.4242 36.1139 10.6237C36.1139 10.8232 36.1964 12.8977 36.1469 13.0972C36.0974 13.2967 35.9474 13.0972 35.9474 13.1857C35.9474 13.2742 35.8319 12.3892 35.8319 12.6322C35.8424 13.0027 35.8244 13.3717 35.7764 13.7392C35.7209 13.9942 35.4614 15.2167 35.4614 15.3997C35.3549 16.0102 35.1959 16.6102 34.9859 17.1922C34.8224 17.5972 34.6874 18.0127 34.5824 18.4372C34.5119 18.7612 34.4204 19.0807 34.3109 19.3942C34.2044 19.6402 34.0604 19.8667 33.8849 20.0692C33.8024 20.1907 33.5144 20.8162 33.4034 21.0097C33.2864 21.3247 33.0974 21.6067 32.8499 21.8347C32.5664 22.0342 32.3144 22.2727 32.0969 22.5427C31.9919 22.7137 31.5044 23.1742 31.3889 23.3947C31.2839 23.5762 31.1489 23.7382 30.9899 23.8762L31.7369 23.3227C31.9499 23.1682 32.1359 22.9822 32.2904 22.7692C32.4179 22.5367 32.5754 22.3222 32.7554 22.1272C32.9324 21.9502 33.3584 21.3577 33.3584 21.3577C33.1289 21.8197 32.8634 22.2622 32.5619 22.6807C32.3054 23.0272 32.0114 23.3437 31.6814 23.6212C31.3664 23.8207 30.9674 24.1747 30.4799 24.4672C29.9924 24.7612 28.4654 25.7227 28.0394 26.0557C27.0224 26.6992 25.9274 27.2092 24.7799 27.5722C23.1974 28.0522 21.5339 28.2142 19.8884 28.0477C18.1094 27.8227 16.3859 27.2752 14.8034 26.4322C13.5314 25.6852 11.6489 23.8207 11.1449 22.7917C10.6409 21.7627 9.43491 19.1947 9.35241 17.7007C9.26991 16.2067 9.20841 13.0132 9.94941 11.3377C10.6499 9.70418 11.6309 8.20569 12.8489 6.91119C13.6409 6.23019 15.0299 5.25068 16.1354 5.15168C17.2424 5.05268 18.4979 4.92519 19.3499 5.23419C20.4929 5.78319 21.4439 6.66519 22.0784 7.76319C22.5209 8.88819 22.7699 10.0807 22.8149 11.2882C22.8539 12.2437 22.7474 13.1992 22.4999 14.1217C22.2629 14.9872 21.8144 15.7807 21.1934 16.4287C20.6009 16.9822 20.6009 17.0257 19.8314 17.1142C19.0619 17.2027 18.9509 17.1142 18.6089 16.9147C18.4094 16.7947 18.2729 16.5922 18.2384 16.3612M34.7789 7.63719L34.8344 8.65569C34.8614 8.84919 34.9784 9.31419 35.0009 9.20919C35.0234 9.10419 35.2004 9.20918 35.2004 9.12068V8.75618C35.2004 8.64068 35.0894 8.66768 35.0294 8.47418L34.9139 7.99268C34.8809 7.86519 34.8374 7.74068 34.7804 7.62218M33.8939 3.31569L33.3854 2.54619C33.1859 2.23569 33.1859 1.69419 32.8319 1.29519L31.9184 0.243685C31.9184 0.243685 31.7579 0.188186 31.9184 0.470186C32.0294 0.699686 32.1599 0.918687 32.3114 1.12269C32.6129 1.48419 32.8799 1.87269 33.1079 2.28519C33.1634 2.51169 33.1964 2.77269 33.1964 2.77269L33.8939 3.31569Z" fill="#767A52"/>
<path d="M46.0784 6.01691C46.5314 6.01691 46.8974 5.6494 46.8974 5.1979C46.8974 4.7464 46.5299 4.37891 46.0784 4.37891C45.6254 4.37891 45.2594 4.7464 45.2594 5.1979C45.2594 5.4154 45.3464 5.62391 45.4994 5.77691C45.6539 5.92991 45.8609 6.01691 46.0784 6.01691ZM43.6604 6.01691C44.1134 6.01691 44.4794 5.6509 44.4794 5.1979C44.4794 4.7449 44.1134 4.37891 43.6604 4.37891C43.2074 4.37891 42.8414 4.7449 42.8414 5.1979C42.8384 5.6464 43.1999 6.01391 43.6499 6.01691C43.6529 6.01691 43.6574 6.01691 43.6604 6.01691ZM103.573 7.7434V8.05391C103.876 8.01491 104.154 8.22791 104.194 8.5309C104.197 8.55641 104.199 8.58191 104.199 8.60741V12.1714C104.161 12.5854 103.795 12.8914 103.381 12.8539C103.377 12.8539 103.372 12.8524 103.368 12.8524H100.645C99.9929 12.8524 99.8819 12.6034 99.8819 12.1489V8.51891C99.8819 8.06441 100.563 7.96541 100.563 7.96541V7.7434H97.8299V8.03141C98.2619 8.08691 98.4884 8.16941 98.4884 8.48591V12.2329C98.4884 12.7204 98.1449 12.8299 97.5869 12.8299H94.7369C94.2284 12.8299 94.1834 12.6304 94.1834 12.0889V8.29841C94.1834 7.96091 94.7369 7.96091 94.7369 7.96091V7.74491H92.1854V8.05541C92.4074 8.05541 92.7389 8.19941 92.7389 8.42591V12.2989C92.7389 12.6424 92.3459 12.8524 91.8644 12.8524H83.9129C83.4809 12.8899 83.0999 12.5689 83.0639 12.1354C83.0624 12.1189 83.0624 12.1039 83.0609 12.0874V6.2104C83.0609 5.4244 84.5114 5.39141 84.5114 5.39141V5.10941H80.2394V5.36441C80.8649 5.36441 81.6614 5.8189 81.6614 6.2104V12.0934C81.6614 12.4084 81.4394 12.8074 81.1079 12.8074H78.6959C78.4139 12.8074 78.2414 12.4639 78.2414 12.0439V6.89591C78.2414 6.52541 78.8894 6.52541 78.8894 6.52541V6.32591H76.4774V6.52541C76.7744 6.54641 77.0099 6.78191 77.0309 7.07891V12.3034C77.0309 12.6184 76.6109 12.8179 76.3499 12.8179H72.2324C71.8124 12.7354 71.6069 11.9104 71.6069 11.9104L71.2919 12.0214L71.7239 13.6819H103.902C104.859 13.6249 105.612 12.8464 105.639 11.8894V8.4034C105.639 7.9489 106.258 8.0104 106.258 8.0104V7.74491L103.573 7.7434ZM64.9604 13.1494C62.9519 13.1494 62.1929 11.0194 62.1929 10.1389C62.2799 8.5819 63.5294 7.34441 65.0864 7.27241C66.7469 7.27241 68.0024 9.00941 68.0024 10.2334C67.9394 11.8729 66.5834 13.1659 64.9424 13.1494M45.1109 13.1494C43.1084 13.1494 42.3434 11.0194 42.3434 10.1389C42.4304 8.5819 43.6799 7.34441 45.2369 7.27241C46.8974 7.27241 48.1589 9.00941 48.1589 10.2334C48.0929 11.8744 46.7354 13.1659 45.0929 13.1494M65.0924 6.78491C60.8309 6.78491 60.7649 10.2544 60.7649 10.2544C60.7649 10.2544 60.6434 10.5649 60.4274 11.0674C60.2114 11.5714 59.2814 12.7279 58.9949 12.7279C58.7069 12.7279 50.7944 12.8059 50.3564 12.7219C49.9199 12.6394 49.6094 12.0079 49.6094 11.7154V7.11191C49.6094 6.86891 49.9919 6.75191 49.9919 6.75191H48.3809C48.6089 6.84791 48.7679 7.05941 48.7964 7.30541V8.37941C48.7964 8.37941 47.9279 6.79691 45.3209 6.79691C42.4049 6.79691 40.9709 9.01091 40.9709 10.2169C40.9709 11.4229 41.7074 13.7089 44.9609 13.7089C48.2144 13.7089 48.8339 12.0814 48.8339 12.0814L49.1219 12.0364C49.2734 12.9019 49.9499 13.5814 50.8154 13.7359H58.9334C59.4869 13.7359 59.6744 13.3984 60.0794 12.9664C60.4424 12.4444 60.7334 11.8744 60.9434 11.2729C61.6229 12.8539 63.2144 13.8454 64.9334 13.7569C68.2874 13.7569 69.3329 11.3884 69.3329 10.3144C69.3329 9.24041 68.4524 6.81641 65.1269 6.81641M98.4989 22.9219L100.159 19.4299L101.82 22.9219H98.4989ZM104.814 25.7329C104.58 25.4644 104.392 25.1569 104.26 24.8254L100.68 17.6314H100.386L97.3919 23.8849C97.1354 24.4909 96.8129 25.0669 96.4289 25.6009C96.2069 25.8244 95.9084 25.9549 95.5934 25.9654V26.1979H98.4494V25.9654C98.2154 25.9549 97.9829 25.9174 97.7579 25.8544C97.5704 25.7839 97.4519 25.5994 97.4639 25.3999C97.4759 25.2484 97.5134 25.1014 97.5749 24.9634C97.6469 24.7759 97.8794 24.2659 98.2664 23.4304H102.03L102.61 24.6589C102.688 24.8224 102.754 24.9904 102.81 25.1629C102.844 25.2694 102.867 25.3789 102.876 25.4899C102.876 25.6834 102.814 25.7944 102.693 25.8439C102.426 25.9159 102.151 25.9579 101.874 25.9654V26.1979H105.52V25.9654C105.27 25.9474 105.028 25.8679 104.817 25.7329M88.2179 24.1219L84.8984 17.8024H82.0544V18.0409C82.4384 18.0199 82.8209 18.1039 83.1614 18.2839C83.3594 18.5374 83.4479 18.8614 83.4044 19.1809V24.3439C83.4584 24.7864 83.3684 25.2349 83.1494 25.6219C82.8149 25.8619 82.4099 25.9864 81.9989 25.9759V26.2084H85.3859V25.9759C85.0349 25.9789 84.6899 25.8829 84.3899 25.6999C84.1064 25.3084 83.9834 24.8239 84.0464 24.3439V19.2754L87.6659 26.1979H87.8654L91.5434 18.9709V24.6709C91.5434 25.2244 91.4774 25.5514 91.3214 25.6894C90.9914 25.8964 90.6029 25.9924 90.2144 25.9654V26.1979H94.2479V25.9654C93.8909 25.9729 93.5369 25.8844 93.2249 25.7104C93.0644 25.5769 92.9924 25.2784 92.9924 24.8194V19.1809C92.9474 18.8659 93.0314 18.5479 93.2249 18.2959C93.5354 18.1144 93.8894 18.0259 94.2479 18.0409V17.8024H91.3814L88.2179 24.1219ZM73.3874 22.9219L75.0479 19.4299L76.7084 22.9219H73.3874ZM79.1309 24.8254L75.5504 17.6314H75.2564L72.2519 23.8849C71.9969 24.4879 71.6804 25.0624 71.3054 25.6009C71.0759 25.8229 70.7729 25.9534 70.4534 25.9654V26.1979H73.3139V25.9654C73.0784 25.9549 72.8444 25.9174 72.6164 25.8544C72.4334 25.7809 72.3164 25.5979 72.3284 25.3999C72.3374 25.2499 72.3734 25.1014 72.4334 24.9634C72.5054 24.7759 72.7379 24.2659 73.1309 23.4304H76.9154L77.4689 24.6589C77.5484 24.8209 77.6159 24.9889 77.6684 25.1629C77.7029 25.2694 77.7284 25.3789 77.7404 25.4899C77.7404 25.6834 77.6744 25.7944 77.5529 25.8439C77.2874 25.9174 77.0144 25.9579 76.7399 25.9654V26.1979H80.3864V25.9654C80.1359 25.9489 79.8944 25.8694 79.6829 25.7329C79.4489 25.4659 79.2614 25.1584 79.1309 24.8254ZM67.9319 25.4509C67.0889 25.6819 66.2144 25.7749 65.3414 25.7269H64.6724H64.3349C64.1999 25.7269 64.0724 25.6714 63.9809 25.5724C63.9164 25.4734 63.8864 25.3579 63.8924 25.2409V19.1539C63.8354 18.8239 63.9479 18.4864 64.1909 18.2569C64.5254 18.0964 64.8929 18.0184 65.2649 18.0304V17.7919H61.1924V18.0304C61.5524 18.0139 61.9079 18.1054 62.2154 18.2899C62.4089 18.5434 62.4944 18.8644 62.4539 19.1809V24.8149C62.4989 25.1374 62.4134 25.4644 62.2154 25.7224C61.8974 25.8799 61.5464 25.9639 61.1924 25.9654V26.1979H68.9399L69.6314 23.9839H69.2714C69.0014 24.6094 68.5289 25.1254 67.9319 25.4509ZM52.2539 22.9384L53.8859 19.4464L55.5464 22.9384H52.2539ZM58.0154 24.8419L54.4349 17.6479H54.1364L51.1364 23.9014C50.8814 24.5044 50.5649 25.0789 50.1899 25.6174C49.9604 25.8394 49.6574 25.9699 49.3379 25.9819V26.2144H52.1939V25.9819C51.9599 25.9699 51.7274 25.9339 51.5024 25.8709C51.3194 25.7974 51.2024 25.6144 51.2144 25.4164C51.2234 25.2664 51.2594 25.1179 51.3194 24.9799L52.0169 23.4469H55.7804L56.3339 24.6754C56.4134 24.8374 56.4809 25.0054 56.5334 25.1794C56.5679 25.2859 56.5934 25.3954 56.6054 25.5064C56.6054 25.6999 56.5439 25.8109 56.4179 25.8604C56.1524 25.9339 55.8794 25.9744 55.6049 25.9819V26.2144H59.2514V25.9819C59.0009 25.9654 58.7594 25.8859 58.5479 25.7494C58.3154 25.4794 58.1279 25.1719 57.9944 24.8419M45.3314 21.5764L44.0594 20.8849C43.6739 20.6929 43.3199 20.4454 43.0079 20.1484C42.7874 19.9264 42.6659 19.6249 42.6704 19.3129C42.6584 18.9724 42.8249 18.6499 43.1069 18.4609C43.4129 18.2554 43.7729 18.1474 44.1419 18.1504C44.6924 18.1654 45.2279 18.3319 45.6914 18.6319C46.2614 19.0459 46.6559 19.6579 46.7984 20.3479H47.1464L46.8194 17.6359H46.5434C46.5134 17.7484 46.4579 17.8519 46.3829 17.9404C46.2794 18.0244 46.1444 18.0619 46.0124 18.0454C45.7439 17.9974 45.4799 17.9314 45.2204 17.8459C44.8334 17.7199 44.4314 17.6494 44.0249 17.6359C43.3334 17.6074 42.6539 17.8279 42.1109 18.2554C41.6429 18.6559 41.3789 19.2439 41.3909 19.8604C41.4044 20.3659 41.6234 20.8444 41.9999 21.1834C42.2669 21.4279 42.5654 21.6379 42.8849 21.8089L44.1239 22.4839C44.6144 22.7329 45.0824 23.0239 45.5234 23.3524C45.8504 23.6269 46.0379 24.0319 46.0319 24.4594C46.0514 24.8779 45.8624 25.2799 45.5279 25.5334C45.1904 25.7899 44.7734 25.9234 44.3489 25.9099C43.5539 25.9294 42.7874 25.6144 42.2354 25.0414C41.8739 24.6424 41.5874 24.1804 41.3894 23.6794H41.0459L41.5004 26.3689H41.8154C41.8349 26.2609 41.8754 26.1559 41.9369 26.0644C42.0149 25.9594 42.1439 25.9039 42.2744 25.9204C42.5549 25.9759 42.8294 26.0524 43.0994 26.1469C43.5479 26.2864 44.0129 26.3614 44.4824 26.3689C45.2639 26.4034 46.0334 26.1649 46.6574 25.6939C47.1959 25.3129 47.5139 24.6934 47.5094 24.0334C47.5154 23.5609 47.3459 23.1034 47.0339 22.7494C46.5479 22.2694 45.9869 21.8719 45.3734 21.5704" fill="#265B65"/>
<path d="M1.842 33.7509H2.334V34.3044H1.842V33.7509ZM1.107 33.7509H1.599V34.3044H1.107V33.7509ZM3.669 33.2424V31.0284C3.4035 31.0284 3.1155 31.0674 3.1155 31.8579V33.1974H0C0.0315 32.7114 0.1275 32.2299 0.288 31.7694C0.4815 31.0584 1.1595 30.5904 1.893 30.6624V31.1049C1.413 31.0434 0.954001 31.3209 0.786001 31.7739C0.673501 32.0829 0.5955 32.4039 0.5535 32.7309H2.6175V31.7454C2.6175 30.5394 3.303 30.4779 4.1565 30.4899V32.7369H4.881V33.1959L3.669 33.2424Z" fill="#808082"/>
<path d="M4.7041 32.7339H5.6611V33.2214H4.7041V32.7339Z" fill="#808082"/>
<path d="M5.51709 32.7339H6.47409V33.2214H5.51709V32.7339Z" fill="#808082"/>
<path d="M6.33008 32.7339H7.28258V33.2214H6.33008V32.7339Z" fill="#808082"/>
<path d="M7.14453 32.7339H8.10153V33.2214H7.14453V32.7339Z" fill="#808082"/>
<path d="M7.95142 32.7339H8.90842V33.2214H7.95142V32.7339Z" fill="#808082"/>
<path d="M8.76611 32.7339H9.71861V33.2214H8.76611V32.7339Z" fill="#808082"/>
<path d="M9.58496 32.7339H10.5375V33.2214H9.58496V32.7339Z" fill="#808082"/>
<path d="M10.3921 32.7339H11.3491V33.2214H10.3921V32.7339Z" fill="#808082"/>
<path d="M11.2051 32.7339H12.1621V33.2214H11.2051V32.7339Z" fill="#808082"/>
<path d="M12.0195 32.7339H12.9765V33.2214H12.0195V32.7339Z" fill="#808082"/>
<path d="M12.8325 32.7339H13.785V33.2214H12.8325V32.7339Z" fill="#808082"/>
<path d="M13.6455 32.7339H14.6025V33.2214H13.6455V32.7339Z" fill="#808082"/>
<path d="M15.3224 29.4353H15.8144V29.9888H15.3224V29.4353ZM14.6804 33.1988H14.4209V32.7173H14.6804C15.1289 32.7173 15.3329 32.4578 15.3329 32.0258V30.4868H15.8144V32.0918C15.8669 32.6738 15.4379 33.1868 14.8574 33.2393C14.8079 33.2438 14.7584 33.2453 14.7074 33.2423M18.0119 30.9398H17.4584C16.9709 30.9398 16.9049 31.6088 16.9049 31.9748C16.9049 32.3408 16.9664 33.0533 17.4584 33.0533C17.9504 33.0533 18.0119 32.4008 18.0119 32.0123V30.9398ZM17.4584 34.4438V33.9893C17.8904 33.9893 18.0119 33.4853 18.0119 33.1313C17.9084 33.3818 17.6519 33.5363 17.3804 33.5078C16.7324 33.5078 16.3739 32.9543 16.3739 31.9913C16.3739 31.0283 16.7609 30.4868 17.3924 30.4868H18.4994V33.2543C18.5729 33.8303 18.1649 34.3568 17.5889 34.4303C17.5529 34.4348 17.5169 34.4378 17.4809 34.4378M19.0364 32.0918V29.4248H19.5284V32.0423C19.4864 32.3828 19.7279 32.6918 20.0684 32.7323C20.1149 32.7383 20.1629 32.7383 20.2094 32.7338V33.1988C19.6184 33.2543 19.0964 32.8208 19.0409 32.2298C19.0349 32.1833 19.0334 32.1368 19.0364 32.0918Z" fill="#808082"/>
<path d="M20.0596 32.7339H21.0121V33.2214H20.0596V32.7339Z" fill="#808082"/>
<path d="M20.8726 32.7339H21.8251V33.2214H20.8726V32.7339Z" fill="#808082"/>
<path d="M21.687 32.7339H22.6395V33.2214H21.687V32.7339Z" fill="#808082"/>
<path d="M22.4939 32.7339H23.4509V33.2214H22.4939V32.7339Z" fill="#808082"/>
<path d="M23.313 32.7339H24.2655V33.2214H23.313V32.7339Z" fill="#808082"/>
<path d="M24.1216 32.7339H25.0741V33.2214H24.1216V32.7339Z" fill="#808082"/>
<path d="M24.9404 32.7339H25.8929V33.2214H24.9404V32.7339Z" fill="#808082"/>
<path d="M27.6301 30.9068C27.1486 30.8798 26.7346 31.2473 26.7076 31.7303C26.7061 31.7498 26.7061 31.7678 26.7061 31.7873L27.6301 32.6618L28.5541 31.7873C28.5421 31.2938 28.1356 30.9008 27.6406 30.9068M28.1941 33.2153C28.0051 33.2138 27.8191 33.1823 27.6406 33.1208C27.4621 33.1808 27.2761 33.2123 27.0871 33.2153H25.7476V32.7338H27.0646L26.1631 31.8818C26.1631 31.0778 26.8141 30.4268 27.6181 30.4268C28.4221 30.4268 29.0731 31.0778 29.0731 31.8818L28.1716 32.7338H29.4781V33.1988L28.1941 33.2153Z" fill="#808082"/>
<path d="M29.3115 32.7339H30.264V33.2214H29.3115V32.7339Z" fill="#808082"/>
<path d="M30.1201 32.7339H31.0726V33.2214H30.1201V32.7339Z" fill="#808082"/>
<path d="M30.9331 32.7339H31.8856V33.2214H30.9331V32.7339Z" fill="#808082"/>
<path d="M32.4045 29.4247H32.892V29.9782H32.4045V29.4247ZM33.5505 33.1987C33.219 33.2182 32.898 33.0802 32.682 32.8282C32.4765 33.0847 32.157 33.2227 31.83 33.1987H31.7745V32.7172H31.83C32.1345 32.7352 32.397 32.5027 32.415 32.1982C32.415 32.1862 32.4165 32.1757 32.4165 32.1637V30.5032H32.898V32.1967C32.898 32.5507 33.147 32.7502 33.5505 32.7502H33.606V33.1987H33.5505ZM31.6365 29.4067H32.124V29.9602H31.6365V29.4067Z" fill="#808082"/>
<path d="M33.468 33.1988V32.7173C33.8115 32.7563 34.1205 32.5088 34.1595 32.1668C34.1655 32.1203 34.1655 32.0723 34.1595 32.0258V29.4248H34.647V32.0918C34.6485 32.7023 34.1535 33.2003 33.543 33.2003C33.5175 33.2003 33.492 33.2003 33.468 33.1988ZM36.1785 29.4248H36.6705V33.2213H36.1785V29.4248ZM40.041 29.6348H40.5285V30.1883H40.041V29.6348ZM42.0555 33.1988C41.8305 33.2048 41.61 33.1448 41.4195 33.0278V33.1058C41.466 33.6908 41.028 34.2023 40.443 34.2488C40.4205 34.2503 40.3965 34.2518 40.374 34.2518H40.236C39.6495 34.2443 39.18 33.7628 39.186 33.1763C39.186 33.1508 39.1875 33.1253 39.189 33.1013V30.4898H39.6765V33.0908C39.6765 33.5168 39.864 33.7883 40.308 33.7883C40.7505 33.7883 40.9275 33.5168 40.9275 33.0908V30.4898H41.4195V32.2493C41.4195 32.5643 41.685 32.7368 42.0555 32.7368H42.144V33.2018H42.0555V33.1988Z" fill="#808082"/>
<path d="M41.967 32.7339H42.924V33.2214H41.967V32.7339Z" fill="#808082"/>
<path d="M42.7815 32.7339H43.734V33.2214H42.7815V32.7339Z" fill="#808082"/>
<path d="M43.5884 32.7339H44.5409V33.2214H43.5884V32.7339Z" fill="#808082"/>
<path d="M44.4075 32.7339H45.36V33.2214H44.4075V32.7339Z" fill="#808082"/>
<path d="M45.2161 32.7339H46.1731V33.2214H45.2161V32.7339Z" fill="#808082"/>
<path d="M46.0349 32.7339H46.9874V33.2214H46.0349V32.7339Z" fill="#808082"/>
<path d="M47.517 33.7509H48.0045V34.3044H47.517V33.7509ZM48.624 33.2424C48.291 33.2634 47.9655 33.1269 47.7495 32.8719C47.544 33.1254 47.229 33.2649 46.9035 33.2424H46.821V32.7609H46.9035C47.2095 32.7609 47.457 32.5134 47.457 32.2074V30.5469H47.9445V32.2404C47.9445 32.5944 48.1995 32.7939 48.597 32.7939H48.6795V33.1974L48.624 33.2424ZM46.7205 33.7509H47.208V34.3044H46.7205V33.7509Z" fill="#808082"/>
<path d="M50.2621 30.7237C49.8751 30.7237 49.6696 31.0717 49.6696 31.7647C49.6696 32.4577 49.8736 32.7832 50.2621 32.7832C50.6506 32.7832 50.8711 32.4458 50.8711 31.7813C50.8711 31.1168 50.6716 30.7237 50.2621 30.7237ZM50.2621 33.2153C49.9231 33.2287 49.6021 33.0622 49.4161 32.7787C49.2346 33.0562 48.9241 33.2227 48.5911 33.2153V32.7337C48.8221 32.7247 49.0231 32.5717 49.0951 32.3512C49.1611 32.1352 49.1851 31.9072 49.1611 31.6822C49.1611 30.8182 49.5931 30.2932 50.2681 30.2932C50.9431 30.2932 51.3751 30.8467 51.3751 31.7602C51.3751 32.6737 50.9656 33.2153 50.2681 33.2153M51.9226 32.0917V29.4247H52.4101V32.0422C52.3681 32.3827 52.6111 32.6902 52.9501 32.7322C52.9951 32.7382 53.0401 32.7382 53.0851 32.7337V33.1987C52.4941 33.2482 51.9751 32.8087 51.9256 32.2177C51.9226 32.1757 51.9211 32.1337 51.9226 32.0917ZM51.5131 29.1367V28.8607H51.7516V28.7723C51.7516 28.6283 51.7906 28.2188 52.2061 28.2188C52.4491 28.2188 52.5496 28.3567 52.6381 28.5727H52.3501C52.3051 28.5112 52.2886 28.4782 52.2121 28.4782C52.1341 28.4782 52.0351 28.6492 52.0351 28.7827V28.8442H52.6771V29.1202L51.5131 29.1367Z" fill="#808082"/>
<path d="M52.9409 32.7339H53.8979V33.2214H52.9409V32.7339Z" fill="#808082"/>
<path d="M53.7539 32.7339H54.7064V33.2214H53.7539V32.7339Z" fill="#808082"/>
<path d="M54.5669 32.7339H55.5239V33.2214H54.5669V32.7339Z" fill="#808082"/>
<path d="M55.3816 32.7339H56.3341V33.2214H55.3816V32.7339Z" fill="#808082"/>
<path d="M56.1946 32.7339H57.1471V33.2214H56.1946V32.7339Z" fill="#808082"/>
<path d="M57.6661 29.4248H58.1536V29.9783H57.6661V29.4248ZM58.8121 33.2153C58.4791 33.2363 58.1536 33.0998 57.9376 32.8448C57.7321 33.0968 57.4171 33.2348 57.0916 33.2153H57.0301V32.7338H57.0916C57.3976 32.7338 57.6451 32.4863 57.6451 32.1803V30.5198H58.1371V32.2133C58.1371 32.5673 58.3861 32.7668 58.7896 32.7668H58.8451V33.1988L58.8121 33.2153ZM56.8921 29.4248H57.3796V29.9783H56.8921V29.4248Z" fill="#808082"/>
<path d="M60.5325 33.1986C60.1995 33.2196 59.8755 33.0816 59.658 32.8281C59.4525 33.0801 59.1375 33.2181 58.812 33.1986H58.7295V32.7171H58.812C59.118 32.7171 59.3655 32.4696 59.3655 32.1636V29.4351H59.8575V32.2026C59.8575 32.5566 60.1065 32.7561 60.51 32.7561H60.5925V33.1986H60.5325Z" fill="#808082"/>
<path d="M60.45 33.1988V32.7173C60.7935 32.7533 61.101 32.5043 61.137 32.1608C61.1415 32.1158 61.1415 32.0708 61.137 32.0258V29.4248H61.6245V32.0918C61.65 32.7023 61.176 33.2183 60.5655 33.2438C60.528 33.2453 60.489 33.2453 60.4515 33.2423M65.7734 29.4248H66.2609V29.9783H65.7734V29.4248ZM65.0144 29.4248H65.496V29.9783H65.0144V29.4248ZM65.7795 30.9398H65.226C64.767 30.9398 64.6725 31.5368 64.6725 31.8923C64.6725 32.2463 64.8225 32.7338 65.226 32.7338H65.7795V30.9398ZM65.193 33.1988C64.7505 33.1988 64.1475 32.8673 64.1475 31.8758C64.1475 30.8843 64.551 30.4703 65.193 30.4703H66.3V32.7173H66.9585V33.1988H65.193Z" fill="#808082"/>
<path d="M66.7634 32.7339H67.7159V33.2214H66.7634V32.7339Z" fill="#808082"/>
<path d="M67.5781 32.7339H68.5306V33.2214H67.5781V32.7339Z" fill="#808082"/>
<path d="M68.3911 32.7339H69.3436V33.2214H68.3911V32.7339Z" fill="#808082"/>
<path d="M69.198 32.7339H70.155V33.2214H69.198V32.7339Z" fill="#808082"/>
<path d="M70.0125 32.7339H70.9695V33.2214H70.0125V32.7339Z" fill="#808082"/>
<path d="M72.5296 30.724C72.1366 30.724 71.9326 31.072 71.9326 31.765C71.9326 32.458 72.1366 32.7835 72.5296 32.7835C72.9226 32.7835 73.1326 32.446 73.1326 31.7815C73.1326 31.117 72.9391 30.724 72.5296 30.724ZM72.5296 33.2155C72.1876 33.229 71.8621 33.064 71.6716 32.779C71.4871 33.0595 71.1661 33.22 70.8301 33.199V32.7175C71.0626 32.71 71.2666 32.557 71.3386 32.335C71.4031 32.1175 71.4256 31.891 71.4046 31.666C71.4046 30.802 71.8366 30.277 72.5116 30.277C73.1866 30.277 73.6186 30.8305 73.6186 31.744C73.6186 32.6575 73.2091 33.199 72.5116 33.199M77.1001 33.199H77.0176C76.6876 33.22 76.3666 33.082 76.1536 32.8285C75.9721 33.07 75.6856 33.208 75.3841 33.199H74.1826V32.7175H74.6701V29.3965H75.1681V32.716H75.3676C75.7381 32.716 75.9211 32.368 75.9211 31.6705V29.4355H76.4086V32.0365C76.4161 32.143 76.4161 32.251 76.4086 32.3575C76.4806 32.6065 76.6846 32.734 77.0281 32.734H77.1106L77.1001 33.199Z" fill="#808082"/>
<path d="M76.929 32.7339H77.886V33.2214H76.929V32.7339Z" fill="#808082"/>
<path d="M77.7419 32.7339H78.6944V33.2214H77.7419V32.7339Z" fill="#808082"/>
<path d="M78.5564 32.7339H79.5134V33.2214H78.5564V32.7339Z" fill="#808082"/>
<path d="M82.7341 33.1988H79.4146V32.7173H80.3446V30.5033H80.7931V32.7173H81.7171V30.4868H82.2046V32.7338H82.7191C83.0341 32.7338 83.1345 32.6123 83.1345 32.0423V30.4868H83.622V32.2853C83.682 32.7368 83.3641 33.1508 82.9126 33.2108C82.8541 33.2183 82.7956 33.2198 82.7371 33.2153M87.7696 29.4248H88.2451V29.9783H87.7696V29.4248ZM87.0001 29.4248H87.4876V29.9783H87.0001V29.4248ZM87.7696 30.9398H87.2161C86.7616 30.9398 86.6626 31.5368 86.6626 31.8923C86.6626 32.2478 86.8126 32.7338 87.2161 32.7338H87.7696V30.9398ZM87.183 33.1988C86.7465 33.1988 86.1255 32.8673 86.1255 31.8758C86.1255 30.8858 86.535 30.4703 87.183 30.4703H88.2571V32.7173H88.9216V33.1988H87.183Z" fill="#808082"/>
<path d="M88.7549 32.7339H89.7074V33.2214H88.7549V32.7339Z" fill="#808082"/>
<path d="M89.5681 32.7339H90.5251V33.2214H89.5681V32.7339Z" fill="#808082"/>
<path d="M90.3765 32.7339H91.329V33.2214H90.3765V32.7339Z" fill="#808082"/>
<path d="M91.1956 32.7339H92.1481V33.2214H91.1956V32.7339Z" fill="#808082"/>
<path d="M92.0024 32.7339H92.9549V33.2214H92.0024V32.7339Z" fill="#808082"/>
<path d="M92.8215 32.7339H93.774V33.2214H92.8215V32.7339Z" fill="#808082"/>
<path d="M93.6299 32.7339H94.5824V33.2214H93.6299V32.7339Z" fill="#808082"/>
<path d="M94.4099 33.1987V32.7172H96.7064V31.8652C96.7064 31.4452 96.4799 31.2292 96.0314 31.2292H94.5479V30.3772C94.5434 29.8582 94.9619 29.4337 95.4809 29.4292C95.5229 29.4292 95.5634 29.4307 95.6039 29.4367H96.6059V29.9122H95.6039C95.2394 29.9122 95.0114 30.1162 95.0114 30.3877V30.7357H96.0299C96.5834 30.6772 97.0784 31.0792 97.1369 31.6327C97.1444 31.7032 97.1444 31.7737 97.1369 31.8427V33.1987H94.4099ZM99.0524 33.1987C98.8259 33.2062 98.6024 33.1462 98.4104 33.0277V33.0667C98.4719 33.6562 98.0429 34.1842 97.4534 34.2457C97.4234 34.2487 97.3934 34.2502 97.3649 34.2517V33.8092C97.5824 33.7822 97.7669 33.6337 97.8404 33.4267C97.9124 33.2107 97.9409 32.9842 97.9229 32.7577V30.4882H98.4104V32.2147C98.4104 32.5522 98.6654 32.7352 99.0524 32.7352H99.1139V33.2002H99.0524V33.1987Z" fill="#808082"/>
<path d="M98.9805 32.7339H99.9375V33.2214H98.9805V32.7339Z" fill="#808082"/>
<path d="M99.7996 32.7339H100.752V33.2214H99.7996V32.7339Z" fill="#808082"/>
<path d="M100.608 32.7339H101.565V33.2214H100.608V32.7339Z" fill="#808082"/>
<path d="M101.421 32.7339H102.378V33.2214H101.421V32.7339Z" fill="#808082"/>
<path d="M104.958 29.4354H105.446V29.9889H104.958V29.4354ZM104.586 28.6494H105.068V29.2029H104.586V28.6494ZM104.199 29.4354H104.687V29.9889H104.199V29.4354ZM105.617 33.2154H102.263V32.7339H103.197V30.5199H103.662V32.7339H104.586V30.4869H105.074V32.7339H105.588C105.899 32.7339 105.998 32.6124 105.998 32.0424V30.4869H106.485V32.2854C106.548 32.7339 106.236 33.1479 105.788 33.2094C105.728 33.2184 105.666 33.2199 105.605 33.2139M0.14405 38.5764L0.354049 38.4054C0.498049 38.7744 0.664548 38.9589 0.852048 38.9589C0.934548 38.9574 1.01405 38.9304 1.07855 38.8809C1.15055 38.8239 1.20755 38.7504 1.24505 38.6649C1.27805 38.5719 1.29455 38.4759 1.29455 38.3769C1.29755 38.2599 1.27055 38.1429 1.21655 38.0394C1.10405 37.8369 0.964548 37.6509 0.801048 37.4859C0.657048 37.3449 0.529549 37.1874 0.424549 37.0149C0.336049 36.8439 0.294049 36.6534 0.303049 36.4614C0.301549 36.3234 0.32405 36.1869 0.36905 36.0579C0.41555 35.9439 0.490548 35.8434 0.585048 35.7639C0.670548 35.6994 0.775549 35.6649 0.883549 35.6649C0.999049 35.6634 1.11005 35.7024 1.19855 35.7759C1.33205 35.9019 1.44005 36.0519 1.51955 36.2184L1.32005 36.4344C1.26305 36.3084 1.18505 36.1944 1.08755 36.0969C1.02905 36.0444 0.95555 36.0159 0.87755 36.0144C0.78155 36.0144 0.693048 36.0624 0.639048 36.1419C0.562548 36.2514 0.531049 36.3864 0.550549 36.5184C0.540049 36.5874 0.540049 36.6594 0.550549 36.7284C0.577549 36.8109 0.616549 36.8889 0.666049 36.9609L0.981048 37.3044C1.15505 37.4739 1.30055 37.6704 1.41305 37.8849C1.48955 38.0484 1.52855 38.2254 1.52855 38.4054C1.53155 38.6364 1.46105 38.8629 1.32905 39.0534C1.22405 39.2184 1.04405 39.3219 0.847548 39.3294C0.696048 39.3264 0.55055 39.2649 0.44405 39.1584C0.29255 39.0024 0.178549 38.8119 0.112549 38.6049" fill="#808082"/>
<path d="M3.99 36.9278C3.858 36.9263 3.732 36.9758 3.636 37.0658C3.5175 37.1663 3.4275 37.2953 3.3765 37.4423C3.312 37.6043 3.279 37.7768 3.282 37.9508C3.2805 38.1263 3.312 38.3018 3.3765 38.4653C3.4305 38.6108 3.519 38.7398 3.636 38.8418C3.7305 38.9303 3.855 38.9783 3.984 38.9798C4.116 38.9783 4.2435 38.9288 4.344 38.8418C4.4625 38.7473 4.554 38.6228 4.6095 38.4818C4.6695 38.3033 4.698 38.1158 4.692 37.9283C4.7025 37.6703 4.6335 37.4153 4.4925 37.1978C4.3875 37.0178 4.197 36.9053 3.9885 36.8993M4.908 36.6518V39.1913H4.6815V38.7548C4.602 38.9033 4.491 39.0323 4.3545 39.1313C4.2405 39.2123 4.1025 39.2558 3.9615 39.2528C3.6945 39.2453 3.45 39.0983 3.3195 38.8658C3.129 38.5853 3.033 38.2523 3.0435 37.9133C3.0345 37.5803 3.1305 37.2533 3.3195 36.9788C3.4545 36.7433 3.702 36.5948 3.972 36.5858C4.116 36.5858 4.2555 36.6323 4.371 36.7193C4.503 36.8288 4.608 36.9668 4.6815 37.1228V36.6518H4.908ZM6.486 35.7053H6.7125V39.2198H6.486V35.7053ZM9.153 36.9278C9.021 36.9293 8.8935 36.9788 8.793 37.0658C8.6775 37.1663 8.592 37.2968 8.544 37.4423C8.4765 37.6043 8.4435 37.7768 8.445 37.9508C8.445 38.1278 8.478 38.3018 8.544 38.4653C8.598 38.6093 8.685 38.7383 8.799 38.8418C8.8965 38.9288 9.0225 38.9768 9.153 38.9798C9.2835 38.9768 9.4095 38.9273 9.507 38.8418C9.6225 38.7458 9.7125 38.6228 9.7665 38.4818C9.831 38.3048 9.8625 38.1173 9.861 37.9283C9.87 37.6688 9.7995 37.4138 9.657 37.1978C9.552 37.0178 9.3615 36.9053 9.153 36.8993M10.071 36.6518V39.1913H9.8445V38.7548C9.765 38.9033 9.654 39.0323 9.5175 39.1313C9.4035 39.2123 9.2655 39.2558 9.1245 39.2528C8.856 39.2438 8.6115 39.0968 8.4765 38.8658C8.2905 38.5838 8.1975 38.2508 8.211 37.9133C8.1975 37.5818 8.2905 37.2533 8.4765 36.9788C8.613 36.7448 8.859 36.5963 9.129 36.5858C9.273 36.5843 9.414 36.6308 9.528 36.7193C9.663 36.8273 9.771 36.9653 9.843 37.1228V36.6518H10.071ZM11.682 36.6788H11.9085V37.1153C11.9715 36.9848 12.0555 36.8648 12.1575 36.7613C12.2565 36.6683 12.387 36.6158 12.522 36.6113C12.612 36.6143 12.7005 36.6413 12.777 36.6893C12.8535 36.7343 12.9165 36.7988 12.96 36.8768C13.02 36.9833 13.062 37.1003 13.0875 37.2203C13.149 37.0493 13.2465 36.8948 13.3755 36.7658C13.476 36.6683 13.611 36.6128 13.752 36.6113C13.872 36.6128 13.9875 36.6593 14.073 36.7448C14.175 36.8468 14.247 36.9758 14.283 37.1153C14.337 37.3493 14.3595 37.5893 14.349 37.8293V39.2183H14.1165V37.8293C14.121 37.6433 14.1075 37.4588 14.0775 37.2758C14.049 37.1843 14.0025 37.0988 13.9395 37.0268C13.875 36.9668 13.7895 36.9338 13.701 36.9323C13.5825 36.9368 13.47 36.9878 13.3905 37.0763C13.2945 37.1813 13.2255 37.3088 13.191 37.4468C13.143 37.7033 13.122 37.9658 13.1295 38.2268V39.2228H12.891V37.9223C12.8985 37.7138 12.8865 37.5038 12.852 37.2968C12.834 37.1978 12.7845 37.1078 12.714 37.0373C12.6525 36.9713 12.567 36.9323 12.4755 36.9323C12.36 36.9368 12.2505 36.9863 12.171 37.0703C12.078 37.1783 12.0075 37.3043 11.967 37.4408C11.9175 37.6733 11.895 37.9118 11.901 38.1488V39.2228H11.6745L11.682 36.6788ZM16.794 36.9278C16.6635 36.9308 16.5375 36.9803 16.44 37.0658C16.3215 37.1648 16.233 37.2953 16.185 37.4423C16.116 37.6028 16.0815 37.7768 16.086 37.9508C16.083 38.1278 16.1175 38.3033 16.185 38.4653C16.236 38.6108 16.3245 38.7398 16.44 38.8418C16.6395 39.0278 16.9485 39.0278 17.148 38.8418C17.265 38.7473 17.355 38.6228 17.4075 38.4818C17.475 38.3048 17.5065 38.1173 17.502 37.9283C17.508 37.6703 17.4375 37.4153 17.298 37.1978C17.193 37.0178 17.0025 36.9053 16.794 36.8993M17.7075 36.6518V39.1913H17.4855V38.7548C17.4045 38.9003 17.2965 39.0293 17.1645 39.1313C17.049 39.2108 16.9125 39.2528 16.7715 39.2528C16.5015 39.2468 16.254 39.0998 16.119 38.8658C15.936 38.5823 15.843 38.2508 15.8535 37.9133C15.8415 37.5803 15.9375 37.2533 16.125 36.9788C16.257 36.7448 16.503 36.5948 16.773 36.5858C16.917 36.5843 17.058 36.6308 17.172 36.7193C17.307 36.8273 17.415 36.9653 17.487 37.1228V36.6518H17.7075ZM23.64 36.4193L23.4525 36.6293C23.3625 36.4538 23.232 36.3038 23.07 36.1928C22.929 36.0893 22.758 36.0353 22.5825 36.0383C22.38 36.0338 22.1835 36.1028 22.029 36.2318C21.855 36.3803 21.723 36.5708 21.6465 36.7853C21.5505 37.0238 21.504 37.2803 21.5085 37.5383C21.4965 37.9103 21.603 38.2763 21.813 38.5838C21.981 38.8448 22.272 39.0008 22.5825 38.9993C22.9455 38.9843 23.271 38.7728 23.4285 38.4458L23.616 38.6498C23.5095 38.8538 23.3535 39.0263 23.1615 39.1538C22.9845 39.2738 22.773 39.3368 22.5585 39.3308C22.146 39.3293 21.768 39.0998 21.579 38.7338C21.369 38.3603 21.264 37.9388 21.2745 37.5113C21.2595 37.0598 21.3915 36.6143 21.651 36.2438C21.9795 35.7293 22.665 35.5778 23.1795 35.9078C23.184 35.9108 23.19 35.9138 23.1945 35.9183C23.385 36.0638 23.538 36.2528 23.637 36.4718M26.0085 36.9278C25.8045 36.9368 25.6185 37.0523 25.521 37.2323C25.3755 37.4468 25.302 37.7033 25.311 37.9628C25.311 38.1383 25.3425 38.3138 25.4055 38.4773C25.4565 38.6183 25.542 38.7443 25.6545 38.8418C25.86 39.0128 26.157 39.0128 26.3625 38.8418C26.4765 38.7443 26.562 38.6183 26.6115 38.4773C26.679 38.3138 26.712 38.1398 26.7105 37.9628C26.7165 37.7048 26.6445 37.4498 26.5065 37.2323C26.4015 37.0538 26.2155 36.9383 26.0085 36.9278ZM26.0085 36.6128C26.2965 36.6203 26.559 36.7838 26.694 37.0388C27.033 37.6088 27.033 38.3183 26.694 38.8868C26.553 39.1328 26.292 39.2843 26.0085 39.2858C25.731 39.2813 25.4745 39.1313 25.3335 38.8928C25.1625 38.6138 25.074 38.2913 25.0785 37.9628C25.08 37.6463 25.173 37.3373 25.344 37.0718C25.4745 36.8138 25.7355 36.6488 26.025 36.6398M29.328 36.9278C29.124 36.9368 28.9395 37.0523 28.8405 37.2323C28.6965 37.4483 28.6245 37.7033 28.6365 37.9628C28.635 38.1383 28.665 38.3123 28.725 38.4773C28.7805 38.6153 28.8645 38.7413 28.974 38.8418C29.073 38.9243 29.199 38.9693 29.328 38.9693C29.4555 38.9723 29.58 38.9258 29.676 38.8418C29.793 38.7458 29.8815 38.6198 29.931 38.4773C29.9985 38.3138 30.0315 38.1398 30.03 37.9628C30.036 37.7033 29.9625 37.4483 29.82 37.2323C29.7195 37.0523 29.5335 36.9383 29.328 36.9278ZM29.328 36.6128C29.616 36.6188 29.877 36.7823 30.009 37.0388C30.183 37.3133 30.273 37.6328 30.264 37.9568C30.2715 38.2853 30.1815 38.6093 30.0045 38.8868C29.865 39.1283 29.6085 39.2798 29.3295 39.2858C29.052 39.2828 28.797 39.1328 28.6605 38.8928C28.32 38.3258 28.32 37.6178 28.6605 37.0508C28.7925 36.7943 29.0535 36.6293 29.3415 36.6188M32.6985 36.9278C32.49 36.9338 32.2995 37.0463 32.1945 37.2263C32.0565 37.4438 31.9875 37.6988 31.995 37.9568C31.9875 38.1458 32.0175 38.3333 32.0835 38.5103C32.1375 38.6498 32.2275 38.7743 32.343 38.8703C32.442 38.9573 32.5695 39.0068 32.703 39.0083C32.832 39.0038 32.955 38.9558 33.051 38.8703C33.168 38.7698 33.2565 38.6393 33.306 38.4938C33.375 38.3303 33.408 38.1563 33.405 37.9793C33.408 37.8053 33.3765 37.6313 33.3105 37.4708C33.258 37.3253 33.1695 37.1948 33.051 37.0943C32.955 37.0058 32.8275 36.9563 32.697 36.9563M31.785 36.7058H32.0115V37.1768C32.082 37.0193 32.1885 36.8813 32.322 36.7733C32.436 36.6863 32.577 36.6383 32.721 36.6398C32.991 36.6488 33.2355 36.7973 33.369 37.0328C33.558 37.3073 33.6555 37.6343 33.645 37.9673C33.654 38.3048 33.5595 38.6363 33.3735 38.9198C33.24 39.1523 32.994 39.2993 32.7255 39.3068C32.5845 39.3098 32.4465 39.2663 32.3325 39.1853C32.2005 39.0848 32.091 38.9558 32.0115 38.8088V40.1753H31.785V36.7058ZM36.672 37.6913C36.651 37.5473 36.606 37.4063 36.5385 37.2758C36.483 37.1738 36.402 37.0868 36.306 37.0208C36.0555 36.8558 35.7195 36.9188 35.5485 37.1648C35.4375 37.3313 35.3655 37.5203 35.3385 37.7183L36.672 37.6913ZM36.672 38.3783L36.8595 38.5223C36.8115 38.6738 36.7395 38.8178 36.6495 38.9483C36.573 39.0518 36.4755 39.1373 36.3615 39.1973C36.255 39.2558 36.135 39.2843 36.0135 39.2798C35.727 39.2843 35.4615 39.1283 35.328 38.8763C35.163 38.5988 35.0775 38.2808 35.079 37.9583C35.0745 37.6568 35.1465 37.3598 35.289 37.0943C35.4105 36.8108 35.688 36.6233 35.997 36.6188C36.315 36.6263 36.5985 36.8153 36.7275 37.1063C36.864 37.3748 36.9315 37.6733 36.921 37.9748H35.316C35.31 38.2313 35.3805 38.4833 35.5155 38.6993C35.613 38.8718 35.793 38.9798 35.991 38.9813C36.0825 38.9843 36.1725 38.9618 36.2505 38.9153C36.339 38.8733 36.4155 38.8133 36.477 38.7383C36.558 38.6258 36.6225 38.5058 36.672 38.3783ZM38.3655 36.6788H38.598V37.0718C38.6505 36.9503 38.7255 36.8393 38.82 36.7448C38.883 36.6773 38.9715 36.6383 39.063 36.6338C39.138 36.6368 39.21 36.6683 39.2625 36.7223L39.147 36.9938C39.1095 36.9713 39.069 36.9563 39.0255 36.9488C38.934 36.9593 38.85 37.0103 38.799 37.0868C38.7195 37.2128 38.664 37.3538 38.6385 37.5023C38.604 37.7948 38.5905 38.0888 38.5995 38.3828V39.2408H38.367V36.6788H38.3655ZM41.4135 36.9278C41.283 36.9308 41.157 36.9803 41.0595 37.0658C40.9425 37.1663 40.8555 37.2968 40.8045 37.4423C40.74 37.6043 40.707 37.7768 40.71 37.9508C40.71 38.1263 40.743 38.3003 40.8045 38.4653C40.8555 38.6108 40.944 38.7398 41.0595 38.8418C41.265 39.0158 41.5665 39.0158 41.7735 38.8418C41.889 38.7458 41.979 38.6228 42.033 38.4818C42.099 38.3048 42.129 38.1173 42.1215 37.9283C42.1305 37.6688 42.06 37.4138 41.9175 37.1978C41.8125 37.0178 41.622 36.9053 41.4135 36.8993M42.3375 36.6518V39.1913H42.111V38.7548C42.03 38.9018 41.919 39.0308 41.784 39.1313C41.6685 39.2123 41.532 39.2543 41.391 39.2528C41.1225 39.2453 40.8765 39.0983 40.743 38.8658C40.5555 38.5853 40.4595 38.2523 40.4715 37.9133C40.4595 37.5803 40.5555 37.2533 40.743 36.9788C40.8795 36.7418 41.1285 36.5933 41.4015 36.5858C41.544 36.5873 41.6805 36.6338 41.7945 36.7193C41.9295 36.8273 42.0375 36.9653 42.1095 37.1228V36.6518H42.3375ZM44.148 35.7383H44.3805V36.6788H44.745V36.9608H44.3805V39.2183H44.148V36.9608H43.8375V36.6788H44.148V35.7383ZM46.1505 36.6788H46.377V39.2183H46.1505V36.6788ZM46.2675 35.6333C46.323 35.6363 46.3725 35.6678 46.401 35.7158C46.437 35.7713 46.4535 35.8373 46.4505 35.9033C46.452 35.9693 46.4355 36.0353 46.401 36.0908C46.359 36.1658 46.266 36.1928 46.191 36.1508C46.1655 36.1373 46.1445 36.1163 46.131 36.0908C46.0965 36.0338 46.08 35.9693 46.0815 35.9033C46.0785 35.8373 46.0965 35.7713 46.131 35.7158C46.158 35.6663 46.209 35.6348 46.2675 35.6333ZM47.784 36.6788H48.027L48.63 38.5268L49.2225 36.6788H49.4655L48.6465 39.2183H48.6075L47.784 36.6788ZM52.4145 37.6913C52.3935 37.5473 52.3485 37.4063 52.281 37.2758C52.2285 37.1708 52.1475 37.0838 52.0485 37.0208C51.798 36.8558 51.462 36.9188 51.291 37.1648C51.1815 37.3313 51.1095 37.5203 51.081 37.7183L52.4145 37.6913ZM52.4145 38.3783L52.608 38.5223C52.557 38.6738 52.485 38.8178 52.392 38.9483C52.317 39.0503 52.2195 39.1343 52.11 39.1973C51.999 39.2558 51.876 39.2858 51.75 39.2798C51.4665 39.2813 51.204 39.1253 51.069 38.8763C50.9055 38.5973 50.8215 38.2808 50.826 37.9583C50.8185 37.6568 50.8905 37.3598 51.036 37.0943C51.1575 36.8123 51.432 36.6263 51.7395 36.6188C52.0575 36.6263 52.341 36.8153 52.47 37.1063C52.6095 37.3748 52.677 37.6733 52.6695 37.9748H51.0585C51.0525 38.2313 51.123 38.4848 51.2625 38.6993C51.3585 38.8703 51.537 38.9768 51.7335 38.9813C51.8265 38.9843 51.918 38.9618 51.999 38.9153C52.0845 38.8718 52.1595 38.8118 52.221 38.7383C52.3005 38.6258 52.3665 38.5058 52.4145 38.3783ZM56.2275 35.7878H56.466V39.2183H56.2275V35.7878ZM58.104 36.6788H58.3365V37.1333C58.407 36.9818 58.5105 36.8498 58.641 36.7463C58.743 36.6593 58.872 36.6128 59.0055 36.6128C59.136 36.6113 59.262 36.6638 59.3535 36.7568C59.466 36.8648 59.5485 36.9998 59.592 37.1498C59.6505 37.3988 59.6745 37.6538 59.664 37.9073V39.2183H59.4315V38.0063C59.448 37.8113 59.448 37.6148 59.4315 37.4198C59.3955 37.2833 59.319 37.1618 59.2095 37.0718C59.136 36.9848 59.025 36.9383 58.911 36.9443C58.764 36.9503 58.629 37.0208 58.5405 37.1378C58.4265 37.2788 58.35 37.4468 58.3185 37.6253C58.302 37.8563 58.302 38.0873 58.3185 38.3168V39.2468H58.1025V36.6788H58.104ZM62.121 36.9548L61.971 37.1768C61.8495 36.9998 61.7325 36.9173 61.617 36.9173C61.539 36.9188 61.467 36.9578 61.4235 37.0223C61.368 37.0943 61.3395 37.1813 61.341 37.2713C61.3395 37.3538 61.362 37.4348 61.407 37.5038C61.479 37.6103 61.5735 37.7018 61.683 37.7693C61.8255 37.8653 61.944 37.9928 62.031 38.1398C62.169 38.4383 62.1435 38.7878 61.965 39.0638C61.884 39.1973 61.7385 39.2783 61.5825 39.2798C61.476 39.2798 61.371 39.2468 61.284 39.1853C61.1865 39.1193 61.1055 39.0293 61.0515 38.9258L61.1955 38.6873C61.317 38.8808 61.4445 38.9693 61.572 38.9693C61.665 38.9693 61.752 38.9243 61.8045 38.8478C61.8705 38.7623 61.9065 38.6573 61.9035 38.5493C61.905 38.4623 61.8825 38.3753 61.8375 38.3003C61.758 38.1938 61.6605 38.1023 61.5495 38.0288C61.4145 37.9403 61.302 37.8218 61.2225 37.6808C61.1595 37.5593 61.1265 37.4243 61.128 37.2878C61.1205 37.1168 61.17 36.9488 61.272 36.8123C61.3455 36.6893 61.4775 36.6143 61.62 36.6128C61.8345 36.6413 62.019 36.7688 62.121 36.9548ZM63.5925 36.6788H63.825V37.8623C63.816 38.0633 63.828 38.2658 63.858 38.4653C63.8805 38.6018 63.9465 38.7293 64.0455 38.8253C64.131 38.9183 64.251 38.9693 64.377 38.9693C64.4985 38.9693 64.6155 38.9213 64.704 38.8358C64.794 38.7368 64.8585 38.6168 64.8915 38.4878C64.917 38.2808 64.929 38.0708 64.9245 37.8623V36.6788H65.157V37.9238C65.1675 38.1908 65.139 38.4578 65.0685 38.7158C65.0235 38.8748 64.9365 39.0188 64.8135 39.1313C64.692 39.2348 64.536 39.2873 64.377 39.2813C64.218 39.2888 64.0605 39.2363 63.9405 39.1313C63.816 39.0188 63.726 38.8733 63.681 38.7113C63.6105 38.4473 63.5805 38.1758 63.5925 37.9028V36.6788ZM66.675 36.6788H66.9135V37.0718C66.966 36.9503 67.041 36.8393 67.1355 36.7448C67.197 36.6788 67.2825 36.6383 67.374 36.6338C67.452 36.6368 67.527 36.6683 67.584 36.7223L67.4565 36.9938C67.4205 36.9713 67.3815 36.9563 67.341 36.9488C67.2495 36.9593 67.1685 37.0103 67.119 37.0868C67.032 37.2098 66.9765 37.3523 66.9585 37.5023C66.921 37.7933 66.906 38.0888 66.9135 38.3828V39.2408H66.675V36.6788ZM69.7245 36.9278C69.5925 36.9293 69.465 36.9788 69.3645 37.0658C69.249 37.1678 69.162 37.2968 69.1095 37.4423C69.045 37.6043 69.012 37.7768 69.0105 37.9508C69.0135 38.1263 69.0465 38.3018 69.1095 38.4653C69.165 38.6093 69.2535 38.7383 69.369 38.8418C69.465 38.9273 69.5895 38.9753 69.717 38.9798C69.849 38.9783 69.9765 38.9288 70.077 38.8418C70.1925 38.7458 70.2825 38.6228 70.3365 38.4818C70.404 38.3048 70.4355 38.1173 70.431 37.9283C70.4385 37.6688 70.365 37.4138 70.221 37.1978C70.119 37.0178 69.93 36.9038 69.723 36.8993M70.6425 36.6518V39.1913H70.41V38.7548C70.3335 38.9033 70.2225 39.0308 70.089 39.1313C69.975 39.2123 69.837 39.2558 69.696 39.2528C69.4275 39.2453 69.1815 39.0983 69.048 38.8658C68.8605 38.5853 68.7645 38.2523 68.7765 37.9133C68.7645 37.5803 68.8605 37.2533 69.048 36.9788C69.1845 36.7448 69.4305 36.5978 69.7005 36.5858C69.8445 36.5843 69.9855 36.6308 70.0995 36.7193C70.2345 36.8258 70.341 36.9653 70.41 37.1228V36.6518H70.6425ZM72.264 36.6788H72.4905V37.1333C72.564 36.9848 72.6675 36.8528 72.795 36.7463C72.9 36.6608 73.0305 36.6143 73.1655 36.6128C73.2975 36.6128 73.425 36.6653 73.5195 36.7568C73.629 36.8648 73.707 37.0013 73.746 37.1498C73.806 37.3973 73.833 37.6523 73.824 37.9073V39.2183H73.5975V38.0063C73.605 37.8098 73.596 37.6148 73.5705 37.4198C73.5585 37.2818 73.5045 37.1498 73.416 37.0433C73.347 36.9563 73.239 36.9098 73.128 36.9158C72.9795 36.9188 72.84 36.9908 72.7515 37.1093C72.6375 37.2503 72.561 37.4183 72.5295 37.5968C72.504 37.8263 72.4935 38.0573 72.4965 38.2883V39.2183H72.27L72.264 36.6788ZM77.145 37.2038L76.962 37.3703C76.8555 37.1048 76.6005 36.9278 76.314 36.9218C76.092 36.9173 75.882 37.0283 75.7605 37.2158C75.6105 37.4288 75.534 37.6853 75.5445 37.9463C75.5445 38.1248 75.5775 38.3018 75.6435 38.4668C75.6945 38.6153 75.789 38.7473 75.915 38.8433C76.0245 38.9348 76.164 38.9843 76.308 38.9813C76.5885 38.9678 76.8375 38.7938 76.944 38.5328L77.127 38.7098C77.052 38.8793 76.9305 39.0248 76.779 39.1298C76.638 39.2318 76.467 39.2843 76.2915 39.2798C76.008 39.2813 75.744 39.1403 75.588 38.9033C75.396 38.6303 75.297 38.3018 75.306 37.9688C75.3045 37.7363 75.348 37.5053 75.4335 37.2878C75.5145 37.0958 75.639 36.9248 75.798 36.7898C75.9435 36.6758 76.122 36.6128 76.3065 36.6128C76.4265 36.6128 76.5435 36.6413 76.65 36.6953C76.7565 36.7403 76.8525 36.8063 76.932 36.8888C77.0115 36.9848 77.076 37.0913 77.1255 37.2038M80.1885 37.6913C80.166 37.5458 80.118 37.4063 80.0505 37.2758C79.998 37.1708 79.917 37.0838 79.818 37.0208C79.728 36.9608 79.6215 36.9278 79.5135 36.9263C79.335 36.9278 79.167 37.0178 79.065 37.1648C78.948 37.3283 78.876 37.5188 78.855 37.7183L80.1885 37.6913ZM80.1885 38.3783L80.382 38.5223C80.3295 38.6753 80.256 38.8178 80.16 38.9483C80.085 39.0518 79.989 39.1358 79.878 39.1973C79.77 39.2558 79.647 39.2843 79.524 39.2798C79.239 39.2828 78.978 39.1268 78.843 38.8763C78.6765 38.5988 78.5895 38.2808 78.594 37.9583C78.591 37.6583 78.66 37.3613 78.798 37.0943C78.9225 36.8108 79.2015 36.6248 79.512 36.6188C79.827 36.6263 80.1105 36.8168 80.2365 37.1063C80.3775 37.3733 80.4465 37.6733 80.436 37.9748H78.831C78.8235 38.2298 78.891 38.4818 79.0245 38.6993C79.122 38.8718 79.302 38.9798 79.5 38.9813C79.593 38.9843 79.6845 38.9618 79.7655 38.9153C79.851 38.8718 79.926 38.8118 79.9875 38.7383C80.0685 38.6258 80.136 38.5043 80.1885 38.3783ZM86.2815 36.4193L86.082 36.6293C85.9995 36.4538 85.8705 36.3023 85.7115 36.1928C85.569 36.0908 85.3995 36.0368 85.224 36.0383C85.0215 36.0338 84.825 36.1028 84.6705 36.2318C84.495 36.3773 84.363 36.5693 84.288 36.7853C84.192 37.0238 84.1455 37.2803 84.15 37.5383C84.1365 37.9103 84.2415 38.2763 84.4485 38.5838C84.6165 38.8433 84.903 38.9993 85.212 38.9993C85.575 38.9873 85.902 38.7743 86.058 38.4458L86.2575 38.6498C86.1495 38.8538 85.992 39.0278 85.7985 39.1538C85.623 39.2543 85.4205 39.3008 85.218 39.2873C84.7995 39.2918 84.414 39.0608 84.222 38.6903C84.003 38.3213 83.8935 37.8968 83.907 37.4678C83.892 37.0163 84.024 36.5708 84.2835 36.2003C84.4875 35.8823 84.84 35.6903 85.218 35.6918C85.4325 35.6888 85.644 35.7533 85.821 35.8748C86.016 36.0188 86.1705 36.2093 86.2755 36.4283M88.6665 36.9278C88.461 36.9383 88.275 37.0523 88.1745 37.2323C88.0335 37.4483 87.9615 37.7033 87.9705 37.9628C87.9675 38.1383 87.999 38.3138 88.065 38.4773C88.116 38.6183 88.2015 38.7443 88.314 38.8418C88.413 38.9243 88.539 38.9693 88.668 38.9693C88.7955 38.9723 88.92 38.9258 89.016 38.8418C89.13 38.7428 89.217 38.6183 89.271 38.4773C89.3355 38.3138 89.3685 38.1383 89.37 37.9628C89.376 37.7033 89.3025 37.4483 89.16 37.2323C89.0565 37.0538 88.872 36.9383 88.6665 36.9278ZM88.6665 36.6128C88.9545 36.6218 89.217 36.7838 89.352 37.0388C89.5185 37.3163 89.6025 37.6343 89.595 37.9568C89.6025 38.2853 89.5125 38.6093 89.3355 38.8868C89.127 39.2573 88.6575 39.3863 88.287 39.1778C88.1655 39.1088 88.065 39.0083 87.996 38.8868C87.8175 38.6108 87.7245 38.2868 87.7305 37.9568C87.7335 37.6448 87.822 37.3373 87.9855 37.0718C88.1205 36.8138 88.386 36.6488 88.677 36.6398M91.1175 36.6788H91.3395V37.1153C91.4025 36.9848 91.4865 36.8648 91.5885 36.7613C91.689 36.6668 91.821 36.6143 91.959 36.6113C92.0475 36.6128 92.1345 36.6398 92.208 36.6893C92.2845 36.7358 92.349 36.8003 92.3955 36.8768C92.4555 36.9833 92.4975 37.1003 92.523 37.2203C92.583 37.0493 92.6805 36.8933 92.811 36.7658C92.9115 36.6698 93.0435 36.6143 93.1815 36.6113C93.303 36.6113 93.4215 36.6593 93.5085 36.7448C93.6105 36.8468 93.6825 36.9758 93.7185 37.1153C93.7725 37.3493 93.7965 37.5893 93.7905 37.8293V39.2183H93.552V37.8293C93.561 37.6433 93.546 37.4573 93.507 37.2758C93.4845 37.1828 93.4395 37.0973 93.3735 37.0268C93.306 36.9668 93.2205 36.9323 93.1305 36.9323C93.0135 36.9368 92.904 36.9878 92.826 37.0763C92.727 37.1798 92.6595 37.3073 92.6265 37.4468C92.5695 37.7033 92.5455 37.9643 92.5545 38.2268V39.2228H92.3325V37.9223C92.34 37.7123 92.325 37.5038 92.2875 37.2968C92.271 37.1978 92.223 37.1063 92.1495 37.0373C92.0895 36.9728 92.0055 36.9338 91.917 36.9323C91.8015 36.9368 91.692 36.9863 91.6125 37.0703C91.518 37.1768 91.4475 37.3043 91.4085 37.4408C91.353 37.6733 91.329 37.9103 91.3365 38.1488V39.2228H91.1145L91.1175 36.6788ZM96.2865 36.9278C96.0795 36.9323 95.8905 37.0463 95.7885 37.2263C95.6415 37.4408 95.568 37.6973 95.5785 37.9568C95.574 38.1458 95.604 38.3333 95.667 38.5103C95.721 38.6513 95.8125 38.7758 95.9325 38.8703C96.0315 38.9573 96.159 39.0068 96.2925 39.0083C96.4215 39.0038 96.5445 38.9558 96.6405 38.8703C96.756 38.7683 96.843 38.6393 96.8955 38.4938C96.96 38.3303 96.9915 38.1548 96.99 37.9793C96.993 37.8053 96.9615 37.6313 96.8955 37.4708C96.846 37.3253 96.7575 37.1948 96.6405 37.0943C96.543 37.0073 96.417 36.9593 96.2865 36.9563M95.3625 36.7058H95.601V37.1768C95.67 37.0208 95.7735 36.8828 95.9055 36.7733C96.021 36.6878 96.1605 36.6398 96.3045 36.6398C96.5745 36.6503 96.822 36.7988 96.957 37.0328C97.1445 37.3073 97.239 37.6358 97.2285 37.9673C97.239 38.3048 97.146 38.6363 96.963 38.9198C96.8265 39.1523 96.5805 39.2993 96.3105 39.3068C96.1695 39.3083 96.033 39.2648 95.9175 39.1853C95.7855 39.0848 95.6775 38.9558 95.6025 38.8088V40.1753H95.364V36.7058H95.3625ZM99.606 36.9278C99.474 36.9278 99.348 36.9773 99.252 37.0658C99.1335 37.1663 99.0435 37.2953 98.9925 37.4423C98.928 37.6043 98.895 37.7768 98.898 37.9508C98.898 38.1263 98.931 38.3003 98.9925 38.4653C99.048 38.6108 99.1395 38.7413 99.258 38.8418C99.3525 38.9303 99.477 38.9783 99.606 38.9798C99.7365 38.9768 99.8625 38.9273 99.96 38.8418C100.079 38.7473 100.17 38.6228 100.225 38.4818C100.288 38.3048 100.319 38.1173 100.314 37.9283C100.32 37.6703 100.25 37.4153 100.11 37.1978C100.005 37.0178 99.8145 36.9053 99.606 36.8993M100.525 36.6518V39.1913H100.299V38.7548C100.218 38.9003 100.11 39.0293 99.978 39.1313C99.8625 39.2108 99.726 39.2528 99.585 39.2528C99.315 39.2438 99.069 39.0983 98.9325 38.8658C98.7495 38.5823 98.6565 38.2508 98.667 37.9133C98.655 37.5803 98.751 37.2533 98.9385 36.9788C99.075 36.7448 99.321 36.5963 99.591 36.5858C99.735 36.5858 99.8745 36.6323 99.99 36.7193C100.125 36.8258 100.231 36.9653 100.3 37.1228V36.6518H100.525ZM102.145 36.6788H102.372V37.1333C102.441 36.9833 102.543 36.8513 102.67 36.7463C102.774 36.6608 102.903 36.6143 103.035 36.6128C103.167 36.6113 103.295 36.6638 103.389 36.7568C103.5 36.8648 103.581 36.9998 103.621 37.1498C103.68 37.3988 103.704 37.6538 103.693 37.9073V39.2183H103.477V38.0063C103.492 37.8113 103.492 37.6148 103.477 37.4198C103.461 37.2833 103.407 37.1528 103.323 37.0433C103.25 36.9578 103.141 36.9113 103.029 36.9158C102.881 36.9203 102.743 36.9908 102.652 37.1093C102.538 37.2488 102.463 37.4168 102.436 37.5968C102.42 37.8278 102.42 38.0588 102.436 38.2883V39.2183H102.198L102.145 36.6788ZM105.107 36.6788H105.35L105.959 38.6318L106.555 36.6788H106.8L105.738 40.1483H105.495L105.839 39.0248L105.107 36.6788Z" fill="#808082"/>
</svg>
